<svg width="60" height="60" viewBox="0 0 60 60" fill="none" xmlns="http://www.w3.org/2000/svg">
<rect width="60" height="60" rx="30" fill="white"/>
<path d="M39.6696 30.7798C39.8795 30.5789 40 30.2976 40 30.003C40 29.7084 39.8795 29.4316 39.6696 29.2262L31.8125 21.7262C31.3839 21.3155 30.7054 21.3334 30.2991 21.7619C29.8929 22.1905 29.9062 22.8691 30.3348 23.2753L36.2545 28.9316L21.0714 28.9316C20.4777 28.9316 20 29.4093 20 30.003C20 30.5968 20.4777 31.0744 21.0714 31.0744L36.2545 31.0744L30.3304 36.7262C29.9018 37.1369 29.8884 37.811 30.2946 38.2396C30.7009 38.6682 31.3795 38.6816 31.808 38.2753L39.6652 30.7753L39.6696 30.7798Z" fill="#0261AE"/>
</svg>
