<svg width="44" height="44" viewBox="0 0 44 44" fill="none" xmlns="http://www.w3.org/2000/svg">
<mask id="mask0_248_807" style="mask-type:luminance" maskUnits="userSpaceOnUse" x="0" y="11" width="44" height="33">
<path d="M0.809082 11.8433H44V43.5642H0.809082V11.8433Z" fill="white"/>
</mask>
<g mask="url(#mask0_248_807)">
<path d="M0.809082 11.8984V40.9251C0.809082 42.3821 1.98814 43.5638 3.44258 43.5638H41.3665C42.8209 43.5638 44 42.3821 44 40.9251V11.8984H0.809082Z" fill="#CCCCCC"/>
</g>
<mask id="mask1_248_807" style="mask-type:luminance" maskUnits="userSpaceOnUse" x="0" y="2" width="44" height="10">
<path d="M0.809082 2.23035H44V11.1664H0.809082V2.23035Z" fill="white"/>
</mask>
<g mask="url(#mask1_248_807)">
<path d="M38.733 8.73251C37.5694 8.73251 36.6257 7.78745 36.6257 6.62131C36.6257 5.45518 37.5694 4.51012 38.733 4.51012C39.8965 4.51012 40.8403 5.45518 40.8403 6.62131C40.8403 7.78745 39.8965 8.73251 38.733 8.73251ZM21.8783 8.73251C20.7148 8.73251 19.771 7.78745 19.771 6.62131C19.771 5.45518 20.7148 4.51012 21.8783 4.51012C23.0419 4.51012 23.9844 5.45518 23.9844 6.62131C23.9844 7.78745 23.0419 8.73251 21.8783 8.73251ZM6.07608 8.73251C4.91253 8.73251 3.97005 7.78745 3.97005 6.62131C3.97005 5.45518 4.91253 4.51012 6.07608 4.51012C7.23962 4.51012 8.18339 5.45518 8.18339 6.62131C8.18339 7.78745 7.23962 8.73251 6.07608 8.73251ZM41.3665 2.39893H3.44258C1.98814 2.39893 0.809082 3.58057 0.809082 5.03759V10.8437H44V5.03759C44 3.58057 42.8209 2.39893 41.3665 2.39893Z" fill="#FF4560"/>
</g>
<mask id="mask2_248_807" style="mask-type:luminance" maskUnits="userSpaceOnUse" x="0" y="10" width="44" height="33">
<path d="M0.809082 10.8359H44V42.6086H0.809082V10.8359Z" fill="white"/>
</mask>
<g mask="url(#mask2_248_807)">
<path d="M0.809082 10.8434V39.87C0.809082 41.327 1.98814 42.5087 3.44258 42.5087H41.3665C42.8209 42.5087 44 41.327 44 39.87V10.8434H0.809082Z" fill="#F2F1F6"/>
</g>
<path d="M6.07606 8.73261C4.91251 8.73261 3.97004 7.78755 3.97004 6.62142C3.97004 5.45528 4.91251 4.51022 6.07606 4.51022C7.23961 4.51022 8.18338 5.45528 8.18338 6.62142C8.18338 7.78755 7.23961 8.73261 6.07606 8.73261ZM6.07606 3.45398C4.33074 3.45398 2.91638 4.87222 2.91638 6.62142C2.91638 8.37062 4.33074 9.78756 6.07606 9.78756C7.82138 9.78756 9.23703 8.37062 9.23703 6.62142C9.23703 4.87222 7.82138 3.45398 6.07606 3.45398Z" fill="#C63226"/>
<path d="M21.8784 8.73261C20.7148 8.73261 19.7711 7.78755 19.7711 6.62142C19.7711 5.45528 20.7148 4.51022 21.8784 4.51022C23.0419 4.51022 23.9844 5.45528 23.9844 6.62142C23.9844 7.78755 23.0419 8.73261 21.8784 8.73261ZM21.8784 3.45398C20.1331 3.45398 18.7174 4.87222 18.7174 6.62142C18.7174 8.37062 20.1331 9.78756 21.8784 9.78756C23.6237 9.78756 25.0381 8.37062 25.0381 6.62142C25.0381 4.87222 23.6237 3.45398 21.8784 3.45398Z" fill="#C63226"/>
<path d="M38.733 8.73261C37.5695 8.73261 36.6257 7.78755 36.6257 6.62142C36.6257 5.45528 37.5695 4.51022 38.733 4.51022C39.8966 4.51022 40.8404 5.45528 40.8404 6.62142C40.8404 7.78755 39.8966 8.73261 38.733 8.73261ZM38.733 3.45398C36.9877 3.45398 35.5734 4.87222 35.5734 6.62142C35.5734 8.37062 36.9877 9.78756 38.733 9.78756C40.4784 9.78756 41.894 8.37062 41.894 6.62142C41.894 4.87222 40.4784 3.45398 38.733 3.45398Z" fill="#C63226"/>
<mask id="mask3_248_807" style="mask-type:luminance" maskUnits="userSpaceOnUse" x="4" y="0" width="3" height="9">
<path d="M4.31531 0.142822H6.3011V8.18811H4.31531V0.142822Z" fill="white"/>
</mask>
<g mask="url(#mask3_248_807)">
<path d="M4.45496 1.77707V6.56184C4.45496 7.45648 5.17894 8.18046 6.07099 8.18046V0.158447C5.17894 0.158447 4.45496 0.883726 4.45496 1.77707Z" fill="#E6E6E6"/>
</g>
<mask id="mask4_248_807" style="mask-type:luminance" maskUnits="userSpaceOnUse" x="5" y="0" width="3" height="9">
<path d="M5.97009 0.142822H7.95588V8.18811H5.97009V0.142822Z" fill="white"/>
</mask>
<g mask="url(#mask4_248_807)">
<path d="M6.07092 0.158447V8.18046C6.96298 8.18046 7.68567 7.45648 7.68567 6.56184V1.77707C7.68567 0.883726 6.96298 0.158447 6.07092 0.158447Z" fill="#F2F2F2"/>
</g>
<mask id="mask5_248_807" style="mask-type:luminance" maskUnits="userSpaceOnUse" x="20" y="0" width="3" height="9">
<path d="M20.2015 0.142822H22.1873V8.18811H20.2015V0.142822Z" fill="white"/>
</mask>
<g mask="url(#mask5_248_807)">
<path d="M20.2572 1.77707V6.56184C20.2572 7.45648 20.9799 8.18046 21.8719 8.18046V0.158447C20.9799 0.158447 20.2572 0.883726 20.2572 1.77707Z" fill="#E6E6E6"/>
</g>
<mask id="mask6_248_807" style="mask-type:luminance" maskUnits="userSpaceOnUse" x="21" y="0" width="3" height="9">
<path d="M21.8563 0.142822H23.5111V8.18811H21.8563V0.142822Z" fill="white"/>
</mask>
<g mask="url(#mask6_248_807)">
<path d="M21.8718 0.158447V8.18046C22.7639 8.18046 23.4879 7.45648 23.4879 6.56184V1.77707C23.4879 0.883726 22.7639 0.158447 21.8718 0.158447Z" fill="#F2F2F2"/>
</g>
<mask id="mask7_248_807" style="mask-type:luminance" maskUnits="userSpaceOnUse" x="37" y="0" width="2" height="9">
<path d="M37.0807 0.142822H38.7355V8.18811H37.0807V0.142822Z" fill="white"/>
</mask>
<g mask="url(#mask7_248_807)">
<path d="M37.1118 1.77707V6.56184C37.1118 7.45648 37.8358 8.18046 38.7266 8.18046V0.158447C37.8358 0.158447 37.1118 0.883726 37.1118 1.77707Z" fill="#E6E6E6"/>
</g>
<mask id="mask8_248_807" style="mask-type:luminance" maskUnits="userSpaceOnUse" x="38" y="0" width="3" height="9">
<path d="M38.4045 0.142822H40.3903V8.18811H38.4045V0.142822Z" fill="white"/>
</mask>
<g mask="url(#mask8_248_807)">
<path d="M38.7264 0.158447V8.18046C39.6198 8.18046 40.3425 7.45648 40.3425 6.56184V1.77707C40.3425 0.883726 39.6198 0.158447 38.7264 0.158447Z" fill="#F2F2F2"/>
</g>
<path d="M10.0658 19.7216H4.22095V15.1062H10.0658V19.7216Z" fill="#CCCCCC"/>
<path d="M17.4749 19.7216H11.63V15.1062H17.4749V19.7216Z" fill="#CCCCCC"/>
<path d="M24.8842 19.7216H19.0393V15.1062H24.8842V19.7216Z" fill="#CCCCCC"/>
<path d="M32.2934 19.7216H26.4485V15.1062H32.2934V19.7216Z" fill="#CCCCCC"/>
<path d="M39.7038 19.7216H33.8577V15.1062H39.7038V19.7216Z" fill="#CCCCCC"/>
<path d="M10.0658 25.5777H4.22095V20.9623H10.0658V25.5777Z" fill="#CCCCCC"/>
<path d="M17.4749 25.5777H11.63V20.9623H17.4749V25.5777Z" fill="#CCCCCC"/>
<path d="M24.8842 25.5777H19.0393V20.9623H24.8842V25.5777Z" fill="#CCCCCC"/>
<path d="M32.2934 25.5777H26.4485V20.9623H32.2934V25.5777Z" fill="#CCCCCC"/>
<path d="M39.7038 25.5777H33.8577V20.9623H39.7038V25.5777Z" fill="#CCCCCC"/>
<path d="M10.0658 31.4346H4.22095V26.8192H10.0658V31.4346Z" fill="#CCCCCC"/>
<path d="M17.4749 31.4346H11.63V26.8192H17.4749V31.4346Z" fill="#CCCCCC"/>
<path d="M24.8842 31.4346H19.0393V26.8192H24.8842V31.4346Z" fill="#CCCCCC"/>
<path d="M32.2934 31.4346H26.4485V26.8192H32.2934V31.4346Z" fill="#CCCCCC"/>
<path d="M39.7038 31.4346H33.8577V26.8192H39.7038V31.4346Z" fill="#CCCCCC"/>
<path d="M10.0658 37.2911H4.22095V32.6757H10.0658V37.2911Z" fill="#CCCCCC"/>
<path d="M17.4749 37.2911H11.63V32.6757H17.4749V37.2911Z" fill="#CCCCCC"/>
<path d="M24.8842 37.2911H19.0393V32.6757H24.8842V37.2911Z" fill="#CCCCCC"/>
<path d="M32.2934 37.2911H26.4485V32.6757H32.2934V37.2911Z" fill="#CCCCCC"/>
<path d="M39.7038 37.2911H33.8577V32.6757H39.7038V37.2911Z" fill="#CCCCCC"/>
<path d="M34.5739 19.507L33.1712 18.1017L29.157 22.1237L27.4879 20.4521L26.0852 21.8574L28.6424 24.39L29.1867 24.9046L34.5739 19.507Z" fill="#FF4560"/>
</svg>
