<svg width="37" height="43" viewBox="0 0 37 43" fill="none" xmlns="http://www.w3.org/2000/svg">
<mask id="mask0_248_991" style="mask-type:luminance" maskUnits="userSpaceOnUse" x="9" y="0" width="27" height="26">
<path d="M9.95813 0.781738H35.0837V25.4091H9.95813V0.781738Z" fill="white"/>
</mask>
<g mask="url(#mask0_248_991)">
<path d="M10.1021 19.527C10.1021 19.527 14.8415 0.780151 16.1115 0.780151C17.3825 0.780151 34.356 2.63163 34.9332 6.10336C35.5105 9.57509 32.9695 25.4291 31.0082 25.3127C29.0419 25.1962 9.49163 21.8875 10.1021 19.527Z" fill="#F8EEE9"/>
</g>
<path d="M31.7011 14.0066C31.682 14.1355 31.6637 14.2644 31.6421 14.3933C31.6337 14.4591 31.6229 14.5223 31.6129 14.5855C31.5938 14.7144 31.573 14.8433 31.5497 14.9722C31.5306 15.0879 31.5115 15.2043 31.4907 15.3207C31.4674 15.4621 31.4441 15.6035 31.4166 15.7424C31.3934 15.8714 31.3701 15.9978 31.3476 16.1251C31.3343 16.1908 31.3243 16.2515 31.3118 16.3147C31.2902 16.4328 31.2669 16.5492 31.2436 16.6674C31.1896 16.9526 31.1322 17.2338 31.0731 17.5083C31.0399 17.6663 31.0058 17.8252 30.97 17.979C30.9658 18.004 30.9592 18.0298 30.9534 18.0531C30.945 18.0946 30.9342 18.1396 30.9234 18.1795C30.8835 18.355 30.8436 18.5296 30.802 18.6993C30.7512 18.9056 30.7005 19.1069 30.6498 19.3032C30.6373 19.3473 30.6265 19.3913 30.6165 19.4363C30.5824 19.5627 30.5491 19.6874 30.5125 19.8072C30.4626 19.991 30.4094 20.164 30.3595 20.3337C30.3379 20.3986 30.3171 20.4643 30.2963 20.5275C30.2963 20.5317 30.2938 20.5358 30.2913 20.5383C30.2788 20.5807 30.2647 20.6207 30.2514 20.6606C30.2372 20.7047 30.2223 20.7496 30.2073 20.7912C30.1798 20.8694 30.1524 20.9434 30.1274 21.0174C30.1249 21.0241 30.1208 21.0324 30.1191 21.039C30.0892 21.1189 30.0601 21.1971 30.0301 21.2711C29.927 21.5331 29.8222 21.761 29.7182 21.9465C29.6891 21.9997 29.66 22.0504 29.63 22.0962V22.0987C29.6151 22.1195 29.6009 22.1428 29.586 22.1644C29.5668 22.1918 29.5477 22.2193 29.5286 22.2426C29.5061 22.2717 29.4845 22.2975 29.4637 22.3224C29.4005 22.3923 29.3389 22.4472 29.2757 22.4805C29.2616 22.4896 29.2466 22.4979 29.2341 22.5021C29.2175 22.5104 29.2 22.5171 29.1834 22.5187C29.1709 22.5229 29.1626 22.5254 29.1518 22.5254C29.131 22.5295 29.1094 22.5312 29.0886 22.5295C29.0694 22.527 29.0487 22.527 29.0229 22.5254C29.0004 22.5229 28.9705 22.5212 28.943 22.5187C28.8881 22.5129 28.8274 22.5062 28.7559 22.4979C28.7201 22.4938 28.6818 22.4896 28.6419 22.483C28.5829 22.4763 28.5197 22.4663 28.4523 22.458C28.4082 22.4514 28.36 22.4447 28.3109 22.4389C28.3092 22.4405 28.3092 22.4405 28.3067 22.4389C28.2602 22.4322 28.2102 22.4239 28.1595 22.4172C28.0564 22.4031 27.9441 22.3856 27.8285 22.369C27.5066 22.3208 27.1373 22.2634 26.7306 22.196C26.5983 22.1744 26.4611 22.1511 26.3222 22.1286C26.3197 22.1286 26.3197 22.1286 26.318 22.1261C26.2124 22.1095 26.1051 22.0904 25.9953 22.0712C25.9404 22.0629 25.8838 22.0521 25.8289 22.0413C25.6584 22.0122 25.4854 21.9806 25.3083 21.9506C24.1563 21.746 22.8455 21.4948 21.518 21.2162C21.0231 21.1106 20.5257 21.0024 20.0325 20.8885C19.9593 20.8719 19.8852 20.8552 19.8112 20.8378C19.6241 20.7937 19.4361 20.7496 19.2506 20.7072C18.9836 20.644 18.7225 20.5807 18.4613 20.5125C18.3681 20.4893 18.2775 20.4668 18.1868 20.4435C17.9997 20.3969 17.8159 20.3479 17.6354 20.2996C17.5231 20.2697 17.4141 20.2406 17.3043 20.2106C16.8153 20.0775 16.3495 19.9428 15.9153 19.8056C15.8205 19.7756 15.7257 19.744 15.6308 19.7149H15.6292C15.4054 19.6409 15.1933 19.5668 14.9904 19.4928C14.8939 19.4595 14.7991 19.4229 14.7059 19.3872C14.6327 19.3581 14.5612 19.3306 14.4888 19.3007C14.4448 19.284 14.4007 19.2649 14.3583 19.2483C13.3851 18.8366 12.8187 18.4307 12.9152 18.0531C12.9152 18.0531 16.5815 3.5498 17.563 3.5498C18.5453 3.5498 31.6762 4.98208 32.1228 7.66781C32.3058 8.73827 32.1037 11.3017 31.7011 14.0066Z" fill="#98D1CA"/>
<path d="M31.701 14.0069C31.6818 14.1358 31.6635 14.2648 31.6419 14.3937C31.6336 14.4594 31.6228 14.5226 31.6128 14.5858C31.5937 14.7147 31.5729 14.8437 31.5496 14.9726C31.5304 15.0882 31.5113 15.2046 31.4905 15.3211C31.4672 15.4625 31.4439 15.6039 31.4165 15.7428C31.3932 15.8717 31.3699 15.9981 31.3475 16.1254C31.3342 16.1911 31.3242 16.2518 31.3117 16.315C31.2901 16.4331 31.2668 16.5496 31.2435 16.6677C31.1894 16.953 31.132 17.2341 31.073 17.5086C31.0397 17.6666 31.0056 17.8255 30.9698 17.9794C30.9657 18.0043 30.959 18.0301 30.9532 18.0534C30.9449 18.095 30.9341 18.1399 30.9233 18.1798C30.8833 18.3553 30.8434 18.53 30.8018 18.6997C30.7511 18.9059 30.7004 19.1072 30.6496 19.3035C30.6371 19.3476 30.6263 19.3917 30.6164 19.4366C30.5822 19.563 30.549 19.6878 30.5124 19.8075C30.4625 19.9914 30.4092 20.1644 30.3593 20.334C30.3377 20.3989 30.3169 20.4646 30.2961 20.5278C30.2961 20.532 30.2936 20.5362 30.2911 20.5387C30.2787 20.5811 30.2645 20.621 30.2512 20.6609C30.2371 20.705 30.2221 20.7499 30.2071 20.7915C30.1797 20.8697 30.1522 20.9437 30.1273 21.0177C30.1248 21.0244 30.1206 21.0327 30.119 21.0394C30.089 21.1192 30.0599 21.1974 30.03 21.2714C29.9268 21.5334 29.822 21.7613 29.7181 21.9468C29.6889 22 29.6598 22.0508 29.6299 22.0965V22.099C29.6149 22.1198 29.6008 22.1431 29.5858 22.1647C29.5667 22.1922 29.5476 22.2196 29.5284 22.2429C29.506 22.272 29.4843 22.2978 29.4635 22.3228C29.4003 22.3926 29.3388 22.4475 29.2756 22.4808C29.2614 22.4899 29.2465 22.4983 29.234 22.5024C29.2173 22.5107 29.1999 22.5174 29.1832 22.5191C29.1708 22.5232 29.1624 22.5257 29.1516 22.5257C29.1308 22.5299 29.1092 22.5315 29.0884 22.5299C29.0693 22.5274 29.0485 22.5274 29.0227 22.5257C29.0003 22.5232 28.9703 22.5216 28.9429 22.5191C28.888 22.5132 28.8273 22.5091 28.7557 22.4983C28.72 22.4941 28.6817 22.4899 28.6418 22.4833C28.5827 22.4766 28.5195 22.4683 28.4521 22.4583C28.4081 22.4517 28.3598 22.4475 28.3107 22.4392C28.3091 22.4409 28.3091 22.4409 28.3066 22.4392C28.26 22.4326 28.2101 22.4242 28.1594 22.4176C28.0562 22.4034 27.9439 22.3885 27.8283 22.3693C27.4025 22.3061 26.8926 22.2254 26.322 22.129C26.3195 22.129 26.3195 22.129 26.3179 22.1265C26.2122 22.1098 26.1049 22.0924 25.9951 22.0716C25.9402 22.0633 25.8837 22.0524 25.8288 22.0416C25.6583 22.0125 25.4853 21.9809 25.3081 21.951C24.1561 21.7464 22.8453 21.4952 21.5178 21.2165C21.7158 20.6692 22.0743 20.0338 22.6265 19.2611C22.6265 19.2611 23.9515 16.8856 25.7506 15.0275C27.0806 13.6542 28.6667 12.563 30.1697 12.9223C30.7844 13.072 31.2884 13.4621 31.701 14.0069Z" fill="#4F576E"/>
<path d="M20.1446 19.8732C20.1446 19.8732 19.8053 20.2192 19.2513 20.7158C17.325 20.2575 15.5425 19.7551 14.3606 19.2544C13.3875 18.8427 12.8202 18.4376 12.9175 18.0591C12.9175 18.0591 13.9472 13.9819 15.0643 10.1492C15.6041 9.96371 16.1472 9.90631 16.6804 10.0352C17.7841 10.2972 18.5385 11.3569 19.0509 12.6894C20.1804 15.6204 20.1446 19.8732 20.1446 19.8732Z" fill="#4F576E"/>
<path d="M26.733 22.2021C25.3107 21.9701 23.431 21.6282 21.5204 21.2248C21.0247 21.1192 20.5282 21.0119 20.0349 20.8971C19.9609 20.8805 19.8877 20.8638 19.8137 20.8464C19.6257 20.8023 19.4386 20.7582 19.2531 20.7158C18.9853 20.6526 18.7241 20.5894 18.4629 20.522C18.3706 20.4987 18.2799 20.4754 18.1893 20.4521C18.0013 20.4055 17.8183 20.3565 17.637 20.3082C17.5255 20.2791 17.4157 20.2492 17.3059 20.2192C16.8177 20.087 16.3519 19.9514 15.9178 19.8142C15.8229 19.7842 15.7281 19.7526 15.6333 19.7235H15.6308C15.4079 19.6495 15.195 19.5755 14.9928 19.5014C14.8955 19.4682 14.8007 19.4324 14.7084 19.3958C14.6344 19.3667 14.5628 19.3392 14.4913 19.3093C14.4472 19.2927 14.4031 19.2735 14.3607 19.2569C14.567 18.7354 14.913 18.1357 15.427 17.4154C15.427 17.4154 17.0032 14.5899 19.051 12.6919C20.2686 11.5624 21.651 10.7597 22.9702 11.0741C24.4191 11.4185 25.2625 13.1327 25.7507 15.0358C26.4527 17.7448 26.7289 22.1056 26.733 22.2021Z" fill="#5D6680"/>
<path d="M27.7733 8.996C27.7733 9.95501 26.9982 10.7319 26.0416 10.7319C25.0851 10.7319 24.3099 9.95501 24.3099 8.996C24.3099 8.03699 25.0851 7.26013 26.0416 7.26013C26.9982 7.26013 27.7733 8.03699 27.7733 8.996Z" fill="#FED17E"/>
<path d="M2.43499 35.2161C2.43499 35.2161 -0.753117 15.8422 0.428802 15.3248C1.61155 14.8075 18.1576 9.62065 20.0997 12.6175C22.0452 15.6134 26.105 31.4001 24.2319 32.0904C22.3588 32.7833 2.82258 37.6631 2.43499 35.2161Z" fill="#F8EEE9"/>
<path d="M20.2984 21.2901C20.3341 21.4165 20.3674 21.5454 20.399 21.6719C20.4156 21.7351 20.4331 21.7983 20.4497 21.864C20.483 21.9913 20.5171 22.1194 20.5487 22.2483C20.5778 22.3647 20.6078 22.4803 20.6352 22.5968C20.671 22.7382 20.7043 22.8796 20.7384 23.0193C20.77 23.1482 20.7991 23.2772 20.829 23.4036C20.8457 23.4693 20.8581 23.5325 20.8731 23.5957C20.9006 23.7138 20.928 23.8319 20.953 23.95C21.0162 24.2378 21.0777 24.5223 21.1368 24.8034C21.1684 24.9639 21.2016 25.1245 21.2316 25.2825C21.2374 25.3083 21.2416 25.3332 21.2457 25.3565C21.2549 25.4014 21.2632 25.443 21.2715 25.488C21.3048 25.6668 21.3389 25.8448 21.368 26.0194C21.4063 26.2307 21.4404 26.4403 21.472 26.6449C21.4778 26.6915 21.4861 26.7381 21.4928 26.7822C21.5119 26.9152 21.5302 27.0442 21.5477 27.1689C21.5751 27.3586 21.5959 27.5424 21.6167 27.7195C21.6233 27.7894 21.6317 27.8593 21.6383 27.9266C21.6383 27.9308 21.64 27.935 21.64 27.9391C21.6441 27.984 21.6483 28.0281 21.6525 28.068C21.6566 28.1163 21.6608 28.1612 21.6658 28.2078C21.6716 28.2918 21.6757 28.3725 21.6824 28.4523C21.6824 28.4606 21.6824 28.4673 21.6841 28.4756C21.6907 28.5621 21.6924 28.6469 21.6974 28.7293C21.7057 29.0137 21.7015 29.2699 21.6799 29.4853C21.6741 29.5461 21.6674 29.6051 21.6591 29.66V29.6625C21.655 29.69 21.6508 29.7149 21.6441 29.7407C21.6383 29.774 21.6317 29.8056 21.6233 29.838C21.615 29.8738 21.6042 29.907 21.5934 29.9387C21.5643 30.0301 21.5285 30.1058 21.4844 30.1632C21.4761 30.1774 21.4628 30.1907 21.4528 30.2007C21.4395 30.2156 21.4271 30.2281 21.4129 30.2364C21.4038 30.2456 21.3938 30.2514 21.3855 30.2555C21.368 30.268 21.3472 30.2788 21.3281 30.2855C21.3089 30.2913 21.2906 30.3005 21.2674 30.3063C21.2441 30.3146 21.2166 30.3229 21.1892 30.3337C21.1368 30.3504 21.0752 30.3695 21.0062 30.3911C20.9721 30.4011 20.9347 30.4119 20.8939 30.4244C20.8373 30.4419 20.7741 30.4585 20.7068 30.4793C20.6627 30.4926 20.6161 30.5051 20.5679 30.5176C20.5679 30.52 20.5654 30.52 20.5637 30.52C20.5171 30.5325 20.4664 30.5475 20.4181 30.56C20.315 30.5874 20.2052 30.619 20.0896 30.6481C19.771 30.7355 19.4026 30.8303 18.9983 30.9334C18.8653 30.9675 18.7305 31.0008 18.5891 31.0374C18.5875 31.0374 18.5875 31.0374 18.585 31.0374C18.4793 31.0648 18.372 31.0898 18.2622 31.1172C18.2082 31.1322 18.1508 31.1447 18.0942 31.1597C17.9237 31.2021 17.7507 31.2437 17.5719 31.2861C16.4166 31.5647 15.0958 31.865 13.7475 32.1453C13.2435 32.2493 12.7361 32.3507 12.232 32.4456C12.1564 32.4605 12.0807 32.4747 12.0066 32.4896C11.8128 32.5254 11.6215 32.562 11.4319 32.5953C11.1574 32.6443 10.8863 32.6926 10.6184 32.7367C10.5236 32.7541 10.4288 32.7683 10.334 32.7832C10.1402 32.8148 9.95055 32.8465 9.7634 32.8739C9.64696 32.8914 9.53301 32.9097 9.41989 32.9246C8.91169 32.9987 8.42262 33.0644 7.9635 33.1126C7.86285 33.1234 7.76138 33.1342 7.6624 33.1426H7.65991C7.42203 33.1634 7.19662 33.1825 6.97787 33.195C6.87224 33.2033 6.7691 33.2074 6.67012 33.2116C6.59027 33.2166 6.51209 33.2182 6.4339 33.2182C6.38566 33.2207 6.33742 33.2224 6.29084 33.2224C5.21788 33.2374 4.52753 33.0877 4.46432 32.6967C4.46432 32.6967 1.99901 17.7086 2.9131 17.3093C3.8272 16.9101 16.6278 12.8986 18.13 15.2167C18.7239 16.1399 19.5756 18.6077 20.2984 21.2901Z" fill="#C2C9DF"/>
<path d="M10.553 25.0123C10.5663 24.9766 10.5804 24.9408 10.5937 24.905C10.5763 24.93 10.558 24.9533 10.5347 24.9724C10.5405 24.9849 10.5471 24.9998 10.553 25.0123Z" fill="#2FB18E"/>
<path d="M11.4636 22.111C11.3055 22.2948 11.1641 22.4911 11.0169 22.6833C10.8123 22.9536 10.6077 23.2322 10.3948 23.5025C10.5528 23.9001 10.7158 24.3958 10.6609 24.7194C10.9812 23.8619 11.3305 22.9577 11.6931 22.0902C11.6025 22.0395 11.5243 22.0395 11.4636 22.111Z" fill="#2FB18E"/>
<path d="M19.2339 29.6289C18.8022 27.7791 17.73 24.7474 16.5473 22.213C15.9493 22.703 15.8187 20.7458 15.1342 20.9588C14.4513 21.1717 15.1716 23.9339 14.2824 24.5087C13.5097 25.0069 12.2995 22.4243 11.6907 22.0908C11.3289 22.9583 10.9787 23.8599 10.6585 24.7199C10.646 24.7915 10.6252 24.8547 10.5895 24.9054C10.5762 24.9412 10.562 24.977 10.5487 25.0127C11.274 26.5739 11.9544 28.3322 12.4434 29.836C12.4576 29.7537 12.4958 29.6714 12.5042 29.589C12.5341 29.3254 12.5549 29.0592 12.6114 28.7989C12.7953 27.9654 13.2311 27.2027 13.7809 26.5589C14.0196 26.2803 14.413 25.8195 14.8389 25.6615C15.0452 25.5833 15.2581 25.5767 15.4644 25.6948C15.9875 25.995 16.4067 26.7636 16.6321 27.2959C16.727 27.5221 17.1653 28.4146 16.8808 28.6475C17.2618 29.4643 17.6244 30.3659 17.9238 31.2043C17.9779 31.1918 18.037 31.1768 18.0919 31.1644C18.1492 31.1494 18.2041 31.1369 18.2607 31.1219C18.3705 31.0945 18.4778 31.067 18.5826 31.0421C18.5851 31.0421 18.5851 31.0421 18.5876 31.0421C18.6483 31.0271 18.7049 31.0121 18.7664 30.9955C19.1773 30.6387 19.3644 30.1846 19.2339 29.6289Z" fill="#5AB88F"/>
<path d="M12.519 30.0639C12.5206 30.0581 12.5231 30.0532 12.5256 30.0474C12.5206 30.0474 12.5165 30.0474 12.5123 30.0474C12.5148 30.0515 12.5165 30.0581 12.519 30.0639Z" fill="#5AB88F"/>
<path d="M10.1636 22.9577C10.2077 23.0634 10.3 23.2638 10.3948 23.5025C10.6078 23.2322 10.8107 22.9536 11.017 22.6833C11.1642 22.4895 11.3056 22.2948 11.4636 22.111C11.5244 22.0395 11.6025 22.0395 11.6949 22.0902C12.3045 22.4238 13.5139 25.0063 14.2866 24.5081C15.1757 23.9334 14.4554 21.1711 15.1383 20.9582C15.8203 20.7453 15.9534 22.7024 16.5498 22.2125C17.0073 21.839 16.3036 20.3984 16.1497 20.0358C15.7887 19.1758 15.1109 17.9406 14.27 17.4574C13.9373 17.2652 13.5937 17.2777 13.261 17.4025C12.5757 17.6595 11.9419 18.3989 11.5585 18.8489C10.7475 19.8012 10.0896 20.9141 9.75854 22.1285C9.92157 22.4154 10.058 22.7049 10.1636 22.9577Z" fill="#FCD9CA"/>
<path d="M5.82679 24.8775C5.68206 25.0489 5.55148 25.2302 5.41424 25.4074C5.08986 25.8341 4.77379 26.2857 4.40948 26.6791C4.34378 26.7506 4.16661 27.0318 4.04019 27.0542C3.93123 27.3395 3.82559 27.6207 3.72412 27.8968C3.84472 28.7227 3.96034 29.4954 4.06348 30.1691C4.50181 28.8791 5.24124 26.7781 6.04221 24.8584C5.95821 24.8118 5.88418 24.8118 5.82679 24.8775Z" fill="#2FB18E"/>
<path d="M4.46187 32.7051C4.51843 33.0603 5.09567 33.2141 6.00643 33.2291C5.39094 33.0644 4.85363 32.8548 4.4469 32.6078C4.45771 32.6718 4.46187 32.7051 4.46187 32.7051Z" fill="#2FB18E"/>
<path d="M12.5191 30.0638C12.5166 30.058 12.5149 30.053 12.5124 30.0471C12.4808 30.0471 12.4558 30.0172 12.4434 29.9374C12.4367 29.9032 12.4409 29.87 12.4475 29.8384C11.9585 28.3346 11.2781 26.5754 10.5528 25.015C10.547 25.0026 10.5403 24.9876 10.5345 24.9751C9.97972 25.4268 9.85995 23.6169 9.22782 23.8132C8.59569 24.012 9.26359 26.5646 8.44015 27.0969C7.72568 27.5594 6.60697 25.1689 6.04221 24.8612C5.24124 26.78 4.50181 28.881 4.06348 30.1719C4.25312 31.4112 4.40117 32.3211 4.44691 32.6081C4.85364 32.8551 5.39095 33.0647 6.00645 33.2294C6.09711 33.2311 6.19193 33.2311 6.28841 33.2294C6.33499 33.2294 6.38323 33.2269 6.4323 33.2253C6.50966 33.2228 6.58784 33.2211 6.66769 33.2186C6.76916 33.2145 6.86981 33.2103 6.97544 33.202C7.19502 33.1895 7.42042 33.1704 7.65831 33.1487H7.65997C7.75895 33.1388 7.86042 33.1296 7.96189 33.1196C8.42102 33.0706 8.91009 33.0073 9.41746 32.9317C9.53141 32.915 9.64536 32.8976 9.76097 32.8809C9.94812 32.8535 10.1403 32.8219 10.3316 32.7903C10.4264 32.7753 10.5195 32.7587 10.616 32.7437C10.8838 32.6996 11.1558 32.6505 11.4295 32.6023C11.4927 32.5915 11.5559 32.579 11.6216 32.5665C11.8262 31.9643 12.1464 31.0378 12.5191 30.0638Z" fill="#75BF8F"/>
<path d="M4.40956 26.6807C4.77386 26.2856 5.08993 25.8365 5.41431 25.4098C5.54905 25.2301 5.68214 25.0505 5.82769 24.88C5.88425 24.8143 5.95578 24.8143 6.04228 24.8608C6.60455 25.1686 7.72325 27.559 8.44022 27.0966C9.26199 26.5643 8.59576 24.0116 9.22789 23.8128C9.86002 23.6149 9.98229 25.4264 10.5346 24.9748C10.5579 24.9557 10.5762 24.9324 10.5936 24.9074C10.6294 24.8567 10.6502 24.7926 10.6627 24.7211C10.7176 24.3984 10.5554 23.9018 10.3973 23.5051C10.3025 23.2664 10.2102 23.0659 10.1653 22.9603C10.0605 22.7066 9.92323 22.4172 9.76354 22.1285C9.41753 21.5072 8.9584 20.8801 8.42941 20.574C8.12166 20.3968 7.80393 20.4068 7.49618 20.5233C6.86156 20.762 6.27601 21.4457 5.92002 21.8624C5.1024 22.823 4.45114 23.9592 4.17999 25.2027C4.09515 25.5911 4.06188 25.9879 4.01946 26.3813C4.00033 26.5501 3.89553 26.7248 3.92215 26.8961C3.94377 27.0292 3.99035 27.0691 4.04442 27.0592C4.16668 27.0334 4.34385 26.7506 4.40956 26.6807Z" fill="#FCD9CA"/>
<path d="M13.87 28.5726C13.8126 28.541 13.7643 28.541 13.7261 28.5851C13.6296 28.6991 13.5414 28.8213 13.4508 28.9419C13.2337 29.2289 13.0207 29.5308 12.7762 29.7953C12.7321 29.8435 12.614 30.0315 12.53 30.0465C12.5275 30.0523 12.5259 30.0573 12.5234 30.0631C12.1507 31.0371 11.8305 31.9637 11.6276 32.5659C11.7565 32.5426 11.8829 32.5193 12.0135 32.496C12.0892 32.481 12.1649 32.4661 12.2389 32.4519C12.3104 32.4386 12.382 32.4245 12.4535 32.4095C12.7238 31.5902 13.2711 30.0066 13.87 28.5726Z" fill="#2FB18E"/>
<path d="M16.8826 28.6488C16.5116 28.9532 16.4301 27.7364 16.0059 27.8695C15.5825 28.0025 16.0292 29.7176 15.4777 30.0744C14.9995 30.3847 14.2468 28.7802 13.87 28.5731C13.2711 30.0071 12.7238 31.5907 12.4493 32.41C12.8819 32.3252 13.3177 32.2412 13.7494 32.1497C15.0985 31.8694 16.4193 31.5691 17.5738 31.2905C17.6935 31.2613 17.81 31.2339 17.9256 31.204C17.6262 30.3656 17.2643 29.4664 16.8826 28.6488Z" fill="#8CC68F"/>
<path d="M12.4435 29.9368C12.456 30.0166 12.4809 30.0466 12.5125 30.0466C12.5167 30.0466 12.5208 30.0466 12.5258 30.0466C12.6098 30.0316 12.7279 29.842 12.772 29.7954C13.0166 29.5309 13.2295 29.229 13.4466 28.942C13.5364 28.8214 13.6254 28.7016 13.7219 28.5852C13.7601 28.5411 13.8084 28.5411 13.8658 28.5727C14.2426 28.7798 14.9945 30.3843 15.4727 30.074C16.025 29.7172 15.5783 28.0021 16.0017 27.869C16.4251 27.736 16.5074 28.9528 16.8784 28.6484C17.1628 28.4163 16.7245 27.523 16.6297 27.2968C16.4068 26.7628 15.9851 25.9968 15.4627 25.6965C15.2565 25.5784 15.0435 25.5842 14.8364 25.6624C14.4114 25.8229 14.0171 26.2812 13.7793 26.5599C13.2295 27.2045 12.7928 27.9689 12.6098 28.8006C12.5524 29.0601 12.53 29.3263 12.5025 29.5908C12.4942 29.6706 12.456 29.753 12.441 29.8378C12.441 29.8694 12.4368 29.9027 12.4435 29.9368Z" fill="#FCD9CA"/>
<mask id="mask1_248_991" style="mask-type:luminance" maskUnits="userSpaceOnUse" x="13" y="19" width="24" height="24">
<path d="M13.365 19.8724H37V42.7814H13.365V19.8724Z" fill="white"/>
</mask>
<g mask="url(#mask1_248_991)">
<path d="M13.3783 39.2317C13.3783 39.2317 16.0249 20.0757 17.2875 19.9359C18.5493 19.797 35.6243 19.7613 36.5792 23.1457C37.5357 26.5326 36.7538 42.5704 34.7901 42.6719C32.828 42.7758 13.0314 41.648 13.3783 39.2317Z" fill="#F8EEE9"/>
</g>
<path d="M33.9027 35.8407C33.614 38.2503 33.1657 40.0935 32.5843 40.1251C32.1626 40.1467 30.6813 40.096 28.7616 39.9695C27.5947 39.893 26.2655 39.7874 24.9148 39.6568C24.1412 39.5803 23.3619 39.4963 22.605 39.4014C20.6412 39.1586 18.8147 38.8566 17.5845 38.4907V38.489C16.5706 38.1888 15.9643 37.8452 16.0192 37.4601C16.0192 37.4601 16.3011 35.4232 16.7054 32.8506C16.8784 31.7468 17.0763 30.5425 17.281 29.3622C17.8881 25.8805 18.5826 22.5843 19.0401 22.5335C20.0182 22.4254 33.2265 22.398 33.9642 25.0171C34.257 26.0535 34.3393 28.6253 34.2379 31.3576C34.183 32.8822 34.069 34.4534 33.9027 35.8407Z" fill="#9AB9BC"/>
<path d="M33.9027 35.8409C33.614 38.2505 33.1657 40.0936 32.5843 40.1252C32.1626 40.1469 30.6813 40.0961 28.7616 39.9697C27.5947 39.8932 26.2655 39.7875 24.9148 39.657C24.1412 39.5804 23.3619 39.4964 22.605 39.4016C20.6412 39.1587 18.8147 38.8568 17.5845 38.4908V38.4892C16.5706 38.1889 15.9643 37.8454 16.0192 37.4603C16.0192 37.4603 16.3011 35.4233 16.7054 32.8507C17.1296 32.4898 17.6286 32.2003 18.2125 32.0489C21.0147 31.3203 24.4847 37.6716 26.9476 36.2127C28.4921 35.2986 31.6278 35.4017 33.9027 35.8409Z" fill="#2FB18E"/>
<path d="M22.8645 29.2145C22.8645 29.2145 25.1635 27.7149 25.8014 26.4589C25.8014 26.4589 26.7837 26.3533 27.3526 26.488C27.3526 26.488 27.7735 29.0856 29.4021 30.0355C29.4021 30.0355 25.2392 30.2359 22.8645 29.2145Z" fill="#AE2A2C"/>
<path d="M19.6663 36.574C19.6663 36.574 29.9817 37.3192 30.3186 37.795C30.6563 38.2699 30.1381 39.387 30.1381 39.387C30.1381 39.387 19.6364 38.7515 19.5033 37.9929C19.3711 37.2394 19.6663 36.574 19.6663 36.574Z" fill="#EABE9E"/>
<path d="M29.605 38.3162C29.605 38.3162 29.5143 38.3162 29.3372 38.3137C28.8248 38.3029 27.5922 38.2505 25.7806 38.0117C25.3739 37.9593 24.938 37.8953 24.4739 37.8221C23.4267 37.6549 22.2407 37.4312 20.9323 37.1334C20.7577 37.0935 20.578 37.0527 20.3992 37.0086C20.3992 37.0086 20.6188 34.3287 20.7427 33.9952C20.8666 33.6617 28.1993 34.2406 30.1797 34.8145C30.7195 35.049 29.605 38.3162 29.605 38.3162Z" fill="#FEDDB0"/>
<path d="M24.4738 37.8195C23.4267 37.6531 22.2406 37.4286 20.9323 37.1308C20.9389 36.5128 21.0079 35.3617 21.2358 35.009C21.5519 34.5216 24.5628 35.3908 24.5628 35.3908C24.5628 35.3908 24.6444 36.9536 24.4738 37.8195Z" fill="#F7B89F"/>
<path d="M29.3371 38.3135C28.8247 38.3027 27.5921 38.2503 25.7805 38.0116C25.7972 37.1374 26.2438 35.5854 26.2438 35.5854C26.2438 35.5854 29.3704 35.4207 29.5691 35.9655C29.733 36.413 29.4635 37.8178 29.3371 38.3135Z" fill="#F7B89F"/>
<path d="M20.7427 33.994C20.7427 33.994 18.6907 33.6704 18.9353 31.9121C18.9353 31.9121 29.7372 33.3452 32.245 32.7289C32.245 32.7289 32.4596 34.5538 30.3361 35.0944C28.2143 35.6342 20.7427 33.994 20.7427 33.994Z" fill="#D33137"/>
<path d="M28.5719 33.1469C28.5719 33.1469 28.5128 33.1469 28.3972 33.1444C28.062 33.1361 27.2577 33.102 26.0733 32.9465C25.808 32.9099 25.521 32.87 25.2199 32.8217C24.5354 32.7119 23.7602 32.5664 22.9043 32.3717C22.7904 32.3468 22.6723 32.3193 22.5566 32.2919C22.5566 32.2919 22.6997 30.5411 22.782 30.3215C22.8644 30.1019 27.6553 30.4795 28.9495 30.858C29.2988 31.0118 28.5719 33.1469 28.5719 33.1469Z" fill="#FEDDB0"/>
<path d="M25.22 32.8215C24.5355 32.7118 23.7603 32.5662 22.9044 32.3716C22.9086 31.9665 22.9527 31.2163 23.1024 30.9842C23.3087 30.6656 25.2766 31.2337 25.2766 31.2337C25.2766 31.2337 25.3315 32.2551 25.22 32.8215Z" fill="#F7B89F"/>
<path d="M28.3972 33.1443C28.062 33.136 27.2577 33.1019 26.0732 32.9464C26.0841 32.3741 26.3743 31.3602 26.3743 31.3602C26.3743 31.3602 28.4179 31.2529 28.5494 31.6098C28.6567 31.9025 28.4795 32.8191 28.3972 33.1443Z" fill="#F7B89F"/>
<path d="M22.7805 30.3215C22.7805 30.3215 21.4398 30.1102 21.5978 28.9615C21.5978 28.9615 28.6585 29.8989 30.2962 29.4955C30.2962 29.4955 30.4368 30.6866 29.0486 31.0418C27.6646 31.3944 22.7805 30.3215 22.7805 30.3215Z" fill="#D33137"/>
<path d="M25.8013 26.46C25.8013 26.46 24.8889 25.8769 25.3355 25.0127C25.7822 24.1477 26.8593 23.2686 26.8593 23.2686C26.8593 23.2686 28.0246 24.3166 28.1784 25.0768C28.3323 25.837 27.3542 26.4916 27.3542 26.4916L25.8013 26.46Z" fill="#D33137"/>
<path d="M14.4978 15.4448C14.5062 15.4806 14.5436 15.5039 14.5793 15.4939C14.6176 15.4831 14.6384 15.4473 14.6284 15.4091C14.6201 15.3733 14.5818 15.35 14.5436 15.3608C14.5103 15.3708 14.4887 15.4091 14.4978 15.4448Z" fill="white"/>
<path d="M16.5056 16.7456C16.5139 16.7814 16.5514 16.8047 16.5896 16.7947C16.6279 16.7855 16.6487 16.7481 16.6379 16.7098C16.6295 16.6741 16.5921 16.6508 16.5539 16.6616C16.5181 16.6716 16.4973 16.7098 16.5056 16.7456Z" fill="white"/>
<path d="M18.7074 14.1191C18.6991 14.0834 18.6608 14.0601 18.6234 14.0709C18.5877 14.0809 18.5644 14.1166 18.5743 14.1549C18.5852 14.1907 18.6209 14.214 18.6592 14.204C18.6949 14.1932 18.7157 14.1549 18.7074 14.1191Z" fill="white"/>
<path d="M23.1148 11.315C23.1065 11.2784 23.069 11.2552 23.0308 11.266C22.995 11.2768 22.9717 11.3125 22.9825 11.3508C22.9908 11.3866 23.0291 11.4099 23.0649 11.399C23.1023 11.3882 23.1256 11.3508 23.1148 11.315Z" fill="white"/>
<path d="M24.7583 18.228C24.7225 18.2371 24.6992 18.2746 24.7101 18.3128C24.7209 18.3486 24.7566 18.3719 24.7941 18.3611C24.8298 18.3527 24.8531 18.3153 24.8431 18.277C24.8323 18.2413 24.7941 18.2197 24.7583 18.228Z" fill="white"/>
<path d="M19.6282 23.125C19.6365 23.1608 19.6747 23.1841 19.7122 23.1732C19.7479 23.1633 19.7712 23.1267 19.7612 23.0892C19.7504 23.0535 19.7147 23.0302 19.6764 23.0402C19.6406 23.051 19.6173 23.0892 19.6282 23.125Z" fill="white"/>
<path d="M11.512 18.6842C11.5037 18.6484 11.4654 18.6252 11.428 18.6351C11.3922 18.6443 11.3689 18.6817 11.3789 18.72C11.3897 18.7557 11.4255 18.779 11.4637 18.7682C11.4995 18.7582 11.5228 18.72 11.512 18.6842Z" fill="white"/>
<path d="M30.0026 12.4226C29.9943 12.3868 29.9568 12.3636 29.9211 12.3744C29.8828 12.3852 29.862 12.4209 29.872 12.4592C29.8803 12.495 29.9186 12.5183 29.9568 12.5074C29.9901 12.4966 30.0117 12.4592 30.0026 12.4226Z" fill="white"/>
<path d="M14.4488 23.5579C14.4388 23.5221 14.403 23.4988 14.3647 23.5096C14.329 23.5204 14.3057 23.5562 14.3165 23.5936C14.3248 23.6302 14.3623 23.6535 14.4005 23.6427C14.4363 23.6319 14.4571 23.5936 14.4488 23.5579Z" fill="white"/>
<path d="M16.9124 20.2953C16.9166 20.3119 16.9357 20.3227 16.9524 20.3185C16.969 20.3144 16.9798 20.2953 16.9757 20.2786C16.9715 20.2612 16.9524 20.2512 16.9357 20.2553C16.9183 20.2612 16.9083 20.2786 16.9124 20.2953Z" fill="white"/>
<path d="M17.0722 23.345C17.0888 23.3409 17.0996 23.3217 17.0955 23.3051C17.0913 23.2876 17.0722 23.2777 17.0556 23.2818C17.0389 23.286 17.0281 23.3051 17.0323 23.3217C17.0364 23.3384 17.0556 23.3492 17.0722 23.345Z" fill="white"/>
<path d="M25.9636 22.0777C25.9536 22.0411 25.9178 22.0186 25.8796 22.0286C25.8413 22.0394 25.8205 22.0752 25.8288 22.1135C25.8397 22.1492 25.8754 22.1725 25.9129 22.1617C25.9511 22.1509 25.9719 22.1135 25.9636 22.0777Z" fill="white"/>
<path d="M21.0422 16.6908C21.078 16.6824 21.1013 16.6442 21.0905 16.6067C21.0797 16.5701 21.0439 16.5477 21.0065 16.5577C20.9707 16.566 20.9474 16.6043 20.9574 16.6425C20.9682 16.6783 21.0065 16.7016 21.0422 16.6908Z" fill="white"/>
<path d="M34.6446 11.8322C34.6063 11.8422 34.5855 11.8779 34.5964 11.9162C34.6047 11.952 34.6429 11.9753 34.6804 11.9644C34.687 11.9628 34.6887 11.9586 34.6928 11.9561C34.697 11.9204 34.7012 11.8846 34.7061 11.8488C34.687 11.8364 34.6679 11.8272 34.6446 11.8322Z" fill="white"/>
<path d="M20.7551 26.9496C20.7909 26.9404 20.8142 26.903 20.8034 26.8647C20.7951 26.829 20.7576 26.8057 20.7194 26.8165C20.6836 26.8248 20.6603 26.8623 20.6711 26.9005C20.6819 26.9363 20.7194 26.9596 20.7551 26.9496Z" fill="white"/>
<path d="M19.1457 32.9043C19.1349 32.8685 19.0991 32.8452 19.0617 32.8552C19.0251 32.8644 19.0026 32.9018 19.0126 32.9401C19.0234 32.9758 19.0592 32.9991 19.0975 32.9883C19.1332 32.98 19.154 32.9426 19.1457 32.9043Z" fill="white"/>
<path d="M21.1027 34.2885C21.1384 34.2802 21.1617 34.2419 21.1509 34.2045C21.1426 34.1687 21.1052 34.1454 21.0669 34.1554C21.0295 34.1637 21.0078 34.202 21.0187 34.2402C21.0295 34.276 21.0669 34.2993 21.1027 34.2885Z" fill="white"/>
<path d="M23.1724 31.6962C23.2081 31.687 23.2314 31.6496 23.2206 31.6113C23.2123 31.5756 23.174 31.5523 23.1366 31.5631C23.1008 31.5714 23.0775 31.6097 23.0875 31.6471C23.0983 31.6829 23.1341 31.7062 23.1724 31.6962Z" fill="white"/>
<path d="M27.6304 28.8079C27.6221 28.7713 27.5838 28.7489 27.5464 28.7588C27.5106 28.7672 27.4873 28.8054 27.4973 28.8437C27.5081 28.8794 27.5439 28.9027 27.5822 28.8919C27.6179 28.8811 27.6387 28.8453 27.6304 28.8079Z" fill="white"/>
<path d="M29.2231 35.8051C29.2315 35.8408 29.2697 35.8641 29.3071 35.8533C29.3454 35.845 29.3662 35.8076 29.3562 35.7693C29.3479 35.7335 29.3096 35.7102 29.2714 35.721C29.2356 35.731 29.2148 35.7693 29.2231 35.8051Z" fill="white"/>
<path d="M24.2252 40.6687C24.261 40.6604 24.2843 40.6221 24.2743 40.5839C24.266 40.5481 24.2277 40.5248 24.1895 40.5356C24.1537 40.5439 24.1304 40.5822 24.1412 40.6196C24.152 40.6562 24.1878 40.6795 24.2252 40.6687Z" fill="white"/>
<path d="M15.8943 36.2126C15.9026 36.2484 15.9409 36.2717 15.9766 36.2609C16.0149 36.2526 16.0357 36.2151 16.0249 36.1769C16.0149 36.1411 15.9783 36.1178 15.9409 36.1286C15.9068 36.1386 15.8835 36.1744 15.8943 36.2126Z" fill="white"/>
<path d="M34.5165 29.9153C34.5057 29.8795 34.4699 29.8562 34.4316 29.867C34.3959 29.8779 34.3726 29.9136 34.3834 29.9519C34.3917 29.9876 34.43 30.0109 34.4674 30.0001C34.5032 29.9893 34.5265 29.9535 34.5165 29.9153Z" fill="white"/>
<path d="M18.9137 41.1353C18.9495 41.1244 18.9728 41.0887 18.9619 41.0504C18.9536 41.0147 18.9162 40.9914 18.8779 41.0022C18.8422 41.0105 18.8189 41.0488 18.8297 41.087C18.8405 41.1228 18.8763 41.1461 18.9137 41.1353Z" fill="white"/>
<path d="M30.3444 39.6035C30.3527 39.6393 30.3909 39.6626 30.4284 39.6526C30.4641 39.6418 30.4874 39.606 30.4766 39.5678C30.4666 39.532 30.4309 39.5087 30.3926 39.5195C30.3568 39.5295 30.336 39.5678 30.3444 39.6035Z" fill="white"/>
<path d="M25.5569 34.1858C25.5927 34.1775 25.6159 34.1392 25.606 34.101C25.5968 34.0652 25.5594 34.0419 25.5211 34.0527C25.4854 34.0635 25.4621 34.0993 25.4729 34.1367C25.4837 34.1733 25.5195 34.1941 25.5569 34.1858Z" fill="white"/>
<path d="M21.0563 20.1857C21.0738 20.1816 21.0838 20.1624 21.0796 20.1458C21.0755 20.1283 21.0563 20.1184 21.0397 20.1225C21.023 20.1267 21.0122 20.1433 21.0164 20.1624C21.023 20.1791 21.0397 20.1899 21.0563 20.1857Z" fill="white"/>
<path d="M16.2231 17.6771L16.2145 17.6788C16.2257 17.6857 16.2257 17.6857 16.2231 17.6771Z" fill="white"/>
<path d="M23.4732 18.6581L23.4708 18.6501C23.4693 18.6501 23.4756 18.666 23.4732 18.6581Z" fill="white"/>
<path d="M21.9837 19.3813L21.9712 19.4021C21.992 19.4146 21.9878 19.398 21.9837 19.3813Z" fill="white"/>
<path d="M25.5251 16.0026L25.5509 15.996C25.5385 15.9976 25.5385 15.9976 25.5251 16.0026Z" fill="white"/>
<path d="M18.141 18.3636C18.1451 18.3761 18.1452 18.3761 18.1468 18.3886L18.141 18.3636Z" fill="white"/>
<path d="M13.5455 25.484C13.5323 25.4881 13.558 25.4799 13.558 25.4799L13.5455 25.484Z" fill="white"/>
<path d="M20.4058 25.4665L20.3884 25.4583C20.3926 25.4707 20.3926 25.4707 20.4058 25.4665Z" fill="white"/>
<path d="M26.9749 17.0787L26.965 17.0961C26.979 17.092 26.979 17.092 26.9749 17.0787Z" fill="white"/>
<path d="M23.0608 21.8009C23.0733 21.7968 23.0691 21.7843 23.0666 21.771L23.0608 21.8009Z" fill="white"/>
<path d="M19.6531 16.1672L19.6639 16.1498C19.649 16.1539 19.649 16.1539 19.6531 16.1672Z" fill="white"/>
<path d="M27.6553 15.6038L27.6454 15.6203C27.6595 15.6162 27.6595 15.6162 27.6553 15.6038Z" fill="white"/>
<path d="M12.6014 19.715C12.5839 19.7042 12.5839 19.7042 12.5714 19.7084L12.6014 19.715Z" fill="white"/>
<path d="M33.783 17.5549L33.8146 17.5732C33.8079 17.5458 33.8079 17.5458 33.783 17.5549Z" fill="white"/>
<path d="M29.8679 9.19861C29.902 9.21774 29.902 9.21774 29.9336 9.23604L29.8679 9.19861Z" fill="white"/>
<path d="M14.8282 29.3184L14.8157 29.3774C14.8415 29.3708 14.8348 29.3433 14.8282 29.3184Z" fill="white"/>
<path d="M36.4312 29.9839L36.4777 30.0554C36.4711 30.0305 36.4653 30.003 36.4312 29.9839Z" fill="white"/>
<path d="M27.0681 32.5211L27.0149 32.5344C27.0423 32.5294 27.0423 32.5294 27.0681 32.5211Z" fill="white"/>
<path d="M24.0573 29.6122L24.0448 29.6712C24.0698 29.6629 24.0631 29.6371 24.0573 29.6122Z" fill="white"/>
<path d="M22.5018 26.1827L22.5418 26.2293C22.5334 26.2018 22.5276 26.176 22.5018 26.1827Z" fill="white"/>
<path d="M19.1116 30.0248L19.1582 29.9849C19.1307 29.9915 19.1307 29.9915 19.1116 30.0248Z" fill="white"/>
<path d="M12.9218 9.3276C12.9593 9.3276 12.9892 9.29516 12.9892 9.25773C12.9892 9.21947 12.9576 9.18787 12.9218 9.18787C12.9152 9.18787 12.911 9.19203 12.9069 9.19452C12.896 9.23029 12.8861 9.26771 12.8752 9.30597C12.8861 9.31845 12.9027 9.3276 12.9218 9.3276Z" fill="white"/>
<path d="M19.382 4.81763C19.3437 4.81763 19.3121 4.84674 19.3121 4.88749C19.3121 4.92492 19.3437 4.95487 19.382 4.95487C19.4194 4.95487 19.451 4.92326 19.451 4.88749C19.4494 4.84674 19.4194 4.81763 19.382 4.81763Z" fill="white"/>
<path d="M27.0681 7.29362C27.0681 7.25536 27.0382 7.22375 27.0008 7.22375C26.9625 7.22375 26.9309 7.25536 26.9309 7.29362C26.9309 7.33105 26.9625 7.36266 27.0008 7.36266C27.0382 7.36266 27.0681 7.33105 27.0681 7.29362Z" fill="white"/>
<path d="M13.0582 13.15C13.0207 13.15 12.9891 13.1791 12.9891 13.2191C12.9891 13.2573 13.0207 13.2873 13.0582 13.2873C13.0964 13.2873 13.1255 13.2557 13.1255 13.2191C13.128 13.1791 13.0964 13.15 13.0582 13.15Z" fill="white"/>
<path d="M30.644 3.9902C30.644 3.95194 30.614 3.922 30.5757 3.922C30.5383 3.922 30.5067 3.9536 30.5067 3.9902C30.5067 4.02763 30.5383 4.05924 30.5757 4.05924C30.614 4.05924 30.644 4.02763 30.644 3.9902Z" fill="white"/>
<path d="M33.4917 11.4015C33.5299 11.4015 33.5616 11.3716 33.5616 11.3317C33.5616 11.2934 33.5299 11.2643 33.4917 11.2643C33.4543 11.2643 33.4243 11.2959 33.4243 11.3317C33.4243 11.3716 33.4543 11.4015 33.4917 11.4015Z" fill="white"/>
<path d="M24.0905 5.61478C24.1288 5.61478 24.1579 5.58317 24.1579 5.54741C24.1579 5.50915 24.1288 5.47754 24.0905 5.47754C24.0531 5.47754 24.0215 5.50915 24.0215 5.54741C24.0231 5.58567 24.0531 5.61478 24.0905 5.61478Z" fill="white"/>
<path d="M6.8009 16.5618C6.8009 16.6001 6.83251 16.63 6.86994 16.63C6.9082 16.63 6.93981 16.5984 6.93981 16.5618C6.93981 16.5244 6.91069 16.4928 6.86994 16.4928C6.83001 16.4928 6.8009 16.5219 6.8009 16.5618Z" fill="white"/>
<path d="M32.957 16.3553C32.9187 16.3553 32.8871 16.387 32.8871 16.4244C32.8871 16.4626 32.9187 16.4926 32.957 16.4926C32.9952 16.4926 33.0243 16.4601 33.0243 16.4244C33.0243 16.3845 32.9952 16.3553 32.957 16.3553Z" fill="white"/>
<path d="M3.6842 21.9908C3.6842 22.029 3.71581 22.0607 3.75407 22.0607C3.7915 22.0607 3.82311 22.029 3.82311 21.9908C3.82311 21.9534 3.7915 21.9218 3.75407 21.9218C3.71415 21.9218 3.6842 21.9534 3.6842 21.9908Z" fill="white"/>
<path d="M5.37189 23.8221C5.41015 23.8221 5.43926 23.7921 5.43926 23.7538C5.43926 23.7164 5.41015 23.6848 5.37189 23.6848C5.33446 23.6848 5.30286 23.7164 5.30286 23.7538C5.30286 23.7921 5.33446 23.8221 5.37189 23.8221Z" fill="white"/>
<path d="M8.02108 21.8308C8.05851 21.8308 8.09012 21.7983 8.09012 21.7609C8.09012 21.7226 8.05851 21.691 8.02108 21.691C7.98282 21.691 7.95288 21.7226 7.95288 21.7609C7.95288 21.7983 7.98282 21.8308 8.02108 21.8308Z" fill="white"/>
<path d="M12.9908 20.0842C12.9534 20.0842 12.9235 20.1158 12.9235 20.1541C12.9235 20.1915 12.9534 20.224 12.9908 20.224C13.0291 20.224 13.0607 20.1915 13.0607 20.1541C13.0582 20.1142 13.0291 20.0842 12.9908 20.0842Z" fill="white"/>
<path d="M12.9218 27.3971C12.9592 27.3971 12.9892 27.3655 12.9892 27.3289C12.9892 27.2915 12.9576 27.2599 12.9218 27.2599C12.8835 27.2599 12.8519 27.2915 12.8519 27.3289C12.8544 27.3655 12.8835 27.3971 12.9218 27.3971Z" fill="white"/>
<path d="M6.80082 30.7809C6.83825 30.7809 6.86986 30.7518 6.86986 30.7135C6.86986 30.6753 6.83825 30.6437 6.80082 30.6437C6.76256 30.6437 6.73096 30.6736 6.73096 30.7135C6.73096 30.7493 6.76256 30.7809 6.80082 30.7809Z" fill="white"/>
<path d="M19.382 22.8866C19.3437 22.8866 19.3121 22.9182 19.3121 22.954C19.3121 22.9922 19.3437 23.0238 19.382 23.0238C19.4194 23.0238 19.451 22.9922 19.451 22.954C19.4494 22.9157 19.4194 22.8866 19.382 22.8866Z" fill="white"/>
<path d="M27.0008 25.433C27.0382 25.433 27.0681 25.4014 27.0681 25.3648C27.0681 25.3274 27.0382 25.2958 27.0008 25.2958C26.9625 25.2958 26.9309 25.3274 26.9309 25.3648C26.9309 25.4014 26.9625 25.433 27.0008 25.433Z" fill="white"/>
<path d="M35.1545 25.2261C35.1162 25.2261 35.0846 25.2552 35.0846 25.2959C35.0846 25.3334 35.1162 25.3633 35.1545 25.3633C35.1927 25.3633 35.2243 25.3317 35.2243 25.2959C35.2218 25.2577 35.1927 25.2261 35.1545 25.2261Z" fill="white"/>
<path d="M1.59656 29.8038C1.59822 29.8163 1.60072 29.8313 1.60238 29.8438C1.60238 29.8396 1.60903 29.8354 1.60903 29.8313C1.60903 29.8205 1.60238 29.8146 1.59656 29.8038Z" fill="white"/>
<path d="M13.0582 31.2184C13.0207 31.2184 12.9891 31.25 12.9891 31.2883C12.9891 31.3257 13.0207 31.3573 13.0582 31.3573C13.0964 31.3573 13.1255 31.3257 13.1255 31.2883C13.128 31.2475 13.0964 31.2184 13.0582 31.2184Z" fill="white"/>
<path d="M30.5757 21.9904C30.5383 21.9904 30.5067 22.0228 30.5067 22.0602C30.5067 22.0985 30.5383 22.1284 30.5757 22.1284C30.614 22.1284 30.644 22.0985 30.644 22.0602C30.644 22.0203 30.614 21.9904 30.5757 21.9904Z" fill="white"/>
<path d="M25.7574 20.1543C25.7956 20.1543 25.8272 20.1227 25.8272 20.0844C25.8272 20.0461 25.7956 20.0145 25.7574 20.0145C25.7191 20.0145 25.6875 20.0461 25.6875 20.0844C25.6875 20.1227 25.7191 20.1543 25.7574 20.1543Z" fill="white"/>
<path d="M9.70854 24.702C9.67028 24.702 9.63867 24.732 9.63867 24.7702C9.63867 24.8077 9.67028 24.8393 9.70854 24.8393C9.74597 24.8393 9.77591 24.8077 9.77591 24.7702C9.77591 24.732 9.74597 24.702 9.70854 24.702Z" fill="white"/>
<path d="M33.4917 29.3333C33.4543 29.3333 33.4243 29.3649 33.4243 29.4031C33.4243 29.4405 33.4543 29.4722 33.4917 29.4722C33.5299 29.4722 33.5616 29.4405 33.5616 29.4031C33.5616 29.3649 33.5299 29.3333 33.4917 29.3333Z" fill="white"/>
<path d="M24.0905 23.6852C24.1288 23.6852 24.1579 23.6553 24.1579 23.6153C24.1579 23.5771 24.1288 23.548 24.0905 23.548C24.0531 23.548 24.0215 23.5796 24.0215 23.6153C24.0231 23.6553 24.0531 23.6852 24.0905 23.6852Z" fill="white"/>
<path d="M6.86821 34.6984C6.90564 34.6984 6.93724 34.6668 6.93724 34.6285C6.93724 34.5903 6.90813 34.5612 6.86821 34.5612C6.82995 34.5612 6.79834 34.5928 6.79834 34.6285C6.80084 34.6685 6.82995 34.6984 6.86821 34.6984Z" fill="white"/>
<path d="M32.957 34.4248C32.9187 34.4248 32.8871 34.4564 32.8871 34.4947C32.8871 34.5321 32.9187 34.5637 32.957 34.5637C32.9952 34.5637 33.0243 34.5321 33.0243 34.4947C33.0243 34.4564 32.9952 34.4248 32.957 34.4248Z" fill="white"/>
<path d="M8.76036 13.3202C8.73873 13.3202 8.73873 13.3518 8.76036 13.3518C8.77949 13.3518 8.77949 13.3202 8.76036 13.3202Z" fill="white"/>
<path d="M14.2492 7.20935C14.2409 7.20935 14.2301 7.20935 14.2218 7.20935C14.2002 7.20935 14.2002 7.24096 14.2218 7.24096C14.2301 7.24096 14.2409 7.24096 14.2492 7.24096C14.27 7.24345 14.27 7.20935 14.2492 7.20935Z" fill="white"/>
<path d="M1.83457 14.9463C1.85536 14.9463 1.85536 14.9147 1.83457 14.9147C1.81377 14.9131 1.81377 14.9463 1.83457 14.9463Z" fill="white"/>
<path d="M6.90154 15.0908C6.89988 15.0717 6.86827 15.0717 6.86994 15.0925C6.87243 15.1141 6.87909 15.1199 6.89988 15.1224C6.91901 15.1241 6.91901 15.095 6.90154 15.0908Z" fill="white"/>
<path d="M15.857 6.64185C15.8354 6.64185 15.8354 6.67345 15.857 6.67345C15.8778 6.67345 15.8778 6.64185 15.857 6.64185Z" fill="white"/>
<path d="M15.372 8.63483C15.3736 8.61321 15.3445 8.61321 15.3404 8.63234C15.3237 8.63649 15.3212 8.66394 15.342 8.66394C15.3636 8.66228 15.372 8.65563 15.372 8.63483Z" fill="white"/>
<path d="M3.72421 16.2539C3.70342 16.2539 3.70342 16.2855 3.72421 16.2855C3.74584 16.2855 3.74584 16.2539 3.72421 16.2539Z" fill="white"/>
<path d="M16.3668 7.37416C16.3477 7.37832 16.3477 7.40576 16.3685 7.40576C16.3893 7.4041 16.3984 7.39745 16.3984 7.37665C16.4001 7.35503 16.371 7.35503 16.3668 7.37416Z" fill="white"/>
<path d="M18.8171 6.71136C18.8171 6.69223 18.8171 6.67559 18.8171 6.65646C18.8171 6.63567 18.7855 6.63567 18.7855 6.65646C18.7855 6.67559 18.7855 6.69223 18.7855 6.71136C18.7855 6.73215 18.8171 6.73215 18.8171 6.71136Z" fill="white"/>
<path d="M21.8257 10.7844C21.8049 10.7844 21.8049 10.816 21.8257 10.816C21.8406 10.816 21.8365 10.8119 21.8365 10.8268C21.8365 10.8476 21.8681 10.8476 21.8681 10.8268C21.8697 10.7952 21.8598 10.7844 21.8257 10.7844Z" fill="white"/>
<path d="M30.9848 13.0044C30.964 13.0044 30.964 13.036 30.9848 13.036C31.0056 13.036 31.0056 13.0044 30.9848 13.0044Z" fill="white"/>
<path d="M28.1596 5.34292C28.1679 5.3346 28.1787 5.32379 28.187 5.31547C28.202 5.3005 28.1787 5.27721 28.1637 5.29218C28.1554 5.3005 28.1471 5.31131 28.1363 5.31963C28.1238 5.3346 28.1446 5.35789 28.1596 5.34292Z" fill="white"/>
<path d="M20.1903 1.772C20.172 1.75287 20.1546 1.73624 20.1354 1.71711C20.1213 1.70213 20.098 1.72542 20.113 1.7404C20.1296 1.75953 20.1488 1.77616 20.1671 1.79529C20.182 1.81026 20.2053 1.78697 20.1903 1.772Z" fill="white"/>
<path d="M25.5129 16.1884C25.5129 16.1968 25.5129 16.2051 25.5129 16.2159C25.5129 16.2367 25.5445 16.2367 25.5445 16.2159C25.5445 16.2076 25.5445 16.1968 25.5445 16.1884C25.5445 16.1677 25.5129 16.1677 25.5129 16.1884Z" fill="white"/>
<path d="M25.6351 10.6224C25.6268 10.6224 25.6184 10.6224 25.6076 10.6224C25.5868 10.6224 25.5868 10.654 25.6076 10.654C25.616 10.654 25.6268 10.654 25.6351 10.654C25.6559 10.654 25.6559 10.6224 25.6351 10.6224Z" fill="white"/>
<path d="M30.4176 14.8203C30.4093 14.8203 30.401 14.8203 30.391 14.8203C30.3693 14.8203 30.3693 14.8519 30.391 14.8519C30.3993 14.8519 30.4093 14.8519 30.4176 14.8519C30.4392 14.8519 30.4392 14.8203 30.4176 14.8203Z" fill="white"/>
<path d="M24.944 15.2948C24.944 15.3031 24.944 15.3139 24.944 15.3222C24.944 15.343 24.9781 15.343 24.9781 15.3222C24.9781 15.3139 24.9781 15.3031 24.9781 15.2948C24.9781 15.274 24.944 15.274 24.944 15.2948Z" fill="white"/>
<path d="M32.3631 9.26821C32.3182 9.26821 32.2908 9.26405 32.2683 9.22246C32.2575 9.20333 32.2301 9.21997 32.2409 9.2391C32.27 9.2915 32.3058 9.30065 32.3631 9.30065C32.3839 9.30065 32.3839 9.26821 32.3631 9.26821Z" fill="white"/>
<path d="M29.7588 5.29218C29.7497 5.3005 29.7397 5.31131 29.7314 5.31963C29.7164 5.3346 29.7397 5.35789 29.7539 5.34292C29.763 5.3346 29.773 5.32379 29.7813 5.31547C29.7963 5.3005 29.773 5.27721 29.7588 5.29218Z" fill="white"/>
<path d="M33.2664 6.11606C33.2664 6.15016 33.2772 6.15848 33.3113 6.15848C33.3321 6.15848 33.3321 6.12687 33.3113 6.12687C33.2963 6.12687 33.3005 6.13103 33.3005 6.11606C33.298 6.09527 33.2664 6.09527 33.2664 6.11606Z" fill="white"/>
<path d="M27.3267 12.8058C27.3267 12.7841 27.2935 12.7841 27.2935 12.8058C27.2935 12.8332 27.2935 12.8607 27.2935 12.8856C27.2935 12.9072 27.3267 12.9072 27.3267 12.8856C27.3267 12.8582 27.3267 12.8307 27.3267 12.8058Z" fill="white"/>
<path d="M30.5382 18.0039C30.5382 18.0122 30.5382 18.0213 30.5382 18.0313C30.5382 18.0529 30.5698 18.0529 30.5698 18.0313C30.5698 18.023 30.5698 18.0122 30.5698 18.0039C30.5698 17.9831 30.5382 17.9831 30.5382 18.0039Z" fill="white"/>
<path d="M4.3464 14.4122C4.33808 14.4122 4.32893 14.4122 4.31895 14.4122C4.29733 14.4122 4.29733 14.4438 4.31895 14.4438C4.32727 14.4438 4.33559 14.4438 4.3464 14.4438C4.3672 14.4455 4.3672 14.4122 4.3464 14.4122Z" fill="white"/>
<path d="M0.553441 17.4339C0.553441 17.4123 0.521835 17.4123 0.51934 17.4339C0.521835 17.4489 0.517676 17.4614 0.5052 17.4722C0.483574 17.4764 0.491892 17.508 0.513517 17.5038C0.549283 17.4972 0.553441 17.4656 0.553441 17.4339Z" fill="white"/>
<path d="M24.4913 15.1052C24.4913 15.0836 24.4597 15.0836 24.4597 15.1052C24.4597 15.1493 24.4597 15.1959 24.4597 15.24C24.4597 15.2607 24.4913 15.2607 24.4913 15.24C24.4913 15.1959 24.4913 15.151 24.4913 15.1052Z" fill="white"/>
<path d="M25.675 11.3373C25.665 11.3506 25.6517 11.3548 25.6376 11.3523C25.6159 11.3523 25.6159 11.3839 25.6376 11.3839C25.6692 11.3839 25.7008 11.3822 25.7066 11.3465C25.7091 11.3248 25.6775 11.3165 25.675 11.3373Z" fill="white"/>
<path d="M23.652 8.0666C23.652 8.05829 23.652 8.04747 23.652 8.03915C23.652 8.01836 23.6204 8.01836 23.6204 8.03915C23.6204 8.04747 23.6204 8.05829 23.6204 8.0666C23.6204 8.08573 23.652 8.08573 23.652 8.0666Z" fill="white"/>
<path d="M23.7345 19.0857C23.7345 19.0649 23.7029 19.0649 23.7029 19.0857C23.7029 19.094 23.7029 19.1048 23.7029 19.1131C23.7029 19.1347 23.7345 19.1347 23.7345 19.1131C23.7345 19.1048 23.7345 19.0965 23.7345 19.0857Z" fill="white"/>
<path d="M24.5987 21.8754C24.5987 21.8537 24.5671 21.8537 24.5671 21.8754C24.5671 21.8837 24.5671 21.892 24.5671 21.9028C24.5671 21.9236 24.5987 21.9236 24.5987 21.9028C24.5987 21.8945 24.5987 21.8837 24.5987 21.8754Z" fill="white"/>
<path d="M22.0152 25.163C21.9944 25.163 21.9944 25.1946 22.0152 25.1946C22.036 25.1946 22.036 25.163 22.0152 25.163Z" fill="white"/>
<path d="M27.5123 15.0626C27.5339 15.041 27.5439 15.0269 27.5439 14.9969C27.5439 14.9761 27.5123 14.9761 27.5123 14.9969C27.5123 15.016 27.504 15.0269 27.489 15.0393C27.4748 15.0543 27.4973 15.0776 27.5123 15.0626Z" fill="white"/>
<path d="M25.9344 4.14966C25.9128 4.14966 25.9128 4.1821 25.9344 4.1821C25.9536 4.18376 25.9536 4.14966 25.9344 4.14966Z" fill="white"/>
<path d="M29.7539 11.5322C29.7539 11.5405 29.7539 11.5488 29.7539 11.5596C29.7539 11.5804 29.7855 11.5804 29.7855 11.5596C29.7855 11.5513 29.7855 11.5405 29.7855 11.5322C29.7855 11.5114 29.7539 11.5114 29.7539 11.5322Z" fill="white"/>
<path d="M31.1579 16.3229C31.1579 16.3421 31.1487 16.3529 31.1346 16.3653C31.1196 16.3803 31.1429 16.4036 31.1579 16.3886C31.1787 16.3678 31.1895 16.3529 31.1895 16.3229C31.1911 16.3046 31.1595 16.3046 31.1579 16.3229Z" fill="white"/>
<path d="M34.3202 13.076C34.3202 13.1035 34.3177 13.1226 34.2969 13.1459C34.2844 13.1625 34.3052 13.1858 34.3202 13.1692C34.3435 13.1392 34.3518 13.1143 34.3518 13.076C34.3518 13.0544 34.3202 13.0544 34.3202 13.076Z" fill="white"/>
<path d="M31.4606 19.3361C31.4606 19.3345 31.4606 19.332 31.4606 19.3303C31.4589 19.3087 31.429 19.3087 31.429 19.3303C31.429 19.332 31.429 19.3345 31.429 19.3361C31.4123 19.3536 31.4123 19.3852 31.4464 19.3852C31.478 19.3852 31.478 19.3536 31.4606 19.3361Z" fill="white"/>
<path d="M23.0158 12.5861C22.9801 12.5861 22.9801 12.6426 23.0158 12.6426C23.0516 12.6426 23.0516 12.5861 23.0158 12.5861Z" fill="white"/>
<path d="M21.9962 6.87623C21.9837 6.87374 21.9729 6.87623 21.9629 6.87623C21.9313 6.87873 21.9313 6.92447 21.9629 6.92697C21.9729 6.92697 21.9862 6.92946 21.9962 6.92697C22.0195 6.92031 22.0195 6.88289 21.9962 6.87623Z" fill="white"/>
<path d="M26.326 3.99544C26.3219 3.98962 26.3111 3.98463 26.3027 3.98962C26.2878 3.97049 26.2545 3.98297 26.2587 4.01208C26.2695 4.07779 26.3601 4.04618 26.326 3.99544Z" fill="white"/>
<path d="M32.4994 13.8908C32.4953 13.8908 32.4911 13.8908 32.487 13.8883C32.4321 13.865 32.4321 13.9607 32.487 13.9374C32.4911 13.9349 32.4953 13.9349 32.4994 13.9349C32.5269 13.9374 32.5269 13.8925 32.4994 13.8908Z" fill="white"/>
<path d="M21.2951 23.483C21.2801 23.4772 21.2651 23.4871 21.2676 23.5046C21.2734 23.5296 21.2884 23.5529 21.2884 23.5803C21.2884 23.6102 21.3325 23.6102 21.335 23.5803C21.3366 23.5404 21.3391 23.5021 21.2951 23.483Z" fill="white"/>
<path d="M11.5875 23.5808C11.5684 23.5833 11.5517 23.585 11.5326 23.585C11.501 23.585 11.501 23.6316 11.5326 23.6341C11.5501 23.6341 11.5684 23.6357 11.5875 23.6382C11.6216 23.6382 11.6216 23.5792 11.5875 23.5808Z" fill="white"/>
<path d="M9.41095 20.0251C9.40929 20.0226 9.40679 20.0226 9.40513 20.0209C9.40097 20.0184 9.39265 20.0184 9.38849 20.0209C9.37768 20.0292 9.36687 20.0675 9.36271 20.0675C9.33942 20.0733 9.34358 20.1141 9.36936 20.1091C9.40097 20.1049 9.41761 20.0866 9.42176 20.0542C9.42592 20.0417 9.42176 20.0317 9.41095 20.0251Z" fill="white"/>
<path d="M8.77465 16.3044C8.76217 16.2952 8.74554 16.3019 8.73888 16.3127C8.72641 16.3335 8.75219 16.3568 8.75219 16.3776C8.75219 16.4117 8.80459 16.4117 8.80459 16.3776C8.8021 16.3459 8.80043 16.3227 8.77465 16.3044Z" fill="white"/>
<path d="M4.56919 19.1441C4.53592 19.1342 4.5143 19.1525 4.49101 19.1758C4.46855 19.199 4.50432 19.2348 4.52761 19.2115C4.54175 19.1974 4.55256 19.1949 4.56919 19.1891C4.59082 19.1824 4.59082 19.1525 4.56919 19.1441Z" fill="white"/>
<path d="M22.2324 20.654C22.2665 20.654 22.2665 20.6041 22.2324 20.6041C22.1983 20.6041 22.1983 20.654 22.2324 20.654Z" fill="white"/>
<path d="M25.0767 16.7583C25.0426 16.7524 25.0285 16.8048 25.0618 16.809C25.0643 16.809 25.0767 16.8406 25.0809 16.8473C25.0892 16.8581 25.1042 16.8597 25.1125 16.8473C25.1333 16.8132 25.1167 16.7674 25.0767 16.7583Z" fill="white"/>
<path d="M23.9049 10.2068C23.9049 10.1984 23.9007 10.1918 23.8966 10.1876C23.8949 10.1835 23.8949 10.1768 23.8924 10.1727C23.8883 10.1618 23.8716 10.1618 23.8675 10.1727C23.865 10.1768 23.865 10.1835 23.8633 10.1876C23.8591 10.1918 23.855 10.1984 23.855 10.2068C23.855 10.2126 23.855 10.2209 23.855 10.2301C23.855 10.2467 23.8675 10.255 23.8799 10.255C23.8924 10.255 23.9074 10.2467 23.9074 10.2301C23.9049 10.2209 23.9049 10.2126 23.9049 10.2068Z" fill="white"/>
<path d="M28.9597 18.4498C28.9555 18.4498 28.9514 18.4498 28.9497 18.4456C28.9347 18.4306 28.9098 18.4431 28.9098 18.4622C28.9098 18.4814 28.9372 18.4938 28.9497 18.4797C28.9514 18.4747 28.9555 18.4747 28.9597 18.4747C28.9772 18.4747 28.9772 18.4522 28.9597 18.4498Z" fill="white"/>
<path d="M3.59363 23.4204C3.60195 23.4587 3.64021 23.4795 3.67597 23.4695C3.71423 23.4587 3.73503 23.4229 3.72671 23.3847C3.72671 23.383 3.72421 23.383 3.72255 23.3805C3.70758 23.3722 3.69677 23.3597 3.69094 23.3422C3.67597 23.3339 3.65934 23.3323 3.6427 23.3364C3.60694 23.3464 3.58365 23.3847 3.59363 23.4204Z" fill="white"/>
<path d="M5.36756 30.3007C5.33179 30.3107 5.3085 30.3464 5.31932 30.3847C5.32763 30.4205 5.36589 30.4437 5.40332 30.4329C5.43909 30.4229 5.46238 30.3872 5.4524 30.3489C5.44325 30.3132 5.40582 30.2915 5.36756 30.3007Z" fill="white"/>
<path d="M10.5636 24.58C10.5994 24.5691 10.6227 24.5334 10.6118 24.4951C10.6035 24.4594 10.5661 24.4361 10.5278 24.4469C10.4921 24.4552 10.4688 24.4935 10.4796 24.5317C10.4896 24.565 10.5278 24.5883 10.5636 24.58Z" fill="white"/>
<path d="M18.5918 24.9154C18.5827 24.8796 18.5452 24.8564 18.5095 24.8663C18.4712 24.8747 18.4504 24.9129 18.4612 24.9512C18.4695 24.9869 18.507 25.0102 18.5452 24.9994C18.5785 24.9911 18.6001 24.9528 18.5918 24.9154Z" fill="white"/>
<path d="M26.3371 22.8379C26.3454 22.8736 26.3828 22.8969 26.4211 22.8861C26.4569 22.8778 26.4801 22.8395 26.4693 22.8038C26.4593 22.7655 26.4236 22.7447 26.3853 22.753C26.3471 22.7639 26.3263 22.8013 26.3371 22.8379Z" fill="white"/>
<path d="M6.49056 34.099C6.4548 34.1073 6.43234 34.1456 6.44232 34.183C6.45313 34.2188 6.4889 34.2421 6.52716 34.2321C6.56292 34.2213 6.58538 34.1855 6.5754 34.1472C6.56459 34.1115 6.52716 34.0907 6.49056 34.099Z" fill="white"/>
<path d="M21.2275 20.8185C21.2192 20.7827 21.181 20.7594 21.1427 20.7702C21.1069 20.7811 21.0836 20.8168 21.0945 20.8551C21.1028 20.8908 21.141 20.9141 21.1785 20.9033C21.2142 20.8925 21.2375 20.8567 21.2275 20.8185Z" fill="white"/>
<path d="M15.9367 20.1519C15.9451 20.1876 15.9833 20.2109 16.0208 20.2009C16.0565 20.1901 16.0798 20.1544 16.069 20.1161C16.0607 20.0803 16.0232 20.057 15.985 20.0679C15.9492 20.0762 15.9259 20.1144 15.9367 20.1519Z" fill="white"/>
<path d="M1.56921 28.7144C1.58002 28.7501 1.61579 28.7734 1.65322 28.7626C1.68898 28.7543 1.71227 28.716 1.70146 28.6786C1.69314 28.6428 1.65571 28.6195 1.61745 28.6295C1.58168 28.6403 1.56089 28.6786 1.56921 28.7144Z" fill="white"/>
<path d="M26.0267 19.1976C26.0625 19.1893 26.0858 19.1511 26.0758 19.1128C26.0667 19.077 26.0292 19.0537 25.991 19.0646C25.9552 19.0729 25.9319 19.1111 25.9427 19.1486C25.951 19.1843 25.9893 19.2076 26.0267 19.1976Z" fill="white"/>
<path d="M25.8861 27.1963C25.877 27.1597 25.8395 27.1364 25.8013 27.1472C25.7655 27.158 25.7422 27.1938 25.753 27.232C25.7638 27.2678 25.7996 27.2911 25.837 27.2803C25.8728 27.272 25.8961 27.2337 25.8861 27.1963Z" fill="white"/>
<path d="M30.698 15.9477C30.6897 15.9111 30.6523 15.8878 30.614 15.8987C30.5783 15.9095 30.555 15.9452 30.5658 15.9835C30.5758 16.0193 30.6124 16.0425 30.6498 16.0317C30.6855 16.0234 30.7072 15.9852 30.698 15.9477Z" fill="white"/>
<path d="M15.2565 23.9061C15.2199 23.9169 15.1975 23.9527 15.2075 23.9909C15.2183 24.0267 15.254 24.05 15.2923 24.0392C15.3281 24.0309 15.3513 23.9926 15.3405 23.9552C15.3297 23.9169 15.2923 23.8953 15.2565 23.9061Z" fill="white"/>
<path d="M26.5051 32.2934C26.5134 32.3291 26.5517 32.3524 26.5899 32.3425C26.6257 32.3333 26.649 32.2959 26.6382 32.2601C26.6298 32.2235 26.5916 32.2002 26.5541 32.211C26.5184 32.2194 26.4968 32.2576 26.5051 32.2934Z" fill="white"/>
<path d="M30.934 40.3811C30.9697 40.3703 30.993 40.3345 30.9822 40.2963C30.9739 40.2605 30.9365 40.2372 30.9007 40.248C30.8641 40.258 30.8416 40.2938 30.8516 40.332C30.8599 40.3678 30.8957 40.3911 30.934 40.3811Z" fill="white"/>
<path d="M25.6917 38.3957C25.7282 38.3874 25.7507 38.3491 25.7407 38.3117C25.7299 38.2751 25.6941 38.2526 25.6559 38.2626C25.6201 38.2709 25.5968 38.3092 25.6076 38.3475C25.6185 38.3849 25.6559 38.4065 25.6917 38.3957Z" fill="white"/>
<path d="M20.45 37.644C20.4583 37.6806 20.4965 37.7031 20.5323 37.6931C20.5697 37.6823 20.5913 37.6465 20.5805 37.6083C20.5697 37.5725 20.534 37.5492 20.4965 37.56C20.4624 37.57 20.4416 37.6083 20.45 37.644Z" fill="white"/>
<path d="M30.4558 36.6432C30.4641 36.679 30.5024 36.7022 30.5398 36.6914C30.5756 36.6815 30.5989 36.6457 30.5889 36.6074C30.5806 36.5717 30.5423 36.5484 30.504 36.5584C30.4683 36.5692 30.4475 36.6049 30.4558 36.6432Z" fill="white"/>
<path d="M35.1295 33.3939C35.0938 33.4047 35.0705 33.4405 35.0804 33.4779C35.0896 33.5145 35.127 33.537 35.1653 33.527C35.2011 33.5187 35.2243 33.4804 35.2135 33.4421C35.2027 33.4064 35.1653 33.3831 35.1295 33.3939Z" fill="white"/>
<path d="M19.8537 41.448C19.8453 41.4098 19.8071 41.389 19.7696 41.399C19.7464 41.4056 19.7314 41.4248 19.7247 41.4456C19.7672 41.4522 19.8096 41.458 19.8495 41.4647C19.8512 41.458 19.8537 41.4539 19.8537 41.448Z" fill="white"/>
<path d="M4.06771 30.7374C4.07437 30.7581 4.10348 30.7498 4.09932 30.729C4.09932 30.7249 4.09766 30.7224 4.09766 30.7182C4.0935 30.6974 4.06189 30.7057 4.06605 30.7265C4.06605 30.7307 4.06605 30.7332 4.06771 30.7374Z" fill="white"/>
<path d="M2.5764 31.4905C2.58056 31.493 2.58472 31.493 2.58888 31.4947C2.59553 31.4972 2.60135 31.4947 2.60385 31.4905C2.61632 31.478 2.61216 31.4656 2.60967 31.4489C2.60551 31.4273 2.5739 31.4356 2.57806 31.4572C2.58056 31.4572 2.58222 31.4589 2.58472 31.4589C2.56559 31.4506 2.55727 31.4822 2.5764 31.4905Z" fill="white"/>
<path d="M2.34444 33.8772C2.34444 33.8755 2.34277 33.8714 2.34277 33.8689C2.33862 33.8481 2.30701 33.8581 2.31117 33.8772C2.31117 33.8797 2.31283 33.8838 2.31283 33.8855C2.31699 33.9046 2.3486 33.8963 2.34444 33.8772Z" fill="white"/>
<path d="M3.02475 32.7406C3.00396 32.7406 3.00396 32.7722 3.02475 32.7722C3.04638 32.7747 3.04638 32.7406 3.02475 32.7406Z" fill="white"/>
<path d="M6.1329 28.0573C6.11128 28.0639 6.12209 28.0938 6.14122 28.0889C6.14954 28.0872 6.15786 28.0847 6.16617 28.083C6.1878 28.0764 6.17699 28.0473 6.15786 28.0514C6.14954 28.0531 6.14122 28.0556 6.1329 28.0573Z" fill="white"/>
<path d="M4.49373 28.034C4.47294 28.0406 4.48126 28.0706 4.50205 28.0664C4.50621 28.0664 4.51037 28.0639 4.51453 28.0614C4.53366 28.0572 4.52534 28.0256 4.50621 28.0298C4.50205 28.0323 4.49789 28.034 4.49373 28.034Z" fill="white"/>
<path d="M7.57614 27.1284C7.59694 27.1284 7.59694 27.0968 7.57614 27.0968C7.55535 27.0968 7.55535 27.1284 7.57614 27.1284Z" fill="white"/>
<path d="M7.58267 29.1852C7.60097 29.1785 7.60762 29.1685 7.60346 29.1494C7.5993 29.1303 7.57185 29.1369 7.57185 29.156C7.55272 29.1619 7.56104 29.1893 7.58267 29.1852Z" fill="white"/>
<path d="M4.3588 32.2266C4.36047 32.2307 4.36047 32.2349 4.36296 32.239C4.36712 32.2607 4.39873 32.2499 4.39457 32.2307C4.39457 32.2266 4.39207 32.2224 4.39041 32.2182C4.38376 32.1991 4.35464 32.2074 4.3588 32.2266Z" fill="white"/>
<path d="M3.67839 33.8881C3.69669 33.8731 3.69669 33.8623 3.69253 33.839C3.68838 33.8182 3.65677 33.8265 3.66093 33.8482C3.66093 33.8523 3.66093 33.8565 3.66093 33.8581C3.64679 33.8715 3.66093 33.9006 3.67839 33.8881Z" fill="white"/>
<path d="M8.25061 27.6771C8.23314 27.6838 8.23979 27.7137 8.25892 27.7071C8.27972 27.7004 8.28388 27.6904 8.27972 27.6713C8.27805 27.6522 8.25061 27.6588 8.25061 27.6771Z" fill="white"/>
<path d="M10.4565 26.423C10.4523 26.4063 10.4482 26.3872 10.4415 26.3706C10.4374 26.3498 10.4058 26.3581 10.4099 26.3789C10.4141 26.3955 10.4182 26.4146 10.4224 26.4321C10.4315 26.4504 10.4632 26.4421 10.4565 26.423Z" fill="white"/>
<path d="M14.3965 29.6412C14.4115 29.637 14.4048 29.6353 14.409 29.6503C14.4156 29.6711 14.4447 29.6628 14.4406 29.6412C14.4322 29.6095 14.4198 29.6037 14.3882 29.6095C14.369 29.6162 14.3774 29.6478 14.3965 29.6412Z" fill="white"/>
<path d="M23.8143 29.494C23.8359 29.494 23.8359 29.4624 23.8143 29.4624C23.7935 29.4624 23.7935 29.494 23.8143 29.494Z" fill="white"/>
<path d="M19.179 22.7194C19.1898 22.7028 19.1623 22.6862 19.1515 22.7028C19.1457 22.7136 19.139 22.7236 19.1332 22.7369C19.1224 22.7536 19.1498 22.7702 19.1607 22.7536C19.1665 22.7411 19.1731 22.7303 19.179 22.7194Z" fill="white"/>
<path d="M23.288 17.861C23.2905 17.8627 23.2921 17.8627 23.2921 17.8652C23.2946 17.8735 23.2963 17.8818 23.2988 17.8901C23.2988 17.8926 23.2988 17.8943 23.2988 17.8968C23.3071 17.9092 23.3304 17.9009 23.3262 17.8843C23.3237 17.8751 23.3221 17.8668 23.3179 17.8585C23.3137 17.8419 23.2905 17.846 23.288 17.861Z" fill="white"/>
<path d="M10.5529 21.2961C10.5321 21.2836 10.5088 21.2711 10.488 21.2561C10.4689 21.2453 10.4539 21.2728 10.4714 21.2836C10.4922 21.2961 10.5154 21.3085 10.5362 21.3218C10.5554 21.3343 10.5703 21.3069 10.5529 21.2961Z" fill="white"/>
<path d="M19.3453 33.9366C19.3437 33.9283 19.3412 33.92 19.3395 33.9117C19.3329 33.8901 19.3037 33.8992 19.3079 33.92C19.3096 33.9283 19.3121 33.9366 19.3146 33.945C19.3187 33.9641 19.3503 33.9558 19.3453 33.9366Z" fill="white"/>
<path d="M18.0437 28.5288C18.0645 28.5238 18.0545 28.4922 18.0354 28.4963C18.027 28.4988 18.0187 28.5013 18.0096 28.503C17.9888 28.5072 17.9996 28.5388 18.0187 28.5346C18.027 28.5329 18.0354 28.5304 18.0437 28.5288Z" fill="white"/>
<path d="M23.7137 31.3603C23.7054 31.3628 23.6971 31.3644 23.6863 31.3669C23.6655 31.3711 23.6754 31.4027 23.6946 31.3985C23.7029 31.396 23.7112 31.3944 23.7195 31.3919C23.7428 31.3852 23.7345 31.3561 23.7137 31.3603Z" fill="white"/>
<path d="M18.5344 33.1958C18.5369 33.2041 18.5386 33.2124 18.5411 33.2216C18.5469 33.2424 18.5768 33.234 18.5727 33.2124C18.5702 33.2041 18.5685 33.1958 18.566 33.1875C18.5602 33.1667 18.5286 33.175 18.5344 33.1958Z" fill="white"/>
<path d="M24.1081 25.477C24.0931 25.462 24.0698 25.4853 24.0848 25.5003C24.1264 25.5444 24.1621 25.5444 24.2195 25.5294C24.2403 25.5252 24.2295 25.4936 24.2112 25.4978C24.1688 25.5086 24.1413 25.5128 24.1081 25.477Z" fill="white"/>
<path d="M20.7044 22.3524C20.711 22.3416 20.7177 22.3308 20.7235 22.3183C20.7343 22.2992 20.7069 22.2842 20.6961 22.3017C20.6903 22.3117 20.6836 22.3225 20.6769 22.335C20.6645 22.3541 20.6944 22.3707 20.7044 22.3524Z" fill="white"/>
<path d="M23.2903 17.867C23.2903 17.8653 23.2878 17.8628 23.2861 17.8628C23.277 17.8529 23.2545 17.8587 23.2587 17.8778C23.2604 17.8861 23.2628 17.8944 23.2645 17.9028C23.2687 17.9202 23.292 17.9161 23.2945 17.9011C23.2945 17.8986 23.2961 17.8969 23.2945 17.8944C23.2961 17.8845 23.292 17.8753 23.2903 17.867Z" fill="white"/>
<path d="M24.3292 22.2126C24.3225 22.1918 24.2926 22.2001 24.2976 22.2209C24.3059 22.2525 24.3183 22.2592 24.35 22.2509C24.3707 22.2467 24.3608 22.2151 24.3416 22.2193C24.3267 22.2234 24.3333 22.2276 24.3292 22.2126Z" fill="white"/>
<path d="M20.2395 30.2642C20.2329 30.2393 20.2262 30.2118 20.2179 30.1861C20.2137 30.1653 20.1821 30.1736 20.1863 30.1952C20.1929 30.2202 20.1988 30.2476 20.2054 30.2734C20.2137 30.2917 20.2437 30.2834 20.2395 30.2642Z" fill="white"/>
<path d="M24.626 34.4138C24.6277 34.4221 24.6302 34.4304 24.6319 34.4396C24.636 34.4604 24.6676 34.452 24.6635 34.4304C24.6618 34.4221 24.6593 34.4138 24.6576 34.4055C24.651 34.3838 24.6194 34.393 24.626 34.4138Z" fill="white"/>
<path d="M18.082 33.2571C18.0711 33.2122 18.0587 33.1706 18.0479 33.1257C18.0437 33.1049 18.0121 33.1157 18.0162 33.1348C18.0271 33.1789 18.0395 33.2213 18.0503 33.2654C18.0545 33.2862 18.0861 33.2762 18.082 33.2571Z" fill="white"/>
<path d="M15.4778 26.5203C15.4753 26.5119 15.4728 26.5036 15.4711 26.4953C15.4644 26.4737 15.4353 26.482 15.4395 26.5036C15.4412 26.5119 15.4437 26.5203 15.4461 26.5286C15.452 26.5477 15.4836 26.5394 15.4778 26.5203Z" fill="white"/>
<path d="M18.2774 37.1773C18.2799 37.1857 18.2815 37.1948 18.284 37.2031C18.2882 37.2223 18.3198 37.2156 18.3156 37.1948C18.3131 37.1857 18.3115 37.1773 18.309 37.169C18.3032 37.1482 18.2732 37.1566 18.2774 37.1773Z" fill="white"/>
<path d="M19.8111 39.6609C19.8136 39.6692 19.8152 39.6775 19.8177 39.6858C19.8244 39.7074 19.8535 39.6966 19.8493 39.6775C19.8468 39.6692 19.8452 39.6609 19.8427 39.6525C19.8368 39.6309 19.8069 39.6392 19.8111 39.6609Z" fill="white"/>
<path d="M20.9447 32.2644C20.9489 32.2827 20.943 32.296 20.9347 32.3102C20.9239 32.3293 20.9514 32.3443 20.9613 32.3276C20.9788 32.3002 20.983 32.2852 20.9763 32.2553C20.9705 32.2345 20.9389 32.2428 20.9447 32.2644Z" fill="white"/>
<path d="M16.7119 22.1897C16.7327 22.1897 16.7327 22.1581 16.7119 22.1581C16.6911 22.1581 16.6911 22.1897 16.7119 22.1897Z" fill="white"/>
<path d="M20.6503 17.8185C20.6411 17.8335 20.6311 17.8418 20.6162 17.8418C20.5954 17.8477 20.6037 17.8801 20.6245 17.8734C20.6561 17.8651 20.686 17.8543 20.6819 17.8185C20.6819 17.7994 20.6503 17.7994 20.6503 17.8185Z" fill="white"/>
<path d="M22.2872 28.3615C22.2847 28.3532 22.283 28.3449 22.2805 28.3357C22.2747 28.3149 22.2448 28.3232 22.2489 28.3449C22.2514 28.3532 22.2531 28.3615 22.2556 28.3698C22.2614 28.3906 22.293 28.3823 22.2872 28.3615Z" fill="white"/>
<path d="M27.5672 30.6975C27.5464 30.6975 27.5464 30.7291 27.5672 30.7291C27.5864 30.7308 27.5864 30.6975 27.5672 30.6975Z" fill="white"/>
<path d="M24.8074 32.6311C24.8115 32.6502 24.8049 32.6627 24.7965 32.6777C24.7857 32.6968 24.8132 32.7118 24.824 32.6943C24.839 32.6669 24.8448 32.6527 24.839 32.6228C24.8323 32.6037 24.8024 32.612 24.8074 32.6311Z" fill="white"/>
<path d="M27.0807 28.7817C27.0973 28.7484 27.0973 28.721 27.089 28.6844C27.0849 28.6636 27.0533 28.6719 27.0574 28.6935C27.0641 28.721 27.0657 28.7376 27.0533 28.7667C27.0424 28.7842 27.0699 28.8008 27.0807 28.7817Z" fill="white"/>
<path d="M32.6384 22.5586C32.6176 22.5611 32.6176 22.5927 32.6384 22.5911C32.6683 22.5861 32.6958 22.5994 32.7232 22.5969C32.744 22.5952 32.744 22.5636 32.7232 22.5653C32.6958 22.5678 32.6683 22.557 32.6384 22.5586Z" fill="white"/>
<path d="M30.1565 20.0968C30.1382 20.101 30.144 20.1326 30.1648 20.1284C30.1823 20.1243 30.1823 20.1501 30.1839 20.1625C30.1881 20.1833 30.2197 20.175 30.2155 20.1542C30.2072 20.1185 30.2014 20.0869 30.1565 20.0968Z" fill="white"/>
<path d="M32.4762 28.4231C32.5103 28.4082 32.5037 28.3765 32.4979 28.3449C32.4937 28.3233 32.4621 28.3341 32.4662 28.3533C32.4721 28.3682 32.4704 28.3807 32.4596 28.3932C32.443 28.404 32.4579 28.4314 32.4762 28.4231Z" fill="white"/>
<path d="M30.6371 26.7565C30.6347 26.7482 30.633 26.7398 30.6305 26.7315C30.6263 26.7107 30.5947 26.7191 30.5989 26.7398C30.6014 26.7482 30.603 26.7565 30.6055 26.7656C30.6097 26.7864 30.6413 26.7781 30.6371 26.7565Z" fill="white"/>
<path d="M30.456 30.2461C30.4477 30.2161 30.456 30.2012 30.4286 30.1845C30.4202 30.1779 30.4078 30.182 30.4036 30.1912C30.3886 30.2203 30.4011 30.2286 30.4094 30.2586C30.4177 30.2877 30.4627 30.2752 30.456 30.2461Z" fill="white"/>
<path d="M29.5518 17.4215C29.5352 17.3874 29.4869 17.4173 29.5036 17.4489C29.5144 17.4722 29.531 17.4947 29.5585 17.4972C29.5668 17.4972 29.5793 17.4905 29.5834 17.4822C29.5917 17.4656 29.5876 17.4531 29.5834 17.4381C29.5776 17.4231 29.5626 17.419 29.5518 17.4215Z" fill="white"/>
<path d="M25.8498 35.5237C25.8814 35.5154 25.873 35.4863 25.8523 35.4738C25.8523 35.4713 25.8498 35.4688 25.8498 35.4671C25.8439 35.448 25.8165 35.4563 25.8182 35.4755C25.8182 35.478 25.8182 35.4796 25.8206 35.4821C25.8082 35.5029 25.8182 35.5329 25.8498 35.5237Z" fill="white"/>
<path d="M30.3859 34.9418C30.3951 34.9776 30.4475 34.961 30.4392 34.9269C30.4392 34.9244 30.4392 34.9227 30.4367 34.9202C30.4367 34.9202 30.4367 34.9202 30.4367 34.9186C30.435 34.9102 30.4325 34.9036 30.4309 34.8953C30.42 34.8612 30.3693 34.8761 30.3776 34.9102C30.3801 34.9186 30.3818 34.9244 30.3843 34.9335C30.3843 34.9377 30.3859 34.9393 30.3859 34.9418Z" fill="white"/>
<path d="M34.4575 31.3628C34.4592 31.3711 34.4617 31.3794 34.4658 31.3877C34.4758 31.4218 34.5249 31.4069 34.5182 31.3728C34.5166 31.3644 34.5141 31.3561 34.5116 31.3453C34.5016 31.312 34.4509 31.3262 34.4575 31.3628Z" fill="white"/>
<path d="M15.9975 31.0559C15.9618 31.0559 15.9618 31.1133 15.9975 31.1133C16.0333 31.1133 16.0333 31.0559 15.9975 31.0559Z" fill="white"/>
<path d="M13.5555 25.8407C13.568 25.8382 13.5788 25.8366 13.5896 25.8324C13.6129 25.8191 13.6021 25.7833 13.5771 25.7833C13.5663 25.7833 13.5555 25.7875 13.543 25.7916C13.5114 25.8025 13.5239 25.8465 13.5555 25.8407Z" fill="white"/>
<path d="M17.0487 21.9078C17.0429 21.9019 17.0321 21.9019 17.0254 21.9078C17.0071 21.8936 16.9772 21.9144 16.988 21.9419C17.013 22.0009 17.0936 21.9485 17.0487 21.9078Z" fill="white"/>
<path d="M25.4837 29.9415C25.4263 29.9332 25.4496 30.0255 25.4962 29.9897C25.5003 29.9881 25.5045 29.9856 25.5087 29.9856C25.5386 29.9773 25.5253 29.9348 25.4962 29.9415C25.492 29.9415 25.4879 29.9432 25.4837 29.9415Z" fill="white"/>
<path d="M17.241 39.0651C17.2726 39.0651 17.2726 39.0144 17.241 39.0144C17.2069 39.0144 17.2069 39.0651 17.241 39.0651Z" fill="white"/>
<path d="M19.0252 34.6331C19.0277 34.6331 19.0485 34.6605 19.0526 34.6647C19.0635 34.673 19.0784 34.6713 19.0826 34.6564C19.0951 34.6164 19.0676 34.5765 19.0252 34.5782C18.9919 34.5807 18.9919 34.6356 19.0252 34.6331Z" fill="white"/>
<path d="M16.2628 28.5492C16.2612 28.5426 16.2587 28.5343 16.257 28.5284C16.2545 28.5193 16.2487 28.5151 16.2445 28.5135C16.242 28.5093 16.2404 28.5027 16.2379 28.501C16.2312 28.4919 16.2146 28.496 16.2129 28.5068C16.2129 28.511 16.2129 28.5176 16.2129 28.5235C16.2088 28.5301 16.2063 28.5368 16.2088 28.5451C16.2104 28.5509 16.2129 28.5601 16.2129 28.5659C16.2187 28.5958 16.2695 28.5809 16.2628 28.5492Z" fill="white"/>
<path d="M23.2054 35.2725C23.2079 35.2684 23.2096 35.2667 23.2138 35.2667C23.2312 35.2626 23.2229 35.2393 23.2079 35.2409C23.2038 35.2434 23.1996 35.2434 23.1971 35.2393C23.1406 35.201 23.1738 35.3357 23.2054 35.2725Z" fill="white"/>
<path d="M6.80082 32.741C6.83825 32.741 6.86986 32.7094 6.86986 32.672C6.86986 32.6337 6.83825 32.6038 6.80082 32.6038C6.76256 32.6038 6.73096 32.6337 6.73096 32.672C6.73096 32.7094 6.76256 32.741 6.80082 32.741Z" fill="white"/>
<path d="M19.382 40.4996C19.4194 40.4996 19.451 40.468 19.451 40.4297C19.451 40.3915 19.4194 40.3599 19.382 40.3599C19.3437 40.3599 19.3121 40.3915 19.3121 40.4297C19.3121 40.468 19.3437 40.4996 19.382 40.4996Z" fill="white"/>
<path d="M26.9309 38.0204C26.9309 38.0587 26.9625 38.0903 27.0008 38.0903C27.0382 38.0903 27.0681 38.0587 27.0681 38.0204C27.0681 37.983 27.0382 37.9506 27.0008 37.9506C26.9625 37.9506 26.9309 37.983 26.9309 38.0204Z" fill="white"/>
<path d="M35.2218 38.0903C35.2218 38.052 35.1902 38.0204 35.1528 38.0204C35.1145 38.0204 35.0829 38.052 35.0829 38.0903C35.0829 38.1285 35.1145 38.1576 35.1528 38.1576C35.1927 38.1576 35.2218 38.126 35.2218 38.0903Z" fill="white"/>
<path d="M4.23399 33.1345C4.23399 33.117 4.21985 33.1021 4.20238 33.1021C4.18575 33.1021 4.17078 33.117 4.17078 33.1345C4.17078 33.1528 4.18575 33.1678 4.20238 33.1678C4.21985 33.1661 4.23399 33.1511 4.23399 33.1345Z" fill="white"/>
<path d="M13.0582 32.0295C13.0207 32.0295 12.9891 32.0611 12.9891 32.0969C12.9891 32.1352 13.0207 32.1668 13.0582 32.1668C13.0964 32.1668 13.1255 32.1352 13.1255 32.0969C13.128 32.0587 13.0964 32.0295 13.0582 32.0295Z" fill="white"/>
<path d="M30.5757 41.3948C30.614 41.3948 30.644 41.3632 30.644 41.3249C30.644 41.2875 30.614 41.2576 30.5757 41.2576C30.5383 41.2576 30.5067 41.2892 30.5067 41.3249C30.5067 41.3632 30.5383 41.3948 30.5757 41.3948Z" fill="white"/>
<path d="M33.4917 33.9131C33.4543 33.9131 33.4243 33.943 33.4243 33.9813C33.4243 34.0187 33.4543 34.0503 33.4917 34.0503C33.5299 34.0503 33.5616 34.0187 33.5616 33.9813C33.5616 33.9447 33.5299 33.9131 33.4917 33.9131Z" fill="white"/>
<path d="M24.0905 39.8362C24.1288 39.8362 24.1579 39.8046 24.1579 39.768C24.1579 39.7306 24.1288 39.699 24.0905 39.699C24.0531 39.699 24.0215 39.7281 24.0215 39.768C24.0231 39.8063 24.0531 39.8362 24.0905 39.8362Z" fill="white"/>
<path d="M6.93724 28.7546C6.93724 28.7163 6.90813 28.6847 6.86821 28.6847C6.82995 28.6847 6.79834 28.7163 6.79834 28.7546C6.79834 28.7928 6.82995 28.8219 6.86821 28.8219C6.90564 28.8219 6.93724 28.7928 6.93724 28.7546Z" fill="white"/>
<path d="M32.957 28.822C32.9187 28.822 32.8871 28.8536 32.8871 28.8919C32.8871 28.9301 32.9187 28.9618 32.957 28.9618C32.9952 28.9618 33.0243 28.9301 33.0243 28.8919C33.0243 28.8536 32.9952 28.822 32.957 28.822Z" fill="white"/>
<path d="M3.72242 23.38C3.73323 23.3842 3.73905 23.3925 3.75153 23.3925C3.78979 23.3925 3.8214 23.3609 3.8214 23.3226C3.8214 23.2852 3.78979 23.2552 3.75153 23.2552C3.7141 23.2552 3.6825 23.2869 3.6825 23.3226C3.6825 23.3318 3.68832 23.3359 3.69081 23.3418C3.69663 23.3609 3.70745 23.3717 3.72242 23.38Z" fill="white"/>
<path d="M5.30286 21.5603C5.30286 21.5978 5.33446 21.6294 5.37189 21.6294C5.41015 21.6294 5.43926 21.5978 5.43926 21.5603C5.43926 21.5221 5.41015 21.4905 5.37189 21.4905C5.33446 21.4905 5.30286 21.5237 5.30286 21.5603Z" fill="white"/>
<path d="M8.02108 23.6211C8.05851 23.6211 8.09012 23.5895 8.09012 23.5521C8.09012 23.5138 8.05851 23.4839 8.02108 23.4839C7.98282 23.4839 7.95288 23.5155 7.95288 23.5521C7.95288 23.592 7.98282 23.6211 8.02108 23.6211Z" fill="white"/>
<path d="M12.9908 25.0928C12.9534 25.0928 12.9235 25.1244 12.9235 25.1626C12.9235 25.2001 12.9534 25.2325 12.9908 25.2325C13.0291 25.2325 13.0607 25.2001 13.0607 25.1626C13.0582 25.1244 13.0291 25.0928 12.9908 25.0928Z" fill="white"/>
<path d="M12.9218 17.9176C12.8835 17.9176 12.8519 17.9492 12.8519 17.9875C12.8519 18.0257 12.8835 18.0573 12.9218 18.0573C12.9592 18.0573 12.9892 18.0257 12.9892 17.9875C12.9908 17.9492 12.9592 17.9176 12.9218 17.9176Z" fill="white"/>
<path d="M6.80082 14.5332C6.76256 14.5332 6.73096 14.5648 6.73096 14.6022C6.73096 14.6405 6.76256 14.6721 6.80082 14.6721C6.83825 14.6721 6.86986 14.6405 6.86986 14.6022C6.8682 14.5648 6.83659 14.5332 6.80082 14.5332Z" fill="white"/>
<path d="M19.382 22.2935C19.3437 22.2935 19.3121 22.3251 19.3121 22.3608C19.3121 22.3983 19.3437 22.4307 19.382 22.4307C19.4194 22.4307 19.451 22.3983 19.451 22.3608C19.4494 22.3226 19.4194 22.2935 19.382 22.2935Z" fill="white"/>
<path d="M27.0008 20.019C27.0382 20.019 27.0681 19.9873 27.0681 19.9516C27.0681 19.9133 27.0382 19.8817 27.0008 19.8817C26.9625 19.8817 26.9309 19.9133 26.9309 19.9516C26.9309 19.9898 26.9625 20.019 27.0008 20.019Z" fill="white"/>
<path d="M1.53905 15.4156C1.50162 15.4156 1.47168 15.4473 1.47168 15.4855C1.47168 15.5229 1.50329 15.5546 1.53905 15.5546C1.57731 15.5546 1.60892 15.5229 1.60892 15.4855C1.60892 15.4448 1.57731 15.4156 1.53905 15.4156Z" fill="white"/>
<path d="M13.0582 13.958C13.0207 13.958 12.9891 13.9896 12.9891 14.0279C12.9891 14.0661 13.0207 14.0952 13.0582 14.0952C13.0964 14.0952 13.1255 14.0661 13.1255 14.0279C13.128 13.9896 13.0964 13.958 13.0582 13.958Z" fill="white"/>
<path d="M30.5757 23.1855C30.5383 23.1855 30.5067 23.218 30.5067 23.2554C30.5067 23.2937 30.5383 23.3228 30.5757 23.3228C30.614 23.3228 30.644 23.2912 30.644 23.2554C30.644 23.218 30.614 23.1855 30.5757 23.1855Z" fill="white"/>
<path d="M25.8272 25.2303C25.8272 25.2494 25.8197 25.266 25.8064 25.2793C25.7931 25.2935 25.7765 25.3001 25.7574 25.3001C25.7382 25.3001 25.7216 25.2935 25.7083 25.2793C25.695 25.266 25.6875 25.2494 25.6875 25.2303C25.6875 25.2111 25.695 25.1945 25.7083 25.1812C25.7216 25.1671 25.7382 25.1604 25.7574 25.1604C25.7765 25.1604 25.7931 25.1671 25.8064 25.1812C25.8197 25.1945 25.8272 25.2111 25.8272 25.2303Z" fill="white"/>
<path d="M9.70854 20.4769C9.67028 20.4769 9.63867 20.5085 9.63867 20.5443C9.63867 20.5826 9.67028 20.6142 9.70854 20.6142C9.74597 20.6142 9.77591 20.5826 9.77591 20.5443C9.77757 20.5069 9.74597 20.4769 9.70854 20.4769Z" fill="white"/>
<path d="M35.6268 23.6906C35.6268 23.7289 35.6559 23.7605 35.6942 23.7605C35.7316 23.7605 35.7632 23.7289 35.7632 23.6906C35.7632 23.6532 35.7341 23.6207 35.6942 23.6207C35.6559 23.6207 35.6268 23.6532 35.6268 23.6906Z" fill="white"/>
<path d="M33.4917 15.9811C33.5299 15.9811 33.5616 15.9495 33.5616 15.9112C33.5616 15.8738 33.5299 15.8422 33.4917 15.8422C33.4543 15.8422 33.4243 15.8713 33.4243 15.9112C33.4243 15.9495 33.4543 15.9811 33.4917 15.9811Z" fill="white"/>
<path d="M24.0905 21.7672C24.1288 21.7672 24.1579 21.7356 24.1579 21.6982C24.1579 21.6599 24.1288 21.63 24.0905 21.63C24.0531 21.63 24.0215 21.6616 24.0215 21.6982C24.0231 21.7356 24.0531 21.7672 24.0905 21.7672Z" fill="white"/>
<path d="M32.957 10.7532C32.9187 10.7532 32.8871 10.7848 32.8871 10.823C32.8871 10.8613 32.9187 10.8929 32.957 10.8929C32.9952 10.8929 33.0243 10.8613 33.0243 10.823C33.0243 10.7848 32.9952 10.7532 32.957 10.7532Z" fill="white"/>
<path d="M8.81702 35.1912C8.81702 35.2086 8.83199 35.2228 8.84862 35.2228C8.86526 35.2228 8.88023 35.2086 8.88023 35.1912C8.88023 35.172 8.86526 35.1595 8.84862 35.1595C8.83199 35.1595 8.81702 35.1745 8.81702 35.1912Z" fill="white"/>
<path d="M6.93967 34.4791C6.91887 34.4791 6.91887 34.5107 6.93967 34.5107C6.96046 34.5124 6.96046 34.4791 6.93967 34.4791Z" fill="white"/>
<path d="M7.99933 35.5014C8.00183 35.503 8.00599 35.5072 8.00765 35.5097C8.02262 35.5238 8.04591 35.5014 8.03094 35.4864C8.02678 35.4839 8.02512 35.4798 8.02262 35.4781C8.00765 35.4631 7.98436 35.4864 7.99933 35.5014Z" fill="white"/>
<path d="M9.06836 33.4232C9.06836 33.4257 9.06836 33.4298 9.06836 33.4323C9.06836 33.4531 9.09997 33.4531 9.09997 33.4323C9.09997 33.4298 9.09997 33.4257 9.09997 33.4232C9.09997 33.4024 9.06836 33.4024 9.06836 33.4232Z" fill="white"/>
<path d="M10.0372 34.3503C10.058 34.3503 10.058 34.3187 10.0372 34.3187C10.018 34.3187 10.018 34.3503 10.0372 34.3503Z" fill="white"/>
<path d="M8.76036 31.9939C8.78115 31.9939 8.78115 31.9623 8.76036 31.9623C8.73873 31.9623 8.73873 31.9939 8.76036 31.9939Z" fill="white"/>
<path d="M4.59912 31.8352C4.59496 31.8352 4.59247 31.8352 4.5908 31.8352C4.56918 31.8352 4.56918 31.8668 4.5908 31.8668C4.59247 31.8668 4.59663 31.8668 4.59912 31.8668C4.61992 31.8693 4.61992 31.8352 4.59912 31.8352Z" fill="white"/>
<path d="M14.2492 38.0736C14.2409 38.0736 14.2301 38.0736 14.2218 38.0736C14.2002 38.0736 14.2002 38.1052 14.2218 38.1052C14.2301 38.1052 14.2409 38.1052 14.2492 38.1052C14.27 38.1052 14.27 38.0736 14.2492 38.0736Z" fill="white"/>
<path d="M1.83457 30.4015C1.85536 30.4015 1.85536 30.3699 1.83457 30.3699C1.81377 30.3699 1.81377 30.4015 1.83457 30.4015Z" fill="white"/>
<path d="M6.86982 30.2224C6.86816 30.2432 6.89727 30.2432 6.90143 30.2241C6.92056 30.22 6.92056 30.1925 6.89976 30.1925C6.87897 30.195 6.86982 30.2008 6.86982 30.2224Z" fill="white"/>
<path d="M3.28012 34.5812C3.25933 34.5812 3.25933 34.6128 3.28012 34.6128C3.29925 34.6128 3.29925 34.5812 3.28012 34.5812Z" fill="white"/>
<path d="M15.857 38.6417C15.8354 38.6417 15.8354 38.6733 15.857 38.6733C15.8778 38.6733 15.8778 38.6417 15.857 38.6417Z" fill="white"/>
<path d="M15.3404 36.682C15.342 36.7011 15.3736 36.7011 15.372 36.6795C15.372 36.6587 15.3636 36.6504 15.342 36.6504C15.3212 36.6504 15.3237 36.6795 15.3404 36.682Z" fill="white"/>
<path d="M11.4637 34.5003C11.4637 34.5045 11.4637 34.5087 11.4637 34.5128C11.4637 34.5344 11.4954 34.5344 11.4954 34.5128C11.4954 34.5087 11.4954 34.5045 11.4954 34.5003C11.4954 34.4795 11.4637 34.4795 11.4637 34.5003Z" fill="white"/>
<path d="M2.37597 31.7253C2.37597 31.7212 2.37597 31.717 2.37597 31.7129C2.37597 31.6921 2.34436 31.6921 2.34436 31.7129C2.34436 31.717 2.34436 31.7212 2.34436 31.7253C2.34436 31.747 2.37597 31.747 2.37597 31.7253Z" fill="white"/>
<path d="M10.3889 33.0768C10.3698 33.0685 10.3615 33.1001 10.3806 33.1084C10.3806 33.1126 10.3823 33.1167 10.3823 33.1192C10.3823 33.14 10.4164 33.14 10.4139 33.1192C10.4139 33.096 10.4097 33.0851 10.3889 33.0768Z" fill="white"/>
<path d="M3.72421 29.0603C3.74584 29.0603 3.74584 29.0287 3.72421 29.0287C3.70342 29.0287 3.70342 29.0603 3.72421 29.0603Z" fill="white"/>
<path d="M16.3685 37.9102C16.3477 37.9102 16.3477 37.9376 16.3668 37.9418C16.3685 37.9609 16.4001 37.9609 16.3984 37.9401C16.3984 37.9185 16.3893 37.9102 16.3685 37.9102Z" fill="white"/>
<path d="M18.7855 38.603C18.7855 38.6221 18.7855 38.6388 18.7855 38.6579C18.7855 38.6787 18.8171 38.6787 18.8171 38.6579C18.8171 38.6388 18.8171 38.6221 18.8171 38.603C18.8171 38.5822 18.7855 38.5822 18.7855 38.603Z" fill="white"/>
<path d="M21.8255 34.5299C21.8596 34.5299 21.8696 34.5191 21.8696 34.485C21.8696 34.4642 21.838 34.4642 21.838 34.485C21.838 34.4999 21.8421 34.4958 21.828 34.4958C21.8047 34.4983 21.8047 34.5315 21.8255 34.5299Z" fill="white"/>
<path d="M30.9848 32.2782C30.964 32.2782 30.964 32.3098 30.9848 32.3098C31.0056 32.3098 31.0056 32.2782 30.9848 32.2782Z" fill="white"/>
<path d="M28.1636 40.0221C28.1786 40.0371 28.2019 40.0138 28.1869 39.9988C28.1786 39.9905 28.1678 39.9797 28.1595 39.9714C28.1445 39.9564 28.1212 39.9797 28.1362 39.9947C28.147 40.0055 28.1553 40.0138 28.1636 40.0221Z" fill="white"/>
<path d="M25.5129 29.1265C25.5129 29.1473 25.5445 29.1473 25.5445 29.1265C25.5445 29.1182 25.5445 29.1074 25.5445 29.0991C25.5445 29.0783 25.5129 29.0783 25.5129 29.0991C25.5129 29.1074 25.5129 29.1182 25.5129 29.1265Z" fill="white"/>
<path d="M25.6101 34.6923C25.6184 34.6923 25.6284 34.6923 25.6375 34.6923C25.6583 34.6923 25.6583 34.6606 25.6375 34.6606C25.6284 34.6606 25.6201 34.6606 25.6101 34.6606C25.5885 34.6606 25.5885 34.6923 25.6101 34.6923Z" fill="white"/>
<path d="M30.391 30.4969C30.3993 30.4969 30.4093 30.4969 30.4176 30.4969C30.4392 30.4969 30.4392 30.4653 30.4176 30.4653C30.4093 30.4653 30.401 30.4653 30.391 30.4653C30.3693 30.4628 30.3693 30.4969 30.391 30.4969Z" fill="white"/>
<path d="M24.9781 30.0199C24.9781 30.0115 24.9781 30.0007 24.9781 29.9924C24.9781 29.9708 24.944 29.9708 24.944 29.9924C24.944 30.0007 24.944 30.0091 24.944 30.0199C24.944 30.0407 24.9781 30.0407 24.9781 30.0199Z" fill="white"/>
<path d="M32.3631 36.0137C32.3058 36.0137 32.27 36.0245 32.2409 36.0752C32.2301 36.0944 32.2575 36.1093 32.2683 36.0919C32.2908 36.0503 32.3166 36.0461 32.3631 36.0461C32.3839 36.0461 32.3839 36.0137 32.3631 36.0137Z" fill="white"/>
<path d="M29.7314 39.9947C29.7397 40.003 29.7497 40.0138 29.7588 40.0221C29.773 40.0371 29.7963 40.0138 29.7813 39.9988C29.773 39.9905 29.763 39.9797 29.7539 39.9714C29.7397 39.9564 29.7164 39.9797 29.7314 39.9947Z" fill="white"/>
<path d="M33.3087 39.1565C33.2746 39.1565 33.2663 39.1673 33.2646 39.2006C33.2646 39.2222 33.2963 39.2222 33.2963 39.2006C33.2963 39.1864 33.2921 39.1906 33.3062 39.1906C33.3295 39.1881 33.3295 39.1565 33.3087 39.1565Z" fill="white"/>
<path d="M27.2952 32.4287C27.2952 32.4561 27.2952 32.4836 27.2952 32.5085C27.2952 32.5293 27.3293 32.5293 27.3293 32.5085C27.3293 32.4811 27.3293 32.4536 27.3293 32.4287C27.3268 32.4071 27.2952 32.4071 27.2952 32.4287Z" fill="white"/>
<path d="M30.5698 27.3122C30.5698 27.3039 30.5698 27.2931 30.5698 27.2848C30.5698 27.264 30.5382 27.264 30.5382 27.2848C30.5382 27.2931 30.5382 27.3039 30.5382 27.3122C30.5382 27.3338 30.5698 27.3338 30.5698 27.3122Z" fill="white"/>
<path d="M4.31895 30.9014C4.32727 30.9014 4.33559 30.9014 4.3464 30.9014C4.3672 30.9014 4.3672 30.8698 4.3464 30.8698C4.33808 30.8698 4.32893 30.8698 4.31895 30.8698C4.29733 30.8698 4.29733 30.9014 4.31895 30.9014Z" fill="white"/>
<path d="M24.4573 30.0744C24.4573 30.1185 24.4573 30.1651 24.4573 30.2092C24.4573 30.2308 24.4889 30.2308 24.4889 30.2092C24.4889 30.1651 24.4889 30.1185 24.4889 30.0744C24.4914 30.0528 24.4573 30.0528 24.4573 30.0744Z" fill="white"/>
<path d="M25.6351 33.9617C25.65 33.9592 25.6625 33.9633 25.6733 33.9766C25.6775 33.9974 25.7091 33.9891 25.7049 33.9675C25.6983 33.9317 25.6667 33.9301 25.6351 33.9301C25.6159 33.9301 25.6159 33.9617 25.6351 33.9617Z" fill="white"/>
<path d="M23.6204 37.2771C23.6204 37.2979 23.652 37.2979 23.652 37.2771C23.652 37.2679 23.652 37.2579 23.652 37.2496C23.652 37.228 23.6204 37.228 23.6204 37.2496C23.6204 37.2579 23.6204 37.2663 23.6204 37.2771Z" fill="white"/>
<path d="M23.7345 26.202C23.7345 26.1804 23.7029 26.1804 23.7029 26.202C23.7029 26.2103 23.7029 26.2211 23.7029 26.2295C23.7029 26.2503 23.7345 26.2503 23.7345 26.2295C23.7345 26.2211 23.7345 26.2103 23.7345 26.202Z" fill="white"/>
<path d="M24.5671 23.4121C24.5671 23.4204 24.5671 23.4287 24.5671 23.4395C24.5671 23.4603 24.5987 23.4603 24.5987 23.4395C24.5987 23.4312 24.5987 23.4204 24.5987 23.4121C24.5987 23.3929 24.5671 23.3929 24.5671 23.4121Z" fill="white"/>
<path d="M22.0152 20.1201C21.9944 20.1201 21.9944 20.1517 22.0152 20.1517C22.036 20.1517 22.036 20.1201 22.0152 20.1201Z" fill="white"/>
<path d="M27.489 30.2749C27.5023 30.2874 27.5123 30.2982 27.5123 30.3174C27.5123 30.3382 27.5439 30.3382 27.5439 30.3174C27.5439 30.2858 27.5339 30.2733 27.5123 30.2517C27.4973 30.2367 27.4748 30.26 27.489 30.2749Z" fill="white"/>
<path d="M25.9344 41.1644C25.9552 41.1644 25.9552 41.1328 25.9344 41.1328C25.9128 41.1328 25.9128 41.1644 25.9344 41.1644Z" fill="white"/>
<path d="M29.7855 33.7839C29.7855 33.7756 29.7855 33.7656 29.7855 33.7564C29.7855 33.7356 29.7539 33.7356 29.7539 33.7564C29.7539 33.7656 29.7539 33.7739 29.7539 33.7839C29.7539 33.803 29.7855 33.803 29.7855 33.7839Z" fill="white"/>
<path d="M34.3094 30.1403C34.2886 30.1403 34.2886 30.1719 34.3094 30.1719C34.331 30.1719 34.331 30.1403 34.3094 30.1403Z" fill="white"/>
<path d="M31.1363 28.9494C31.1488 28.9619 31.1596 28.9727 31.1596 28.991C31.1596 29.0127 31.1937 29.0127 31.1912 28.991C31.1912 28.9594 31.1804 28.947 31.1596 28.9262C31.1446 28.9112 31.1222 28.932 31.1363 28.9494Z" fill="white"/>
<path d="M34.2969 32.1707C34.316 32.194 34.3177 32.2132 34.3202 32.2406C34.3202 32.2614 34.3518 32.2614 34.3518 32.2406C34.3518 32.2023 34.3435 32.1766 34.3202 32.1474C34.3077 32.1308 34.2844 32.1541 34.2969 32.1707Z" fill="white"/>
<path d="M31.4439 25.929C31.4123 25.929 31.4107 25.9606 31.4273 25.9797C31.4273 25.9822 31.4273 25.9839 31.4273 25.9863C31.4273 26.0071 31.4564 26.0071 31.4589 25.9863C31.4589 25.9839 31.4589 25.9822 31.4589 25.9797C31.478 25.9606 31.478 25.929 31.4439 25.929Z" fill="white"/>
<path d="M36.0104 25.3293C35.9954 25.3293 35.9829 25.3376 35.9829 25.3567C35.9829 25.3592 35.9829 25.3609 35.9829 25.3634C35.9829 25.3717 35.9829 25.38 35.9829 25.3883C35.9829 25.4249 36.037 25.4249 36.037 25.3883C36.037 25.38 36.037 25.3742 36.037 25.365C36.037 25.365 36.037 25.365 36.037 25.3634C36.037 25.3609 36.037 25.3592 36.037 25.3567C36.0395 25.3376 36.0245 25.3276 36.0104 25.3293Z" fill="white"/>
<path d="M23.0158 32.6719C22.9801 32.6719 22.9801 32.7284 23.0158 32.7284C23.0516 32.7284 23.0516 32.6719 23.0158 32.6719Z" fill="white"/>
<path d="M21.9628 38.4382C21.9728 38.4382 21.9861 38.4399 21.9961 38.4382C22.0219 38.4315 22.0219 38.3941 21.9961 38.3875C21.9836 38.385 21.9728 38.3875 21.9628 38.3875C21.9287 38.39 21.9287 38.4357 21.9628 38.4382Z" fill="white"/>
<path d="M26.2589 41.3037C26.2547 41.3337 26.2905 41.3462 26.303 41.327C26.3113 41.3312 26.3196 41.327 26.3263 41.3204C26.3604 41.2696 26.2697 41.238 26.2589 41.3037Z" fill="white"/>
<path d="M32.487 31.4261C32.4911 31.4236 32.4953 31.4236 32.4994 31.4236C32.5294 31.4236 32.5294 31.3795 32.4994 31.377C32.4953 31.377 32.4911 31.377 32.487 31.3753C32.4321 31.352 32.4321 31.4494 32.487 31.4261Z" fill="white"/>
<path d="M21.2908 21.7334C21.2908 21.7608 21.2758 21.7841 21.2692 21.8091C21.265 21.8257 21.2825 21.8365 21.2966 21.8307C21.339 21.8116 21.339 21.7733 21.3366 21.7334C21.3366 21.7035 21.2908 21.7035 21.2908 21.7334Z" fill="white"/>
<path d="M11.5875 21.6788C11.5684 21.6804 11.5517 21.6829 11.5326 21.6829C11.501 21.6829 11.501 21.7295 11.5326 21.7312C11.5501 21.7312 11.5684 21.7337 11.5875 21.7353C11.6216 21.7378 11.6216 21.6763 11.5875 21.6788Z" fill="white"/>
<path d="M9.37105 25.204C9.3461 25.2024 9.34194 25.2406 9.36523 25.2465C9.36938 25.2465 9.3777 25.2847 9.39018 25.293C9.39434 25.2955 9.40265 25.2955 9.40681 25.293C9.40931 25.2914 9.41097 25.2914 9.41347 25.2889C9.42428 25.2806 9.42844 25.2722 9.42594 25.2598C9.42012 25.2273 9.40265 25.209 9.37105 25.204Z" fill="white"/>
<path d="M8.80213 28.9357C8.80213 28.9024 8.74973 28.9024 8.74973 28.9357C8.74973 28.9573 8.72478 28.9806 8.73726 29.0014C8.74308 29.0139 8.76221 29.0206 8.77302 29.0122C8.80047 28.9931 8.80213 28.9682 8.80213 28.9357Z" fill="white"/>
<path d="M4.56919 26.1255C4.55256 26.1197 4.54175 26.1172 4.52761 26.1022C4.50432 26.0798 4.46855 26.1155 4.49101 26.1388C4.5143 26.1621 4.53592 26.1804 4.56919 26.1704C4.59082 26.1638 4.59082 26.1322 4.56919 26.1255Z" fill="white"/>
<path d="M22.2324 24.7103C22.2665 24.7103 22.2665 24.6595 22.2324 24.6595C22.1983 24.6595 22.1983 24.7103 22.2324 24.7103Z" fill="white"/>
<path d="M25.0809 28.4679C25.0784 28.472 25.0659 28.5036 25.0618 28.5061C25.0285 28.5119 25.0426 28.5652 25.0767 28.5568C25.1167 28.5477 25.1333 28.502 25.1125 28.4679C25.1042 28.4554 25.0867 28.457 25.0809 28.4679Z" fill="white"/>
<path d="M23.88 35.0615C23.8675 35.0615 23.8525 35.0707 23.855 35.0873C23.855 35.0956 23.855 35.1023 23.855 35.1106C23.855 35.1189 23.8592 35.1256 23.8633 35.1297C23.865 35.1339 23.865 35.1397 23.8675 35.1439C23.8716 35.153 23.8883 35.153 23.8924 35.1439C23.8949 35.1397 23.8949 35.1339 23.8966 35.1297C23.9008 35.1256 23.9049 35.1189 23.9049 35.1106C23.9049 35.1023 23.9049 35.0956 23.9049 35.0873C23.9074 35.0707 23.8924 35.0615 23.88 35.0615Z" fill="white"/>
<path d="M28.9497 26.8348C28.9347 26.8207 28.9098 26.8332 28.9098 26.8523C28.9098 26.8714 28.9372 26.8839 28.9497 26.8689C28.9514 26.8648 28.9555 26.8648 28.9597 26.8648C28.9772 26.8648 28.9772 26.839 28.9597 26.839C28.9555 26.839 28.9514 26.8373 28.9497 26.8348Z" fill="white"/>
<path d="M4.44952 17.1146C4.25739 17.1146 4.25739 17.4124 4.44952 17.4124C4.64082 17.4124 4.64082 17.1146 4.44952 17.1146Z" fill="white"/>
<path d="M9.04237 18.4462C8.89099 18.4462 8.89099 18.6824 9.04237 18.6824C9.19624 18.6824 9.19624 18.4462 9.04237 18.4462Z" fill="white"/>
<path d="M31.7392 19.3776C31.7392 19.3793 31.7409 19.3818 31.7409 19.3835C31.7767 19.4641 31.9139 19.4641 31.9497 19.3835C31.9497 19.3818 31.9522 19.3793 31.9522 19.3776C32.0362 19.2862 31.9896 19.1173 31.844 19.1173C31.701 19.1173 31.6544 19.2862 31.7392 19.3776Z" fill="white"/>
<path d="M29.8679 26.9113C29.9103 26.9304 29.971 26.9046 29.971 26.8497C29.971 26.8206 29.961 26.7932 29.9569 26.7632C29.9502 26.7233 29.9078 26.6834 29.8704 26.6767C29.8621 26.6742 29.8512 26.6726 29.8429 26.6726C29.7731 26.6617 29.7057 26.6892 29.6849 26.7632C29.6641 26.8372 29.7248 26.9362 29.8088 26.9262C29.8321 26.9221 29.8487 26.9171 29.8679 26.9113Z" fill="white"/>
<path d="M28.2792 33.088C28.4331 33.088 28.4331 32.8492 28.2792 32.8492C28.1253 32.8492 28.1253 33.088 28.2792 33.088Z" fill="white"/>
<path d="M23.5789 38.0416C23.7644 38.0416 23.7644 37.7522 23.5789 37.7522C23.3934 37.7522 23.3934 38.0416 23.5789 38.0416Z" fill="white"/>
<path d="M18.863 16.887C18.863 16.8072 18.7956 16.7373 18.7141 16.7373C18.6484 16.7373 18.5877 16.7814 18.5702 16.8471C18.5603 16.8854 18.5661 16.9278 18.5852 16.961C18.5852 16.961 18.5894 16.9652 18.5919 16.9694C18.6318 17.0966 18.7981 17.0941 18.8356 16.9652C18.8547 16.9419 18.863 16.9145 18.863 16.887ZM18.5827 16.9378C18.5744 16.9062 18.5827 16.9294 18.5827 16.9378V16.9378ZM18.6193 16.9993C18.6168 16.9968 18.6168 16.9951 18.6143 16.9927C18.6359 17.0143 18.6551 17.0326 18.6193 16.9993ZM18.8464 16.9378C18.8464 16.9378 18.8464 16.9403 18.8447 16.9403C18.8464 16.9403 18.8464 16.9403 18.8464 16.9378C18.8572 16.9062 18.8489 16.9294 18.8464 16.9378Z" fill="white"/>
<path d="M16.6739 7.54705C16.683 7.51794 16.6805 7.4905 16.678 7.46305C16.6697 7.30252 16.4385 7.30252 16.4302 7.46305C16.4277 7.49216 16.4252 7.51961 16.4343 7.54705C16.4659 7.66766 16.6423 7.66766 16.6739 7.54705Z" fill="white"/>
<mask id="mask2_248_991" style="mask-type:luminance" maskUnits="userSpaceOnUse" x="33" y="42" width="2" height="1">
<path d="M33.5933 42.2305H34.0191V42.7819H33.5933V42.2305Z" fill="white"/>
</mask>
<g mask="url(#mask2_248_991)">
<path d="M33.8461 42.6664C33.9917 42.6664 33.9917 42.4402 33.8461 42.4402C33.7005 42.4402 33.7005 42.6664 33.8461 42.6664Z" fill="white"/>
</g>
<path d="M18.3613 29.092C18.3638 29.0945 18.3638 29.0945 18.3663 29.0962C18.3472 29.0903 18.3281 29.0903 18.3089 29.0962C18.3114 29.0945 18.3114 29.0945 18.3131 29.092C18.3048 29.0945 18.3006 29.0962 18.294 29.0987C18.1551 29.1427 18.1808 29.369 18.3389 29.369C18.5027 29.3706 18.526 29.1195 18.3613 29.092Z" fill="white"/>
<path d="M8.12419 27.5066C8.07762 27.5025 8.02937 27.4941 7.9828 27.4875C7.95285 27.4833 7.9304 27.5108 7.92208 27.5341C7.91709 27.5465 7.91709 27.5573 7.92208 27.5673C7.9304 27.5931 7.95285 27.6181 7.9828 27.6164C8.02937 27.6097 8.07762 27.6039 8.12419 27.5973C8.18491 27.5931 8.18491 27.5124 8.12419 27.5066Z" fill="white"/>
<path d="M33.8843 21.5017C33.8527 21.6131 33.9559 21.698 34.0607 21.6788C34.0648 21.6788 34.069 21.6763 34.0756 21.6747C34.1829 21.6389 34.217 21.4842 34.1097 21.4252C34.0798 21.4168 34.0524 21.406 34.0232 21.3977C33.96 21.3977 33.8985 21.4418 33.8843 21.5017Z" fill="white"/>
<path d="M28.2267 10.7567C28.2159 10.7567 28.2159 10.7716 28.2267 10.7716C28.235 10.7741 28.235 10.7567 28.2267 10.7567Z" fill="white"/>
<path d="M28.1004 11.042C28.1171 11.0462 28.1337 11.0503 28.1512 11.0528C28.1828 11.0587 28.2186 11.0487 28.2352 11.0187C28.2285 11.0271 28.231 11.0254 28.2435 11.0146C28.2668 10.9954 28.2668 10.968 28.2435 10.9489C28.231 10.9389 28.2269 10.9364 28.2352 10.9447C28.2186 10.9156 28.1828 10.9048 28.1512 10.9114C28.1337 10.9156 28.1171 10.9173 28.1004 10.9214C28.0414 10.9347 28.0414 11.0295 28.1004 11.042Z" fill="white"/>
<path d="M30.7951 31.6598C30.9905 31.6598 30.9905 31.3538 30.7951 31.3538C30.5971 31.3538 30.5971 31.6598 30.7951 31.6598Z" fill="white"/>
<path d="M5.88435 24.6623C5.92677 24.6623 5.92677 24.5991 5.88435 24.5991C5.84193 24.5966 5.84193 24.6623 5.88435 24.6623Z" fill="white"/>
<path d="M14.6385 11.2488C14.7716 11.2488 14.7716 11.0392 14.6385 11.0392C14.5038 11.0392 14.5038 11.2488 14.6385 11.2488Z" fill="white"/>
<path d="M19.9017 9.22655C19.8784 9.20742 19.8576 9.18579 19.826 9.18579C19.7944 9.18579 19.7711 9.20742 19.7503 9.22655C19.6763 9.28976 19.7378 9.41203 19.826 9.41203C19.9141 9.41203 19.9757 9.28976 19.9017 9.22655Z" fill="white"/>
<path d="M25.121 30.7501C25.3314 30.7501 25.3314 30.4232 25.121 30.4232C24.9105 30.4232 24.9105 30.7501 25.121 30.7501Z" fill="white"/>
<path d="M14.5836 37.4778C14.8115 37.4778 14.8115 37.1251 14.5836 37.1251C14.3566 37.1251 14.3566 37.4778 14.5836 37.4778Z" fill="white"/>
<path d="M25.264 8.54596C25.2599 8.48025 25.2224 8.42369 25.1592 8.40706C25.106 8.39209 25.0494 8.41122 25.0137 8.45114C25.0095 8.45114 25.0054 8.4528 25.0012 8.4528C24.9355 8.47193 24.8889 8.53099 24.8889 8.59919C24.8889 8.65991 24.9338 8.73394 25.0012 8.74475C25.0661 8.75556 25.121 8.75556 25.18 8.71896C25.2366 8.6832 25.2682 8.61333 25.264 8.54596Z" fill="white"/>
<path d="M29.9842 4.71322C29.9817 4.71156 29.9801 4.71156 29.9776 4.70906C29.9501 4.68161 29.9077 4.68161 29.8828 4.70906C29.8803 4.71156 29.8786 4.71156 29.8761 4.71322C29.7879 4.77061 29.822 4.9145 29.931 4.9145C30.0383 4.9145 30.0749 4.77061 29.9842 4.71322Z" fill="white"/>
<path d="M30.2221 39.9882C30.218 40.014 30.2138 40.0389 30.2155 40.0647C30.2221 40.1446 30.277 40.2103 30.361 40.2103C30.445 40.2103 30.4999 40.1446 30.5066 40.0647C30.5082 40.0389 30.5041 40.014 30.4999 39.9882C30.4766 39.8493 30.2471 39.8493 30.2221 39.9882Z" fill="white"/>
<path d="M34.9731 30.1184C34.9772 30.0977 34.9839 30.076 34.9839 30.0552C34.9839 30.0403 34.9797 30.0253 34.9731 30.0128C34.9897 30.0511 34.9772 30.0253 34.9772 30.0087C34.9673 29.9113 34.8383 29.9113 34.8275 30.0087C34.8275 30.0153 34.8275 30.017 34.8275 30.0195C34.8275 30.0211 34.8259 30.0253 34.8234 30.0319C34.8151 30.0594 34.8259 30.091 34.83 30.1184C34.8408 30.1908 34.9606 30.1908 34.9731 30.1184Z" fill="white"/>
<path d="M22.635 21.649C22.7714 21.649 22.7714 21.4378 22.635 21.4378C22.4978 21.4361 22.4978 21.649 22.635 21.649Z" fill="white"/>
<path d="M24.8682 13.2999C24.8682 13.2766 24.8641 13.2558 24.8616 13.2325L24.8682 13.2999Z" fill="white"/>
<path d="M24.8791 13.7048C24.8874 13.724 24.9231 13.724 24.9315 13.7048C24.9697 13.6225 24.9481 13.5127 24.9315 13.4245C24.9123 13.3123 24.8957 13.1983 24.8616 13.091C24.8574 13.076 24.8325 13.0819 24.8366 13.0968C24.8491 13.1417 24.8558 13.1858 24.8616 13.2299C24.8641 13.2532 24.8658 13.274 24.8683 13.2973C24.8707 13.3422 24.8707 13.3863 24.8683 13.4329C24.8641 13.5235 24.8408 13.6225 24.8791 13.7048Z" fill="white"/>
<path d="M13.7726 13.7663C13.9415 13.7663 13.9415 13.5043 13.7726 13.5043C13.6046 13.5043 13.6046 13.7663 13.7726 13.7663Z" fill="white"/>
<path d="M15.5317 35.1886C15.5317 35.1038 15.545 35.0023 15.4835 34.9374C15.4669 34.9183 15.4328 34.9183 15.4161 34.9374C15.3529 35.0023 15.3679 35.1038 15.3679 35.1886C15.3654 35.2959 15.5317 35.2959 15.5317 35.1886Z" fill="white"/>
<path d="M27.0108 36.0645C26.8128 36.0645 26.8128 36.3705 27.0108 36.3705C27.2087 36.3705 27.2087 36.0645 27.0108 36.0645Z" fill="white"/>
<path d="M1.66973 22.6241C1.53083 22.6241 1.53083 22.8421 1.66973 22.8421C1.80946 22.8421 1.80946 22.6241 1.66973 22.6241Z" fill="white"/>
</svg>
