<svg width="24" height="36" viewBox="0 0 24 36" fill="none" xmlns="http://www.w3.org/2000/svg">
<mask id="mask0_248_936" style="mask-type:luminance" maskUnits="userSpaceOnUse" x="0" y="5" width="20" height="31">
<path d="M0.420044 5.0929H19.5299V35.7821H0.420044V5.0929Z" fill="white"/>
</mask>
<g mask="url(#mask0_248_936)">
<path d="M19.4605 13.4064V32.626C19.4605 32.7261 19.4558 32.8262 19.4455 32.9257C19.436 33.0258 19.421 33.1246 19.4019 33.2227C19.3822 33.3207 19.3577 33.4181 19.3284 33.5142C19.2991 33.6102 19.2657 33.7042 19.2276 33.7969C19.1887 33.8895 19.1458 33.9801 19.0988 34.0679C19.0512 34.1565 19.0001 34.2423 18.9442 34.3254C18.8884 34.4092 18.8284 34.4896 18.7651 34.5672C18.7011 34.6442 18.6336 34.7184 18.5628 34.7893C18.492 34.8601 18.4177 34.9275 18.3401 34.9909C18.2624 35.0549 18.182 35.1142 18.0983 35.17C18.0152 35.2259 17.9287 35.277 17.8401 35.324C17.7516 35.3716 17.661 35.4145 17.5683 35.4527C17.4757 35.4908 17.3817 35.5249 17.2857 35.5535C17.1889 35.5828 17.0922 35.6073 16.9935 35.6264C16.8954 35.6461 16.7959 35.6611 16.6958 35.6707C16.5964 35.6809 16.4962 35.6856 16.3954 35.6856H3.48862C3.38849 35.6856 3.28836 35.6809 3.18824 35.6707C3.08879 35.6611 2.98934 35.6461 2.89058 35.6264C2.7925 35.6073 2.69509 35.5828 2.59905 35.5535C2.50301 35.5249 2.40834 35.4908 2.3157 35.4527C2.22307 35.4145 2.13248 35.3716 2.04393 35.324C1.95538 35.277 1.86956 35.2252 1.78578 35.17C1.70268 35.1142 1.62231 35.0542 1.54466 34.9909C1.46701 34.9275 1.39277 34.8601 1.32193 34.7893C1.25041 34.7184 1.18298 34.6442 1.11963 34.5672C1.05561 34.4896 0.996347 34.4092 0.940494 34.3254C0.884641 34.2423 0.832875 34.1565 0.785876 34.0679C0.738197 33.9801 0.695286 33.8895 0.657142 33.7969C0.618999 33.7042 0.584942 33.6102 0.555653 33.5142C0.527045 33.4181 0.502525 33.3207 0.482772 33.2227C0.463019 33.1246 0.448715 33.0258 0.438498 32.9257C0.428962 32.8262 0.424194 32.7261 0.424194 32.626V13.4064C0.426238 13.1966 0.450077 12.9889 0.495032 12.7839C0.539987 12.5789 0.606057 12.3806 0.69188 12.1886C0.777703 11.9972 0.882597 11.816 1.00588 11.6457C1.12917 11.4761 1.2688 11.3201 1.42478 11.1784L5.05114 7.83681V5.20422H14.8486V7.83681L18.4749 11.1784C18.6289 11.3208 18.7671 11.4768 18.8891 11.6477C19.011 11.818 19.1145 11.9992 19.1996 12.1906C19.2841 12.382 19.3488 12.5802 19.3924 12.7852C19.4367 12.9903 19.4592 13.1973 19.4605 13.4064Z" fill="#4D8BEF"/>
</g>
<mask id="mask1_248_936" style="mask-type:luminance" maskUnits="userSpaceOnUse" x="0" y="7" width="8" height="29">
<path d="M0.420044 7.70837H7.32402V35.782H0.420044V7.70837Z" fill="white"/>
</mask>
<g mask="url(#mask1_248_936)">
<path d="M3.6228 11.1793C7.41671 7.67826 7.24915 7.86012 7.24915 7.83765H5.03615C5.03615 7.87511 5.17715 7.71913 1.40979 11.1793C1.25518 11.3216 1.11759 11.4776 0.994984 11.6486C0.873061 11.8189 0.77021 12.0001 0.685069 12.1915C0.600608 12.3829 0.5359 12.5811 0.491627 12.7861C0.448034 12.9911 0.425557 13.1982 0.424194 13.4073V32.6268C0.424194 32.727 0.428962 32.8271 0.438498 32.9265C0.448715 33.0267 0.463019 33.1254 0.482772 33.2235C0.502525 33.3216 0.527045 33.419 0.555653 33.515C0.584942 33.6111 0.618999 33.7051 0.657142 33.7977C0.695286 33.8903 0.738197 33.9809 0.785876 34.0688C0.832875 34.1573 0.884641 34.2432 0.940494 34.3263C0.996347 34.41 1.05561 34.4904 1.11963 34.5681C1.18298 34.645 1.25041 34.7193 1.32193 34.7901C1.39277 34.8609 1.46701 34.9284 1.54466 34.9917C1.62231 35.0551 1.70268 35.115 1.78578 35.1709C1.86956 35.226 1.95538 35.2778 2.04393 35.3248C2.13248 35.3725 2.22307 35.4154 2.3157 35.4535C2.40834 35.4917 2.50301 35.5257 2.59905 35.5543C2.69509 35.5836 2.7925 35.6082 2.89058 35.6272C2.98934 35.647 3.08879 35.662 3.18824 35.6715C3.28836 35.6817 3.38849 35.6865 3.48862 35.6865H5.72069C5.61988 35.6865 5.51976 35.6817 5.41963 35.6722C5.32018 35.662 5.22074 35.6477 5.12197 35.6279C5.02321 35.6088 4.92649 35.5843 4.82977 35.5557C4.73373 35.5264 4.63905 35.493 4.54642 35.4542C4.45378 35.4161 4.36319 35.3732 4.27396 35.3262C4.18542 35.2792 4.09959 35.2274 4.01581 35.1722C3.93271 35.1164 3.85166 35.0564 3.77401 34.9931C3.69636 34.9297 3.62212 34.8623 3.5506 34.7915C3.47976 34.7206 3.41233 34.6464 3.3483 34.5687C3.28496 34.4918 3.22502 34.4114 3.16916 34.3276C3.11331 34.2445 3.06154 34.1587 3.01455 34.0702C2.96687 33.9816 2.92396 33.891 2.88581 33.7984C2.84699 33.7057 2.81293 33.6117 2.78432 33.5157C2.75503 33.4197 2.73051 33.3223 2.71076 33.2242C2.69101 33.1254 2.6767 33.0267 2.66649 32.9265C2.65695 32.8271 2.65218 32.727 2.65218 32.6268V13.4073C2.65218 13.1982 2.67398 12.9918 2.71689 12.7874C2.7598 12.5831 2.82315 12.3849 2.90625 12.1935C2.99003 12.0014 3.09151 11.8202 3.21276 11.65C3.33332 11.479 3.47022 11.3223 3.6228 11.1793Z" fill="#4368E0"/>
</g>
<path d="M19.4605 13.4066V31.0513C19.4605 31.1521 19.4558 31.2516 19.4455 31.3517C19.436 31.4512 19.421 31.5499 19.402 31.6487C19.3822 31.7468 19.3577 31.8442 19.3284 31.9395C19.2991 32.0356 19.2657 32.1302 19.2276 32.2222C19.1888 32.3148 19.1459 32.4054 19.0989 32.494C19.0512 32.5825 19.0001 32.6683 18.9442 32.7514C18.8884 32.8345 18.8284 32.9149 18.7651 32.9926C18.7011 33.0702 18.6336 33.1445 18.5628 33.2153C18.492 33.2861 18.4177 33.3529 18.3401 33.4169C18.2624 33.4803 18.182 33.5402 18.0983 33.5954C18.0152 33.6512 17.9287 33.703 17.8401 33.75C17.7523 33.797 17.661 33.8399 17.5683 33.878C17.4757 33.9169 17.3817 33.9502 17.2857 33.9795C17.189 34.0088 17.0922 34.0327 16.9935 34.0524C16.8954 34.0722 16.7959 34.0865 16.6958 34.0967C16.5964 34.1062 16.4962 34.111 16.3954 34.111H6.18932C6.13211 34.111 6.07489 34.1055 6.01836 34.0946C5.96251 34.0831 5.90802 34.0667 5.85489 34.0449C5.80176 34.0231 5.75136 33.9959 5.70368 33.9639C5.656 33.9325 5.61172 33.8964 5.57085 33.8556C5.53067 33.8154 5.49457 33.7711 5.46255 33.7234C5.43054 33.6757 5.4033 33.6253 5.3815 33.5729C5.3597 33.5198 5.34336 33.4653 5.33178 33.4087C5.32088 33.3529 5.31543 33.2957 5.31543 33.2385V13.4066C5.31679 13.1975 5.33927 12.9904 5.38286 12.7854C5.42714 12.5803 5.49184 12.3821 5.5763 12.1907C5.66076 11.9993 5.7643 11.8182 5.88622 11.6479C6.00882 11.4769 6.14641 11.3209 6.30103 11.1786L9.92739 7.83693V5.20435H14.8486V7.83693L18.4749 11.1786C18.6289 11.3209 18.7671 11.4769 18.8891 11.6479C19.011 11.8182 19.1145 11.9993 19.1997 12.1907C19.2841 12.3821 19.3488 12.5803 19.3924 12.7854C19.4367 12.9904 19.4592 13.1975 19.4605 13.4066Z" fill="#70C2EF"/>
<path d="M13.3269 9.1806H11.434C11.274 9.18196 11.135 9.23645 11.0172 9.34407L8.86342 11.3268C8.81779 11.3684 8.77964 11.4161 8.74831 11.4692C8.71766 11.5223 8.69518 11.5789 8.68088 11.6388C8.66726 11.6987 8.66249 11.7594 8.66658 11.8214C8.67134 11.8827 8.68497 11.9419 8.70744 11.9991C8.72992 12.0563 8.76057 12.1095 8.7994 12.1572C8.83754 12.2055 8.8825 12.2464 8.93358 12.2811C8.98467 12.3152 9.03984 12.3417 9.0991 12.3594C9.15835 12.3772 9.21829 12.386 9.28028 12.3853H15.484C15.546 12.386 15.6066 12.3772 15.6652 12.3594C15.7245 12.3417 15.7797 12.3152 15.8307 12.2811C15.8818 12.2464 15.9268 12.2055 15.9649 12.1572C16.0037 12.1095 16.0344 12.0563 16.0569 11.9991C16.0794 11.9419 16.093 11.8827 16.0977 11.8214C16.1018 11.7594 16.0971 11.6987 16.0834 11.6388C16.0698 11.5789 16.0467 11.5223 16.016 11.4692C15.9847 11.4161 15.9465 11.3684 15.9009 11.3268L13.7546 9.34407C13.6341 9.23304 13.491 9.17855 13.3269 9.1806Z" fill="white"/>
<mask id="mask2_248_936" style="mask-type:luminance" maskUnits="userSpaceOnUse" x="0" y="14" width="20" height="17">
<path d="M0.420044 14.8577H19.5299V30.551H0.420044V14.8577Z" fill="white"/>
</mask>
<g mask="url(#mask2_248_936)">
<path d="M0.424194 14.9666H19.4605V30.4726H0.424194V14.9666Z" fill="#7182B0"/>
</g>
<mask id="mask3_248_936" style="mask-type:luminance" maskUnits="userSpaceOnUse" x="0" y="14" width="18" height="17">
<path d="M0.420044 14.8577H17.6119V30.551H0.420044V14.8577Z" fill="white"/>
</mask>
<g mask="url(#mask3_248_936)">
<path d="M0.424194 14.9666H17.441V30.4726H0.424194V14.9666Z" fill="#62648D"/>
</g>
<path d="M10.8495 16.8232H15.2354C15.2817 16.8232 15.326 16.8321 15.3689 16.8498C15.4118 16.8675 15.4492 16.8927 15.4826 16.9254C15.5153 16.9581 15.5405 16.9956 15.5582 17.0385C15.5759 17.0814 15.5848 17.1257 15.5848 17.172V18.0704C15.5848 18.1167 15.5759 18.1617 15.5582 18.2039C15.5405 18.2468 15.5153 18.285 15.4826 18.3176C15.4492 18.3503 15.4118 18.3755 15.3689 18.3933C15.326 18.411 15.2817 18.4198 15.2354 18.4198H10.8495C10.8032 18.4198 10.759 18.411 10.716 18.3933C10.6731 18.3755 10.635 18.3503 10.6023 18.3176C10.5696 18.285 10.5444 18.2468 10.5267 18.2039C10.509 18.1617 10.5001 18.1167 10.5001 18.0704V17.172C10.5001 17.1257 10.509 17.0814 10.5267 17.0385C10.5444 16.9956 10.5696 16.9581 10.6023 16.9254C10.635 16.8927 10.6731 16.8675 10.716 16.8498C10.759 16.8321 10.8032 16.8232 10.8495 16.8232Z" fill="#8B91BA"/>
<path d="M10.8495 26.7743H15.2354C15.2817 26.7743 15.326 26.7831 15.3689 26.8009C15.4118 26.8186 15.4492 26.8438 15.4826 26.8765C15.5153 26.9098 15.5405 26.9473 15.5582 26.9902C15.5759 27.0324 15.5848 27.0774 15.5848 27.1237V28.2673C15.5848 28.3137 15.5759 28.3579 15.5582 28.4008C15.5405 28.4438 15.5153 28.4812 15.4826 28.5139C15.4492 28.5466 15.4118 28.5718 15.3689 28.5895C15.326 28.6072 15.2817 28.6161 15.2354 28.6161H10.8495C10.8032 28.6161 10.759 28.6072 10.716 28.5895C10.6731 28.5718 10.635 28.5466 10.6023 28.5139C10.5696 28.4812 10.5444 28.4438 10.5267 28.4008C10.509 28.3579 10.5001 28.3137 10.5001 28.2673V27.1237C10.5001 27.0774 10.509 27.0324 10.5267 26.9902C10.5444 26.9473 10.5696 26.9098 10.6023 26.8765C10.635 26.8438 10.6731 26.8186 10.716 26.8009C10.759 26.7831 10.8032 26.7743 10.8495 26.7743Z" fill="#8B91BA"/>
<mask id="mask4_248_936" style="mask-type:luminance" maskUnits="userSpaceOnUse" x="0" y="14" width="7" height="17">
<path d="M0.420044 14.8577H6.27779V30.551H0.420044V14.8577Z" fill="white"/>
</mask>
<g mask="url(#mask4_248_936)">
<path d="M0.424194 14.9666H6.12937V30.4726H0.424194V14.9666Z" fill="#4E4674"/>
</g>
<mask id="mask5_248_936" style="mask-type:luminance" maskUnits="userSpaceOnUse" x="0" y="14" width="3" height="17">
<path d="M0.420044 14.8577H2.09291V30.551H0.420044V14.8577Z" fill="white"/>
</mask>
<g mask="url(#mask5_248_936)">
<path d="M0.424194 14.9666H1.94517V30.4726H0.424194V14.9666Z" fill="#3F3260"/>
</g>
<path d="M4.42577 0.781982H15.4547C15.5003 0.781982 15.546 0.78675 15.5909 0.795605C15.6359 0.80446 15.6795 0.818083 15.7224 0.835111C15.7646 0.85282 15.8048 0.874617 15.8429 0.899819C15.8811 0.92502 15.9165 0.954309 15.9492 0.987004C15.9812 1.01902 16.0105 1.05444 16.0357 1.09258C16.0616 1.13072 16.0827 1.17091 16.1004 1.21314C16.1181 1.25537 16.1311 1.29896 16.1406 1.34392C16.1494 1.38887 16.1535 1.43451 16.1535 1.48014V4.50642C16.1535 4.55206 16.1494 4.59769 16.1406 4.64265C16.1311 4.6876 16.1181 4.7312 16.1004 4.77343C16.0827 4.81634 16.0616 4.85653 16.0357 4.89467C16.0105 4.93213 15.9812 4.96755 15.9492 5.00024C15.9165 5.03226 15.8811 5.06155 15.8429 5.08675C15.8048 5.11263 15.7646 5.13375 15.7224 5.15146C15.6795 5.16917 15.6359 5.18211 15.5909 5.19096C15.546 5.19982 15.5003 5.20458 15.4547 5.20458H4.42577C4.38014 5.20458 4.3345 5.19982 4.28955 5.19096C4.24459 5.18211 4.201 5.16917 4.15877 5.15146C4.11586 5.13375 4.07567 5.11263 4.03753 5.08675C3.99938 5.06155 3.96396 5.03226 3.93127 5.00024C3.89926 4.96755 3.86997 4.93213 3.84476 4.89467C3.81888 4.85653 3.79777 4.81634 3.78006 4.77343C3.76235 4.7312 3.74941 4.6876 3.73987 4.64265C3.73102 4.59769 3.72693 4.55206 3.72693 4.50642V1.48014C3.72693 1.43451 3.73102 1.38887 3.73987 1.34392C3.74941 1.29896 3.76235 1.25537 3.78006 1.21314C3.79777 1.17091 3.81888 1.13072 3.84476 1.09258C3.86997 1.05444 3.89926 1.01902 3.93127 0.987004C3.96396 0.954309 3.99938 0.92502 4.03753 0.899819C4.07567 0.874617 4.11586 0.85282 4.15877 0.835111C4.201 0.818083 4.24459 0.80446 4.28955 0.795605C4.3345 0.78675 4.38014 0.781982 4.42577 0.781982Z" fill="#7182B0"/>
<path d="M4.42577 0.781982H10.4776C10.524 0.781982 10.5689 0.78675 10.6139 0.795605C10.6595 0.80446 10.7031 0.818083 10.7453 0.835111C10.7876 0.85282 10.8277 0.874617 10.8666 0.899819C10.9047 0.92502 10.9395 0.954309 10.9721 0.987004C11.0048 1.01902 11.0335 1.05444 11.0593 1.09258C11.0845 1.13072 11.1063 1.17091 11.124 1.21314C11.1411 1.25537 11.1547 1.29896 11.1635 1.34392C11.1724 1.38887 11.1772 1.43451 11.1772 1.48014V4.50642C11.1772 4.55206 11.1724 4.59769 11.1635 4.64265C11.1547 4.6876 11.1411 4.7312 11.124 4.77343C11.1063 4.81634 11.0845 4.85653 11.0593 4.89467C11.0335 4.93213 11.0048 4.96755 10.9721 5.00024C10.9395 5.03226 10.9047 5.06155 10.8666 5.08675C10.8277 5.11263 10.7876 5.13375 10.7453 5.15146C10.7031 5.16917 10.6595 5.18211 10.6139 5.19096C10.5689 5.19982 10.524 5.20458 10.4776 5.20458H4.42577C4.38014 5.20458 4.3345 5.19982 4.28955 5.19096C4.24459 5.18211 4.201 5.16917 4.15877 5.15146C4.11586 5.13375 4.07567 5.11263 4.03753 5.08675C3.99938 5.06155 3.96396 5.03226 3.93127 5.00024C3.89926 4.96755 3.86997 4.93213 3.84476 4.89467C3.81888 4.85653 3.79777 4.81634 3.78006 4.77343C3.76235 4.7312 3.74941 4.6876 3.73987 4.64265C3.73102 4.59769 3.72693 4.55206 3.72693 4.50642V1.48014C3.72693 1.43451 3.73102 1.38887 3.73987 1.34392C3.74941 1.29896 3.76235 1.25537 3.78006 1.21314C3.79777 1.17091 3.81888 1.13072 3.84476 1.09258C3.86997 1.05444 3.89926 1.01902 3.93127 0.987004C3.96396 0.954309 3.99938 0.92502 4.03753 0.899819C4.07567 0.874617 4.11586 0.85282 4.15877 0.835111C4.201 0.818083 4.24459 0.80446 4.28955 0.795605C4.3345 0.78675 4.38014 0.781982 4.42577 0.781982Z" fill="#4E4674"/>
<path d="M10.351 20.2726C9.74686 20.2481 9.15632 20.3285 8.58076 20.5145C8.0052 20.7004 7.47936 20.9797 7.00393 21.3529C6.89631 21.184 6.77235 21.028 6.63203 20.885C5.91752 20.1725 4.98778 19.9498 4.55253 20.3803C4.11729 20.8107 4.34411 21.7466 5.05861 22.4557C5.15329 22.5517 5.25478 22.6396 5.36376 22.7193C5.25682 22.801 5.15465 22.8896 5.05861 22.9829C4.34411 23.696 4.11729 24.6244 4.55253 25.059C4.98778 25.4935 5.90663 25.2667 6.63203 24.5468C6.77303 24.403 6.89699 24.2457 7.00393 24.0747C7.72525 24.7286 8.94925 25.1557 10.351 25.1557C12.5831 25.1557 14.3724 24.0414 14.3724 22.7084C14.3724 21.3754 12.5531 20.2726 10.351 20.2726Z" fill="#F4C86F"/>
<path d="M22.9403 31.6188C23.0765 31.7551 23.2019 31.8995 23.3163 32.052C23.4307 32.2053 23.5322 32.3633 23.6208 32.5268C23.7086 32.6903 23.7822 32.8565 23.8408 33.0247C23.8987 33.1929 23.9416 33.3598 23.9682 33.526C23.9947 33.6922 24.0043 33.8543 23.9981 34.0117C23.9913 34.1697 23.9688 34.3202 23.9293 34.4639C23.8905 34.607 23.8353 34.7405 23.7652 34.8638C23.6943 34.9877 23.6099 35.0987 23.5111 35.1975C23.4117 35.2963 23.3006 35.3807 23.1767 35.4509C23.0534 35.5211 22.9199 35.5762 22.7762 35.615C22.6324 35.6546 22.4812 35.677 22.3232 35.6838C22.1652 35.69 22.0031 35.6798 21.8369 35.6539C21.67 35.6273 21.5031 35.5851 21.3342 35.5265C21.166 35.4679 20.9998 35.395 20.8356 35.3072C20.6721 35.2186 20.5134 35.1178 20.3602 35.0034C20.2069 34.889 20.0625 34.7636 19.9263 34.6274C19.7894 34.4912 19.6641 34.3468 19.5496 34.1942C19.4352 34.0409 19.3337 33.8829 19.2459 33.7195C19.1573 33.556 19.0844 33.3898 19.0258 33.2215C18.9673 33.0533 18.925 32.8864 18.8985 32.7202C18.8719 32.554 18.8617 32.3919 18.8685 32.2346C18.8746 32.0766 18.8978 31.926 18.9366 31.7823C18.9761 31.6393 19.0306 31.5058 19.1015 31.3825C19.1716 31.2585 19.2561 31.1475 19.3555 31.0487C19.4543 30.95 19.5653 30.8655 19.6893 30.7953C19.8132 30.7252 19.9467 30.67 20.0905 30.6312C20.2342 30.5917 20.3847 30.5692 20.5427 30.5624C20.7008 30.5563 20.8629 30.5665 21.0297 30.5924C21.1959 30.6189 21.3635 30.6612 21.5317 30.7197C21.7 30.7783 21.8662 30.8512 22.0303 30.9397C22.1945 31.0276 22.3525 31.1284 22.5058 31.2429C22.659 31.3573 22.8034 31.4826 22.9403 31.6188Z" fill="#F4C16F"/>
<path d="M22.9125 31.6015C21.7668 30.4878 20.1818 30.2351 19.3563 31.0593C18.5308 31.8841 18.776 33.4582 19.9033 34.6019L22.9125 31.6015Z" fill="#E6F5FF"/>
<path d="M20.7063 33.558C20.7063 33.6977 20.6879 33.8359 20.6504 33.9735C20.6123 34.1104 20.5564 34.2433 20.4829 34.372C20.4093 34.5014 20.3187 34.624 20.2111 34.7405C20.1042 34.8563 19.9822 34.9639 19.846 35.0627C19.7098 35.1614 19.5613 35.2493 19.4006 35.3269C19.2405 35.4046 19.0709 35.4707 18.8924 35.5238C18.7147 35.5776 18.5307 35.6178 18.3414 35.645C18.152 35.6723 17.9613 35.6859 17.7679 35.6859C17.5751 35.6859 17.3844 35.6723 17.195 35.645C17.0057 35.6178 16.8218 35.5776 16.6433 35.5238C16.4656 35.4707 16.2959 35.4046 16.1359 35.3269C15.9751 35.2493 15.8266 35.1614 15.6904 35.0627C15.5542 34.9639 15.4323 34.8563 15.3247 34.7405C15.2177 34.624 15.1271 34.5014 15.0536 34.372C14.9793 34.2433 14.9235 34.1104 14.886 33.9735C14.8485 33.8359 14.8295 33.6977 14.8295 33.558C14.8295 33.4184 14.8485 33.2801 14.886 33.1432C14.9235 33.0063 14.9793 32.8728 15.0536 32.7441C15.1271 32.6147 15.2177 32.4921 15.3247 32.3763C15.4323 32.2598 15.5542 32.1522 15.6904 32.0534C15.8266 31.9546 15.9751 31.8668 16.1359 31.7891C16.2959 31.7115 16.4656 31.6461 16.6433 31.5923C16.8218 31.5392 17.0057 31.4983 17.195 31.471C17.3844 31.4438 17.5751 31.4302 17.7679 31.4302C17.9613 31.4302 18.152 31.4438 18.3414 31.471C18.5307 31.4983 18.7147 31.5392 18.8924 31.5923C19.0709 31.6461 19.2405 31.7115 19.4006 31.7891C19.5613 31.8668 19.7098 31.9546 19.846 32.0534C19.9822 32.1522 20.1042 32.2598 20.2111 32.3763C20.3187 32.4921 20.4093 32.6147 20.4829 32.7441C20.5564 32.8728 20.6123 33.0063 20.6504 33.1432C20.6879 33.2801 20.7063 33.4184 20.7063 33.558Z" fill="#F4C16F"/>
<path d="M17.7903 35.686C19.3971 35.686 20.6919 34.7242 20.6919 33.5581C20.6919 32.392 19.3971 31.4493 17.7903 31.4343V35.686Z" fill="#CDDCFF"/>
<path d="M14.3533 4.06101C14.3043 4.06101 14.2566 4.05148 14.211 4.03241C14.1654 4.01402 14.1252 3.98677 14.0904 3.95203C14.0557 3.91729 14.0291 3.87711 14.0101 3.83147C13.991 3.78652 13.9814 3.73884 13.9814 3.6898V2.29756C13.9814 2.24784 13.991 2.20084 14.0101 2.1552C14.0291 2.10957 14.0557 2.06938 14.0904 2.03464C14.1252 1.9999 14.1654 1.97334 14.211 1.95427C14.2566 1.9352 14.3043 1.92566 14.3533 1.92566C14.4031 1.92566 14.4501 1.9352 14.4957 1.95427C14.5413 1.97334 14.5815 1.9999 14.6163 2.03464C14.6517 2.06938 14.6782 2.10957 14.6973 2.1552C14.7164 2.20084 14.7252 2.24784 14.7252 2.29756V3.6898C14.7252 3.73884 14.7164 3.78652 14.6973 3.83147C14.6782 3.87711 14.6517 3.91729 14.6163 3.95203C14.5815 3.98677 14.5413 4.01402 14.4957 4.03241C14.4501 4.05148 14.4031 4.06101 14.3533 4.06101Z" fill="#4E4674"/>
<path d="M12.1479 4.06101C12.0989 4.06101 12.0512 4.05148 12.0055 4.03241C11.9599 4.01402 11.9197 3.98677 11.885 3.95203C11.8502 3.91729 11.823 3.87711 11.8046 3.83147C11.7855 3.78652 11.776 3.73884 11.776 3.6898V2.29756C11.776 2.24784 11.7855 2.20084 11.8046 2.1552C11.823 2.10957 11.8502 2.06938 11.885 2.03464C11.9197 1.9999 11.9599 1.97334 12.0055 1.95427C12.0512 1.9352 12.0989 1.92566 12.1479 1.92566C12.1969 1.92566 12.2446 1.9352 12.2903 1.95427C12.3359 1.97334 12.3761 1.9999 12.4108 2.03464C12.4456 2.06938 12.4728 2.10957 12.4919 2.1552C12.5103 2.20084 12.5198 2.24784 12.5198 2.29756V3.6898C12.5198 3.73884 12.5103 3.78652 12.4919 3.83147C12.4728 3.87711 12.4456 3.91729 12.4108 3.95203C12.3761 3.98677 12.3359 4.01402 12.2903 4.03241C12.2446 4.05148 12.1969 4.06101 12.1479 4.06101Z" fill="#4E4674"/>
<path d="M9.94233 4.06858C9.89261 4.06858 9.84561 4.05905 9.79998 4.03997C9.75434 4.02158 9.71415 3.99434 9.67942 3.9596C9.644 3.92486 9.61743 3.88468 9.59836 3.83904C9.57997 3.79408 9.57043 3.74641 9.57043 3.69736V2.30445C9.57043 2.2554 9.57997 2.20841 9.59836 2.16277C9.61743 2.11713 9.644 2.07695 9.67942 2.04221C9.71415 2.00747 9.75434 1.98023 9.79998 1.96184C9.84561 1.94276 9.89261 1.93323 9.94233 1.93323C9.99138 1.93323 10.0391 1.94276 10.0847 1.96184C10.1303 1.98023 10.1705 2.00747 10.2053 2.04221C10.24 2.07695 10.2672 2.11713 10.2856 2.16277C10.3047 2.20841 10.3142 2.2554 10.3142 2.30445V3.69736C10.3142 3.74641 10.3047 3.79408 10.2856 3.83904C10.2672 3.88468 10.24 3.92486 10.2053 3.9596C10.1705 3.99434 10.1303 4.02158 10.0847 4.03997C10.0391 4.05905 9.99138 4.06858 9.94233 4.06858Z" fill="#3A3260"/>
<path d="M7.74763 4.06101C7.69859 4.06101 7.65091 4.05148 7.60527 4.03241C7.55964 4.01402 7.51945 3.98677 7.48471 3.95203C7.44998 3.91729 7.42273 3.87711 7.40366 3.83147C7.38527 3.78652 7.37573 3.73884 7.37573 3.6898V2.29756C7.37573 2.24784 7.38527 2.20084 7.40366 2.1552C7.42273 2.10957 7.44998 2.06938 7.48471 2.03464C7.51945 1.9999 7.55964 1.97334 7.60527 1.95427C7.65091 1.9352 7.69859 1.92566 7.74763 1.92566C7.79667 1.92566 7.84435 1.9352 7.88999 1.95427C7.93562 1.97334 7.97581 1.9999 8.01055 2.03464C8.04529 2.06938 8.07253 2.10957 8.09092 2.1552C8.10999 2.20084 8.11953 2.24784 8.11953 2.29756V3.69729C8.11885 3.74565 8.10863 3.79197 8.08888 3.83692C8.06981 3.88119 8.04256 3.9207 8.00782 3.95476C7.97309 3.98881 7.93358 4.01538 7.88794 4.03377C7.84299 4.05148 7.79599 4.06101 7.74763 4.06101Z" fill="#3A3260"/>
<path d="M5.51558 4.06858C5.46653 4.06858 5.41885 4.05905 5.37322 4.03997C5.32826 4.02158 5.2874 3.99434 5.25266 3.9596C5.21792 3.92486 5.19136 3.88468 5.17228 3.83904C5.15321 3.79408 5.14368 3.74641 5.14368 3.69736V2.30445C5.14368 2.2554 5.15321 2.20841 5.17228 2.16277C5.19136 2.11713 5.21792 2.07695 5.25266 2.04221C5.2874 2.00747 5.32826 1.98023 5.37322 1.96184C5.41885 1.94276 5.46653 1.93323 5.51558 1.93323C5.5653 1.93323 5.6123 1.94276 5.65793 1.96184C5.70357 1.98023 5.74376 2.00747 5.77917 2.04221C5.81391 2.07695 5.84048 2.11713 5.85955 2.16277C5.87862 2.20841 5.88816 2.2554 5.88816 2.30445V3.69736C5.88816 3.74641 5.87862 3.79408 5.85955 3.83904C5.84048 3.88468 5.81391 3.92486 5.77917 3.9596C5.74376 3.99434 5.70357 4.02158 5.65793 4.03997C5.6123 4.05905 5.5653 4.06858 5.51558 4.06858Z" fill="#3A3260"/>
<path d="M8.77816 7.46582C8.77816 7.51486 8.76862 7.56254 8.74955 7.60818C8.73048 7.65313 8.70392 7.69332 8.66918 7.72806C8.63376 7.76348 8.59357 7.79004 8.54794 7.80911C8.50298 7.8275 8.4553 7.83704 8.40558 7.83704H5.03601V7.0946H8.40558C8.4553 7.0946 8.50298 7.10414 8.54794 7.12253C8.59357 7.1416 8.63376 7.16817 8.66918 7.2029C8.70392 7.23832 8.73048 7.27851 8.74955 7.32347C8.76862 7.3691 8.77816 7.41678 8.77816 7.46582Z" fill="#4368E0"/>
<path d="M12.7173 7.83704H11.1806C11.1316 7.83704 11.0839 7.8275 11.0383 7.80911C10.9926 7.79004 10.9524 7.76348 10.9177 7.72806C10.883 7.69332 10.8557 7.65313 10.8373 7.60818C10.8183 7.56254 10.8087 7.51486 10.8087 7.46582C10.8087 7.41678 10.8183 7.3691 10.8373 7.32347C10.8557 7.27851 10.883 7.23832 10.9177 7.2029C10.9524 7.16817 10.9926 7.1416 11.0383 7.12253C11.0839 7.10414 11.1316 7.0946 11.1806 7.0946H12.7173C12.7663 7.0946 12.814 7.10414 12.8596 7.12253C12.9046 7.1416 12.9448 7.16817 12.9802 7.2029C13.0149 7.23832 13.0415 7.27851 13.0605 7.32347C13.0796 7.3691 13.0892 7.41678 13.0892 7.46582C13.0892 7.51486 13.0796 7.56254 13.0605 7.60818C13.0415 7.65313 13.0149 7.69332 12.9802 7.72806C12.9448 7.76348 12.9046 7.79004 12.8596 7.80911C12.814 7.8275 12.7663 7.83704 12.7173 7.83704Z" fill="#4D8BEF"/>
</svg>
