<svg width="45" height="36" viewBox="0 0 45 36" fill="none" xmlns="http://www.w3.org/2000/svg">
<mask id="mask0_248_883" style="mask-type:luminance" maskUnits="userSpaceOnUse" x="0" y="28" width="30" height="8">
<path d="M0.709717 28.8903H29.8101V35.7807H0.709717V28.8903Z" fill="white"/>
</mask>
<g mask="url(#mask0_248_883)">
<path d="M29.8009 33.7851L8.19254 35.7799L0.786437 29.9472C0.716431 29.9299 0.721283 29.8287 0.792675 29.8197C2.01882 29.6603 11.8343 28.9484 11.9951 28.938C12.1836 28.9248 29.8009 33.7851 29.8009 33.7851Z" fill="#BF3B29"/>
</g>
<mask id="mask1_248_883" style="mask-type:luminance" maskUnits="userSpaceOnUse" x="1" y="28" width="9" height="8">
<path d="M1.06445 28.3389H9.93653V35.781H1.06445V28.3389Z" fill="white"/>
</mask>
<g mask="url(#mask1_248_883)">
<path d="M1.13245 28.3483L1.18374 29.817L8.66609 35.6885L9.21297 35.0502L9.90887 34.1158L1.13245 28.3483Z" fill="#EFE4DC"/>
</g>
<mask id="mask2_248_883" style="mask-type:luminance" maskUnits="userSpaceOnUse" x="0" y="28" width="40" height="8">
<path d="M0.68396 28.2704H39.0231V35.7818H0.68396V28.2704Z" fill="white"/>
</mask>
<g mask="url(#mask2_248_883)">
<path d="M0.744209 28.2859L29.9167 29.6035L38.603 32.2076C38.8186 32.2707 38.9815 32.6076 38.9967 32.8314L39.0168 33.2286C39.0369 33.5253 38.8123 33.7817 38.5157 33.7997L8.19259 35.7821C8.19259 35.7821 8.83374 35.5374 8.62788 34.7396C8.58491 34.5733 8.39014 34.3834 8.39014 34.3834C8.39014 34.3834 2.12007 28.8078 0.733119 28.4134C0.661727 28.3933 0.670044 28.2907 0.744209 28.2859Z" fill="#BF3B29"/>
</g>
<path d="M31.5248 32.1206L9.91648 34.1162L2.39393 28.262C2.29758 28.2045 2.32877 28.1442 2.40016 28.1351C3.62701 27.9757 13.5589 27.2847 13.719 27.2736C13.9082 27.2611 31.5248 32.1206 31.5248 32.1206Z" fill="#243558"/>
<path d="M2.8562 26.6827L2.90819 28.1515L10.3898 34.0223L10.9374 33.3839L11.6333 32.4503L2.8562 26.6827Z" fill="#EFE4DC"/>
<path d="M2.51602 26.3888L31.6407 27.9379L40.3277 30.542C40.5426 30.6051 40.7055 30.9413 40.7207 31.1659L40.7415 31.5623C40.7609 31.8597 40.5363 32.1154 40.2397 32.1342L9.91658 34.1165C9.91658 34.1165 10.5584 33.8718 10.3526 33.074C10.3096 32.9084 10.1148 32.7178 10.1148 32.7178C10.1148 32.7178 3.67008 27.041 2.44948 26.5399C2.38086 26.5115 2.44185 26.3943 2.51602 26.3888Z" fill="#243558"/>
<path d="M10.0344 32.2178L3.18208 26.3546C2.96721 26.173 3.05732 26.0226 3.19941 26.0192L31.4951 26.1134L40.6673 29.8598L10.0344 32.2178Z" fill="#DD8D16"/>
<path d="M3.93398 21.2806C4.37759 23.2831 4.1343 25.8865 3.72119 26.3218C3.72119 26.3218 9.08672 30.6622 10.482 31.9029L11.5342 26.7176L3.93398 21.2806Z" fill="#EFE4DC"/>
<path d="M3.70666 21.3656L9.95455 26.781C9.9899 26.8032 10.0232 26.8267 10.0384 26.8628C10.6206 28.2352 10.5416 29.1106 10.5756 29.8938C10.6394 31.5899 9.78958 32.0315 9.78958 32.0315L10.0745 32.2754L40.7427 30.2432C41.4629 30.2265 41.4698 29.9777 41.5253 29.5958C41.5787 29.2291 42.1345 25.132 41.395 24.5949C41.0394 24.337 30.2328 20.802 30.2196 20.8027L3.70736 20.931C3.54863 20.9497 3.55002 21.3344 3.70666 21.3656Z" fill="#DD8D16"/>
<path d="M37.1358 26.7571L43.3297 21.5593C43.6395 21.2758 43.3886 21.2307 43.0836 21.2425L16.2137 21.4657L7.19604 24.3547L37.1358 26.7571Z" fill="#BF3B29"/>
<path d="M43.1771 17.8468C42.714 19.4424 42.6288 20.9707 43.0253 21.3242C43.0253 21.3242 37.5183 26.2566 36.2922 26.5837L35.6323 22.0659L43.1771 17.8468Z" fill="#EFE4DC"/>
<path d="M43.2476 17.8956L37.2645 22.1708C37.2299 22.1881 37.1973 22.2061 37.182 22.2346C36.5922 23.3255 36.6567 24.0256 36.6116 24.6515C36.5243 26.0066 37.2874 26.4419 37.2874 26.4419L37.0892 26.6955L7.37672 25.0667C6.67249 25.0452 6.66903 24.8463 6.62051 24.5406C6.57407 24.2467 6.09096 21.0105 6.82221 20.5898C7.17293 20.3874 13.8651 17.4672 13.8776 17.4679L43.2705 17.5906C43.4251 17.6079 43.4008 17.872 43.2476 17.8956Z" fill="#BF3B29"/>
<path d="M10.0017 22.2588C9.63987 22.2588 9.34668 22.5527 9.34668 22.9145C9.34668 23.277 9.63987 23.5702 10.0017 23.5702C10.3635 23.5702 10.656 23.277 10.656 22.9145C10.656 22.5527 10.3635 22.2588 10.0017 22.2588ZM34.5087 23.713C34.1476 23.713 33.8537 24.0062 33.8537 24.3687C33.8537 24.7305 34.1476 25.0237 34.5087 25.0237C34.8705 25.0237 35.1637 24.7305 35.1637 24.3687C35.1637 24.0062 34.8705 23.713 34.5087 23.713ZM11.7047 22.6116C11.7047 22.71 11.7816 22.7925 11.8808 22.7987L32.7579 24.0637C32.8612 24.0699 32.9499 23.9909 32.9561 23.8876C32.9623 23.7858 32.8833 23.6956 32.7807 23.6894L11.9029 22.4244C11.8004 22.4182 11.7116 22.4972 11.7054 22.6005C11.7047 22.604 11.7047 22.6081 11.7047 22.6116ZM11.7054 23.2798C11.7116 23.1765 11.8004 23.0975 11.9029 23.1037L32.7807 24.3687C32.8833 24.3749 32.9623 24.4664 32.9561 24.5669C32.9499 24.6702 32.8612 24.7492 32.7579 24.743L11.8808 23.4773C11.7816 23.4718 11.7047 23.3893 11.7047 23.2909C11.7047 23.2874 11.7047 23.2832 11.7054 23.2798Z" fill="#DD8D16"/>
<path d="M36.3614 21.9397L42.8637 16.8154C42.9996 16.7939 42.9905 16.5686 42.8512 16.5645L15.4393 17.0004L6.42163 19.6967L36.3614 21.9397Z" fill="#243558"/>
<path d="M42.3551 13.4028C41.892 14.8917 41.9586 16.3861 42.3551 16.7153C42.3551 16.7153 36.7442 21.4736 35.5173 21.7793L34.8582 17.5616L42.3551 13.4028Z" fill="#EFE4DC"/>
<path d="M42.4603 13.3711L36.559 17.8404C36.5244 17.8571 36.4918 17.8737 36.4765 17.9001C35.8867 18.9183 35.9511 19.5719 35.9061 20.1562C35.8188 21.4212 36.5618 21.7968 36.5618 21.7968L36.3615 21.9382L6.41751 20.3607C5.71399 20.3406 5.71052 20.1548 5.662 19.8692C5.61556 19.5955 5.02571 16.2033 5.75696 15.811C6.10838 15.6217 12.341 13.3503 16.3362 13.0468H42.4659C42.6205 13.062 42.6135 13.349 42.4603 13.3711Z" fill="#243558"/>
<path d="M33.3942 17.7851C33.2577 18.5115 33.1738 19.276 33.1738 20.0087C33.1738 20.5576 33.2216 21.0872 33.327 21.5668C33.3305 21.5842 33.3485 21.5973 33.3693 21.5987L33.8184 21.6237C33.8482 21.6257 33.8711 21.6029 33.8655 21.5779C33.6049 20.4939 33.6819 19.0875 33.9231 17.8156C33.9272 17.7927 33.9078 17.7719 33.8808 17.7712L33.4414 17.7525C33.4185 17.7518 33.3977 17.7657 33.3942 17.7851ZM31.3869 17.6978C31.1381 18.4852 31.066 19.1478 31.066 19.9297C31.066 20.4668 31.0882 20.9506 31.2185 21.4483C31.2226 21.4649 31.24 21.4774 31.2601 21.4788L32.681 21.5592C32.7122 21.5613 32.7357 21.5377 32.7281 21.5121C32.4432 20.5334 32.4391 19.1942 32.8203 17.7719C32.8265 17.7491 32.8071 17.7262 32.7787 17.7248L31.4334 17.6687C31.4119 17.668 31.3925 17.6804 31.3869 17.6978ZM30.1788 17.6167L30.6175 17.6347C30.6446 17.6361 30.6647 17.6569 30.6605 17.6791C30.4186 18.9253 30.332 20.3067 30.5662 21.3915C30.5718 21.4164 30.5482 21.4386 30.5191 21.4365L30.072 21.4116C30.0512 21.4102 30.0332 21.397 30.0298 21.379C29.9403 20.9285 29.9001 20.4377 29.9001 19.9297C29.9001 19.1776 29.9889 18.3916 30.131 17.6492C30.1351 17.6291 30.1552 17.6153 30.1788 17.6167Z" fill="#486BBC"/>
<mask id="mask3_248_883" style="mask-type:luminance" maskUnits="userSpaceOnUse" x="7" y="11" width="39" height="8">
<path d="M7.27502 11.6592H45.0001V18.0471H7.27502V11.6592Z" fill="white"/>
</mask>
<g mask="url(#mask3_248_883)">
<path d="M38.0065 17.9925L44.8588 12.1293C44.9974 12.0988 44.9835 11.798 44.8414 11.7938L16.545 11.8881L7.37354 15.6352L38.0065 17.9925Z" fill="#DD8D16"/>
</g>
<path d="M44.1065 7.05334C43.6629 9.0558 43.9062 11.6592 44.3186 12.0952C44.3186 12.0952 38.9531 16.4349 37.5578 17.6756L36.5063 12.4903L44.1065 7.05334Z" fill="#EFE4DC"/>
<path d="M44.3338 7.13931L38.0852 12.5547C38.0505 12.5769 38.0173 12.6005 38.002 12.6358C37.4198 14.0089 37.4988 14.8837 37.4648 15.6676C37.4011 17.3637 38.2509 17.8045 38.2509 17.8045L37.966 18.0485L7.2984 16.3794C6.57754 16.3628 6.57061 16.1133 6.51516 15.732C6.46179 15.3654 5.93917 10.5966 6.67943 10.0595C7.03432 9.80162 17.3654 8.18039 17.3779 8.18108L44.3331 6.70471C44.4911 6.72343 44.4904 7.10811 44.3338 7.13931Z" fill="#DD8D16"/>
<path d="M16.1512 13.1074C16.1083 13.6064 16.1083 14.111 16.1512 14.6101C16.1727 14.8672 16.3585 15.0759 16.5484 15.0759C16.5713 15.0759 16.5941 15.0759 16.617 15.0759C16.8076 15.0759 16.931 14.8672 16.9095 14.6101C16.8665 14.111 16.8665 13.6064 16.9095 13.1074C16.931 12.8495 16.8076 12.6409 16.617 12.6409C16.5941 12.6409 16.5713 12.6409 16.5484 12.6409C16.3585 12.6409 16.1727 12.8495 16.1512 13.1074ZM17.3753 13.1697C17.333 13.6688 17.333 14.1734 17.3753 14.6724C17.3975 14.9296 17.5832 15.1382 17.7732 15.1389C17.796 15.1389 17.8189 15.1389 17.8418 15.1389C18.0317 15.1382 18.1558 14.9296 18.1343 14.6724C18.0913 14.1734 18.0913 13.6688 18.1343 13.1697C18.1558 12.9119 18.0317 12.7033 17.8418 12.7033C17.8189 12.7033 17.796 12.7033 17.7732 12.7033C17.5832 12.7033 17.3975 12.9119 17.3753 13.1697ZM18.7297 13.2633C18.6867 13.7624 18.6867 14.2663 18.7297 14.766C18.7512 15.0232 18.9376 15.2325 19.1268 15.2325C19.1497 15.2325 19.1733 15.2325 19.1962 15.2325C19.3861 15.2325 19.5101 15.0239 19.488 14.766C19.4457 14.2663 19.4457 13.7624 19.488 13.2633C19.5101 13.0055 19.3861 12.7968 19.1962 12.7968C19.1733 12.7968 19.1497 12.7968 19.1268 12.7968C18.9376 12.7968 18.7512 13.0062 18.7297 13.2633ZM19.9544 13.3257C19.9115 13.8247 19.9115 14.3293 19.9544 14.8284C19.9759 15.0862 20.1624 15.2949 20.3516 15.2949C20.3745 15.2949 20.3974 15.2949 20.4209 15.2949C20.6108 15.2949 20.7349 15.0862 20.7127 14.8284C20.6704 14.3293 20.6704 13.8247 20.7127 13.3257C20.7349 13.0685 20.6108 12.8592 20.4209 12.8592C20.3974 12.8592 20.3745 12.8592 20.3516 12.8592C20.1624 12.8592 19.9759 13.0685 19.9544 13.3257ZM23.2129 13.4505C23.1699 13.9495 23.1699 14.4541 23.2129 14.9532C23.235 15.211 23.4215 15.4196 23.6107 15.4196C23.6336 15.4196 23.6565 15.4196 23.6793 15.4196C23.8692 15.4196 23.9933 15.211 23.9718 14.9532C23.9289 14.4541 23.9289 13.9495 23.9718 13.4505C23.9933 13.1926 23.8692 12.984 23.6793 12.984C23.6565 12.984 23.6336 12.984 23.6107 12.984C23.4215 12.9847 23.235 13.1926 23.2129 13.4505ZM24.4376 13.5128C24.3946 14.0119 24.3946 14.5165 24.4376 15.0155C24.4598 15.2734 24.6456 15.482 24.8348 15.482C24.8583 15.482 24.8812 15.482 24.9041 15.482C25.094 15.482 25.2181 15.2734 25.1966 15.0155C25.1536 14.5165 25.1536 14.0119 25.1966 13.5128C25.2181 13.255 25.094 13.0471 24.9041 13.0471C24.8812 13.0471 24.8583 13.0471 24.8348 13.0471C24.6456 13.0471 24.4598 13.2557 24.4376 13.5128ZM25.792 13.6071C25.749 14.1062 25.749 14.6101 25.792 15.1091C25.8135 15.367 25.9999 15.5756 26.1892 15.5756C26.212 15.5756 26.2349 15.5756 26.2585 15.5756C26.4484 15.5756 26.5725 15.367 26.5503 15.1091C26.508 14.6101 26.508 14.1062 26.5503 13.6071C26.5725 13.3493 26.4484 13.1406 26.2585 13.1406C26.2349 13.1406 26.212 13.1406 26.1892 13.1406C25.9999 13.1406 25.8135 13.3493 25.792 13.6071ZM27.0161 13.6695C26.9738 14.1685 26.9738 14.6724 27.0161 15.1722C27.0382 15.4293 27.2247 15.638 27.4139 15.638C27.4368 15.638 27.4597 15.638 27.4825 15.638C27.6725 15.638 27.7965 15.4293 27.775 15.1722C27.7321 14.6724 27.7321 14.1685 27.775 13.6695C27.7965 13.4116 27.6725 13.2023 27.4825 13.2023C27.4597 13.2023 27.4368 13.2023 27.4139 13.2023C27.2247 13.203 27.0382 13.4116 27.0161 13.6695ZM9.20398 13.6556C9.20398 13.6785 9.20537 13.7014 9.20883 13.7242C9.22685 13.8518 9.29062 13.9516 9.34191 14.032L10.627 15.7052C10.6824 15.7925 10.7982 15.8175 10.8855 15.7621C10.9728 15.7059 10.9978 15.5902 10.9424 15.5028L9.88671 13.8518C9.85206 13.7963 9.81532 13.7395 9.80908 13.6937C9.79938 13.6251 9.84928 13.5336 9.90127 13.4449C10.3144 12.7365 10.7781 12.0489 11.2785 11.4002C11.3409 11.3184 11.3263 11.2006 11.2446 11.1375C11.1628 11.0737 11.0456 11.089 10.9819 11.1708C10.4717 11.8327 9.76957 12.5127 9.34815 13.2342C9.2927 13.3292 9.20398 13.4816 9.20398 13.6556ZM11.1059 13.8428C11.1059 13.8656 11.108 13.8885 11.1108 13.9121C11.1288 14.0389 11.1926 14.1394 11.2439 14.2198L12.5289 15.8924C12.5844 15.979 12.7001 16.0046 12.7875 15.9492C12.8748 15.8931 12.8998 15.778 12.8443 15.6907L11.7894 14.0389C11.754 13.9842 11.7173 13.9273 11.711 13.8809C11.702 13.8123 11.7512 13.7208 11.8032 13.6321C12.2163 12.9244 12.68 12.2361 13.1805 11.5873C13.2435 11.5055 13.2283 11.3884 13.1465 11.3246C13.0647 11.2616 12.9476 11.2768 12.8838 11.3586C12.3737 12.0198 11.6715 12.6998 11.2501 13.422C11.1947 13.517 11.1059 13.6688 11.1059 13.8428ZM12.8207 13.8428C12.8207 13.8656 12.8228 13.8885 12.8256 13.9121C12.8436 14.0389 12.9074 14.1394 12.9587 14.2198L14.2437 15.8924C14.2992 15.979 14.4149 16.0046 14.5023 15.9492C14.5896 15.8931 14.6146 15.778 14.5591 15.6907L13.5035 14.0389C13.4688 13.9842 13.4321 13.9273 13.4258 13.8809C13.4168 13.8123 13.466 13.7208 13.518 13.6321C13.9311 12.9244 14.3948 12.2361 14.8953 11.5873C14.9584 11.5055 14.9438 11.3884 14.8613 11.3246C14.7802 11.2616 14.6624 11.2768 14.5993 11.3586C14.0892 12.0198 13.387 12.6998 12.9649 13.422C12.9095 13.517 12.8207 13.6688 12.8207 13.8428ZM30.2031 14.7868C30.2031 14.8097 30.2052 14.8326 30.2079 14.8561C30.226 14.9837 30.2897 15.0835 30.3417 15.1639L31.6261 16.8371C31.6822 16.9237 31.7973 16.9494 31.8846 16.8939C31.9719 16.8378 31.9969 16.722 31.9414 16.6347L30.8865 14.9837C30.8512 14.9282 30.8151 14.8714 30.8089 14.8256C30.7992 14.757 30.8491 14.6655 30.9004 14.5768C31.3142 13.8691 31.7772 13.1808 32.2776 12.5321C32.3407 12.4503 32.3261 12.3324 32.2443 12.2694C32.1626 12.2056 32.0447 12.2208 31.9817 12.3026C31.4715 12.9646 30.7694 13.6445 30.3479 14.3661C30.2925 14.4617 30.2031 14.6135 30.2031 14.7868ZM32.105 14.9747C32.105 14.9975 32.1071 15.0204 32.1099 15.044C32.1279 15.1708 32.1924 15.2713 32.2437 15.351L33.528 17.0242C33.5842 17.1116 33.6999 17.1365 33.7866 17.0811C33.8739 17.0249 33.8989 16.9099 33.8434 16.8225L32.7885 15.1708C32.7531 15.1161 32.7171 15.0592 32.7101 15.0128C32.7011 14.9442 32.7503 14.8527 32.8023 14.7646C33.2161 14.0563 33.6791 13.368 34.1796 12.7192C34.2426 12.6374 34.2281 12.5203 34.1463 12.4565C34.0645 12.3934 33.9467 12.4087 33.8836 12.4905C33.3735 13.1517 32.6713 13.8317 32.2499 14.5539C32.1944 14.6489 32.105 14.8007 32.105 14.9747ZM33.9647 14.5539C34.3861 13.8317 35.0883 13.1517 35.5984 12.4905C35.6615 12.4087 35.7793 12.3934 35.8611 12.4565C35.9429 12.5203 35.9575 12.6374 35.8951 12.7192C35.3939 13.368 34.9309 14.0563 34.5171 14.7646C34.4658 14.8527 34.4159 14.9442 34.4256 15.0128C34.4319 15.0592 34.4679 15.1161 34.5033 15.1708L35.5582 16.8225C35.6137 16.9099 35.5887 17.0249 35.5014 17.0811C35.414 17.1365 35.299 17.1116 35.2428 17.0242L33.9585 15.351C33.9072 15.2713 33.8427 15.1708 33.8254 15.044C33.8219 15.0204 33.8205 14.9975 33.8205 14.9747C33.8205 14.8007 33.9092 14.6489 33.9647 14.5539Z" fill="#BF3B29"/>
<path d="M35.1465 12.2965L41.9149 6.69529C42.0507 6.6648 42.0417 6.34596 41.9031 6.33972L14.2243 5.29309L5.20667 9.1164L35.1465 12.2965Z" fill="#486BBC"/>
<path d="M41.2904 1.89685C40.8274 4.00882 41.0097 6.08683 41.4068 6.554C41.4068 6.554 35.5291 11.6353 34.3029 12.0692L33.6431 6.08891L41.2904 1.89685Z" fill="#EFE4DC"/>
<mask id="mask4_248_883" style="mask-type:luminance" maskUnits="userSpaceOnUse" x="4" y="0" width="38" height="13">
<path d="M4.08105 0.781982H41.8761V12.193H4.08105V0.781982Z" fill="white"/>
</mask>
<g mask="url(#mask4_248_883)">
<path d="M41.5932 1.76549L35.24 6.10518C35.206 6.12875 35.1734 6.15232 35.1582 6.19044C34.5683 7.63354 34.6605 8.79938 34.6162 9.62768C34.5281 11.4215 35.2913 11.9975 35.2913 11.9975L35.0702 12.1548L5.1269 10.1808C4.42337 10.1524 4.3194 9.83908 4.27088 9.43429C4.22444 9.04545 3.91045 4.3682 4.64101 3.81092C4.99243 3.54406 10.5188 0.91363 12.2966 0.7854L41.6452 1.33228C41.7998 1.35446 41.7381 1.68924 41.5932 1.76549Z" fill="#486BBC"/>
</g>
<path d="M17.8959 9.17229C18.4581 9.83146 19.3099 10.2161 20.1749 10.203C20.2678 10.2016 20.3704 10.1926 20.4286 10.1371C20.4612 10.1066 20.4765 10.0727 20.4765 10.0318C20.4765 10.0241 20.4758 10.0158 20.4744 10.0068C20.4536 9.85918 20.2713 9.68243 20.1077 9.59718C19.2066 9.13001 18.4123 8.85691 17.5618 8.72383C17.6679 8.87979 17.7781 9.03435 17.8959 9.17229ZM21.8107 8.53807C21.8156 8.53669 21.8211 8.53461 21.8267 8.53391C21.8357 8.53391 21.8468 8.53391 21.8565 8.53391C22.2301 8.50203 22.6002 8.4341 22.9599 8.32736C23.1991 8.25666 23.4708 8.15893 23.6711 7.97109C23.8312 7.82138 23.922 7.62522 23.922 7.44223C23.922 7.39441 23.9158 7.34727 23.9033 7.30222C23.8132 6.98407 23.4271 6.83297 23.1208 6.87594C22.77 6.92516 22.4713 7.16359 22.2259 7.39025C21.7172 7.8588 20.8937 8.30033 20.1909 8.43341C20.7225 8.54362 21.2694 8.57966 21.8107 8.53807ZM27.0106 10.2057L27.0425 10.212C27.4563 10.2924 28.0822 10.4144 28.6734 10.1759C28.9992 10.0449 29.3111 9.71224 29.3111 9.36082C29.3111 9.33656 29.309 9.31161 29.3063 9.28735C29.2938 9.18684 29.2404 9.10713 29.1434 9.04337C28.8758 8.86662 28.3782 8.87771 28.2243 8.92068C27.8742 9.02049 27.5409 9.13278 27.2185 9.2416C26.6287 9.43984 26.0652 9.62975 25.519 9.69491C26 9.9077 26.4949 10.1052 27.0106 10.2057ZM17.4704 7.21904C17.7324 7.29667 17.9618 7.44639 18.1829 7.59056C18.2328 7.62314 18.282 7.65572 18.3319 7.68691C18.7201 7.93228 19.1387 8.12705 19.574 8.26914C20.2755 8.39529 21.4663 7.83593 22.0991 7.25231C22.3659 7.00625 22.6931 6.74702 23.0951 6.69088C23.4874 6.63612 23.9643 6.8302 24.0828 7.25162C24.1632 7.5358 24.0516 7.87197 23.7993 8.10764C23.5699 8.32251 23.2732 8.42994 23.0133 8.50688C22.8816 8.5457 22.7485 8.57827 22.6148 8.60739C23.1131 8.69541 23.6455 8.84721 23.9615 8.99069L25.1558 9.53133C25.7838 9.52648 26.4214 9.3123 27.1589 9.06347C27.4833 8.95464 27.8188 8.84166 28.173 8.74116C28.3428 8.69264 28.9112 8.66492 29.2466 8.88672C29.3894 8.98168 29.4719 9.10852 29.492 9.26378C29.5523 9.74828 29.1524 10.185 28.7434 10.3499C28.1009 10.6091 27.4424 10.4809 27.0064 10.3957L26.9753 10.3901C26.314 10.2612 25.6964 9.98186 25.099 9.71154C25.0976 9.71085 25.0969 9.71016 25.0955 9.70946L23.8846 9.1612C23.4181 8.94979 22.4193 8.70997 21.8558 8.72106C20.5964 8.82434 19.3023 8.52144 18.2321 7.84494C18.1815 7.81375 18.1309 7.78048 18.081 7.7479C17.8613 7.60442 17.6533 7.46857 17.417 7.39857C17.0122 7.27935 16.5721 7.24677 16.1929 7.30083C16.7543 7.51293 17.0947 8.0203 17.4218 8.51381C18.3583 8.63996 19.2143 8.92345 20.1937 9.43083C20.4016 9.53895 20.6289 9.76284 20.6601 9.98048C20.6754 10.0935 20.6407 10.194 20.5576 10.273C20.4529 10.3728 20.3073 10.388 20.1777 10.3901C19.2579 10.4047 18.3513 9.99434 17.7538 9.29428C17.5847 9.09674 17.4357 8.87286 17.2915 8.65521C17.2901 8.65383 17.2894 8.65244 17.2888 8.65105C17.2839 8.64481 17.2797 8.63858 17.2756 8.63165C16.945 8.13259 16.6324 7.66057 16.1139 7.47065C15.5393 7.25994 14.912 7.48313 14.3048 7.69938C14.1433 7.75761 13.9756 7.81722 13.812 7.86712C12.6399 8.22824 11.3292 8.13952 10.216 7.62383C10.1821 7.60789 10.162 7.57393 10.162 7.53858C10.162 7.52541 10.1647 7.51155 10.171 7.49907C10.1925 7.45194 10.2479 7.43184 10.2951 7.45332C11.3666 7.9503 12.6281 8.03625 13.7566 7.68829C13.9167 7.63908 14.0823 7.58017 14.2424 7.52333C14.7477 7.34311 15.2669 7.15874 15.7777 7.20657C16.3399 7.01388 17.0191 7.08596 17.4704 7.21904ZM19.863 7.29875C20.0218 7.32856 20.2006 7.27935 20.3427 7.16637C20.4827 7.05408 20.5673 6.89951 20.5735 6.74148C20.5742 6.73524 20.5742 6.72831 20.5742 6.72207C20.5742 6.56819 20.4973 6.40947 20.3663 6.29441C20.2318 6.17657 20.0654 6.1239 19.9109 6.15162C19.7209 6.18489 19.5109 6.3554 19.4 6.5675C19.3217 6.71791 19.3065 6.86139 19.3584 6.97298C19.4049 7.07349 19.6301 7.25509 19.863 7.29875ZM19.1408 6.8295C19.1408 6.7186 19.1727 6.59939 19.2344 6.48086C19.3723 6.21678 19.6308 6.01022 19.8783 5.96656C20.089 5.92982 20.3122 5.99775 20.4896 6.1537C20.6685 6.31035 20.769 6.53146 20.7606 6.7491C20.7516 6.96189 20.6421 7.16706 20.4591 7.31262C20.2727 7.46095 20.0426 7.52333 19.8284 7.48243C19.5442 7.42906 19.2628 7.21281 19.1886 7.05131C19.1567 6.98338 19.1408 6.90783 19.1408 6.8295ZM27.1291 7.96069C27.4799 7.9302 27.7841 7.60789 27.7938 7.25578C27.7938 7.24954 27.7945 7.244 27.7945 7.23776C27.7945 6.89189 27.5124 6.56334 27.17 6.51413C27.0619 6.49888 26.9053 6.49472 26.7722 6.56611C26.3695 6.78029 26.3611 7.1525 26.3563 7.39995C26.3521 7.55383 26.4422 7.67374 26.5185 7.74513C26.6751 7.89207 26.9205 7.97872 27.1291 7.96069ZM26.1691 7.40619C26.1691 7.40203 26.1691 7.39787 26.1691 7.39371C26.1747 7.14003 26.1844 6.66662 26.6841 6.40046C26.8616 6.3055 27.0605 6.30896 27.1964 6.32837C27.6414 6.39214 27.9942 6.80663 27.981 7.26133C27.9685 7.71117 27.5935 8.10902 27.1451 8.14715C26.8831 8.17002 26.5864 8.06536 26.3903 7.88098C26.2468 7.74721 26.1691 7.57947 26.1691 7.40619ZM15.1262 9.22635C15.3591 9.26933 15.5843 9.17437 15.7445 8.96573C15.7833 8.91514 15.8346 8.75364 15.8346 8.68294C15.8346 8.68224 15.8346 8.68155 15.8346 8.68155C15.8346 8.53946 15.7562 8.44242 15.6897 8.38489C15.5566 8.27052 15.3535 8.21507 15.1726 8.2428C15.0298 8.26498 14.8974 8.35717 14.8101 8.49579C14.7228 8.63511 14.6964 8.79522 14.7387 8.93524C14.7803 9.07248 14.9397 9.19239 15.1262 9.22635ZM14.5322 8.79869C14.5322 8.66214 14.5731 8.52144 14.6521 8.39529C14.7685 8.21161 14.948 8.08823 15.1442 8.05773C15.3806 8.021 15.6363 8.09239 15.8117 8.24349C15.9475 8.35994 16.0217 8.5152 16.0217 8.68155C16.0217 8.68224 16.0217 8.68294 16.0217 8.68294C16.0217 8.78413 15.9607 8.99138 15.8928 9.07941C15.6883 9.34626 15.3965 9.46618 15.0922 9.41072C14.8358 9.36359 14.6216 9.19447 14.5599 8.9893C14.5412 8.92761 14.5322 8.86384 14.5322 8.79869ZM23.1901 10.2945C23.3543 10.1496 23.4036 9.90562 23.3654 9.75036C23.3391 9.63876 23.2192 9.57985 23.1499 9.5542C22.935 9.47657 22.6418 9.50083 22.4962 9.60965C22.3673 9.70531 22.2925 9.90978 22.3188 10.0969C22.3285 10.169 22.3639 10.2972 22.4865 10.3437C22.7846 10.4553 23.0279 10.4386 23.1901 10.2945ZM22.133 10.1226C22.1289 10.0886 22.1261 10.0546 22.1261 10.0214C22.1261 9.79818 22.2252 9.57708 22.3847 9.45855C22.5815 9.31299 22.9385 9.27834 23.2136 9.37884C23.3939 9.44399 23.5124 9.56044 23.5477 9.706C23.599 9.92018 23.5352 10.239 23.3141 10.4352C23.1623 10.5689 22.8851 10.6923 22.4207 10.519C22.2654 10.4608 22.1608 10.316 22.133 10.1226ZM30.294 9.64639C30.294 10.4379 30.3633 11.1955 30.5234 11.854L31.0758 11.8901C30.6156 10.2328 30.8395 7.73543 31.2803 5.83486C31.107 5.82308 30.9296 5.81129 30.7473 5.79882C30.4776 6.97783 30.294 8.35647 30.294 9.64639ZM6.93684 4.33215C6.73167 5.34551 6.59998 6.58206 6.59998 7.8089C6.59998 8.66907 6.66513 9.52301 6.81554 10.291L7.35895 10.327C6.97219 8.50203 7.11774 6.05458 7.46916 4.35641C7.2834 4.3474 7.10527 4.33908 6.93684 4.33215ZM31.8722 9.64639C31.8722 10.4809 31.9492 11.2773 32.1287 11.9594L32.6853 11.9961C32.1938 10.3707 32.3997 7.86781 32.8343 5.93952C32.6645 5.92843 32.4863 5.91596 32.302 5.90348C32.0455 7.05962 31.8722 8.3939 31.8722 9.64639ZM8.47143 4.40563C8.64402 4.41394 8.82077 4.42295 9.00237 4.43266C8.6662 6.1946 8.54975 8.65729 8.98504 10.4345L8.43677 10.3977C8.2524 9.57222 8.17269 8.63303 8.17269 7.68621C8.17269 6.5377 8.28914 5.38017 8.47143 4.40563Z" fill="#EFE4DC"/>
<path d="M14.3518 30.0081L12.8872 30.0851C12.6723 30.0968 12.4873 29.9298 12.4762 29.7142L12.4755 29.7122C12.4644 29.4966 12.6308 29.3115 12.8463 29.2997L14.3102 29.2228C14.5251 29.211 14.7102 29.3781 14.7219 29.5936V29.5957C14.733 29.8113 14.5667 29.9963 14.3518 30.0081ZM15.5946 26.9784C15.6681 26.9694 15.7401 27.0041 15.7776 27.0679C16.0181 27.4761 16.811 29.0648 16.1941 31.4062C16.1727 31.488 16.0978 31.5448 16.0132 31.5448H15.885C15.7533 31.5448 15.6618 31.411 15.7117 31.289C15.9488 30.6992 16.3861 29.1466 15.4504 27.2474C15.3936 27.1316 15.4671 26.9937 15.5946 26.9784ZM16.6606 26.9043C16.7334 26.8953 16.8055 26.9299 16.8429 26.9944C17.0834 27.402 17.8764 28.9906 17.2595 31.3327C17.238 31.4138 17.1631 31.4706 17.0786 31.4706H16.951C16.8187 31.4706 16.7279 31.3375 16.7771 31.2149C17.0141 30.625 17.4515 29.0724 16.5158 27.1732C16.4589 27.0575 16.5324 26.9202 16.6606 26.9043ZM17.7426 26.8599C17.8161 26.8509 17.8882 26.8856 17.9256 26.9493C18.1661 27.3576 18.959 28.9462 18.3422 31.2876C18.3207 31.3694 18.2458 31.4263 18.1613 31.4263H18.033C17.9013 31.4263 17.8105 31.2932 17.8597 31.1705C18.0968 30.58 18.5342 29.028 17.5984 27.1289C17.5416 27.0131 17.6151 26.8752 17.7426 26.8599ZM39.4674 28.4423L38.757 27.8414L39.4133 27.1406L40.1245 27.7416L39.4674 28.4423ZM38.3251 27.9648L38.2246 27.8802L38.3175 27.7818L38.4166 27.8663L38.3251 27.9648ZM37.2286 28.6059L36.5174 28.0057L37.1745 27.3042L37.885 27.9052L37.2286 28.6059ZM36.0856 28.1284L35.9865 28.0445L36.078 27.9461L36.1778 28.0299L36.0856 28.1284ZM34.9898 28.7695L34.2793 28.1686L34.9364 27.4685L35.6469 28.0687L34.9898 28.7695ZM33.8475 28.2919L33.7477 28.2081L33.8399 28.1096L33.9397 28.1935L33.8475 28.2919ZM32.7517 28.9338L32.0412 28.3328L32.6976 27.6321L33.4081 28.2323L32.7517 28.9338ZM31.6094 28.4562L31.5096 28.3716L31.6018 28.2732L31.7016 28.3578L31.6094 28.4562ZM30.5135 29.0974L29.8031 28.4964L30.4595 27.7957L31.1699 28.3966L30.5135 29.0974ZM29.3706 28.6198L29.2715 28.5352L29.3636 28.4368L29.4634 28.5214L29.3706 28.6198ZM28.2754 29.2609L27.565 28.6607L28.2214 27.9599L28.9318 28.5602L28.2754 29.2609ZM27.1331 28.7834L27.0333 28.6988L27.1255 28.6011L27.2253 28.6849L27.1331 28.7834ZM26.0373 29.4245L25.3268 28.8236L25.9832 28.1235L26.6937 28.7238L26.0373 29.4245ZM24.895 28.9469L24.7952 28.8631L24.8874 28.764L24.9872 28.8485L24.895 28.9469ZM23.7992 29.5881L23.0887 28.9878L23.7451 28.2871L24.4556 28.8873L23.7992 29.5881ZM22.6569 29.1112L22.5571 29.0267L22.6493 28.9282L22.7491 29.0128L22.6569 29.1112ZM21.5604 29.7517L20.8506 29.1514L21.507 28.4507L22.2175 29.0516L21.5604 29.7517ZM40.6208 27.849L40.4641 27.7166L40.6083 27.5628C40.6506 27.5177 40.6582 27.4338 40.6256 27.3756C40.5931 27.3167 40.5328 27.3056 40.4905 27.3507L40.2874 27.5676L39.457 26.8655C39.4224 26.8364 39.3794 26.8398 39.3482 26.8731L38.5802 27.6924L38.3605 27.5066C38.3265 27.4775 38.2828 27.481 38.2517 27.5149L38.0486 27.7312L37.2182 27.029C37.1835 27.0006 37.1399 27.0034 37.1094 27.0374L36.3414 27.856L36.1217 27.6702C36.087 27.6411 36.044 27.6445 36.0128 27.6785L35.8098 27.8948L34.9794 27.1926C34.9454 27.1642 34.9018 27.167 34.8706 27.2009L34.1033 28.0202L33.8835 27.8345C33.8489 27.8054 33.8059 27.8081 33.774 27.8421L33.5716 28.059L32.7413 27.3569C32.7066 27.3278 32.6636 27.3306 32.6318 27.3645L31.8645 28.1831L31.6447 27.998C31.6108 27.9689 31.5678 27.9724 31.5359 28.0057L31.3328 28.2226L30.5031 27.5205C30.4685 27.4914 30.4255 27.4948 30.3936 27.5288L29.6263 28.3474L29.4066 28.1616C29.3727 28.1332 29.329 28.136 29.2978 28.1692L29.0947 28.3862L28.265 27.6841C28.2304 27.6549 28.1867 27.6584 28.1555 27.6917L27.3882 28.511L27.1692 28.3252C27.1345 28.2961 27.0909 28.2996 27.0597 28.3335L26.8573 28.5498L26.0269 27.8476C25.9929 27.8185 25.9493 27.822 25.9174 27.856L25.1508 28.6745L24.9311 28.4895C24.8964 28.4604 24.8534 28.4631 24.8222 28.4971L24.6192 28.7134L23.7881 28.0119C23.7548 27.9828 23.7112 27.9863 23.6793 28.0195L22.912 28.8381L22.6929 28.6531C22.6583 28.6239 22.6146 28.6274 22.5834 28.6607L22.3803 28.8769L21.55 28.1755C21.516 28.1464 21.473 28.1491 21.4412 28.1831L20.6739 29.0024L20.4548 28.8166C20.4091 28.7778 20.3495 28.7979 20.3224 28.8603C20.2947 28.9234 20.3093 29.0052 20.3543 29.044L20.511 29.1764L20.3661 29.3302C20.3245 29.3753 20.3169 29.4592 20.3488 29.5174C20.3682 29.552 20.3973 29.5701 20.4264 29.5694C20.4465 29.5694 20.4673 29.5604 20.4846 29.5416L20.687 29.3254L21.5174 30.0275C21.5333 30.0407 21.5507 30.0469 21.568 30.0469C21.5888 30.0469 21.6096 30.0379 21.6262 30.0192L22.3942 29.2006L22.6132 29.3864C22.6472 29.4148 22.6909 29.412 22.7227 29.3781L22.9251 29.1618L23.7555 29.8633C23.7895 29.8924 23.8331 29.8896 23.865 29.8556L24.6323 29.037L24.8514 29.2221C24.886 29.2512 24.929 29.2478 24.9609 29.2145L25.164 28.9982L25.9943 29.7004C26.0283 29.7288 26.0713 29.726 26.1032 29.6921L26.8704 28.8728L27.0895 29.0585C27.1234 29.0876 27.1671 29.0842 27.199 29.0509L27.4021 28.834L28.2318 29.5361C28.2657 29.5652 28.3094 29.5617 28.3406 29.5285L29.1086 28.7092L29.3276 28.895C29.3616 28.9241 29.4052 28.9206 29.4371 28.8873L29.6395 28.6704L30.4699 29.3725C30.5045 29.4009 30.5475 29.3982 30.5787 29.3642L31.3467 28.5456L31.5664 28.7314C31.5997 28.7598 31.6433 28.757 31.6752 28.7231L31.8783 28.5068L32.708 29.2089C32.7427 29.2374 32.7856 29.2346 32.8168 29.2013L33.5848 28.382L33.8045 28.5678C33.8385 28.5962 33.8815 28.5934 33.9134 28.5595L34.1164 28.3432L34.9468 29.0454C34.9808 29.0738 35.0244 29.071 35.0556 29.037L35.8229 28.2178L36.0427 28.4035C36.0766 28.4326 36.1203 28.4292 36.1515 28.3959L36.3546 28.179L37.1849 28.8811C37.2196 28.9102 37.2626 28.9067 37.2938 28.8735L38.0617 28.0542L38.2815 28.2399C38.3154 28.2691 38.3591 28.2656 38.3903 28.2316L38.5934 28.0154L39.4237 28.7175C39.4584 28.7459 39.5021 28.7432 39.5333 28.7092L40.3012 27.8906L40.5203 28.0764C40.566 28.1152 40.6256 28.0951 40.6527 28.032C40.6804 27.9696 40.6658 27.8871 40.6208 27.849Z" fill="#EFE4DC"/>
</svg>
