<svg width="264" height="264" viewBox="0 0 264 264" fill="none" xmlns="http://www.w3.org/2000/svg">
<g filter="url(#filter0_f_261_6014)">
<circle cx="132" cy="132" r="58" fill="url(#paint0_linear_261_6014)"/>
</g>
<path d="M93.4321 182.935C90.7116 182.953 92.0112 191.773 92.0112 191.773C92.0112 191.773 87.9694 182.234 84.8634 181.887C81.7573 181.545 84.4865 189.862 84.4865 189.862C84.4865 189.862 76.4116 180.817 74.3236 181.35C72.2356 181.883 76.0607 186.925 76.0607 186.925C76.0607 186.925 62.6705 180.189 61.4879 182.745C60.3052 185.301 74.1027 191.157 74.1027 191.157C74.1027 191.157 67.7823 191.504 68.7266 193.44C69.671 195.377 81.792 195.684 81.792 195.684C81.792 195.684 73.6825 198.985 75.9524 201.134C78.2224 203.283 88.1124 200.19 88.1124 200.19C88.1124 200.19 80.5487 204.907 82.2945 206.991C84.0403 209.075 100.038 200.597 100.038 200.597C100.038 200.597 96.1526 182.909 93.4364 182.931L93.4321 182.935Z" fill="#EB725F"/>
<path d="M94.294 190.027L95.0911 193.111C95.351 194.142 95.6413 195.165 95.9185 196.187L96.6506 198.86L94.1424 197.66L90.0443 195.737C89.5678 194.476 89.087 193.215 88.5758 191.968L87.7874 190.062C87.5101 189.433 87.2459 188.797 86.9513 188.173C87.1376 188.836 87.3542 189.49 87.5578 190.148L88.2119 192.102C88.5888 193.22 88.9917 194.329 89.3989 195.433L84.4604 193.116L81.7572 191.881C81.2244 190.989 80.6915 190.096 80.1284 189.226L79.2576 187.878C78.9501 187.441 78.6598 186.99 78.3393 186.557C78.5602 187.047 78.8115 187.519 79.0454 188L79.7991 189.416C80.176 190.127 80.5746 190.824 80.9775 191.522L74.735 188.671C71.4817 187.211 68.2284 185.756 64.949 184.352C68.1417 185.942 71.3561 187.484 74.5748 189.018L80.8518 191.963C80.0331 192.115 79.21 192.271 78.3956 192.453C77.3472 192.678 76.2989 192.916 75.2635 193.202C76.3379 193.116 77.3992 192.977 78.4606 192.83C79.5219 192.687 80.5746 192.509 81.6273 192.327L84.2568 193.562L89.2516 195.841C88.1253 196.256 87.0033 196.677 85.8899 197.127C84.6077 197.638 83.3297 198.154 82.0691 198.726C83.399 198.349 84.7116 197.924 86.0199 197.487C87.3195 197.062 88.6061 196.599 89.8927 196.135L93.9821 198.002L96.5207 199.137L93.9995 200.324C93.0378 200.783 92.063 201.225 91.11 201.702C89.1909 202.633 87.2719 203.573 85.3788 204.561C87.3585 203.759 89.3166 202.906 91.2703 202.048C92.2493 201.628 93.2154 201.173 94.1901 200.736L97.1055 199.414L97.1228 199.406L98.86 200.181C100.493 200.892 102.122 201.619 103.764 202.317C102.17 201.515 100.562 200.744 98.9639 199.96L97.2485 199.137V199.12L96.3604 196.057C96.0615 195.039 95.7799 194.012 95.4637 192.999L94.5323 189.949C94.2031 188.94 93.8955 187.922 93.5533 186.917C93.7872 187.956 94.0514 188.983 94.2984 190.018L94.294 190.027Z" fill="#F9AB43"/>
<g opacity="0.1">
<path d="M74.5921 186.219C71.0875 184.56 62.4278 180.718 61.4834 182.749C61.1195 183.538 62.1852 184.647 63.8357 185.795C66.9374 185.232 70.6499 185.362 74.5921 186.215V186.219Z" fill="url(#paint1_linear_261_6014)"/>
<path d="M84.4561 189.767C90.8024 192.999 95.546 197.469 97.6427 201.827C99.0939 201.1 100.038 200.601 100.038 200.601C100.038 200.601 96.1525 182.914 93.4363 182.936C90.7158 182.953 92.0154 191.773 92.0154 191.773C92.0154 191.773 87.9736 182.234 84.8676 181.887C81.9565 181.567 84.1658 188.844 84.4561 189.767Z" fill="url(#paint2_linear_261_6014)"/>
<path d="M75.74 186.488C77.8151 187.008 79.9464 187.722 82.0734 188.645C82.8532 188.983 83.6113 189.343 84.3521 189.715C83.2994 188.55 76.2555 180.865 74.3278 181.354C72.621 181.788 74.8736 185.249 75.7444 186.488H75.74Z" fill="url(#paint3_linear_261_6014)"/>
</g>
<path d="M189.75 184.027C190.027 181.324 181.12 181.644 181.12 181.644C181.12 181.644 191.045 178.673 191.725 175.619C192.405 172.569 183.837 174.371 183.837 174.371C183.837 174.371 193.709 167.331 193.41 165.2C193.111 163.069 187.679 166.318 187.679 166.318C187.679 166.318 195.836 153.742 193.428 152.286C191.015 150.831 183.689 163.905 183.689 163.905C183.689 163.905 184.036 157.584 182.008 158.312C179.981 159.04 178.348 171.053 178.348 171.053C178.348 171.053 175.952 162.631 173.57 164.654C171.187 166.677 173.18 176.845 173.18 176.845C173.18 176.845 169.32 168.813 167.054 170.316C164.789 171.824 171.469 188.654 171.469 188.654C171.469 188.654 189.473 186.726 189.754 184.023L189.75 184.027Z" fill="#EB725F"/>
<path d="M182.606 184.109L179.453 184.564C178.4 184.707 177.352 184.889 176.303 185.049L173.57 185.483L175.038 183.122L177.399 179.258C178.703 178.92 180.011 178.582 181.307 178.209L183.286 177.637C183.941 177.429 184.603 177.234 185.253 177.014C184.573 177.126 183.902 177.273 183.226 177.399L181.211 177.837C180.059 178.088 178.915 178.369 177.767 178.651L180.614 173.994L182.134 171.443C183.078 171.014 184.023 170.581 184.954 170.113L186.388 169.394C186.86 169.138 187.337 168.895 187.8 168.627C187.289 168.796 186.791 168.991 186.288 169.173L184.798 169.766C184.049 170.065 183.312 170.386 182.576 170.706L186.089 164.81C187.896 161.739 189.698 158.663 191.452 155.557C189.52 158.555 187.636 161.583 185.76 164.611L182.143 170.524C182.082 169.692 182.017 168.861 181.926 168.029C181.814 166.963 181.697 165.898 181.523 164.832C181.493 165.906 181.515 166.981 181.545 168.051C181.571 169.121 181.636 170.186 181.697 171.252L180.18 173.73L177.369 178.443C177.079 177.278 176.784 176.117 176.459 174.96C176.091 173.63 175.718 172.305 175.29 170.988C175.519 172.352 175.796 173.704 176.087 175.051C176.368 176.39 176.689 177.72 177.005 179.05L174.7 182.914L173.292 185.314L172.387 182.68C172.036 181.67 171.703 180.657 171.334 179.656C170.62 177.646 169.892 175.636 169.116 173.648C169.697 175.705 170.329 177.741 170.971 179.777C171.282 180.8 171.625 181.809 171.954 182.823L172.95 185.864V185.881L171.993 187.523C171.109 189.07 170.208 190.607 169.333 192.163C170.303 190.668 171.243 189.152 172.201 187.649L173.206 186.033H173.227L176.368 185.487C177.412 185.301 178.465 185.132 179.505 184.928L182.637 184.339C183.676 184.122 184.72 183.927 185.76 183.698C184.703 183.815 183.65 183.966 182.598 184.101L182.606 184.109Z" fill="#F9AB43"/>
<g opacity="0.1">
<path d="M188.546 164.94C190.577 161.635 195.342 153.448 193.428 152.291C192.683 151.84 191.465 152.78 190.14 154.292C190.361 157.437 189.828 161.115 188.546 164.936V164.94Z" fill="url(#paint4_linear_261_6014)"/>
<path d="M183.936 174.354C180.029 180.31 175.069 184.534 170.507 186.145C171.07 187.666 171.464 188.662 171.464 188.662C171.464 188.662 189.468 186.735 189.75 184.027C190.027 181.324 181.12 181.644 181.12 181.644C181.12 181.644 191.045 178.673 191.725 175.619C192.362 172.76 184.889 174.159 183.936 174.349V174.354Z" fill="url(#paint5_linear_261_6014)"/>
<path d="M188.151 166.049C187.406 168.055 186.466 170.096 185.314 172.106C184.894 172.842 184.456 173.557 184.001 174.25C185.275 173.332 193.683 167.171 193.406 165.196C193.159 163.45 189.477 165.313 188.147 166.045L188.151 166.049Z" fill="url(#paint6_linear_261_6014)"/>
</g>
<path d="M69.5973 156.783C70.0868 157.914 70.7019 158.997 71.3214 160.058C72.8809 162.709 74.6917 165.213 76.7061 167.535C79.4569 170.711 82.6063 173.544 86.1109 175.866C90.2999 178.643 94.9871 180.64 99.8996 181.692C105.982 183.001 112.285 182.845 118.371 181.679C119.255 181.51 120.139 181.32 121.014 181.108C121.287 181.043 121.148 180.627 120.875 180.692C114.654 182.178 108.161 182.671 101.827 181.614C96.8153 180.778 92.0024 178.976 87.6617 176.334C84.0272 174.12 80.7522 171.347 77.8844 168.207C75.7227 165.842 73.7906 163.268 72.1185 160.535C71.3517 159.283 70.6716 157.936 70.0305 156.692C70.0218 156.675 70.0131 156.653 70.0045 156.636C69.8918 156.38 69.4803 156.515 69.5886 156.775L69.5973 156.783Z" fill="url(#paint7_linear_261_6014)"/>
<path d="M71.8499 160.929C70.7756 160.27 70.0391 159.469 69.3936 158.633C68.7612 157.788 68.2587 156.892 67.8644 155.951C67.4702 155.011 67.193 154.019 67.0414 152.975C66.9071 151.927 66.8594 150.84 67.1583 149.614C68.237 150.272 68.9734 151.069 69.6189 151.91C70.2514 152.754 70.7539 153.651 71.1394 154.596C71.5293 155.54 71.8066 156.528 71.9582 157.572C72.0925 158.62 72.1401 159.707 71.8456 160.933L71.8499 160.929Z" fill="url(#paint8_linear_261_6014)"/>
<path d="M67.5612 150.588C67.9294 151.342 68.276 152.105 68.6139 152.871C68.9561 153.638 69.2724 154.409 69.6016 155.18C69.9135 155.956 70.2341 156.731 70.5373 157.511C70.8362 158.291 71.1351 159.075 71.4037 159.872C71.0312 159.118 70.6889 158.356 70.351 157.589C70.0131 156.822 69.6926 156.051 69.3633 155.28C69.0514 154.5 68.7309 153.729 68.432 152.949C68.1287 152.17 67.8341 151.385 67.5612 150.593V150.588Z" fill="url(#paint9_linear_261_6014)"/>
<path opacity="0.1" d="M69.6233 151.91C68.9778 151.074 68.2414 150.272 67.1627 149.614C67.1237 149.774 67.0934 149.93 67.063 150.086C67.7085 150.606 68.2197 151.186 68.6789 151.784C69.3114 152.629 69.8139 153.526 70.1994 154.47C70.5893 155.414 70.8665 156.402 71.0182 157.446C71.1351 158.356 71.1828 159.296 71.0008 160.331C71.2608 160.539 71.538 160.743 71.8456 160.933C72.1402 159.707 72.0925 158.62 71.9582 157.572C71.8066 156.528 71.5293 155.54 71.1395 154.596C70.7496 153.651 70.2471 152.754 69.6189 151.91H69.6233Z" fill="url(#paint10_linear_261_6014)"/>
<path d="M74.0939 164.174C73.4137 163.112 73.1018 162.073 72.8852 161.037C72.686 160.002 72.621 158.975 72.6816 157.957C72.7379 156.939 72.9199 155.925 73.2405 154.92C73.5784 153.92 74.0072 152.919 74.813 151.944C75.4974 153.006 75.8093 154.05 76.0303 155.085C76.2295 156.12 76.2945 157.147 76.2295 158.165C76.1689 159.183 75.9869 160.197 75.6664 161.202C75.3285 162.203 74.8996 163.203 74.0982 164.178L74.0939 164.174Z" fill="url(#paint11_linear_261_6014)"/>
<path d="M74.7523 152.997C74.7566 153.837 74.735 154.674 74.7047 155.51C74.6787 156.346 74.6267 157.182 74.5877 158.018C74.527 158.854 74.4794 159.69 74.4101 160.522C74.3408 161.358 74.2671 162.19 74.1631 163.021C74.1588 162.181 74.1805 161.345 74.2108 160.509C74.2368 159.673 74.2888 158.837 74.3278 158.001C74.3884 157.164 74.4361 156.328 74.5054 155.497C74.5747 154.661 74.6483 153.829 74.7523 152.997Z" fill="url(#paint12_linear_261_6014)"/>
<path opacity="0.1" d="M76.026 155.085C75.8094 154.05 75.4975 153.01 74.8087 151.944C74.7047 152.07 74.6051 152.2 74.5141 152.326C74.8693 153.075 75.0729 153.82 75.2289 154.557C75.4281 155.592 75.4931 156.619 75.4281 157.637C75.3675 158.655 75.1855 159.668 74.865 160.673C74.5704 161.544 74.2065 162.41 73.5914 163.264C73.7343 163.567 73.8946 163.87 74.0896 164.174C74.891 163.199 75.3198 162.203 75.6577 161.198C75.9783 160.192 76.1602 159.183 76.2209 158.161C76.2815 157.143 76.2209 156.116 76.0216 155.081L76.026 155.085Z" fill="url(#paint13_linear_261_6014)"/>
<path d="M74.0204 163.966C72.8551 164.451 71.7765 164.572 70.7194 164.607C69.6668 164.62 68.6444 164.503 67.6524 164.269C66.6604 164.035 65.6943 163.675 64.7629 163.186C63.8359 162.679 62.9305 162.077 62.1118 161.115C63.2771 160.626 64.3601 160.5 65.4171 160.47C66.4698 160.457 67.4921 160.574 68.4841 160.816C69.4762 161.055 70.4422 161.414 71.3736 161.904C72.3006 162.41 73.206 163.013 74.0291 163.97L74.0204 163.966Z" fill="url(#paint14_linear_261_6014)"/>
<path d="M63.1339 161.357C63.9613 161.5 64.7801 161.669 65.5988 161.847C66.4176 162.02 67.232 162.219 68.0464 162.401C68.8565 162.605 69.6709 162.8 70.481 163.017C71.2911 163.233 72.0968 163.45 72.8983 163.701C72.0708 163.558 71.2521 163.389 70.4333 163.216C69.6146 163.043 68.8002 162.843 67.9858 162.661C67.1757 162.458 66.3613 162.263 65.5512 162.046C64.7411 161.83 63.9353 161.613 63.1339 161.362V161.357Z" fill="url(#paint15_linear_261_6014)"/>
<path opacity="0.1" d="M65.4082 160.465C64.3512 160.496 63.2725 160.621 62.1029 161.111C62.2112 161.236 62.3195 161.353 62.4278 161.47C63.2292 161.254 63.996 161.18 64.7498 161.158C65.8024 161.145 66.8248 161.262 67.8168 161.505C68.8088 161.743 69.7749 162.103 70.7063 162.592C71.512 163.034 72.3004 163.545 73.0326 164.299C73.3531 164.213 73.6824 164.109 74.0159 163.97C73.1972 163.013 72.2918 162.41 71.3604 161.904C70.429 161.414 69.463 161.054 68.471 160.816C67.4789 160.574 66.4566 160.457 65.4039 160.47L65.4082 160.465Z" fill="url(#paint16_linear_261_6014)"/>
<path d="M78.9413 169.554C78.1009 168.61 77.6331 167.635 77.2519 166.643C76.8923 165.651 76.667 164.65 76.5674 163.632C76.4634 162.618 76.4851 161.587 76.6411 160.548C76.8143 159.504 77.0873 158.451 77.7284 157.364C78.5731 158.304 79.0453 159.283 79.4222 160.271C79.7818 161.263 80.007 162.263 80.1023 163.281C80.202 164.295 80.1803 165.326 80.0243 166.366C79.8467 167.41 79.5782 168.462 78.9413 169.55V169.554Z" fill="url(#paint17_linear_261_6014)"/>
<path d="M77.8323 158.412C77.971 159.24 78.0749 160.071 78.1789 160.903C78.2829 161.735 78.3652 162.566 78.4561 163.398C78.5298 164.234 78.6121 165.066 78.6771 165.902C78.7377 166.738 78.7984 167.574 78.8244 168.41C78.6857 167.583 78.5774 166.751 78.4735 165.919C78.3695 165.088 78.2872 164.256 78.1962 163.424C78.1226 162.588 78.0403 161.756 77.9796 160.92C77.919 160.084 77.8583 159.248 77.8323 158.412Z" fill="url(#paint18_linear_261_6014)"/>
<path opacity="0.1" d="M79.4222 160.271C79.0453 159.283 78.5731 158.304 77.7284 157.364C77.6461 157.507 77.5681 157.645 77.4944 157.788C77.9623 158.473 78.2829 159.175 78.5515 159.881C78.911 160.873 79.1319 161.873 79.2316 162.891C79.3312 163.905 79.3096 164.936 79.1536 165.976C79.002 166.881 78.7767 167.795 78.3045 168.731C78.4908 169.008 78.6987 169.281 78.9413 169.55C79.5781 168.462 79.8467 167.41 80.0243 166.366C80.1803 165.326 80.2019 164.295 80.1023 163.281C80.0027 162.263 79.7817 161.263 79.4222 160.271Z" fill="url(#paint19_linear_261_6014)"/>
<path d="M78.8331 169.359C77.7587 170.022 76.7104 170.312 75.6707 170.511C74.631 170.693 73.6043 170.737 72.5863 170.659C71.5683 170.581 70.5589 170.382 69.5626 170.044C68.5662 169.688 67.5785 169.238 66.6168 168.415C67.6912 167.748 68.7395 167.457 69.7792 167.258C70.8189 167.076 71.8456 167.033 72.8636 167.115C73.8816 167.193 74.891 167.397 75.8873 167.735C76.8837 168.09 77.8714 168.54 78.8331 169.359Z" fill="url(#paint20_linear_261_6014)"/>
<path d="M67.6738 168.493C68.5142 168.506 69.3503 168.545 70.1864 168.588C71.0225 168.631 71.8585 168.696 72.6946 168.753C73.5264 168.826 74.3624 168.891 75.1985 168.978C76.0303 169.064 76.8663 169.155 77.6938 169.272C76.8533 169.264 76.0173 169.22 75.1812 169.177C74.3451 169.134 73.509 169.069 72.673 169.013C71.8412 168.939 71.0051 168.874 70.1691 168.787C69.3373 168.701 68.5012 168.61 67.6738 168.493Z" fill="url(#paint21_linear_261_6014)"/>
<path opacity="0.1" d="M69.7836 167.254C68.744 167.453 67.6999 167.743 66.6213 168.41C66.7469 168.519 66.8725 168.618 66.9982 168.714C67.7563 168.376 68.5014 168.181 69.2465 168.042C70.2862 167.86 71.3128 167.817 72.3309 167.899C73.3489 167.977 74.3582 168.181 75.3546 168.519C76.221 168.826 77.0787 169.208 77.9191 169.84C78.2224 169.706 78.53 169.55 78.8375 169.359C77.8758 168.54 76.8881 168.09 75.8918 167.735C74.8954 167.397 73.886 167.193 72.868 167.115C71.85 167.033 70.8233 167.076 69.7836 167.258V167.254Z" fill="url(#paint22_linear_261_6014)"/>
<path d="M84.7419 174.592C83.7629 173.795 83.1434 172.903 82.6106 171.989C82.0994 171.07 81.7182 170.113 81.454 169.125C81.1897 168.138 81.0467 167.12 81.0381 166.067C81.0424 165.01 81.1421 163.927 81.6056 162.749C82.5889 163.546 83.2128 164.434 83.7413 165.352C84.2524 166.27 84.6337 167.228 84.8936 168.216C85.1535 169.203 85.2964 170.221 85.3051 171.274C85.2964 172.331 85.2011 173.414 84.7463 174.592H84.7419Z" fill="url(#paint23_linear_261_6014)"/>
<path d="M81.8741 163.771C82.1427 164.568 82.381 165.37 82.6149 166.175C82.8488 166.981 83.0611 167.787 83.2864 168.597C83.49 169.407 83.7066 170.217 83.9015 171.031C84.0965 171.846 84.2871 172.66 84.4474 173.483C84.1788 172.686 83.9405 171.885 83.7066 171.079C83.4727 170.273 83.2604 169.468 83.0351 168.657C82.8315 167.847 82.6149 167.037 82.42 166.223C82.225 165.408 82.0344 164.594 81.8741 163.771Z" fill="url(#paint24_linear_261_6014)"/>
<path opacity="0.1" d="M83.7369 165.352C83.2084 164.438 82.5846 163.546 81.6013 162.749C81.5406 162.9 81.4886 163.052 81.441 163.203C82.0128 163.806 82.4417 164.447 82.8186 165.101C83.3297 166.019 83.7109 166.977 83.9709 167.964C84.2308 168.952 84.3737 169.97 84.3824 171.023C84.3737 171.941 84.3001 172.877 83.9839 173.882C84.2135 174.124 84.4604 174.363 84.742 174.592C85.1968 173.414 85.2965 172.335 85.3008 171.274C85.2921 170.221 85.1492 169.203 84.8893 168.216C84.6293 167.228 84.2525 166.275 83.7369 165.352Z" fill="url(#paint25_linear_261_6014)"/>
<path d="M84.6033 174.415C83.646 175.238 82.6626 175.693 81.6662 176.052C80.6699 176.394 79.6649 176.602 78.6468 176.689C77.6288 176.776 76.6021 176.737 75.5624 176.563C74.5228 176.373 73.4744 176.083 72.3958 175.424C73.3531 174.597 74.3365 174.142 75.3329 173.778C76.3292 173.436 77.3342 173.228 78.3523 173.145C79.3703 173.063 80.397 173.102 81.4366 173.275C82.4763 173.47 83.5247 173.756 84.6033 174.41V174.415Z" fill="url(#paint26_linear_261_6014)"/>
<path d="M73.4484 175.337C74.2802 175.216 75.1119 175.121 75.9437 175.03C76.7754 174.939 77.6115 174.874 78.4432 174.791C79.2793 174.731 80.1111 174.661 80.9471 174.614C81.7832 174.566 82.6193 174.523 83.4597 174.505C82.6279 174.627 81.7962 174.722 80.9645 174.813C80.1327 174.904 79.2966 174.969 78.4649 175.051C77.6288 175.108 76.7971 175.181 75.961 175.229C75.1249 175.276 74.2888 175.32 73.4484 175.337Z" fill="url(#paint27_linear_261_6014)"/>
<path opacity="0.1" d="M75.3329 173.782C74.3365 174.142 73.3531 174.597 72.3958 175.428C72.5344 175.515 72.6773 175.593 72.816 175.667C73.5091 175.212 74.2152 174.9 74.9256 174.644C75.922 174.302 76.927 174.094 77.9451 174.012C78.9631 173.93 79.9898 173.969 81.0294 174.142C81.9348 174.311 82.8402 174.549 83.7716 175.039C84.0488 174.857 84.3261 174.653 84.6033 174.415C83.5247 173.761 82.4763 173.475 81.4366 173.28C80.397 173.106 79.3703 173.067 78.3523 173.15C77.3342 173.232 76.3292 173.436 75.3329 173.782Z" fill="url(#paint28_linear_261_6014)"/>
<path d="M91.9764 178.768C90.8631 178.175 90.0833 177.417 89.3859 176.62C88.7057 175.814 88.1512 174.952 87.7007 174.033C87.2502 173.115 86.9166 172.145 86.7043 171.114C86.5094 170.074 86.3968 168.991 86.622 167.748C87.7397 168.341 88.5195 169.095 89.2169 169.892C89.897 170.698 90.4515 171.56 90.8977 172.482C91.3439 173.401 91.6775 174.376 91.8898 175.407C92.0847 176.446 92.1973 177.525 91.9764 178.768Z" fill="url(#paint29_linear_261_6014)"/>
<path d="M87.0899 168.696C87.5058 169.424 87.8913 170.169 88.2769 170.91C88.6624 171.655 89.0263 172.409 89.4032 173.158C89.7584 173.916 90.1266 174.67 90.4732 175.433C90.8198 176.195 91.162 176.957 91.4782 177.737C91.0624 177.009 90.6768 176.264 90.2913 175.524C89.9057 174.778 89.5418 174.025 89.1693 173.275C88.814 172.517 88.4458 171.763 88.0993 171.001C87.7527 170.238 87.4105 169.476 87.0942 168.696H87.0899Z" fill="url(#paint30_linear_261_6014)"/>
<path opacity="0.1" d="M89.2212 169.892C88.5281 169.095 87.744 168.341 86.6264 167.748C86.5961 167.908 86.5744 168.068 86.5571 168.224C87.2329 168.705 87.7744 169.255 88.2725 169.823C88.9527 170.628 89.5072 171.49 89.9534 172.413C90.3996 173.332 90.7331 174.302 90.9454 175.337C91.1143 176.238 91.2226 177.174 91.1013 178.218C91.3699 178.413 91.6602 178.599 91.9807 178.768C92.2017 177.525 92.089 176.446 91.8941 175.407C91.6818 174.376 91.3483 173.401 90.9021 172.482C90.4602 171.564 89.9014 170.698 89.2212 169.892Z" fill="url(#paint31_linear_261_6014)"/>
<path d="M91.8075 178.621C91.0277 179.613 90.144 180.25 89.2386 180.791C88.3289 181.32 87.3802 181.714 86.3968 181.995C85.4134 182.277 84.3997 182.437 83.3471 182.463C82.29 182.472 81.207 182.394 80.0201 181.952C80.7998 180.956 81.6792 180.319 82.589 179.777C83.4987 179.249 84.4517 178.855 85.4308 178.582C86.4141 178.305 87.4278 178.149 88.4805 178.118C89.5375 178.11 90.6205 178.188 91.8075 178.625V178.621Z" fill="url(#paint32_linear_261_6014)"/>
<path d="M81.0381 181.666C81.8308 181.385 82.6279 181.133 83.4294 180.886C84.2308 180.639 85.0365 180.414 85.8379 180.176C86.648 179.959 87.4538 179.73 88.2639 179.522C89.074 179.314 89.8884 179.11 90.7071 178.937C89.9144 179.219 89.1173 179.47 88.3159 179.717C87.5144 179.964 86.7087 180.193 85.9073 180.427C85.0972 180.644 84.2914 180.873 83.4813 181.081C82.6712 181.289 81.8568 181.493 81.0381 181.666Z" fill="url(#paint33_linear_261_6014)"/>
<path opacity="0.1" d="M82.589 179.777C81.6836 180.323 80.7998 180.96 80.0201 181.952C80.176 182.008 80.3277 182.06 80.4793 182.108C81.0728 181.528 81.7052 181.09 82.355 180.7C83.2648 180.172 84.2178 179.777 85.1968 179.505C86.1802 179.227 87.1939 179.071 88.2466 179.041C89.1649 179.032 90.105 179.093 91.11 179.396C91.3483 179.162 91.5822 178.911 91.8075 178.625C90.6248 178.188 89.5418 178.11 88.4805 178.118C87.4278 178.144 86.4098 178.305 85.4308 178.582C84.4474 178.855 83.4987 179.253 82.589 179.777Z" fill="url(#paint34_linear_261_6014)"/>
<path d="M98.8037 181.32C97.647 180.809 96.8153 180.116 96.0615 179.375C95.3251 178.621 94.7056 177.802 94.1901 176.923C93.6746 176.044 93.2674 175.099 92.9771 174.085C92.7042 173.063 92.5136 171.993 92.6435 170.737C93.8002 171.244 94.6363 171.937 95.39 172.682C96.1265 173.436 96.7459 174.254 97.2571 175.138C97.7683 176.022 98.1755 176.966 98.4658 177.98C98.7387 179.002 98.9293 180.072 98.8037 181.329V181.32Z" fill="url(#paint35_linear_261_6014)"/>
<path d="M93.1764 171.642C93.6442 172.34 94.0861 173.05 94.5279 173.765C94.9655 174.48 95.3857 175.203 95.8189 175.922C96.2304 176.65 96.655 177.373 97.0578 178.11C97.4607 178.846 97.8593 179.578 98.2318 180.332C97.764 179.635 97.3221 178.924 96.8802 178.214C96.4427 177.499 96.0225 176.776 95.5893 176.056C95.1778 175.329 94.7532 174.605 94.3547 173.869C93.9518 173.137 93.5532 172.4 93.1764 171.646V171.642Z" fill="url(#paint36_linear_261_6014)"/>
<path opacity="0.1" d="M95.3902 172.677C94.6364 171.937 93.8003 171.239 92.6437 170.732C92.6264 170.897 92.6134 171.057 92.609 171.213C93.3195 171.642 93.9 172.149 94.4371 172.677C95.1736 173.427 95.7931 174.25 96.3042 175.134C96.8154 176.017 97.2226 176.962 97.5129 177.976C97.7511 178.864 97.9244 179.786 97.8854 180.835C98.1713 181.008 98.4702 181.173 98.8038 181.316C98.9338 180.059 98.7388 178.989 98.4659 177.967C98.1757 176.953 97.7728 176.009 97.2573 175.125C96.7461 174.241 96.1266 173.423 95.3902 172.669V172.677Z" fill="url(#paint37_linear_261_6014)"/>
<path d="M98.626 181.186C97.9199 182.234 97.0925 182.931 96.2261 183.542C95.3554 184.136 94.4413 184.604 93.4796 184.955C92.5222 185.31 91.5216 185.544 90.4732 185.648C89.4205 185.739 88.3332 185.739 87.1159 185.388C87.8177 184.335 88.6494 183.638 89.5115 183.027C90.3822 182.433 91.2963 181.965 92.258 181.619C93.2154 181.268 94.2204 181.034 95.2644 180.93C96.3171 180.839 97.4044 180.839 98.6174 181.186H98.626Z" fill="url(#paint38_linear_261_6014)"/>
<path d="M88.1122 185.028C88.879 184.69 89.6588 184.379 90.4385 184.071C91.2183 183.763 92.0067 183.477 92.7865 183.179C93.5749 182.901 94.3633 182.611 95.1561 182.347C95.9488 182.078 96.7459 181.814 97.5517 181.58C96.7849 181.918 96.0052 182.23 95.2254 182.537C94.4456 182.845 93.6615 183.131 92.8774 183.43C92.089 183.707 91.3006 183.997 90.5078 184.262C89.7151 184.53 88.918 184.794 88.1122 185.028Z" fill="url(#paint39_linear_261_6014)"/>
<path opacity="0.1" d="M89.516 183.027C88.6539 183.638 87.8221 184.339 87.1204 185.388C87.2806 185.435 87.4366 185.474 87.5882 185.509C88.1384 184.885 88.7362 184.4 89.3513 183.967C90.2221 183.373 91.1361 182.906 92.0978 182.559C93.0552 182.208 94.0602 181.974 95.1042 181.87C96.0183 181.792 96.9583 181.784 97.985 182.009C98.206 181.758 98.4182 181.489 98.6218 181.19C97.4089 180.844 96.3215 180.844 95.2689 180.934C94.2205 181.043 93.2198 181.277 92.2624 181.623C91.3007 181.97 90.3867 182.438 89.516 183.031V183.027Z" fill="url(#paint40_linear_261_6014)"/>
<path d="M107.537 182.446C106.298 182.195 105.336 181.696 104.44 181.129C103.56 180.553 102.776 179.886 102.087 179.132C101.394 178.382 100.796 177.546 100.298 176.619C99.8131 175.679 99.3972 174.674 99.2586 173.418C100.498 173.665 101.464 174.167 102.36 174.731C103.244 175.307 104.024 175.978 104.708 176.732C105.397 177.486 105.995 178.322 106.497 179.249C106.983 180.189 107.398 181.194 107.541 182.446H107.537Z" fill="url(#paint41_linear_261_6014)"/>
<path d="M99.9689 174.202C100.575 174.783 101.16 175.38 101.741 175.987C102.321 176.589 102.889 177.209 103.461 177.815C104.019 178.439 104.587 179.054 105.137 179.686C105.687 180.319 106.233 180.951 106.762 181.606C106.155 181.025 105.57 180.427 104.99 179.825C104.409 179.223 103.842 178.603 103.27 177.997C102.711 177.373 102.144 176.758 101.593 176.126C101.043 175.493 100.497 174.861 99.9689 174.206V174.202Z" fill="url(#paint42_linear_261_6014)"/>
<path opacity="0.1" d="M102.356 174.735C101.464 174.172 100.497 173.669 99.2542 173.422C99.2715 173.587 99.2975 173.747 99.3235 173.899C100.108 174.167 100.788 174.536 101.425 174.939C102.308 175.515 103.088 176.186 103.772 176.94C104.461 177.694 105.059 178.53 105.562 179.457C105.982 180.271 106.35 181.138 106.536 182.173C106.853 182.281 107.182 182.377 107.537 182.446C107.394 181.194 106.978 180.189 106.493 179.249C105.995 178.322 105.397 177.486 104.704 176.732C104.015 175.978 103.235 175.307 102.356 174.731V174.735Z" fill="url(#paint43_linear_261_6014)"/>
<path d="M107.333 182.359C106.87 183.533 106.207 184.395 105.497 185.175C104.773 185.942 103.98 186.592 103.118 187.142C102.256 187.692 101.329 188.134 100.329 188.463C99.3191 188.775 98.2578 189.009 96.9929 188.927C97.4564 187.748 98.1149 186.886 98.8296 186.107C99.5531 185.34 100.346 184.69 101.212 184.144C102.074 183.598 103.001 183.156 104.002 182.827C105.011 182.515 106.073 182.281 107.333 182.359Z" fill="url(#paint44_linear_261_6014)"/>
<path d="M97.8853 188.359C98.561 187.865 99.2542 187.393 99.9516 186.93C100.645 186.462 101.355 186.016 102.057 185.556C102.767 185.115 103.474 184.668 104.193 184.235C104.912 183.802 105.631 183.377 106.367 182.975C105.692 183.468 104.998 183.941 104.301 184.404C103.604 184.872 102.897 185.318 102.196 185.777C101.485 186.215 100.779 186.67 100.06 187.099C99.3408 187.532 98.6217 187.956 97.8853 188.359Z" fill="url(#paint45_linear_261_6014)"/>
<path opacity="0.1" d="M98.8296 186.102C98.1149 186.882 97.4564 187.744 96.9929 188.922C97.1575 188.931 97.3178 188.94 97.478 188.94C97.8809 188.212 98.3618 187.61 98.873 187.055C99.5964 186.288 100.389 185.639 101.256 185.093C102.118 184.547 103.045 184.105 104.045 183.776C104.925 183.503 105.839 183.295 106.891 183.295C107.052 183.005 107.203 182.697 107.338 182.359C106.077 182.281 105.016 182.515 104.006 182.827C103.006 183.156 102.079 183.598 101.217 184.144C100.354 184.69 99.5574 185.34 98.834 186.107L98.8296 186.102Z" fill="url(#paint46_linear_261_6014)"/>
<path d="M207.372 184.907C206.515 185.791 205.557 186.592 204.6 187.363C202.204 189.295 199.627 190.993 196.924 192.462C193.228 194.463 189.282 196.001 185.184 196.937C180.284 198.054 175.194 198.271 170.225 197.522C164.074 196.599 158.23 194.229 152.945 190.989C152.178 190.517 151.42 190.027 150.675 189.52C150.441 189.364 150.718 189.027 150.948 189.183C156.246 192.769 162.146 195.525 168.445 196.768C173.431 197.756 178.569 197.769 183.559 196.829C187.74 196.04 191.786 194.602 195.576 192.678C198.431 191.227 201.152 189.503 203.681 187.536C204.838 186.635 205.951 185.617 206.991 184.677C207.008 184.664 207.021 184.647 207.034 184.634C207.229 184.435 207.567 184.708 207.372 184.907Z" fill="url(#paint47_linear_261_6014)"/>
<path d="M203.803 187.991C205.042 187.753 206.012 187.263 206.913 186.709C207.801 186.141 208.59 185.483 209.287 184.738C209.989 183.997 210.595 183.165 211.107 182.247C211.605 181.311 212.029 180.315 212.185 179.059C210.942 179.293 209.972 179.782 209.071 180.337C208.183 180.904 207.394 181.562 206.697 182.312C205.999 183.057 205.393 183.884 204.882 184.807C204.388 185.743 203.959 186.739 203.803 187.991Z" fill="url(#paint48_linear_261_6014)"/>
<path d="M211.462 179.83C210.851 180.401 210.257 180.995 209.668 181.593C209.079 182.191 208.507 182.801 207.927 183.403C207.359 184.023 206.787 184.629 206.229 185.258C205.67 185.881 205.115 186.51 204.582 187.159C205.193 186.588 205.787 185.994 206.376 185.396C206.965 184.798 207.537 184.188 208.117 183.585C208.681 182.966 209.257 182.359 209.816 181.731C210.374 181.108 210.929 180.479 211.462 179.83Z" fill="url(#paint49_linear_261_6014)"/>
<path opacity="0.1" d="M209.07 180.337C209.972 179.782 210.942 179.293 212.185 179.059C212.164 179.223 212.142 179.379 212.112 179.535C211.323 179.795 210.643 180.155 209.998 180.553C209.109 181.121 208.321 181.779 207.624 182.529C206.926 183.274 206.32 184.101 205.808 185.024C205.38 185.834 204.998 186.696 204.803 187.727C204.487 187.831 204.158 187.922 203.798 187.991C203.954 186.739 204.383 185.739 204.877 184.807C205.388 183.884 205.995 183.057 206.692 182.312C207.39 181.567 208.178 180.904 209.066 180.337H209.07Z" fill="url(#paint50_linear_261_6014)"/>
<path d="M200.554 190.231C201.567 189.477 202.226 188.615 202.793 187.722C203.344 186.826 203.768 185.886 204.071 184.915C204.379 183.941 204.565 182.931 204.622 181.879C204.661 180.822 204.609 179.734 204.201 178.539C203.183 179.292 202.525 180.154 201.957 181.047C201.407 181.944 200.983 182.884 200.684 183.858C200.38 184.833 200.194 185.842 200.138 186.895C200.099 187.952 200.151 189.039 200.554 190.235V190.231Z" fill="url(#paint51_linear_261_6014)"/>
<path d="M203.885 179.548C203.586 180.332 203.313 181.125 203.04 181.917C202.772 182.71 202.525 183.512 202.265 184.304C202.027 185.106 201.775 185.907 201.546 186.713C201.316 187.519 201.091 188.325 200.896 189.139C201.199 188.355 201.472 187.562 201.741 186.769C202.009 185.977 202.256 185.175 202.516 184.382C202.754 183.581 203.006 182.78 203.235 181.974C203.465 181.168 203.69 180.362 203.885 179.548Z" fill="url(#paint52_linear_261_6014)"/>
<path opacity="0.1" d="M201.953 181.047C202.52 180.154 203.183 179.292 204.197 178.539C204.249 178.695 204.297 178.85 204.34 179.002C203.742 179.578 203.287 180.202 202.884 180.839C202.334 181.736 201.91 182.676 201.611 183.65C201.308 184.625 201.121 185.634 201.065 186.687C201.03 187.605 201.065 188.546 201.342 189.559C201.104 189.793 200.844 190.018 200.554 190.235C200.151 189.039 200.099 187.956 200.138 186.899C200.194 185.847 200.38 184.837 200.684 183.863C200.983 182.888 201.407 181.948 201.957 181.051L201.953 181.047Z" fill="url(#paint53_linear_261_6014)"/>
<path d="M200.701 190.066C201.619 190.928 202.585 191.426 203.564 191.829C204.544 192.215 205.54 192.466 206.554 192.596C207.567 192.726 208.594 192.735 209.638 192.605C210.686 192.457 211.743 192.215 212.852 191.604C211.934 190.738 210.968 190.239 209.989 189.837C209.01 189.451 208.009 189.2 207 189.078C205.986 188.953 204.959 188.944 203.915 189.078C202.867 189.226 201.81 189.468 200.701 190.075V190.066Z" fill="url(#paint54_linear_261_6014)"/>
<path d="M211.804 191.466C210.981 191.305 210.153 191.175 209.326 191.05C208.499 190.924 207.667 190.82 206.839 190.703C206.008 190.608 205.176 190.504 204.344 190.417C203.513 190.335 202.676 190.253 201.84 190.201C202.663 190.361 203.491 190.491 204.318 190.617C205.146 190.742 205.977 190.846 206.805 190.963C207.637 191.058 208.468 191.162 209.3 191.249C210.132 191.331 210.968 191.414 211.804 191.466Z" fill="url(#paint55_linear_261_6014)"/>
<path opacity="0.1" d="M209.989 189.828C210.968 190.231 211.934 190.729 212.852 191.595C212.709 191.673 212.566 191.747 212.424 191.816C211.752 191.331 211.059 190.993 210.357 190.703C209.378 190.318 208.377 190.066 207.368 189.945C206.354 189.819 205.328 189.811 204.284 189.945C203.374 190.075 202.456 190.274 201.507 190.72C201.234 190.525 200.97 190.313 200.705 190.062C201.81 189.455 202.871 189.213 203.92 189.066C204.964 188.936 205.995 188.94 207.004 189.066C208.018 189.191 209.014 189.438 209.993 189.824L209.989 189.828Z" fill="url(#paint56_linear_261_6014)"/>
<path d="M194.121 193.553C195.238 192.969 196.027 192.219 196.729 191.426C197.413 190.625 197.976 189.767 198.431 188.853C198.886 187.939 199.228 186.969 199.449 185.942C199.653 184.902 199.774 183.824 199.557 182.576C198.435 183.161 197.647 183.91 196.945 184.699C196.261 185.5 195.698 186.358 195.247 187.276C194.797 188.19 194.454 189.161 194.233 190.192C194.03 191.232 193.908 192.31 194.121 193.553Z" fill="url(#paint57_linear_261_6014)"/>
<path d="M199.09 183.525C198.669 184.253 198.275 184.989 197.885 185.73C197.495 186.471 197.123 187.22 196.742 187.965C196.378 188.719 196.005 189.468 195.654 190.231C195.303 190.989 194.952 191.751 194.628 192.527C195.048 191.799 195.442 191.063 195.832 190.322C196.222 189.581 196.594 188.832 196.976 188.087C197.339 187.333 197.712 186.583 198.063 185.821C198.414 185.063 198.765 184.3 199.09 183.525Z" fill="url(#paint58_linear_261_6014)"/>
<path opacity="0.1" d="M196.945 184.703C197.647 183.911 198.436 183.161 199.558 182.581C199.584 182.741 199.61 182.901 199.627 183.057C198.947 183.534 198.401 184.075 197.898 184.643C197.214 185.444 196.651 186.302 196.2 187.22C195.75 188.134 195.407 189.105 195.187 190.136C195.009 191.037 194.896 191.972 195.009 193.016C194.736 193.207 194.446 193.393 194.125 193.558C193.913 192.315 194.034 191.236 194.238 190.196C194.459 189.165 194.801 188.195 195.252 187.281C195.702 186.367 196.265 185.505 196.95 184.703H196.945Z" fill="url(#paint59_linear_261_6014)"/>
<path d="M194.29 193.411C195.061 194.407 195.94 195.052 196.841 195.603C197.747 196.135 198.695 196.543 199.674 196.828C200.653 197.119 201.667 197.283 202.72 197.322C203.777 197.34 204.86 197.27 206.051 196.837C205.28 195.836 204.405 195.191 203.5 194.641C202.594 194.108 201.645 193.705 200.666 193.419C199.687 193.133 198.669 192.969 197.617 192.934C196.56 192.917 195.477 192.986 194.285 193.415L194.29 193.411Z" fill="url(#paint60_linear_261_6014)"/>
<path d="M205.037 196.542C204.249 196.257 203.452 195.997 202.655 195.745C201.858 195.49 201.052 195.26 200.251 195.013C199.445 194.788 198.639 194.554 197.829 194.342C197.019 194.13 196.209 193.917 195.39 193.735C196.178 194.021 196.976 194.281 197.773 194.532C198.57 194.788 199.375 195.018 200.177 195.265C200.983 195.49 201.788 195.724 202.599 195.936C203.409 196.148 204.219 196.361 205.037 196.542Z" fill="url(#paint61_linear_261_6014)"/>
<path opacity="0.1" d="M203.504 194.641C204.405 195.191 205.285 195.836 206.056 196.837C205.9 196.893 205.748 196.941 205.596 196.989C205.007 196.404 204.379 195.962 203.734 195.568C202.828 195.035 201.88 194.632 200.901 194.346C199.921 194.06 198.903 193.896 197.851 193.861C196.932 193.844 195.992 193.896 194.983 194.19C194.745 193.956 194.515 193.701 194.294 193.415C195.481 192.986 196.564 192.917 197.626 192.934C198.678 192.969 199.692 193.138 200.675 193.419C201.654 193.701 202.603 194.104 203.508 194.641H203.504Z" fill="url(#paint62_linear_261_6014)"/>
<path d="M186.917 196.222C188.112 195.823 189.009 195.208 189.828 194.537C190.633 193.857 191.327 193.098 191.92 192.267C192.514 191.439 193.007 190.534 193.389 189.555C193.757 188.563 194.047 187.514 194.03 186.25C192.83 186.648 191.933 187.263 191.114 187.93C190.309 188.61 189.615 189.369 189.026 190.205C188.433 191.036 187.943 191.937 187.562 192.921C187.194 193.913 186.904 194.961 186.917 196.222Z" fill="url(#paint63_linear_261_6014)"/>
<path d="M193.419 187.112C192.89 187.762 192.384 188.429 191.877 189.1C191.374 189.767 190.889 190.452 190.391 191.128C189.914 191.816 189.425 192.496 188.957 193.19C188.489 193.883 188.021 194.58 187.579 195.291C188.108 194.641 188.615 193.974 189.122 193.307C189.624 192.635 190.109 191.955 190.603 191.279C191.08 190.59 191.569 189.91 192.037 189.217C192.505 188.524 192.973 187.827 193.415 187.116L193.419 187.112Z" fill="url(#paint64_linear_261_6014)"/>
<path opacity="0.1" d="M191.119 187.935C191.938 187.263 192.834 186.652 194.034 186.254C194.034 186.419 194.034 186.579 194.026 186.739C193.281 187.103 192.652 187.549 192.068 188.03C191.262 188.71 190.569 189.468 189.98 190.304C189.386 191.136 188.897 192.037 188.515 193.02C188.199 193.883 187.935 194.784 187.883 195.836C187.584 195.984 187.268 196.118 186.925 196.231C186.912 194.97 187.207 193.922 187.571 192.93C187.952 191.946 188.446 191.045 189.035 190.213C189.624 189.382 190.317 188.619 191.123 187.939L191.119 187.935Z" fill="url(#paint65_linear_261_6014)"/>
<path d="M187.107 196.109C187.709 197.218 188.472 197.989 189.278 198.678C190.088 199.349 190.958 199.9 191.881 200.337C192.804 200.779 193.779 201.104 194.81 201.307C195.849 201.494 196.932 201.593 198.176 201.359C197.573 200.246 196.811 199.471 196.01 198.786C195.199 198.115 194.329 197.565 193.406 197.131C192.483 196.694 191.509 196.369 190.473 196.165C189.434 195.979 188.351 195.875 187.112 196.109H187.107Z" fill="url(#paint66_linear_261_6014)"/>
<path d="M197.218 200.909C196.486 200.502 195.741 200.121 194.991 199.739C194.246 199.362 193.488 199.003 192.734 198.635C191.972 198.284 191.218 197.924 190.452 197.586C189.685 197.248 188.918 196.911 188.138 196.599C188.87 197.006 189.615 197.387 190.365 197.768C191.114 198.145 191.868 198.505 192.622 198.873C193.384 199.224 194.138 199.583 194.905 199.921C195.672 200.264 196.438 200.597 197.218 200.909Z" fill="url(#paint67_linear_261_6014)"/>
<path opacity="0.1" d="M196.005 198.786C196.807 199.475 197.569 200.25 198.171 201.359C198.011 201.39 197.851 201.416 197.695 201.433C197.205 200.762 196.655 200.224 196.079 199.731C195.269 199.059 194.398 198.509 193.475 198.076C192.553 197.638 191.578 197.313 190.543 197.11C189.637 196.949 188.701 196.85 187.662 196.98C187.467 196.711 187.276 196.421 187.103 196.105C188.342 195.871 189.425 195.975 190.465 196.161C191.5 196.365 192.475 196.689 193.397 197.127C194.32 197.56 195.191 198.11 196.001 198.782L196.005 198.786Z" fill="url(#paint68_linear_261_6014)"/>
<path d="M178.673 197.578C179.925 197.413 180.921 196.984 181.853 196.482C182.771 195.97 183.598 195.355 184.339 194.654C185.084 193.952 185.738 193.163 186.302 192.271C186.852 191.37 187.337 190.395 187.567 189.152C186.31 189.312 185.314 189.741 184.382 190.244C183.464 190.755 182.637 191.37 181.896 192.072C181.155 192.773 180.501 193.566 179.938 194.454C179.388 195.36 178.903 196.33 178.673 197.569V197.578Z" fill="url(#paint69_linear_261_6014)"/>
<path d="M186.8 189.879C186.154 190.417 185.53 190.971 184.907 191.534C184.283 192.093 183.676 192.669 183.061 193.241C182.459 193.826 181.852 194.398 181.259 194.991C180.666 195.58 180.076 196.178 179.505 196.793C180.15 196.256 180.774 195.702 181.398 195.138C182.021 194.58 182.628 194.003 183.243 193.432C183.845 192.847 184.452 192.275 185.045 191.682C185.639 191.092 186.228 190.495 186.8 189.884V189.879Z" fill="url(#paint70_linear_261_6014)"/>
<path opacity="0.1" d="M184.382 190.244C185.314 189.741 186.31 189.312 187.566 189.152C187.536 189.312 187.501 189.472 187.462 189.624C186.661 189.836 185.959 190.157 185.292 190.516C184.374 191.028 183.546 191.643 182.806 192.345C182.065 193.046 181.411 193.839 180.847 194.727C180.371 195.511 179.942 196.347 179.687 197.37C179.366 197.456 179.028 197.526 178.668 197.573C178.898 196.334 179.383 195.36 179.933 194.459C180.497 193.566 181.151 192.778 181.892 192.076C182.632 191.37 183.455 190.759 184.378 190.248L184.382 190.244Z" fill="url(#paint71_linear_261_6014)"/>
<path d="M178.881 197.5C179.262 198.704 179.86 199.609 180.518 200.437C181.185 201.251 181.935 201.957 182.754 202.564C183.572 203.174 184.465 203.681 185.444 204.08C186.431 204.465 187.471 204.769 188.736 204.777C188.359 203.569 187.757 202.663 187.103 201.836C186.436 201.021 185.686 200.315 184.863 199.713C184.04 199.107 183.148 198.6 182.173 198.201C181.185 197.82 180.146 197.513 178.881 197.504V197.5Z" fill="url(#paint72_linear_261_6014)"/>
<path d="M187.887 204.149C187.246 203.608 186.587 203.092 185.925 202.577C185.262 202.061 184.59 201.567 183.923 201.06C183.243 200.571 182.572 200.073 181.883 199.592C181.198 199.111 180.51 198.635 179.803 198.18C180.445 198.721 181.103 199.237 181.766 199.752C182.429 200.268 183.1 200.762 183.767 201.268C184.447 201.758 185.119 202.256 185.808 202.737C186.492 203.218 187.181 203.694 187.887 204.149Z" fill="url(#paint73_linear_261_6014)"/>
<path opacity="0.1" d="M187.103 201.836C187.761 202.663 188.359 203.573 188.736 204.777C188.572 204.777 188.411 204.769 188.255 204.76C187.904 204.006 187.467 203.374 186.999 202.78C186.332 201.966 185.582 201.26 184.759 200.658C183.936 200.051 183.044 199.544 182.069 199.146C181.211 198.812 180.315 198.539 179.266 198.466C179.123 198.162 178.998 197.846 178.885 197.5C180.146 197.508 181.19 197.816 182.178 198.197C183.152 198.596 184.049 199.102 184.868 199.709C185.691 200.311 186.44 201.017 187.107 201.832L187.103 201.836Z" fill="url(#paint74_linear_261_6014)"/>
<path d="M171.386 197.556C172.647 197.487 173.674 197.132 174.64 196.703C175.597 196.261 176.464 195.711 177.256 195.07C178.049 194.429 178.764 193.688 179.392 192.843C180.007 191.985 180.566 191.05 180.887 189.828C179.622 189.893 178.595 190.248 177.629 190.677C176.672 191.119 175.805 191.669 175.012 192.315C174.22 192.96 173.509 193.701 172.881 194.546C172.266 195.408 171.707 196.339 171.386 197.556Z" fill="url(#paint75_linear_261_6014)"/>
<path d="M180.068 190.491C179.383 190.976 178.72 191.487 178.058 191.998C177.395 192.509 176.745 193.038 176.091 193.562C175.45 194.099 174.8 194.628 174.163 195.169C173.526 195.715 172.894 196.261 172.279 196.833C172.963 196.348 173.626 195.836 174.289 195.325C174.952 194.814 175.601 194.286 176.256 193.761C176.897 193.224 177.546 192.696 178.183 192.154C178.82 191.608 179.453 191.063 180.068 190.491Z" fill="url(#paint76_linear_261_6014)"/>
<path opacity="0.1" d="M177.629 190.673C178.595 190.244 179.622 189.889 180.886 189.824C180.843 189.984 180.8 190.136 180.748 190.287C179.933 190.439 179.21 190.707 178.517 191.015C177.559 191.457 176.693 192.007 175.9 192.653C175.108 193.298 174.397 194.039 173.769 194.884C173.236 195.629 172.742 196.434 172.413 197.431C172.084 197.491 171.746 197.539 171.382 197.556C171.707 196.335 172.261 195.403 172.877 194.546C173.505 193.701 174.22 192.96 175.008 192.315C175.796 191.669 176.667 191.119 177.624 190.677L177.629 190.673Z" fill="url(#paint77_linear_261_6014)"/>
<path d="M171.599 197.496C171.889 198.726 172.417 199.67 173.011 200.55C173.613 201.412 174.306 202.174 175.082 202.841C175.853 203.508 176.706 204.085 177.65 204.552C178.604 205.007 179.622 205.393 180.882 205.492C180.596 204.262 180.068 203.313 179.474 202.434C178.872 201.572 178.179 200.814 177.404 200.147C176.628 199.48 175.775 198.908 174.835 198.44C173.882 197.985 172.864 197.6 171.607 197.496H171.599Z" fill="url(#paint78_linear_261_6014)"/>
<path d="M180.081 204.799C179.483 204.21 178.863 203.647 178.244 203.084C177.624 202.521 176.988 201.975 176.36 201.42C175.718 200.883 175.086 200.333 174.436 199.805C173.786 199.276 173.137 198.748 172.469 198.241C173.067 198.83 173.687 199.393 174.306 199.956C174.926 200.519 175.562 201.065 176.191 201.62C176.832 202.157 177.464 202.707 178.114 203.236C178.764 203.764 179.414 204.293 180.081 204.799Z" fill="url(#paint79_linear_261_6014)"/>
<path opacity="0.1" d="M179.47 202.434C180.063 203.309 180.592 204.258 180.878 205.493C180.713 205.48 180.553 205.462 180.397 205.441C180.102 204.665 179.712 203.998 179.292 203.374C178.69 202.512 177.997 201.754 177.222 201.087C176.446 200.42 175.593 199.848 174.653 199.38C173.825 198.986 172.946 198.644 171.906 198.492C171.789 198.18 171.681 197.855 171.599 197.5C172.855 197.604 173.873 197.99 174.826 198.444C175.77 198.912 176.624 199.488 177.395 200.151C178.17 200.814 178.863 201.572 179.466 202.438L179.47 202.434Z" fill="url(#paint80_linear_261_6014)"/>
<path d="M162.813 195.529C164.061 195.732 165.14 195.603 166.175 195.39C167.202 195.161 168.172 194.814 169.082 194.355C169.996 193.896 170.849 193.328 171.646 192.635C172.43 191.929 173.176 191.136 173.752 190.01C172.504 189.802 171.425 189.932 170.39 190.144C169.363 190.374 168.397 190.725 167.488 191.184C166.578 191.643 165.72 192.215 164.927 192.908C164.143 193.618 163.398 194.407 162.822 195.529H162.813Z" fill="url(#paint81_linear_261_6014)"/>
<path d="M172.803 190.482C172.032 190.812 171.274 191.167 170.516 191.526C169.758 191.886 169.012 192.263 168.259 192.631C167.518 193.017 166.768 193.394 166.032 193.792C165.296 194.186 164.559 194.589 163.836 195.014C164.607 194.684 165.365 194.329 166.123 193.97C166.881 193.61 167.626 193.233 168.38 192.865C169.121 192.479 169.87 192.103 170.607 191.704C171.343 191.31 172.08 190.907 172.803 190.482Z" fill="url(#paint82_linear_261_6014)"/>
<path opacity="0.1" d="M170.386 190.14C171.421 189.928 172.5 189.802 173.747 190.006C173.674 190.153 173.596 190.291 173.513 190.43C172.682 190.404 171.919 190.508 171.178 190.664C170.152 190.894 169.186 191.245 168.276 191.704C167.366 192.163 166.509 192.735 165.716 193.428C165.031 194.043 164.382 194.723 163.844 195.624C163.511 195.616 163.169 195.585 162.813 195.529C163.39 194.407 164.135 193.614 164.919 192.908C165.711 192.215 166.569 191.647 167.479 191.184C168.389 190.72 169.355 190.369 170.381 190.144L170.386 190.14Z" fill="url(#paint83_linear_261_6014)"/>
<path d="M163.034 195.516C163.056 196.777 163.368 197.816 163.762 198.8C164.169 199.77 164.68 200.663 165.296 201.477C165.906 202.296 166.617 203.036 167.44 203.699C168.276 204.349 169.186 204.943 170.394 205.311C170.377 204.046 170.065 203.006 169.671 202.023C169.264 201.052 168.753 200.16 168.133 199.346C167.518 198.531 166.807 197.786 165.989 197.128C165.153 196.478 164.243 195.884 163.039 195.516H163.034Z" fill="url(#paint84_linear_261_6014)"/>
<path d="M169.758 204.466C169.298 203.764 168.813 203.08 168.328 202.4C167.843 201.715 167.336 201.048 166.842 200.372C166.331 199.71 165.828 199.038 165.309 198.384C164.789 197.726 164.265 197.071 163.719 196.435C164.178 197.136 164.659 197.821 165.148 198.505C165.633 199.185 166.136 199.857 166.634 200.533C167.145 201.195 167.648 201.867 168.168 202.521C168.688 203.179 169.212 203.834 169.758 204.47V204.466Z" fill="url(#paint85_linear_261_6014)"/>
<path opacity="0.1" d="M169.671 202.023C170.061 203.006 170.377 204.046 170.394 205.311C170.239 205.263 170.087 205.211 169.935 205.155C169.814 204.332 169.576 203.6 169.298 202.898C168.891 201.927 168.38 201.035 167.761 200.221C167.145 199.406 166.435 198.661 165.616 198.003C164.893 197.439 164.109 196.92 163.125 196.547C163.078 196.218 163.043 195.876 163.039 195.512C164.243 195.884 165.157 196.473 165.989 197.123C166.808 197.782 167.522 198.527 168.133 199.341C168.748 200.156 169.264 201.044 169.671 202.018V202.023Z" fill="url(#paint86_linear_261_6014)"/>
<path d="M167.336 73.8774H98.1539C94.7613 73.8774 92.0111 76.6277 92.0111 80.0202V202.061C92.0111 205.454 94.7613 208.204 98.1539 208.204H167.336C170.729 208.204 173.479 205.454 173.479 202.061V80.0202C173.479 76.6277 170.729 73.8774 167.336 73.8774Z" fill="url(#paint87_linear_261_6014)"/>
<path d="M148.921 78.7812C148.236 81.1942 141.257 83.0916 132.745 83.0916C124.233 83.0916 117.258 81.1942 116.569 78.7812H98.1539V194.55H167.332V78.7812H148.916H148.921Z" fill="#C2CEF2"/>
<path d="M158.377 99.4971H106.848C106.051 99.4971 105.401 100.151 105.401 100.944V119.164L111.18 116.019H158.382C159.179 116.019 159.829 115.365 159.829 114.572V100.944C159.829 100.147 159.174 99.4971 158.382 99.4971H158.377Z" fill="#B0C1EA"/>
<path d="M155.172 102.928H110.054V103.409H155.172V102.928Z" fill="#D2DDF9"/>
<path d="M155.172 107.758H110.054V108.239H155.172V107.758Z" fill="#D2DDF9"/>
<path d="M142.115 112.589H110.054V113.07H142.115V112.589Z" fill="#D2DDF9"/>
<path d="M110.431 97.4045C113.146 97.4045 115.348 95.2031 115.348 92.4876C115.348 89.7721 113.146 87.5708 110.431 87.5708C107.715 87.5708 105.514 89.7721 105.514 92.4876C105.514 95.2031 107.715 97.4045 110.431 97.4045Z" fill="#B0C1EA"/>
<mask id="mask0_261_6014" style="mask-type:luminance" maskUnits="userSpaceOnUse" x="105" y="87" width="11" height="11">
<path d="M110.431 97.4045C113.146 97.4045 115.348 95.2031 115.348 92.4876C115.348 89.7721 113.146 87.5708 110.431 87.5708C107.715 87.5708 105.514 89.7721 105.514 92.4876C105.514 95.2031 107.715 97.4045 110.431 97.4045Z" fill="white"/>
</mask>
<g mask="url(#mask0_261_6014)">
<path d="M110.431 93.0594C111.172 93.0594 111.774 92.4581 111.774 91.7165C111.774 90.9748 111.172 90.3735 110.431 90.3735C109.689 90.3735 109.088 90.9748 109.088 91.7165C109.088 92.4581 109.689 93.0594 110.431 93.0594Z" fill="#D2DDF9"/>
<path d="M110.431 93.562C108.923 93.562 107.702 94.7836 107.702 96.2912C107.702 97.7987 108.923 99.0203 110.431 99.0203C111.938 99.0203 113.16 97.7987 113.16 96.2912C113.16 94.7836 111.938 93.562 110.431 93.562Z" fill="#D2DDF9"/>
</g>
<path d="M106.848 133.304H158.377C159.174 133.304 159.824 133.958 159.824 134.751V152.971L154.045 149.826H106.844C106.047 149.826 105.397 149.172 105.397 148.379V134.751C105.397 133.954 106.051 133.304 106.844 133.304H106.848Z" fill="#B0C1EA"/>
<path d="M155.172 136.739H110.054V137.22H155.172V136.739Z" fill="#D2DDF9"/>
<path d="M155.172 141.564H110.054V142.045H155.172V141.564Z" fill="#D2DDF9"/>
<path d="M155.172 146.395H123.111V146.876H155.172V146.395Z" fill="#D2DDF9"/>
<path d="M155.172 130.847C157.887 130.847 160.089 128.646 160.089 125.931C160.089 123.215 157.887 121.014 155.172 121.014C152.456 121.014 150.255 123.215 150.255 125.931C150.255 128.646 152.456 130.847 155.172 130.847Z" fill="#B0C1EA"/>
<mask id="mask1_261_6014" style="mask-type:luminance" maskUnits="userSpaceOnUse" x="150" y="121" width="11" height="10">
<path d="M155.172 130.847C157.887 130.847 160.089 128.646 160.089 125.931C160.089 123.215 157.887 121.014 155.172 121.014C152.456 121.014 150.255 123.215 150.255 125.931C150.255 128.646 152.456 130.847 155.172 130.847Z" fill="white"/>
</mask>
<g mask="url(#mask1_261_6014)">
<path d="M155.172 126.507C155.912 126.507 156.515 125.904 156.515 125.164C156.515 124.423 155.912 123.821 155.172 123.821C154.431 123.821 153.829 124.423 153.829 125.164C153.829 125.904 154.431 126.507 155.172 126.507Z" fill="#D2DDF9"/>
<path d="M155.172 127.009C153.664 127.009 152.443 128.231 152.443 129.738C152.443 131.246 153.664 132.468 155.172 132.468C156.679 132.468 157.901 131.246 157.901 129.738C157.901 128.231 156.679 127.009 155.172 127.009Z" fill="#D2DDF9"/>
</g>
<path d="M158.377 168.077H106.848C106.051 168.077 105.401 168.731 105.401 169.524V187.744L111.18 184.599H158.382C159.179 184.599 159.829 183.945 159.829 183.152V169.524C159.829 168.726 159.174 168.077 158.382 168.077H158.377Z" fill="#B0C1EA"/>
<path d="M155.172 171.512H110.054V171.993H155.172V171.512Z" fill="#D2DDF9"/>
<path d="M155.172 176.342H110.054V176.823H155.172V176.342Z" fill="#D2DDF9"/>
<path d="M142.115 181.172H110.054V181.653H142.115V181.172Z" fill="#D2DDF9"/>
<path d="M110.431 165.339C113.146 165.339 115.348 163.138 115.348 160.422C115.348 157.707 113.146 155.505 110.431 155.505C107.715 155.505 105.514 157.707 105.514 160.422C105.514 163.138 107.715 165.339 110.431 165.339Z" fill="#B0C1EA"/>
<mask id="mask2_261_6014" style="mask-type:luminance" maskUnits="userSpaceOnUse" x="105" y="155" width="11" height="11">
<path d="M110.431 165.339C113.146 165.339 115.348 163.138 115.348 160.422C115.348 157.707 113.146 155.505 110.431 155.505C107.715 155.505 105.514 157.707 105.514 160.422C105.514 163.138 107.715 165.339 110.431 165.339Z" fill="white"/>
</mask>
<g mask="url(#mask2_261_6014)">
<path d="M110.431 160.998C111.172 160.998 111.774 160.396 111.774 159.655C111.774 158.915 111.172 158.312 110.431 158.312C109.69 158.312 109.088 158.915 109.088 159.655C109.088 160.396 109.69 160.998 110.431 160.998Z" fill="#D2DDF9"/>
<path d="M110.431 161.497C108.923 161.497 107.702 162.718 107.702 164.226C107.702 165.733 108.923 166.955 110.431 166.955C111.938 166.955 113.16 165.733 113.16 164.226C113.16 162.718 111.938 161.497 110.431 161.497Z" fill="#D2DDF9"/>
</g>
<path d="M154.851 125.68L148.34 119.173L132.745 134.768L117.15 119.173L110.639 125.68L126.234 141.275L110.639 156.87L117.15 163.381L132.745 147.786L148.34 163.381L154.851 156.87L139.256 141.275L154.851 125.68Z" fill="#0261AE"/>
<path d="M177.797 59C166.881 59 158 67.8806 158 78.7973C158 89.7139 166.881 98.5945 177.797 98.5945C188.714 98.5945 197.595 89.7139 197.595 78.7973C197.595 67.8806 188.714 59 177.797 59Z" fill="#FFCF74"/>
<path d="M177.797 65.1128C170.251 65.1128 164.112 71.2512 164.112 78.7976C164.112 86.344 170.251 92.4824 177.797 92.4824C185.344 92.4824 191.482 86.344 191.482 78.7976C191.482 71.2512 185.344 65.1128 177.797 65.1128ZM177.797 67.6947C180.396 67.6947 182.783 68.5957 184.681 70.0946L169.094 85.6812C167.595 83.7881 166.694 81.3968 166.694 78.7976C166.694 72.6765 171.676 67.6903 177.802 67.6903L177.797 67.6947ZM177.797 89.9049C175.198 89.9049 172.811 89.0038 170.914 87.5049L186.5 71.9184C187.999 73.8115 188.9 76.2027 188.9 78.8019C188.9 84.9274 183.918 89.9092 177.793 89.9092L177.797 89.9049Z" fill="white"/>
<path d="M93.9648 99.5319H92.0717C92.0241 99.3326 91.9764 99.1333 91.9201 98.9384L93.5576 97.9983C94.398 97.5175 94.6926 96.4345 94.2117 95.5984L94.0125 95.2519C93.5316 94.4114 92.4486 94.1169 91.6125 94.5977L89.9664 95.5421C89.8104 95.3732 89.6458 95.2085 89.4725 95.0483L90.4169 93.4021C90.8977 92.5617 90.6032 91.483 89.7628 91.0022L89.4162 90.8029C88.5758 90.322 87.4971 90.6166 87.0163 91.457L86.0762 93.0945C85.8813 93.0339 85.682 92.9862 85.4827 92.9429V91.0498C85.4827 90.0838 84.69 89.291 83.7239 89.291H83.3254C82.3594 89.291 81.5666 90.0838 81.5666 91.0498V92.9429C81.3673 92.9906 81.1681 93.0382 80.9731 93.0945L80.0331 91.457C79.5522 90.6166 78.4692 90.322 77.6331 90.8029L77.2866 91.0022C76.4462 91.483 76.1516 92.566 76.6325 93.4021L77.5768 95.0483C77.4079 95.2042 77.2433 95.3688 77.083 95.5421L75.4368 94.5977C74.5964 94.1169 73.5177 94.4114 73.0369 95.2519L72.8376 95.5984C72.3568 96.4388 72.6513 97.5175 73.4917 97.9983L75.1292 98.9384C75.0686 99.1333 75.0209 99.3326 74.9776 99.5319H73.0845C72.1185 99.5319 71.3257 100.325 71.3257 101.291V101.689C71.3257 102.655 72.1185 103.448 73.0845 103.448H74.9776C75.0253 103.647 75.0729 103.847 75.1292 104.041L73.4917 104.982C72.6513 105.462 72.3568 106.545 72.8376 107.381L73.0369 107.728C73.5177 108.568 74.6007 108.863 75.4368 108.382L77.083 107.438C77.2389 107.607 77.4035 107.771 77.5768 107.932L76.6325 109.578C76.1516 110.418 76.4462 111.497 77.2866 111.978L77.6331 112.177C78.4736 112.658 79.5522 112.363 80.0331 111.523L80.9731 109.885C81.1681 109.946 81.3673 109.994 81.5666 110.037V111.93C81.5666 112.896 82.3594 113.689 83.3254 113.689H83.7239C84.69 113.689 85.4827 112.896 85.4827 111.93V110.037C85.682 109.989 85.8813 109.942 86.0762 109.885L87.0163 111.523C87.4971 112.363 88.5801 112.658 89.4162 112.177L89.7628 111.978C90.6032 111.497 90.8977 110.414 90.4169 109.578L89.4725 107.932C89.6415 107.776 89.8061 107.611 89.9664 107.438L91.6125 108.382C92.4529 108.863 93.5316 108.568 94.0125 107.728L94.2117 107.381C94.6926 106.541 94.398 105.462 93.5576 104.982L91.9201 104.041C91.9807 103.847 92.0284 103.647 92.0717 103.448H93.9648C94.9308 103.448 95.7236 102.655 95.7236 101.689V101.291C95.7236 100.325 94.9308 99.5319 93.9648 99.5319ZM83.5247 107.533C80.189 107.533 77.4859 104.83 77.4859 101.494C77.4859 98.1586 80.189 95.4555 83.5247 95.4555C86.8603 95.4555 89.5635 98.1586 89.5635 101.494C89.5635 104.83 86.8603 107.533 83.5247 107.533Z" fill="#F9AB43"/>
<path d="M79.5956 78.764L78.3436 79.0499C78.283 78.9243 78.2223 78.7986 78.153 78.6817L79.093 77.8153C79.5739 77.3734 79.6086 76.611 79.1624 76.1301L78.9804 75.9308C78.5386 75.45 77.7804 75.4153 77.2953 75.8615L76.3509 76.7323C76.2209 76.6413 76.0866 76.559 75.9523 76.481L76.3292 75.2507C76.5198 74.6226 76.1646 73.9555 75.5365 73.7605L75.2766 73.6825C74.6484 73.4919 73.9813 73.8472 73.7863 74.4753L73.4138 75.6969C73.2752 75.6883 73.1365 75.6839 72.9979 75.6839L72.712 74.432C72.5647 73.7908 71.9236 73.388 71.2868 73.5353L71.0225 73.5959C70.3814 73.7432 69.9785 74.3843 70.1258 75.0211L70.4117 76.2731C70.2861 76.3337 70.1648 76.3944 70.0435 76.4637L69.1771 75.5236C68.7352 75.0428 67.9771 75.0081 67.4919 75.4543L67.2927 75.6363C66.8118 76.0781 66.7772 76.8362 67.2234 77.3214L68.0941 78.2658C68.0031 78.3958 67.9208 78.5301 67.8428 78.6643L66.6125 78.2875C65.9844 78.0969 65.3173 78.4521 65.1223 79.0802L65.0444 79.3401C64.8537 79.9683 65.209 80.6354 65.8371 80.8303L67.0587 81.2029C67.0501 81.3415 67.0457 81.4801 67.0457 81.6188L65.7938 81.9047C65.1527 82.052 64.7498 82.6931 64.8971 83.3299L64.9577 83.5942C65.105 84.2353 65.7461 84.6382 66.3829 84.4909L67.6349 84.205C67.6955 84.3306 67.7562 84.4562 67.8255 84.5732L66.8855 85.4396C66.4046 85.8815 66.3699 86.6396 66.8161 87.1247L66.9981 87.324C67.44 87.8049 68.1981 87.8395 68.6832 87.3933L69.6276 86.5226C69.7576 86.6136 69.8919 86.6959 70.0262 86.7739L69.6493 88.0041C69.4587 88.6323 69.8139 89.2994 70.442 89.4944L70.702 89.5723C71.3301 89.7629 71.9972 89.4077 72.1922 88.7796L72.5647 87.5579C72.7033 87.5666 72.842 87.5709 72.9806 87.5709L73.2665 88.8229C73.4138 89.464 74.0549 89.8669 74.6917 89.7196L74.956 89.659C75.5971 89.5117 76 88.8705 75.8527 88.2337L75.5668 86.9818C75.6924 86.9211 75.8181 86.8605 75.935 86.7912L76.8014 87.7312C77.2433 88.2121 78.0014 88.2467 78.4866 87.8005L78.6858 87.6186C79.1667 87.1767 79.2013 86.4186 78.7551 85.9334L77.8844 84.9891C77.9754 84.8591 78.0577 84.7248 78.1357 84.5905L79.366 84.9674C79.9941 85.158 80.6612 84.8028 80.8562 84.1747L80.9342 83.9147C81.1248 83.2866 80.7695 82.6195 80.1414 82.4245L78.9198 82.052C78.9284 81.9133 78.9328 81.7747 78.9328 81.6361L80.1847 81.3502C80.8258 81.2029 81.2287 80.5618 81.0814 79.925L81.0208 79.6607C80.8735 79.0196 80.2324 78.6167 79.5956 78.764ZM73.899 85.6172C71.694 86.1197 69.502 84.7378 68.9995 82.5328C68.497 80.3278 69.8789 78.1358 72.0839 77.6333C74.2889 77.1308 76.4808 78.5127 76.9834 80.7177C77.4859 82.9227 76.104 85.1147 73.899 85.6172Z" fill="#EB725F"/>
<path d="M194.121 111.111L192.89 111.388C192.83 111.267 192.769 111.146 192.704 111.024L193.631 110.175C194.103 109.738 194.138 108.993 193.701 108.52L193.523 108.326C193.085 107.853 192.34 107.819 191.868 108.256L190.937 109.11C190.811 109.023 190.677 108.941 190.543 108.863L190.911 107.654C191.101 107.039 190.75 106.38 190.131 106.19L189.875 106.112C189.26 105.926 188.602 106.272 188.411 106.892L188.043 108.092C187.909 108.083 187.774 108.079 187.636 108.079L187.359 106.848C187.216 106.22 186.583 105.822 185.955 105.965L185.695 106.025C185.067 106.168 184.668 106.801 184.811 107.429L185.089 108.659C184.967 108.72 184.846 108.78 184.725 108.845L183.876 107.918C183.438 107.446 182.693 107.411 182.221 107.849L182.026 108.027C181.554 108.464 181.519 109.209 181.956 109.681L182.81 110.613C182.723 110.743 182.641 110.873 182.563 111.007L181.354 110.639C180.739 110.453 180.081 110.799 179.89 111.419L179.812 111.674C179.626 112.289 179.972 112.948 180.588 113.138L181.788 113.507C181.779 113.641 181.775 113.775 181.775 113.914L180.544 114.191C179.916 114.334 179.518 114.967 179.661 115.595L179.721 115.855C179.864 116.483 180.497 116.881 181.125 116.738L182.355 116.461C182.416 116.582 182.476 116.704 182.541 116.825L181.614 117.674C181.142 118.112 181.107 118.857 181.545 119.329L181.723 119.524C182.16 119.996 182.905 120.031 183.377 119.593L184.309 118.74C184.434 118.826 184.569 118.909 184.703 118.987L184.335 120.195C184.148 120.81 184.495 121.469 185.11 121.659L185.366 121.737C185.981 121.924 186.639 121.577 186.83 120.958L187.198 119.758C187.333 119.766 187.467 119.771 187.605 119.771L187.883 121.001C188.026 121.629 188.658 122.028 189.286 121.885L189.546 121.824C190.174 121.681 190.573 121.049 190.43 120.421L190.153 119.19C190.274 119.13 190.395 119.069 190.517 119.004L191.366 119.931C191.803 120.403 192.548 120.438 193.02 120L193.215 119.823C193.688 119.385 193.722 118.64 193.285 118.168L192.431 117.236C192.518 117.107 192.6 116.977 192.678 116.842L193.887 117.21C194.502 117.397 195.16 117.05 195.351 116.431L195.429 116.175C195.615 115.56 195.269 114.902 194.654 114.711L193.454 114.343C193.462 114.208 193.467 114.074 193.467 113.936L194.697 113.658C195.325 113.515 195.724 112.883 195.581 112.255L195.52 111.995C195.377 111.367 194.745 110.968 194.116 111.111H194.121ZM188.524 117.843C186.358 118.337 184.205 116.977 183.711 114.815C183.217 112.649 184.577 110.496 186.739 110.002C188.905 109.508 191.058 110.868 191.552 113.03C192.046 115.192 190.685 117.349 188.524 117.843Z" fill="#EB725F"/>
<path d="M192.375 208.204H133.733V211.54H192.375V208.204Z" fill="#FFCF74"/>
<path d="M186.748 208.204H139.36L159.842 157.697H166.266L186.748 208.204Z" fill="#F9AB43"/>
<mask id="mask3_261_6014" style="mask-type:luminance" maskUnits="userSpaceOnUse" x="139" y="157" width="48" height="52">
<path d="M186.748 208.204H139.36L159.842 157.697H166.266L186.748 208.204Z" fill="white"/>
</mask>
<g mask="url(#mask3_261_6014)">
<path d="M195.312 189.642H130.791V201.75H195.312V189.642Z" fill="#FFCF74"/>
<path d="M195.312 165.573H130.791V177.681H195.312V165.573Z" fill="#FFCF74"/>
</g>
<path opacity="0.1" d="M170.65 175.766C174.466 187.363 174.813 198.895 172.305 208.204H186.748L166.266 157.697H161.371C165.183 162.796 168.397 168.913 170.65 175.766Z" fill="url(#paint88_linear_261_6014)"/>
<g opacity="0.3">
<path d="M158.954 167.826C157.624 171.321 156.298 174.813 154.968 178.309C152.85 183.884 150.727 189.46 148.609 195.039C148.119 196.33 147.63 197.617 147.14 198.908C146.703 200.064 148.557 200.563 148.99 199.419C150.32 195.923 151.645 192.431 152.975 188.935C155.094 183.36 157.216 177.785 159.335 172.205C159.824 170.914 160.314 169.628 160.803 168.337C161.241 167.18 159.387 166.682 158.954 167.826Z" fill="white"/>
</g>
<path d="M109.023 209.59H74.7697V211.54H109.023V209.59Z" fill="#FFCF74"/>
<path d="M105.735 209.59H78.0577L90.0227 180.089H93.7742L105.735 209.59Z" fill="#F9AB43"/>
<mask id="mask4_261_6014" style="mask-type:luminance" maskUnits="userSpaceOnUse" x="78" y="180" width="28" height="30">
<path d="M105.735 209.59H78.0577L90.0227 180.089H93.7742L105.735 209.59Z" fill="white"/>
</mask>
<g mask="url(#mask4_261_6014)">
<path d="M110.743 198.748H73.0542V205.817H110.743V198.748Z" fill="#FFCF74"/>
<path d="M110.743 184.69H73.0542V191.76H110.743V184.69Z" fill="#FFCF74"/>
</g>
<path opacity="0.1" d="M96.3344 190.642C98.5611 197.417 98.769 204.149 97.3005 209.59H105.735L93.7699 180.089H90.9108C93.1374 183.065 95.0132 186.639 96.3301 190.642H96.3344Z" fill="url(#paint89_linear_261_6014)"/>
<g opacity="0.3">
<path d="M89.5029 186.007C88.7274 188.047 87.952 190.088 87.1766 192.128C85.9376 195.386 84.6987 198.644 83.4597 201.901C83.1738 202.655 82.8879 203.409 82.602 204.158C82.3464 204.834 83.4294 205.124 83.685 204.457C84.4604 202.417 85.2358 200.376 86.0113 198.336C87.2502 195.078 88.4892 191.821 89.7281 188.563C90.014 187.809 90.3 187.055 90.5859 186.306C90.8415 185.63 89.7585 185.34 89.5029 186.007Z" fill="white"/>
</g>
<path d="M186.843 132.476H183.577V129.21H182.416V132.476H179.149V133.637H182.416V136.904H183.577V133.637H186.843V132.476Z" fill="#CAD2F9"/>
<path d="M206.74 165.404H203.876V162.545H202.858V165.404H199.999V166.426H202.858V169.286H203.876V166.426H206.74V165.404Z" fill="#CAD2F9"/>
<path d="M208.759 141.686H207.125V140.053H206.545V141.686H204.912V142.267H206.545V143.9H207.125V142.267H208.759V141.686Z" fill="#CAD2F9"/>
<path d="M141.067 60.3138H139.434V58.6807H138.849V60.3138H137.216V60.8943H138.849V62.5318H139.434V60.8943H141.067V60.3138Z" fill="#CAD2F9"/>
<path d="M154.102 54.2663H150.835V51H149.674V54.2663H146.408V55.4316H149.674V58.6936H150.835V55.4316H154.102V54.2663Z" fill="#CAD2F9"/>
<path d="M71.1351 125.913H68.276V123.054H67.2537V125.913H64.3945V126.931H67.2537V129.795H68.276V126.931H71.1351V125.913Z" fill="#CAD2F9"/>
<path d="M59.729 100.731H58.0915V99.0938H57.511V100.731H55.8778V101.312H57.511V102.945H58.0915V101.312H59.729V100.731Z" fill="#CAD2F9"/>
<path d="M57.8012 169.719H56.1681V168.085H55.5876V169.719H53.9544V170.299H55.5876V171.932H56.1681V170.299H57.8012V169.719Z" fill="#CAD2F9"/>
<path d="M91.5952 66.8596H88.7318V64.0005H87.7137V66.8596H84.8546V67.8776H87.7137V70.7411H88.7318V67.8776H91.5952V66.8596Z" fill="#CAD2F9"/>
<path d="M124.016 64.1344C124.016 64.6326 123.613 65.0398 123.111 65.0398C122.608 65.0398 122.205 64.6369 122.205 64.1344C122.205 63.6319 122.608 63.229 123.111 63.229C123.613 63.229 124.016 63.6319 124.016 64.1344Z" fill="#E2E6FF"/>
<path d="M204.912 130.726C204.912 131.67 204.145 132.437 203.201 132.437C202.256 132.437 201.49 131.67 201.49 130.726C201.49 129.781 202.256 129.015 203.201 129.015C204.145 129.015 204.912 129.781 204.912 130.726Z" fill="#E2E6FF"/>
<path d="M52.8108 124.34C52.8108 124.839 52.4079 125.246 51.9054 125.246C51.4029 125.246 51 124.843 51 124.34C51 123.838 51.4029 123.435 51.9054 123.435C52.4079 123.435 52.8108 123.838 52.8108 124.34Z" fill="#E2E6FF"/>
<path d="M105.479 56.0031C105.479 56.9475 104.713 57.7143 103.768 57.7143C102.824 57.7143 102.057 56.9475 102.057 56.0031C102.057 55.0588 102.824 54.292 103.768 54.292C104.713 54.292 105.479 55.0588 105.479 56.0031Z" fill="#E2E6FF"/>
<path d="M54.8599 79.4869C54.8599 79.9851 54.457 80.3923 53.9545 80.3923C53.4519 80.3923 53.0491 79.9894 53.0491 79.4869C53.0491 78.9844 53.4519 78.5815 53.9545 78.5815C54.457 78.5815 54.8599 78.9844 54.8599 79.4869Z" fill="#E2E6FF"/>
<path d="M59.5167 196.919C59.5167 197.864 58.7499 198.63 57.8056 198.63C56.8612 198.63 56.0944 197.864 56.0944 196.919C56.0944 195.975 56.8612 195.208 57.8056 195.208C58.7499 195.208 59.5167 195.975 59.5167 196.919Z" fill="#E2E6FF"/>
<path d="M182.121 148.717C182.121 149.215 181.718 149.622 181.216 149.622C180.713 149.622 180.31 149.219 180.31 148.717C180.31 148.214 180.713 147.812 181.216 147.812C181.718 147.812 182.121 148.214 182.121 148.717Z" fill="#E2E6FF"/>
<path d="M183.902 54.2921C183.902 54.7903 183.499 55.1975 182.996 55.1975C182.494 55.1975 182.091 54.7946 182.091 54.2921C182.091 53.7896 182.494 53.3867 182.996 53.3867C183.499 53.3867 183.902 53.7896 183.902 54.2921Z" fill="#E2E6FF"/>
<path d="M64.8451 143.141C64.8451 144.086 64.0783 144.852 63.1339 144.852C62.1896 144.852 61.4228 144.086 61.4228 143.141C61.4228 142.197 62.1896 141.43 63.1339 141.43C64.0783 141.43 64.8451 142.197 64.8451 143.141Z" fill="#E2E6FF"/>
<path d="M111.999 71.1784C111.8 71.486 111.795 71.6636 111.808 71.6939C111.826 71.7113 111.977 71.8066 112.341 71.8066H130.683C131.051 71.8066 131.198 71.7113 131.22 71.6853C131.229 71.6593 131.224 71.4817 131.025 71.1741L122.093 57.4893C121.915 57.2164 121.698 57.0518 121.512 57.0518C121.326 57.0518 121.114 57.2164 120.932 57.4893L111.999 71.1741V71.1784Z" fill="#FFCF74"/>
<path d="M130.679 73.7472H112.337C111.301 73.7472 110.487 73.3356 110.097 72.6122C109.707 71.8931 109.807 70.9834 110.374 70.117L119.307 56.4322C119.853 55.5961 120.659 55.1152 121.508 55.1152C122.357 55.1152 123.163 55.5961 123.708 56.4322L132.641 70.117C133.204 70.9834 133.308 71.8931 132.918 72.6122C132.528 73.3313 131.71 73.7472 130.679 73.7472ZM111.999 71.1783C111.8 71.4859 111.795 71.6635 111.808 71.6938C111.826 71.7111 111.977 71.8064 112.341 71.8064H130.683C131.051 71.8064 131.198 71.7111 131.22 71.6852C131.229 71.6592 131.224 71.4816 131.025 71.174L122.093 57.4892C121.915 57.2163 121.698 57.0516 121.512 57.0516C121.326 57.0516 121.113 57.2163 120.932 57.4892L111.999 71.174V71.1783Z" fill="#F9AB43"/>
<path d="M120.992 69.7441C120.858 69.6055 120.789 69.4409 120.789 69.2373C120.789 69.0337 120.858 68.8691 120.992 68.7304C121.131 68.5961 121.295 68.5268 121.499 68.5268C121.703 68.5268 121.872 68.5961 122.01 68.7304C122.149 68.8691 122.222 69.0337 122.222 69.2373C122.222 69.4409 122.153 69.6055 122.01 69.7441C121.872 69.8784 121.698 69.9477 121.499 69.9477C121.3 69.9477 121.131 69.8784 120.992 69.7441ZM120.572 61.353H122.448L122.097 67.3615H120.919L120.568 61.353H120.572Z" fill="white"/>
<defs>
<filter id="filter0_f_261_6014" x="0.199997" y="0.199997" width="263.6" height="263.6" filterUnits="userSpaceOnUse" color-interpolation-filters="sRGB">
<feFlood flood-opacity="0" result="BackgroundImageFix"/>
<feBlend mode="normal" in="SourceGraphic" in2="BackgroundImageFix" result="shape"/>
<feGaussianBlur stdDeviation="36.9" result="effect1_foregroundBlur_261_6014"/>
</filter>
<linearGradient id="paint0_linear_261_6014" x1="132" y1="74" x2="132" y2="190" gradientUnits="userSpaceOnUse">
<stop stop-color="#A0CB7C"/>
<stop offset="1" stop-color="white"/>
</linearGradient>
<linearGradient id="paint1_linear_261_6014" x1="64.0893" y1="182.487" x2="65.1883" y2="187.441" gradientUnits="userSpaceOnUse">
<stop stop-color="#0261AE"/>
<stop offset="1" stop-color="#A0CB7C"/>
</linearGradient>
<linearGradient id="paint2_linear_261_6014" x1="86.7641" y1="183.436" x2="99.4373" y2="198.087" gradientUnits="userSpaceOnUse">
<stop stop-color="#0261AE"/>
<stop offset="1" stop-color="#A0CB7C"/>
</linearGradient>
<linearGradient id="paint3_linear_261_6014" x1="75.8681" y1="181.987" x2="80.493" y2="190.12" gradientUnits="userSpaceOnUse">
<stop stop-color="#0261AE"/>
<stop offset="1" stop-color="#A0CB7C"/>
</linearGradient>
<linearGradient id="paint4_linear_261_6014" x1="189.628" y1="153.175" x2="196.726" y2="157.277" gradientUnits="userSpaceOnUse">
<stop stop-color="#0261AE"/>
<stop offset="1" stop-color="#A0CB7C"/>
</linearGradient>
<linearGradient id="paint5_linear_261_6014" x1="174.825" y1="174.998" x2="182.47" y2="190.178" gradientUnits="userSpaceOnUse">
<stop stop-color="#0261AE"/>
<stop offset="1" stop-color="#A0CB7C"/>
</linearGradient>
<linearGradient id="paint6_linear_261_6014" x1="185.913" y1="165.235" x2="191.94" y2="173.267" gradientUnits="userSpaceOnUse">
<stop stop-color="#0261AE"/>
<stop offset="1" stop-color="#A0CB7C"/>
</linearGradient>
<linearGradient id="paint7_linear_261_6014" x1="80.0501" y1="158.539" x2="90.8626" y2="188.115" gradientUnits="userSpaceOnUse">
<stop stop-color="#0261AE"/>
<stop offset="1" stop-color="#A0CB7C"/>
</linearGradient>
<linearGradient id="paint8_linear_261_6014" x1="67.9778" y1="150.498" x2="74.5193" y2="154.601" gradientUnits="userSpaceOnUse">
<stop stop-color="#0261AE"/>
<stop offset="1" stop-color="#A0CB7C"/>
</linearGradient>
<linearGradient id="paint9_linear_261_6014" x1="68.3417" y1="151.314" x2="73.4835" y2="154.26" gradientUnits="userSpaceOnUse">
<stop stop-color="#0261AE"/>
<stop offset="1" stop-color="#A0CB7C"/>
</linearGradient>
<linearGradient id="paint10_linear_261_6014" x1="68.0788" y1="150.498" x2="74.5477" y2="154.455" gradientUnits="userSpaceOnUse">
<stop stop-color="#0261AE"/>
<stop offset="1" stop-color="#A0CB7C"/>
</linearGradient>
<linearGradient id="paint11_linear_261_6014" x1="73.3898" y1="152.9" x2="78.8717" y2="155.13" gradientUnits="userSpaceOnUse">
<stop stop-color="#0261AE"/>
<stop offset="1" stop-color="#A0CB7C"/>
</linearGradient>
<linearGradient id="paint12_linear_261_6014" x1="74.2825" y1="153.78" x2="75.3248" y2="153.865" gradientUnits="userSpaceOnUse">
<stop stop-color="#0261AE"/>
<stop offset="1" stop-color="#A0CB7C"/>
</linearGradient>
<linearGradient id="paint13_linear_261_6014" x1="74.1301" y1="152.9" x2="78.4545" y2="154.198" gradientUnits="userSpaceOnUse">
<stop stop-color="#0261AE"/>
<stop offset="1" stop-color="#A0CB7C"/>
</linearGradient>
<linearGradient id="paint14_linear_261_6014" x1="64.5325" y1="160.792" x2="65.7865" y2="165.791" gradientUnits="userSpaceOnUse">
<stop stop-color="#0261AE"/>
<stop offset="1" stop-color="#A0CB7C"/>
</linearGradient>
<linearGradient id="paint15_linear_261_6014" x1="65.1173" y1="161.541" x2="65.6237" y2="164.462" gradientUnits="userSpaceOnUse">
<stop stop-color="#0261AE"/>
<stop offset="1" stop-color="#A0CB7C"/>
</linearGradient>
<linearGradient id="paint16_linear_261_6014" x1="64.5227" y1="160.765" x2="65.6081" y2="165.435" gradientUnits="userSpaceOnUse">
<stop stop-color="#0261AE"/>
<stop offset="1" stop-color="#A0CB7C"/>
</linearGradient>
<linearGradient id="paint17_linear_261_6014" x1="77.2468" y1="158.316" x2="82.7936" y2="160.622" gradientUnits="userSpaceOnUse">
<stop stop-color="#0261AE"/>
<stop offset="1" stop-color="#A0CB7C"/>
</linearGradient>
<linearGradient id="paint18_linear_261_6014" x1="78.0338" y1="159.193" x2="79.7647" y2="159.431" gradientUnits="userSpaceOnUse">
<stop stop-color="#0261AE"/>
<stop offset="1" stop-color="#A0CB7C"/>
</linearGradient>
<linearGradient id="paint19_linear_261_6014" x1="78.0365" y1="158.316" x2="82.3806" y2="159.633" gradientUnits="userSpaceOnUse">
<stop stop-color="#0261AE"/>
<stop offset="1" stop-color="#A0CB7C"/>
</linearGradient>
<linearGradient id="paint20_linear_261_6014" x1="69.0982" y1="167.358" x2="70.0496" y2="171.803" gradientUnits="userSpaceOnUse">
<stop stop-color="#0261AE"/>
<stop offset="1" stop-color="#A0CB7C"/>
</linearGradient>
<linearGradient id="paint21_linear_261_6014" x1="69.7091" y1="168.554" x2="69.7652" y2="169.552" gradientUnits="userSpaceOnUse">
<stop stop-color="#0261AE"/>
<stop offset="1" stop-color="#A0CB7C"/>
</linearGradient>
<linearGradient id="paint22_linear_261_6014" x1="69.1027" y1="167.291" x2="69.6678" y2="170.748" gradientUnits="userSpaceOnUse">
<stop stop-color="#0261AE"/>
<stop offset="1" stop-color="#A0CB7C"/>
</linearGradient>
<linearGradient id="paint23_linear_261_6014" x1="81.9048" y1="163.674" x2="87.9786" y2="166.704" gradientUnits="userSpaceOnUse">
<stop stop-color="#0261AE"/>
<stop offset="1" stop-color="#A0CB7C"/>
</linearGradient>
<linearGradient id="paint24_linear_261_6014" x1="82.3968" y1="164.53" x2="86.4285" y2="166.009" gradientUnits="userSpaceOnUse">
<stop stop-color="#0261AE"/>
<stop offset="1" stop-color="#A0CB7C"/>
</linearGradient>
<linearGradient id="paint25_linear_261_6014" x1="82.225" y1="163.674" x2="87.9256" y2="166.246" gradientUnits="userSpaceOnUse">
<stop stop-color="#0261AE"/>
<stop offset="1" stop-color="#A0CB7C"/>
</linearGradient>
<linearGradient id="paint26_linear_261_6014" x1="74.8754" y1="173.388" x2="75.8319" y2="177.842" gradientUnits="userSpaceOnUse">
<stop stop-color="#0261AE"/>
<stop offset="1" stop-color="#A0CB7C"/>
</linearGradient>
<linearGradient id="paint27_linear_261_6014" x1="75.482" y1="174.57" x2="75.5458" y2="175.634" gradientUnits="userSpaceOnUse">
<stop stop-color="#0261AE"/>
<stop offset="1" stop-color="#A0CB7C"/>
</linearGradient>
<linearGradient id="paint28_linear_261_6014" x1="74.8754" y1="173.308" x2="75.3614" y2="176.519" gradientUnits="userSpaceOnUse">
<stop stop-color="#0261AE"/>
<stop offset="1" stop-color="#A0CB7C"/>
</linearGradient>
<linearGradient id="paint29_linear_261_6014" x1="87.635" y1="168.609" x2="94.2937" y2="173.294" gradientUnits="userSpaceOnUse">
<stop stop-color="#0261AE"/>
<stop offset="1" stop-color="#A0CB7C"/>
</linearGradient>
<linearGradient id="paint30_linear_261_6014" x1="87.9813" y1="169.403" x2="93.355" y2="173.014" gradientUnits="userSpaceOnUse">
<stop stop-color="#0261AE"/>
<stop offset="1" stop-color="#A0CB7C"/>
</linearGradient>
<linearGradient id="paint31_linear_261_6014" x1="87.6834" y1="168.609" x2="94.3195" y2="173.232" gradientUnits="userSpaceOnUse">
<stop stop-color="#0261AE"/>
<stop offset="1" stop-color="#A0CB7C"/>
</linearGradient>
<linearGradient id="paint32_linear_261_6014" x1="82.4144" y1="178.457" x2="83.8019" y2="183.668" gradientUnits="userSpaceOnUse">
<stop stop-color="#0261AE"/>
<stop offset="1" stop-color="#A0CB7C"/>
</linearGradient>
<linearGradient id="paint33_linear_261_6014" x1="83.0021" y1="179.15" x2="83.6879" y2="182.514" gradientUnits="userSpaceOnUse">
<stop stop-color="#0261AE"/>
<stop offset="1" stop-color="#A0CB7C"/>
</linearGradient>
<linearGradient id="paint34_linear_261_6014" x1="82.4144" y1="178.429" x2="83.5963" y2="183.264" gradientUnits="userSpaceOnUse">
<stop stop-color="#0261AE"/>
<stop offset="1" stop-color="#A0CB7C"/>
</linearGradient>
<linearGradient id="paint35_linear_261_6014" x1="93.8696" y1="171.564" x2="100.53" y2="176.999" gradientUnits="userSpaceOnUse">
<stop stop-color="#0261AE"/>
<stop offset="1" stop-color="#A0CB7C"/>
</linearGradient>
<linearGradient id="paint36_linear_261_6014" x1="94.2032" y1="172.321" x2="99.6536" y2="176.711" gradientUnits="userSpaceOnUse">
<stop stop-color="#0261AE"/>
<stop offset="1" stop-color="#A0CB7C"/>
</linearGradient>
<linearGradient id="paint37_linear_261_6014" x1="93.8757" y1="171.559" x2="100.531" y2="176.989" gradientUnits="userSpaceOnUse">
<stop stop-color="#0261AE"/>
<stop offset="1" stop-color="#A0CB7C"/>
</linearGradient>
<linearGradient id="paint38_linear_261_6014" x1="89.4539" y1="181.255" x2="91.1685" y2="186.925" gradientUnits="userSpaceOnUse">
<stop stop-color="#0261AE"/>
<stop offset="1" stop-color="#A0CB7C"/>
</linearGradient>
<linearGradient id="paint39_linear_261_6014" x1="90.0296" y1="181.849" x2="91.1216" y2="185.988" gradientUnits="userSpaceOnUse">
<stop stop-color="#0261AE"/>
<stop offset="1" stop-color="#A0CB7C"/>
</linearGradient>
<linearGradient id="paint40_linear_261_6014" x1="89.4566" y1="181.245" x2="91.0474" y2="186.721" gradientUnits="userSpaceOnUse">
<stop stop-color="#0261AE"/>
<stop offset="1" stop-color="#A0CB7C"/>
</linearGradient>
<linearGradient id="paint41_linear_261_6014" x1="100.941" y1="174.123" x2="106.574" y2="181.279" gradientUnits="userSpaceOnUse">
<stop stop-color="#0261AE"/>
<stop offset="1" stop-color="#A0CB7C"/>
</linearGradient>
<linearGradient id="paint42_linear_261_6014" x1="101.349" y1="174.781" x2="105.968" y2="180.649" gradientUnits="userSpaceOnUse">
<stop stop-color="#0261AE"/>
<stop offset="1" stop-color="#A0CB7C"/>
</linearGradient>
<linearGradient id="paint43_linear_261_6014" x1="100.937" y1="174.127" x2="106.566" y2="181.283" gradientUnits="userSpaceOnUse">
<stop stop-color="#0261AE"/>
<stop offset="1" stop-color="#A0CB7C"/>
</linearGradient>
<linearGradient id="paint44_linear_261_6014" x1="99.0933" y1="182.86" x2="102.314" y2="189.848" gradientUnits="userSpaceOnUse">
<stop stop-color="#0261AE"/>
<stop offset="1" stop-color="#A0CB7C"/>
</linearGradient>
<linearGradient id="paint45_linear_261_6014" x1="99.6082" y1="183.395" x2="102.227" y2="189.108" gradientUnits="userSpaceOnUse">
<stop stop-color="#0261AE"/>
<stop offset="1" stop-color="#A0CB7C"/>
</linearGradient>
<linearGradient id="paint46_linear_261_6014" x1="99.0942" y1="182.86" x2="102.311" y2="189.846" gradientUnits="userSpaceOnUse">
<stop stop-color="#0261AE"/>
<stop offset="1" stop-color="#A0CB7C"/>
</linearGradient>
<linearGradient id="paint47_linear_261_6014" x1="162.133" y1="185.611" x2="164.978" y2="202.327" gradientUnits="userSpaceOnUse">
<stop stop-color="#0261AE"/>
<stop offset="1" stop-color="#A0CB7C"/>
</linearGradient>
<linearGradient id="paint48_linear_261_6014" x1="205.506" y1="179.756" x2="211.048" y2="186.959" gradientUnits="userSpaceOnUse">
<stop stop-color="#0261AE"/>
<stop offset="1" stop-color="#A0CB7C"/>
</linearGradient>
<linearGradient id="paint49_linear_261_6014" x1="205.98" y1="180.402" x2="210.528" y2="186.313" gradientUnits="userSpaceOnUse">
<stop stop-color="#0261AE"/>
<stop offset="1" stop-color="#A0CB7C"/>
</linearGradient>
<linearGradient id="paint50_linear_261_6014" x1="205.502" y1="179.756" x2="211.044" y2="186.961" gradientUnits="userSpaceOnUse">
<stop stop-color="#0261AE"/>
<stop offset="1" stop-color="#A0CB7C"/>
</linearGradient>
<linearGradient id="paint51_linear_261_6014" x1="201.042" y1="179.452" x2="207.277" y2="182.778" gradientUnits="userSpaceOnUse">
<stop stop-color="#0261AE"/>
<stop offset="1" stop-color="#A0CB7C"/>
</linearGradient>
<linearGradient id="paint52_linear_261_6014" x1="201.503" y1="180.297" x2="205.983" y2="182.23" gradientUnits="userSpaceOnUse">
<stop stop-color="#0261AE"/>
<stop offset="1" stop-color="#A0CB7C"/>
</linearGradient>
<linearGradient id="paint53_linear_261_6014" x1="200.983" y1="179.452" x2="206.98" y2="182.443" gradientUnits="userSpaceOnUse">
<stop stop-color="#0261AE"/>
<stop offset="1" stop-color="#A0CB7C"/>
</linearGradient>
<linearGradient id="paint54_linear_261_6014" x1="203.169" y1="189.271" x2="204.174" y2="193.821" gradientUnits="userSpaceOnUse">
<stop stop-color="#0261AE"/>
<stop offset="1" stop-color="#A0CB7C"/>
</linearGradient>
<linearGradient id="paint55_linear_261_6014" x1="203.864" y1="190.3" x2="204.012" y2="191.91" gradientUnits="userSpaceOnUse">
<stop stop-color="#0261AE"/>
<stop offset="1" stop-color="#A0CB7C"/>
</linearGradient>
<linearGradient id="paint56_linear_261_6014" x1="203.173" y1="189.192" x2="203.774" y2="192.745" gradientUnits="userSpaceOnUse">
<stop stop-color="#0261AE"/>
<stop offset="1" stop-color="#A0CB7C"/>
</linearGradient>
<linearGradient id="paint57_linear_261_6014" x1="195.16" y1="183.434" x2="201.825" y2="188.195" gradientUnits="userSpaceOnUse">
<stop stop-color="#0261AE"/>
<stop offset="1" stop-color="#A0CB7C"/>
</linearGradient>
<linearGradient id="paint58_linear_261_6014" x1="195.534" y1="184.228" x2="200.926" y2="187.929" gradientUnits="userSpaceOnUse">
<stop stop-color="#0261AE"/>
<stop offset="1" stop-color="#A0CB7C"/>
</linearGradient>
<linearGradient id="paint59_linear_261_6014" x1="195.154" y1="183.438" x2="201.8" y2="188.144" gradientUnits="userSpaceOnUse">
<stop stop-color="#0261AE"/>
<stop offset="1" stop-color="#A0CB7C"/>
</linearGradient>
<linearGradient id="paint60_linear_261_6014" x1="196.675" y1="193.275" x2="198.093" y2="198.533" gradientUnits="userSpaceOnUse">
<stop stop-color="#0261AE"/>
<stop offset="1" stop-color="#A0CB7C"/>
</linearGradient>
<linearGradient id="paint61_linear_261_6014" x1="197.35" y1="193.955" x2="198.075" y2="197.406" gradientUnits="userSpaceOnUse">
<stop stop-color="#0261AE"/>
<stop offset="1" stop-color="#A0CB7C"/>
</linearGradient>
<linearGradient id="paint62_linear_261_6014" x1="196.683" y1="193.249" x2="197.905" y2="198.153" gradientUnits="userSpaceOnUse">
<stop stop-color="#0261AE"/>
<stop offset="1" stop-color="#A0CB7C"/>
</linearGradient>
<linearGradient id="paint63_linear_261_6014" x1="188.361" y1="187.029" x2="194.762" y2="193.351" gradientUnits="userSpaceOnUse">
<stop stop-color="#0261AE"/>
<stop offset="1" stop-color="#A0CB7C"/>
</linearGradient>
<linearGradient id="paint64_linear_261_6014" x1="188.766" y1="187.751" x2="194.015" y2="192.941" gradientUnits="userSpaceOnUse">
<stop stop-color="#0261AE"/>
<stop offset="1" stop-color="#A0CB7C"/>
</linearGradient>
<linearGradient id="paint65_linear_261_6014" x1="188.369" y1="187.033" x2="194.773" y2="193.352" gradientUnits="userSpaceOnUse">
<stop stop-color="#0261AE"/>
<stop offset="1" stop-color="#A0CB7C"/>
</linearGradient>
<linearGradient id="paint66_linear_261_6014" x1="189.355" y1="196.406" x2="191.616" y2="202.68" gradientUnits="userSpaceOnUse">
<stop stop-color="#0261AE"/>
<stop offset="1" stop-color="#A0CB7C"/>
</linearGradient>
<linearGradient id="paint67_linear_261_6014" x1="189.983" y1="196.935" x2="191.68" y2="201.887" gradientUnits="userSpaceOnUse">
<stop stop-color="#0261AE"/>
<stop offset="1" stop-color="#A0CB7C"/>
</linearGradient>
<linearGradient id="paint68_linear_261_6014" x1="189.351" y1="196.397" x2="191.57" y2="202.62" gradientUnits="userSpaceOnUse">
<stop stop-color="#0261AE"/>
<stop offset="1" stop-color="#A0CB7C"/>
</linearGradient>
<linearGradient id="paint69_linear_261_6014" x1="180.479" y1="189.81" x2="185.521" y2="197.178" gradientUnits="userSpaceOnUse">
<stop stop-color="#0261AE"/>
<stop offset="1" stop-color="#A0CB7C"/>
</linearGradient>
<linearGradient id="paint70_linear_261_6014" x1="180.986" y1="190.42" x2="185.124" y2="196.464" gradientUnits="userSpaceOnUse">
<stop stop-color="#0261AE"/>
<stop offset="1" stop-color="#A0CB7C"/>
</linearGradient>
<linearGradient id="paint71_linear_261_6014" x1="180.476" y1="189.81" x2="185.513" y2="197.179" gradientUnits="userSpaceOnUse">
<stop stop-color="#0261AE"/>
<stop offset="1" stop-color="#A0CB7C"/>
</linearGradient>
<linearGradient id="paint72_linear_261_6014" x1="180.883" y1="198.068" x2="184.762" y2="205.343" gradientUnits="userSpaceOnUse">
<stop stop-color="#0261AE"/>
<stop offset="1" stop-color="#A0CB7C"/>
</linearGradient>
<linearGradient id="paint73_linear_261_6014" x1="181.445" y1="198.646" x2="184.628" y2="204.613" gradientUnits="userSpaceOnUse">
<stop stop-color="#0261AE"/>
<stop offset="1" stop-color="#A0CB7C"/>
</linearGradient>
<linearGradient id="paint74_linear_261_6014" x1="180.886" y1="198.068" x2="184.767" y2="205.341" gradientUnits="userSpaceOnUse">
<stop stop-color="#0261AE"/>
<stop offset="1" stop-color="#A0CB7C"/>
</linearGradient>
<linearGradient id="paint75_linear_261_6014" x1="173.316" y1="190.432" x2="177.65" y2="197.808" gradientUnits="userSpaceOnUse">
<stop stop-color="#0261AE"/>
<stop offset="1" stop-color="#A0CB7C"/>
</linearGradient>
<linearGradient id="paint76_linear_261_6014" x1="173.861" y1="190.986" x2="177.419" y2="197.036" gradientUnits="userSpaceOnUse">
<stop stop-color="#0261AE"/>
<stop offset="1" stop-color="#A0CB7C"/>
</linearGradient>
<linearGradient id="paint77_linear_261_6014" x1="173.313" y1="190.428" x2="177.649" y2="197.808" gradientUnits="userSpaceOnUse">
<stop stop-color="#0261AE"/>
<stop offset="1" stop-color="#A0CB7C"/>
</linearGradient>
<linearGradient id="paint78_linear_261_6014" x1="173.484" y1="198.12" x2="178.089" y2="205.522" gradientUnits="userSpaceOnUse">
<stop stop-color="#0261AE"/>
<stop offset="1" stop-color="#A0CB7C"/>
</linearGradient>
<linearGradient id="paint79_linear_261_6014" x1="174.015" y1="198.753" x2="177.793" y2="204.823" gradientUnits="userSpaceOnUse">
<stop stop-color="#0261AE"/>
<stop offset="1" stop-color="#A0CB7C"/>
</linearGradient>
<linearGradient id="paint80_linear_261_6014" x1="173.483" y1="198.124" x2="178.086" y2="205.523" gradientUnits="userSpaceOnUse">
<stop stop-color="#0261AE"/>
<stop offset="1" stop-color="#A0CB7C"/>
</linearGradient>
<linearGradient id="paint81_linear_261_6014" x1="165.035" y1="190.352" x2="167.467" y2="196.784" gradientUnits="userSpaceOnUse">
<stop stop-color="#0261AE"/>
<stop offset="1" stop-color="#A0CB7C"/>
</linearGradient>
<linearGradient id="paint82_linear_261_6014" x1="165.657" y1="190.836" x2="167.531" y2="195.97" gradientUnits="userSpaceOnUse">
<stop stop-color="#0261AE"/>
<stop offset="1" stop-color="#A0CB7C"/>
</linearGradient>
<linearGradient id="paint83_linear_261_6014" x1="165.034" y1="190.349" x2="167.464" y2="196.777" gradientUnits="userSpaceOnUse">
<stop stop-color="#0261AE"/>
<stop offset="1" stop-color="#A0CB7C"/>
</linearGradient>
<linearGradient id="paint84_linear_261_6014" x1="164.529" y1="196.281" x2="170.812" y2="202.818" gradientUnits="userSpaceOnUse">
<stop stop-color="#0261AE"/>
<stop offset="1" stop-color="#A0CB7C"/>
</linearGradient>
<linearGradient id="paint85_linear_261_6014" x1="164.945" y1="197.062" x2="170.1" y2="202.426" gradientUnits="userSpaceOnUse">
<stop stop-color="#0261AE"/>
<stop offset="1" stop-color="#A0CB7C"/>
</linearGradient>
<linearGradient id="paint86_linear_261_6014" x1="164.533" y1="196.277" x2="170.818" y2="202.81" gradientUnits="userSpaceOnUse">
<stop stop-color="#0261AE"/>
<stop offset="1" stop-color="#A0CB7C"/>
</linearGradient>
<linearGradient id="paint87_linear_261_6014" x1="108.559" y1="84.3717" x2="193.489" y2="155.692" gradientUnits="userSpaceOnUse">
<stop stop-color="#0261AE"/>
<stop offset="1" stop-color="#A0CB7C"/>
</linearGradient>
<linearGradient id="paint88_linear_261_6014" x1="166.525" y1="161.643" x2="196.924" y2="182.791" gradientUnits="userSpaceOnUse">
<stop stop-color="#0261AE"/>
<stop offset="1" stop-color="#A0CB7C"/>
</linearGradient>
<linearGradient id="paint89_linear_261_6014" x1="93.9219" y1="182.394" x2="111.678" y2="194.748" gradientUnits="userSpaceOnUse">
<stop stop-color="#0261AE"/>
<stop offset="1" stop-color="#A0CB7C"/>
</linearGradient>
</defs>
</svg>
