<svg width="162" height="161" viewBox="0 0 162 161" fill="none" xmlns="http://www.w3.org/2000/svg">
<path d="M42.4321 131.936C39.7116 131.954 41.0112 140.774 41.0112 140.774C41.0112 140.774 36.9694 131.235 33.8634 130.888C30.7573 130.546 33.4865 138.863 33.4865 138.863C33.4865 138.863 25.4116 129.818 23.3236 130.351C21.2356 130.884 25.0608 135.926 25.0608 135.926C25.0608 135.926 11.6705 129.19 10.4879 131.746C9.30525 134.302 23.1027 140.158 23.1027 140.158C23.1027 140.158 16.7823 140.505 17.7267 142.441C18.671 144.378 30.792 144.685 30.792 144.685C30.792 144.685 22.6825 147.986 24.9525 150.135C27.2224 152.284 37.1124 149.191 37.1124 149.191C37.1124 149.191 29.5487 153.908 31.2945 155.992C33.0403 158.076 49.0384 149.598 49.0384 149.598C49.0384 149.598 45.1526 131.91 42.4364 131.932L42.4321 131.936Z" fill="#EB725F"/>
<path d="M43.2941 139.027L44.0912 142.112C44.3511 143.143 44.6413 144.165 44.9186 145.188L45.6507 147.86L43.1424 146.66L39.0444 144.737C38.5678 143.476 38.087 142.216 37.5758 140.968L36.7874 139.062C36.5101 138.434 36.2459 137.797 35.9513 137.173C36.1376 137.836 36.3542 138.49 36.5578 139.149L37.2119 141.102C37.5888 142.22 37.9917 143.329 38.3989 144.434L33.4604 142.116L30.7572 140.882C30.2244 139.989 29.6916 139.097 29.1284 138.226L28.2577 136.879C27.9501 136.441 27.6599 135.991 27.3393 135.558C27.5602 136.047 27.8115 136.519 28.0454 137L28.7992 138.417C29.1761 139.127 29.5746 139.825 29.9775 140.522L23.7351 137.672C20.4817 136.212 17.2284 134.756 13.9491 133.353C17.1418 134.942 20.3561 136.485 23.5748 138.018L29.8519 140.964C29.0331 141.115 28.21 141.271 27.3956 141.453C26.3473 141.679 25.2989 141.917 24.2636 142.203C25.3379 142.116 26.3992 141.978 27.4606 141.83C28.5219 141.687 29.5746 141.51 30.6273 141.328L33.2568 142.562L38.2516 144.841C37.1253 145.257 36.0033 145.677 34.89 146.128C33.6077 146.639 32.3298 147.154 31.0691 147.726C32.3991 147.349 33.7117 146.925 35.0199 146.487C36.3195 146.063 37.6061 145.599 38.8927 145.136L42.9822 147.003L45.5207 148.138L42.9995 149.325C42.0378 149.784 41.0631 150.226 40.11 150.702C38.191 151.634 36.2719 152.574 34.3788 153.561C36.3585 152.76 38.3166 151.907 40.2703 151.049C41.2494 150.629 42.2154 150.174 43.1901 149.736L46.1055 148.415L46.1229 148.406L47.86 149.182C49.4932 149.892 51.122 150.62 52.7638 151.317C51.1697 150.516 49.5625 149.745 47.964 148.961L46.2485 148.138V148.12L45.3604 145.058C45.0615 144.04 44.7799 143.013 44.4637 141.999L43.5323 138.949C43.2031 137.94 42.8955 136.922 42.5533 135.917C42.7872 136.957 43.0515 137.983 43.2984 139.019L43.2941 139.027Z" fill="#F9AB43"/>
<g opacity="0.1">
<path d="M23.5921 135.22C20.0875 133.561 11.4278 129.719 10.4835 131.75C10.1196 132.539 11.1853 133.648 12.8357 134.796C15.9375 134.233 19.65 134.363 23.5921 135.216V135.22Z" fill="url(#paint0_linear_785_9964)"/>
<path d="M33.4561 138.768C39.8025 142 44.546 146.47 46.6427 150.828C48.0939 150.101 49.0383 149.602 49.0383 149.602C49.0383 149.602 45.1525 131.915 42.4363 131.937C39.7158 131.954 41.0154 140.774 41.0154 140.774C41.0154 140.774 36.9737 131.235 33.8676 130.888C30.9565 130.568 33.1658 137.845 33.4561 138.768Z" fill="url(#paint1_linear_785_9964)"/>
<path d="M24.7401 135.489C26.8151 136.009 28.9465 136.723 31.0735 137.646C31.8533 137.984 32.6114 138.344 33.3521 138.716C32.2995 137.551 25.2556 129.866 23.3279 130.355C21.6211 130.789 23.8737 134.25 24.7444 135.489H24.7401Z" fill="url(#paint2_linear_785_9964)"/>
</g>
<path d="M138.75 133.028C139.027 130.324 130.12 130.645 130.12 130.645C130.12 130.645 140.045 127.673 140.725 124.619C141.405 121.569 132.837 123.372 132.837 123.372C132.837 123.372 142.709 116.332 142.41 114.201C142.111 112.069 136.679 115.318 136.679 115.318C136.679 115.318 144.836 102.742 142.428 101.287C140.015 99.8314 132.689 112.905 132.689 112.905C132.689 112.905 133.036 106.585 131.009 107.313C128.981 108.041 127.348 120.053 127.348 120.053C127.348 120.053 124.952 111.632 122.57 113.655C120.187 115.678 122.18 125.845 122.18 125.845C122.18 125.845 118.32 117.814 116.054 119.317C113.789 120.824 120.469 137.654 120.469 137.654C120.469 137.654 138.473 135.726 138.754 133.023L138.75 133.028Z" fill="#EB725F"/>
<path d="M131.606 133.11L128.453 133.565C127.4 133.708 126.352 133.89 125.303 134.05L122.57 134.483L124.038 132.122L126.399 128.258C127.703 127.92 129.011 127.582 130.307 127.21L132.286 126.638C132.941 126.43 133.603 126.235 134.253 126.014C133.573 126.127 132.902 126.274 132.226 126.4L130.211 126.837C129.059 127.088 127.915 127.37 126.767 127.652L129.614 122.995L131.134 120.443C132.079 120.014 133.023 119.581 133.954 119.113L135.388 118.394C135.86 118.138 136.337 117.896 136.8 117.627C136.289 117.796 135.791 117.991 135.289 118.173L133.798 118.767C133.049 119.065 132.312 119.386 131.576 119.707L135.089 113.811C136.896 110.739 138.698 107.664 140.452 104.558C138.52 107.555 136.636 110.583 134.76 113.612L131.143 119.525C131.082 118.693 131.017 117.861 130.926 117.029C130.814 115.964 130.697 114.898 130.523 113.832C130.493 114.907 130.515 115.981 130.545 117.051C130.571 118.121 130.636 119.187 130.697 120.252L129.18 122.73L126.369 127.444C126.079 126.278 125.784 125.117 125.459 123.961C125.091 122.631 124.718 121.305 124.29 119.988C124.519 121.353 124.796 122.704 125.087 124.052C125.368 125.39 125.689 126.72 126.005 128.05L123.7 131.914L122.293 134.314L121.387 131.68C121.036 130.671 120.703 129.657 120.334 128.657C119.62 126.646 118.892 124.636 118.116 122.648C118.697 124.706 119.329 126.742 119.971 128.778C120.282 129.8 120.625 130.81 120.954 131.823L121.95 134.864V134.882L120.993 136.523C120.109 138.07 119.208 139.608 118.333 141.163C119.303 139.669 120.243 138.152 121.201 136.649L122.206 135.033H122.228L125.368 134.487C126.412 134.301 127.465 134.132 128.505 133.929L131.637 133.339C132.676 133.123 133.72 132.928 134.76 132.698C133.703 132.815 132.65 132.967 131.598 133.101L131.606 133.11Z" fill="#F9AB43"/>
<g opacity="0.1">
<path d="M137.546 113.94C139.577 110.635 144.342 102.448 142.428 101.291C141.683 100.84 140.465 101.78 139.14 103.292C139.361 106.437 138.828 110.115 137.546 113.936V113.94Z" fill="url(#paint3_linear_785_9964)"/>
<path d="M132.936 123.354C129.029 129.31 124.069 133.534 119.507 135.145C120.07 136.666 120.464 137.662 120.464 137.662C120.464 137.662 138.468 135.735 138.75 133.027C139.027 130.324 130.12 130.644 130.12 130.644C130.12 130.644 140.045 127.673 140.725 124.619C141.362 121.76 133.889 123.159 132.936 123.349V123.354Z" fill="url(#paint4_linear_785_9964)"/>
<path d="M137.151 115.05C136.406 117.056 135.466 119.096 134.314 121.106C133.894 121.843 133.456 122.557 133.001 123.25C134.275 122.332 142.683 116.172 142.406 114.197C142.159 112.451 138.477 114.314 137.147 115.046L137.151 115.05Z" fill="url(#paint5_linear_785_9964)"/>
</g>
<path d="M18.5973 105.783C19.0868 106.914 19.702 107.997 20.3214 109.058C21.881 111.709 23.6917 114.213 25.7061 116.535C28.457 119.711 31.6063 122.544 35.1109 124.866C39.3 127.643 43.9872 129.64 48.8997 130.692C54.9818 132.001 61.2849 131.845 67.3714 130.679C68.2551 130.51 69.1388 130.32 70.0139 130.108C70.2868 130.043 70.1482 129.627 69.8752 129.692C63.6545 131.178 57.1608 131.671 50.8274 130.614C45.8153 129.778 41.0024 127.976 36.6618 125.334C33.0272 123.12 29.7522 120.347 26.8844 117.207C24.7228 114.842 22.7907 112.268 21.1185 109.535C20.3518 108.283 19.6716 106.936 19.0305 105.692C19.0218 105.675 19.0132 105.653 19.0045 105.636C18.8919 105.38 18.4803 105.515 18.5886 105.775L18.5973 105.783Z" fill="url(#paint6_linear_785_9964)"/>
<path d="M20.85 109.929C19.7756 109.271 19.0392 108.47 18.3937 107.633C17.7612 106.789 17.2587 105.892 16.8645 104.952C16.4703 104.012 16.193 103.02 16.0414 101.976C15.9071 100.928 15.8595 99.8402 16.1584 98.6143C17.2371 99.2727 17.9735 100.07 18.619 100.91C19.2514 101.755 19.754 102.652 20.1395 103.596C20.5294 104.54 20.8066 105.528 20.9583 106.572C21.0925 107.62 21.1402 108.708 20.8456 109.934L20.85 109.929Z" fill="url(#paint7_linear_785_9964)"/>
<path d="M16.5613 99.5889C16.9295 100.343 17.276 101.105 17.6139 101.872C17.9562 102.639 18.2724 103.41 18.6016 104.181C18.9135 104.956 19.2341 105.732 19.5374 106.511C19.8363 107.291 20.1352 108.075 20.4038 108.872C20.0312 108.119 19.689 107.356 19.3511 106.589C19.0132 105.823 18.6926 105.052 18.3634 104.28C18.0515 103.501 17.7309 102.73 17.432 101.95C17.1288 101.17 16.8342 100.386 16.5613 99.5932V99.5889Z" fill="url(#paint8_linear_785_9964)"/>
<path opacity="0.1" d="M18.6233 100.91C17.9778 100.074 17.2414 99.2727 16.1627 98.6143C16.1237 98.7745 16.0934 98.9305 16.0631 99.0864C16.7086 99.6063 17.2197 100.187 17.6789 100.785C18.3114 101.629 18.8139 102.526 19.1995 103.47C19.5893 104.415 19.8666 105.403 20.0182 106.447C20.1352 107.356 20.1828 108.296 20.0009 109.332C20.2608 109.54 20.538 109.743 20.8456 109.934C21.1402 108.708 21.0925 107.62 20.9583 106.572C20.8066 105.528 20.5294 104.54 20.1395 103.596C19.7496 102.652 19.2471 101.755 18.619 100.91H18.6233Z" fill="url(#paint9_linear_785_9964)"/>
<path d="M23.0939 113.175C22.4138 112.113 22.1019 111.074 21.8853 110.038C21.686 109.003 21.621 107.976 21.6817 106.958C21.738 105.94 21.9199 104.926 22.2405 103.921C22.5784 102.921 23.0073 101.92 23.813 100.945C24.4975 102.007 24.8094 103.051 25.0303 104.086C25.2296 105.121 25.2946 106.148 25.2296 107.166C25.169 108.184 24.987 109.198 24.6664 110.203C24.3285 111.204 23.8997 112.204 23.0983 113.179L23.0939 113.175Z" fill="url(#paint10_linear_785_9964)"/>
<path d="M23.7524 101.998C23.7567 102.838 23.7351 103.675 23.7047 104.511C23.6787 105.347 23.6268 106.183 23.5878 107.019C23.5271 107.855 23.4795 108.691 23.4102 109.523C23.3408 110.359 23.2672 111.191 23.1632 112.022C23.1589 111.182 23.1806 110.346 23.2109 109.51C23.2369 108.674 23.2889 107.838 23.3279 107.002C23.3885 106.165 23.4362 105.329 23.5055 104.498C23.5748 103.662 23.6484 102.83 23.7524 101.998Z" fill="url(#paint11_linear_785_9964)"/>
<path opacity="0.1" d="M25.026 104.086C24.8094 103.051 24.4975 102.011 23.8087 100.945C23.7047 101.071 23.6051 101.201 23.5141 101.327C23.8693 102.076 24.073 102.821 24.2289 103.558C24.4282 104.593 24.4932 105.62 24.4282 106.638C24.3675 107.656 24.1856 108.669 23.865 109.674C23.5704 110.545 23.2066 111.411 22.5914 112.265C22.7344 112.568 22.8947 112.871 23.0896 113.175C23.891 112.2 24.3199 111.204 24.6578 110.198C24.9783 109.193 25.1603 108.184 25.2209 107.162C25.2816 106.144 25.2209 105.117 25.0217 104.082L25.026 104.086Z" fill="url(#paint12_linear_785_9964)"/>
<path d="M23.0205 112.968C21.8552 113.453 20.7765 113.574 19.7195 113.609C18.6668 113.622 17.6445 113.505 16.6525 113.271C15.6604 113.037 14.6944 112.677 13.763 112.188C12.836 111.681 11.9306 111.079 11.1118 110.117C12.2771 109.628 13.3601 109.502 14.4171 109.472C15.4698 109.459 16.4922 109.576 17.4842 109.818C18.4762 110.056 19.4423 110.416 20.3736 110.906C21.3007 111.412 22.2061 112.015 23.0292 112.972L23.0205 112.968Z" fill="url(#paint13_linear_785_9964)"/>
<path d="M12.134 110.359C12.9614 110.502 13.7801 110.671 14.5989 110.849C15.4176 111.022 16.232 111.221 17.0465 111.403C17.8565 111.607 18.671 111.802 19.481 112.019C20.2911 112.235 21.0969 112.452 21.8983 112.703C21.0709 112.56 20.2521 112.391 19.4334 112.218C18.6146 112.045 17.8002 111.845 16.9858 111.663C16.1757 111.46 15.3613 111.265 14.5512 111.048C13.7411 110.832 12.9354 110.615 12.134 110.364V110.359Z" fill="url(#paint14_linear_785_9964)"/>
<path opacity="0.1" d="M14.4083 109.467C13.3512 109.497 12.2726 109.623 11.1029 110.112C11.2112 110.238 11.3195 110.355 11.4278 110.472C12.2293 110.255 12.996 110.182 13.7498 110.16C14.8025 110.147 15.8248 110.264 16.8169 110.506C17.8089 110.745 18.7749 111.104 19.7063 111.594C20.5121 112.036 21.3005 112.547 22.0326 113.301C22.3532 113.214 22.6824 113.11 23.016 112.971C22.1972 112.014 21.2918 111.412 20.3604 110.905C19.4291 110.416 18.463 110.056 17.471 109.818C16.479 109.575 15.4566 109.458 14.4039 109.471L14.4083 109.467Z" fill="url(#paint15_linear_785_9964)"/>
<path d="M27.9414 118.555C27.101 117.61 26.6332 116.635 26.2519 115.643C25.8924 114.651 25.6671 113.651 25.5675 112.633C25.4635 111.619 25.4852 110.588 25.6411 109.548C25.8144 108.504 26.0873 107.452 26.7285 106.364C27.5732 107.304 28.0454 108.283 28.4223 109.271C28.7818 110.263 29.0071 111.264 29.1024 112.282C29.202 113.295 29.1804 114.326 29.0244 115.366C28.8468 116.41 28.5782 117.463 27.9414 118.55V118.555Z" fill="url(#paint16_linear_785_9964)"/>
<path d="M26.8324 107.412C26.971 108.24 27.075 109.071 27.179 109.903C27.283 110.735 27.3653 111.566 27.4562 112.398C27.5299 113.234 27.6122 114.066 27.6772 114.902C27.7378 115.738 27.7985 116.574 27.8245 117.41C27.6858 116.583 27.5775 115.751 27.4736 114.919C27.3696 114.088 27.2873 113.256 27.1963 112.424C27.1227 111.588 27.0404 110.756 26.9797 109.92C26.9191 109.084 26.8584 108.248 26.8324 107.412Z" fill="url(#paint17_linear_785_9964)"/>
<path opacity="0.1" d="M28.4223 109.271C28.0454 108.283 27.5732 107.304 26.7285 106.364C26.6461 106.507 26.5682 106.646 26.4945 106.789C26.9624 107.473 27.283 108.175 27.5515 108.881C27.9111 109.873 28.132 110.874 28.2317 111.892C28.3313 112.906 28.3096 113.937 28.1537 114.976C28.0021 115.882 27.7768 116.796 27.3046 117.731C27.4909 118.009 27.6988 118.282 27.9414 118.55C28.5782 117.463 28.8468 116.41 29.0244 115.366C29.1804 114.326 29.202 113.295 29.1024 112.282C29.0028 111.264 28.7818 110.263 28.4223 109.271Z" fill="url(#paint18_linear_785_9964)"/>
<path d="M27.8331 118.359C26.7588 119.022 25.7104 119.312 24.6708 119.511C23.6311 119.693 22.6044 119.737 21.5864 119.659C20.5684 119.581 19.559 119.382 18.5626 119.044C17.5663 118.688 16.5786 118.238 15.6169 117.415C16.6912 116.748 17.7396 116.457 18.7792 116.258C19.8189 116.076 20.8456 116.033 21.8636 116.115C22.8816 116.193 23.891 116.397 24.8874 116.735C25.8837 117.09 26.8714 117.54 27.8331 118.359Z" fill="url(#paint19_linear_785_9964)"/>
<path d="M16.6739 117.493C17.5143 117.506 18.3504 117.545 19.1864 117.588C20.0225 117.632 20.8586 117.697 21.6947 117.753C22.5264 117.827 23.3625 117.892 24.1986 117.978C25.0303 118.065 25.8664 118.156 26.6938 118.273C25.8534 118.264 25.0173 118.221 24.1812 118.178C23.3452 118.134 22.5091 118.069 21.673 118.013C20.8413 117.939 20.0052 117.874 19.1691 117.788C18.3374 117.701 17.5013 117.61 16.6739 117.493Z" fill="url(#paint20_linear_785_9964)"/>
<path opacity="0.1" d="M18.7837 116.254C17.744 116.453 16.7 116.743 15.6213 117.41C15.7469 117.519 15.8726 117.618 15.9982 117.714C16.7563 117.376 17.5014 117.181 18.2465 117.042C19.2862 116.86 20.3129 116.817 21.3309 116.899C22.3489 116.977 23.3583 117.181 24.3546 117.519C25.221 117.826 26.0788 118.208 26.9192 118.84C27.2224 118.706 27.53 118.55 27.8376 118.359C26.8759 117.54 25.8882 117.09 24.8918 116.735C23.8954 116.397 22.8861 116.193 21.8681 116.115C20.85 116.033 19.8234 116.076 18.7837 116.258V116.254Z" fill="url(#paint21_linear_785_9964)"/>
<path d="M33.742 123.593C32.763 122.796 32.1435 121.903 31.6107 120.989C31.0995 120.071 30.7183 119.113 30.454 118.126C30.1898 117.138 30.0468 116.12 30.0381 115.067C30.0425 114.01 30.1421 112.927 30.6056 111.749C31.589 112.546 32.2128 113.434 32.7413 114.353C33.2525 115.271 33.6337 116.228 33.8936 117.216C34.1536 118.204 34.2965 119.222 34.3052 120.274C34.2965 121.331 34.2012 122.414 33.7463 123.593H33.742Z" fill="url(#paint22_linear_785_9964)"/>
<path d="M30.8742 112.771C31.1428 113.569 31.3811 114.37 31.615 115.176C31.8489 115.981 32.0612 116.787 32.2864 117.597C32.49 118.407 32.7066 119.218 32.9016 120.032C33.0965 120.846 33.2871 121.661 33.4474 122.484C33.1788 121.687 32.9406 120.885 32.7067 120.08C32.4727 119.274 32.2605 118.468 32.0352 117.658C31.8316 116.848 31.615 116.038 31.42 115.223C31.2251 114.409 31.0345 113.595 30.8742 112.771Z" fill="url(#paint23_linear_785_9964)"/>
<path opacity="0.1" d="M32.737 114.353C32.2085 113.439 31.5847 112.546 30.6013 111.749C30.5406 111.901 30.4887 112.052 30.441 112.204C31.0128 112.806 31.4417 113.447 31.8186 114.101C32.3298 115.02 32.711 115.977 32.9709 116.965C33.2308 117.952 33.3738 118.97 33.3824 120.023C33.3738 120.942 33.3001 121.877 32.9839 122.882C33.2135 123.125 33.4604 123.363 33.742 123.593C34.1969 122.414 34.2965 121.336 34.3008 120.274C34.2922 119.222 34.1492 118.204 33.8893 117.216C33.6294 116.228 33.2525 115.275 32.737 114.353Z" fill="url(#paint24_linear_785_9964)"/>
<path d="M33.6034 123.415C32.646 124.238 31.6626 124.693 30.6663 125.053C29.6699 125.395 28.6649 125.603 27.6469 125.689C26.6289 125.776 25.6022 125.737 24.5625 125.564C23.5228 125.373 22.4745 125.083 21.3958 124.425C22.3532 123.597 23.3365 123.142 24.3329 122.778C25.3293 122.436 26.3343 122.228 27.3523 122.146C28.3703 122.064 29.397 122.103 30.4367 122.276C31.4764 122.471 32.5247 122.757 33.6034 123.411V123.415Z" fill="url(#paint25_linear_785_9964)"/>
<path d="M22.4485 124.338C23.2802 124.216 24.112 124.121 24.9437 124.03C25.7754 123.939 26.6115 123.874 27.4433 123.792C28.2793 123.731 29.1111 123.662 29.9472 123.614C30.7832 123.567 31.6193 123.523 32.4597 123.506C31.628 123.627 30.7962 123.722 29.9645 123.813C29.1328 123.904 28.2967 123.969 27.4649 124.052C26.6289 124.108 25.7971 124.182 24.961 124.229C24.125 124.277 23.2889 124.32 22.4485 124.338Z" fill="url(#paint26_linear_785_9964)"/>
<path opacity="0.1" d="M24.3329 122.783C23.3365 123.143 22.3532 123.598 21.3958 124.429C21.5344 124.516 21.6774 124.594 21.816 124.668C22.5091 124.213 23.2152 123.901 23.9257 123.645C24.9221 123.303 25.9271 123.095 26.9451 123.013C27.9631 122.931 28.9898 122.97 30.0295 123.143C30.9349 123.312 31.8403 123.55 32.7717 124.04C33.0489 123.858 33.3261 123.654 33.6034 123.416C32.5247 122.762 31.4764 122.476 30.4367 122.281C29.397 122.107 28.3703 122.068 27.3523 122.151C26.3343 122.233 25.3293 122.437 24.3329 122.783Z" fill="url(#paint27_linear_785_9964)"/>
<path d="M40.9764 127.769C39.8631 127.175 39.0833 126.417 38.3859 125.62C37.7058 124.814 37.1513 123.952 36.7007 123.034C36.2502 122.115 35.9167 121.145 35.7044 120.114C35.5094 119.074 35.3968 117.991 35.6221 116.748C36.7397 117.342 37.5195 118.095 38.2169 118.892C38.8971 119.698 39.4516 120.56 39.8978 121.483C40.344 122.401 40.6775 123.376 40.8898 124.407C41.0847 125.447 41.1974 126.525 40.9764 127.769Z" fill="url(#paint28_linear_785_9964)"/>
<path d="M36.0899 117.696C36.5058 118.424 36.8914 119.169 37.2769 119.91C37.6624 120.655 38.0263 121.409 38.4032 122.158C38.7584 122.916 39.1267 123.67 39.4732 124.433C39.8198 125.195 40.162 125.957 40.4783 126.737C40.0624 126.009 39.6768 125.264 39.2913 124.524C38.9057 123.778 38.5418 123.025 38.1693 122.275C37.8141 121.517 37.4458 120.763 37.0993 120.001C36.7527 119.238 36.4105 118.476 36.0943 117.696H36.0899Z" fill="url(#paint29_linear_785_9964)"/>
<path opacity="0.1" d="M38.2213 118.892C37.5282 118.095 36.7441 117.342 35.6264 116.748C35.5961 116.908 35.5744 117.069 35.5571 117.225C36.2329 117.705 36.7744 118.256 37.2726 118.823C37.9527 119.629 38.5072 120.491 38.9534 121.414C39.3996 122.332 39.7332 123.302 39.9454 124.338C40.1144 125.239 40.2227 126.174 40.1014 127.219C40.37 127.413 40.6602 127.6 40.9808 127.769C41.2017 126.525 41.0891 125.447 40.8941 124.407C40.6819 123.376 40.3483 122.401 39.9021 121.483C39.4602 120.565 38.9014 119.698 38.2213 118.892Z" fill="url(#paint30_linear_785_9964)"/>
<path d="M40.8075 127.621C40.0277 128.613 39.144 129.25 38.2386 129.792C37.3289 130.32 36.3802 130.714 35.3968 130.996C34.4134 131.278 33.3998 131.438 32.3471 131.464C31.2901 131.472 30.2071 131.394 29.0201 130.953C29.7999 129.956 30.6793 129.319 31.589 128.778C32.4987 128.249 33.4517 127.855 34.4308 127.582C35.4141 127.305 36.4278 127.149 37.4805 127.119C38.5375 127.11 39.6205 127.188 40.8075 127.626V127.621Z" fill="url(#paint31_linear_785_9964)"/>
<path d="M30.0381 130.667C30.8309 130.385 31.628 130.134 32.4294 129.887C33.2308 129.64 34.0366 129.415 34.838 129.176C35.6481 128.96 36.4538 128.73 37.2639 128.522C38.074 128.314 38.8884 128.111 39.7072 127.938C38.9144 128.219 38.1173 128.47 37.3159 128.717C36.5145 128.964 35.7087 129.194 34.9073 129.428C34.0972 129.644 33.2914 129.874 32.4814 130.082C31.6713 130.29 30.8569 130.493 30.0381 130.667Z" fill="url(#paint32_linear_785_9964)"/>
<path opacity="0.1" d="M31.589 128.778C30.6836 129.324 29.7999 129.961 29.0201 130.953C29.176 131.009 29.3277 131.061 29.4793 131.109C30.0728 130.528 30.7052 130.091 31.355 129.701C32.2648 129.172 33.2178 128.778 34.1968 128.505C35.1802 128.228 36.1939 128.072 37.2466 128.042C38.165 128.033 39.105 128.093 40.11 128.397C40.3483 128.163 40.5822 127.912 40.8075 127.626C39.6248 127.188 38.5418 127.11 37.4805 127.119C36.4278 127.145 35.4098 127.305 34.4308 127.582C33.4474 127.855 32.4987 128.254 31.589 128.778Z" fill="url(#paint33_linear_785_9964)"/>
<path d="M47.8037 130.319C46.647 129.808 45.8153 129.115 45.0615 128.374C44.3251 127.621 43.7056 126.802 43.1901 125.922C42.6746 125.043 42.2674 124.099 41.9771 123.085C41.7042 122.063 41.5136 120.993 41.6436 119.736C42.8002 120.243 43.6363 120.936 44.3901 121.681C45.1265 122.435 45.746 123.254 46.2571 124.138C46.7683 125.021 47.1755 125.966 47.4658 126.979C47.7387 128.002 47.9293 129.072 47.8037 130.328V130.319Z" fill="url(#paint34_linear_785_9964)"/>
<path d="M42.1764 120.642C42.6443 121.339 43.0861 122.05 43.528 122.764C43.9655 123.479 44.3857 124.203 44.8189 124.922C45.2305 125.649 45.655 126.373 46.0579 127.109C46.4607 127.846 46.8593 128.578 47.2318 129.332C46.764 128.634 46.3221 127.924 45.8803 127.213C45.4427 126.498 45.0225 125.775 44.5893 125.056C44.1778 124.328 43.7532 123.605 43.3547 122.868C42.9518 122.136 42.5533 121.4 42.1764 120.646V120.642Z" fill="url(#paint35_linear_785_9964)"/>
<path opacity="0.1" d="M44.3902 121.677C43.6364 120.937 42.8004 120.239 41.6437 119.732C41.6264 119.897 41.6134 120.057 41.6091 120.213C42.3195 120.642 42.9 121.149 43.4372 121.677C44.1736 122.427 44.7931 123.25 45.3043 124.134C45.8154 125.017 46.2226 125.962 46.5129 126.976C46.7512 127.864 46.9244 128.786 46.8854 129.835C47.1714 130.008 47.4703 130.173 47.8038 130.316C47.9338 129.059 47.7389 127.989 47.4659 126.967C47.1757 125.953 46.7728 125.009 46.2573 124.125C45.7461 123.241 45.1267 122.423 44.3902 121.669V121.677Z" fill="url(#paint36_linear_785_9964)"/>
<path d="M47.6261 130.186C46.9199 131.234 46.0925 131.931 45.2261 132.542C44.3554 133.136 43.4413 133.604 42.4796 133.955C41.5223 134.31 40.5216 134.544 39.4732 134.648C38.4205 134.739 37.3332 134.739 36.1159 134.388C36.8177 133.335 37.6495 132.638 38.5115 132.027C39.3823 131.433 40.2963 130.965 41.258 130.619C42.2154 130.268 43.2204 130.034 44.2644 129.93C45.3171 129.839 46.4044 129.839 47.6174 130.186H47.6261Z" fill="url(#paint37_linear_785_9964)"/>
<path d="M37.1123 134.028C37.879 133.69 38.6588 133.379 39.4386 133.071C40.2183 132.763 41.0068 132.477 41.7865 132.179C42.5749 131.901 43.3634 131.611 44.1561 131.347C44.9489 131.078 45.746 130.814 46.5517 130.58C45.785 130.918 45.0052 131.23 44.2254 131.537C43.4457 131.845 42.6616 132.131 41.8775 132.43C41.0891 132.707 40.3006 132.997 39.5079 133.262C38.7151 133.53 37.918 133.794 37.1123 134.028Z" fill="url(#paint38_linear_785_9964)"/>
<path opacity="0.1" d="M38.516 132.027C37.6539 132.638 36.8222 133.34 36.1204 134.388C36.2807 134.436 36.4366 134.475 36.5882 134.51C37.1384 133.886 37.7362 133.401 38.3513 132.967C39.2221 132.374 40.1361 131.906 41.0978 131.559C42.0552 131.209 43.0602 130.975 44.1043 130.871C45.0183 130.793 45.9584 130.784 46.985 131.009C47.206 130.758 47.4182 130.489 47.6218 130.191C46.4089 129.844 45.3215 129.844 44.2689 129.935C43.2205 130.043 42.2198 130.277 41.2625 130.624C40.3008 130.97 39.3867 131.438 38.516 132.032V132.027Z" fill="url(#paint39_linear_785_9964)"/>
<path d="M56.5371 131.447C55.2982 131.196 54.3364 130.697 53.4397 130.13C52.5603 129.554 51.7762 128.887 51.0874 128.133C50.3943 127.383 49.7965 126.547 49.2983 125.62C48.8131 124.68 48.3973 123.675 48.2586 122.419C49.4976 122.666 50.4636 123.168 51.3604 123.732C52.2441 124.308 53.0238 124.979 53.7083 125.733C54.3971 126.487 54.9949 127.323 55.4974 128.25C55.9826 129.19 56.3985 130.195 56.5414 131.447H56.5371Z" fill="url(#paint40_linear_785_9964)"/>
<path d="M48.969 123.203C49.5755 123.784 50.1603 124.381 50.7408 124.988C51.3213 125.59 51.8887 126.21 52.4606 126.816C53.0194 127.44 53.5869 128.055 54.1371 128.687C54.6872 129.32 55.2331 129.952 55.7616 130.607C55.1551 130.026 54.5703 129.428 53.9898 128.826C53.4093 128.224 52.8418 127.604 52.27 126.998C51.7111 126.374 51.1436 125.759 50.5935 125.127C50.0433 124.494 49.4975 123.862 48.969 123.207V123.203Z" fill="url(#paint41_linear_785_9964)"/>
<path opacity="0.1" d="M51.3559 123.735C50.4635 123.172 49.4975 122.67 48.2542 122.423C48.2715 122.587 48.2975 122.748 48.3235 122.899C49.1076 123.168 49.7877 123.536 50.4245 123.939C51.3083 124.515 52.088 125.187 52.7725 125.94C53.4613 126.694 54.0591 127.53 54.5616 128.457C54.9818 129.272 55.35 130.138 55.5363 131.173C55.8525 131.282 56.1818 131.377 56.537 131.446C56.394 130.194 55.9782 129.189 55.493 128.249C54.9948 127.322 54.397 126.486 53.7039 125.732C53.0151 124.979 52.2353 124.307 51.3559 123.731V123.735Z" fill="url(#paint42_linear_785_9964)"/>
<path d="M56.3334 131.36C55.8699 132.534 55.2071 133.396 54.4966 134.176C53.7732 134.942 52.9804 135.592 52.1184 136.142C51.2563 136.693 50.3292 137.134 49.3285 137.464C48.3192 137.776 47.2578 138.009 45.9929 137.927C46.4564 136.749 47.1149 135.887 47.8297 135.107C48.5531 134.34 49.3459 133.69 50.2123 133.145C51.0743 132.599 52.0014 132.157 53.0021 131.828C54.0114 131.516 55.0728 131.282 56.3334 131.36Z" fill="url(#paint43_linear_785_9964)"/>
<path d="M46.8853 137.359C47.5611 136.865 48.2542 136.393 48.9517 135.93C49.6448 135.462 50.3552 135.016 51.057 134.556C51.7675 134.115 52.4736 133.668 53.1927 133.235C53.9118 132.802 54.6309 132.377 55.3674 131.975C54.6916 132.468 53.9985 132.941 53.301 133.404C52.6036 133.872 51.8974 134.318 51.1957 134.777C50.4852 135.215 49.7791 135.67 49.06 136.099C48.3409 136.532 47.6217 136.956 46.8853 137.359Z" fill="url(#paint44_linear_785_9964)"/>
<path opacity="0.1" d="M47.8297 135.103C47.1149 135.882 46.4564 136.745 45.9929 137.923C46.1575 137.931 46.3178 137.94 46.4781 137.94C46.881 137.212 47.3618 136.61 47.873 136.056C48.5964 135.289 49.3892 134.639 50.2556 134.093C51.1177 133.548 52.0447 133.106 53.0454 132.776C53.9248 132.503 54.8389 132.296 55.8915 132.296C56.0518 132.005 56.2034 131.698 56.3377 131.36C55.0771 131.282 54.0158 131.516 53.0064 131.828C52.0057 132.157 51.0787 132.599 50.2166 133.145C49.3545 133.69 48.5574 134.34 47.834 135.107L47.8297 135.103Z" fill="url(#paint45_linear_785_9964)"/>
<path d="M156.372 133.907C155.515 134.791 154.557 135.592 153.6 136.363C151.204 138.295 148.627 139.993 145.924 141.462C142.228 143.463 138.282 145.001 134.184 145.937C129.284 147.054 124.194 147.271 119.225 146.522C113.074 145.599 107.23 143.229 101.945 139.989C101.178 139.517 100.42 139.027 99.6751 138.52C99.4412 138.364 99.7184 138.027 99.948 138.183C105.246 141.769 111.146 144.525 117.445 145.768C122.431 146.756 127.569 146.769 132.559 145.829C136.74 145.04 140.786 143.602 144.576 141.678C147.431 140.227 150.152 138.503 152.682 136.536C153.838 135.635 154.951 134.617 155.991 133.677C156.008 133.664 156.021 133.647 156.034 133.634C156.229 133.435 156.567 133.708 156.372 133.907Z" fill="url(#paint46_linear_785_9964)"/>
<path d="M152.803 136.991C154.042 136.753 155.012 136.263 155.913 135.709C156.801 135.141 157.59 134.483 158.287 133.738C158.989 132.997 159.596 132.165 160.107 131.247C160.605 130.311 161.029 129.315 161.185 128.059C159.942 128.293 158.972 128.782 158.071 129.337C157.183 129.904 156.394 130.562 155.697 131.312C154.999 132.057 154.393 132.884 153.882 133.807C153.388 134.743 152.959 135.739 152.803 136.991Z" fill="url(#paint47_linear_785_9964)"/>
<path d="M160.462 128.83C159.851 129.402 159.258 129.995 158.668 130.593C158.079 131.191 157.507 131.802 156.927 132.404C156.359 133.023 155.788 133.63 155.229 134.258C154.67 134.882 154.115 135.51 153.583 136.16C154.193 135.588 154.787 134.995 155.376 134.397C155.965 133.799 156.537 133.188 157.117 132.586C157.681 131.966 158.257 131.36 158.816 130.732C159.374 130.108 159.929 129.48 160.462 128.83Z" fill="url(#paint48_linear_785_9964)"/>
<path opacity="0.1" d="M158.071 129.337C158.972 128.782 159.942 128.293 161.185 128.059C161.164 128.223 161.142 128.379 161.112 128.535C160.323 128.795 159.643 129.155 158.998 129.553C158.11 130.121 157.321 130.779 156.624 131.529C155.926 132.274 155.32 133.101 154.809 134.024C154.38 134.834 153.998 135.696 153.804 136.727C153.487 136.831 153.158 136.922 152.798 136.991C152.954 135.739 153.383 134.739 153.877 133.807C154.388 132.884 154.995 132.057 155.692 131.312C156.39 130.567 157.178 129.904 158.066 129.337H158.071Z" fill="url(#paint49_linear_785_9964)"/>
<path d="M149.554 139.231C150.568 138.477 151.226 137.615 151.793 136.723C152.344 135.826 152.768 134.886 153.071 133.916C153.379 132.941 153.565 131.932 153.622 130.879C153.661 129.822 153.609 128.735 153.201 127.539C152.183 128.293 151.525 129.155 150.957 130.047C150.407 130.944 149.983 131.884 149.684 132.859C149.381 133.833 149.194 134.843 149.138 135.896C149.099 136.953 149.151 138.04 149.554 139.235V139.231Z" fill="url(#paint50_linear_785_9964)"/>
<path d="M152.885 128.549C152.586 129.333 152.313 130.126 152.04 130.918C151.772 131.711 151.525 132.513 151.265 133.305C151.027 134.107 150.775 134.908 150.546 135.714C150.316 136.52 150.091 137.325 149.896 138.14C150.199 137.356 150.472 136.563 150.741 135.77C151.009 134.978 151.256 134.176 151.516 133.383C151.754 132.582 152.006 131.781 152.235 130.975C152.465 130.169 152.69 129.363 152.885 128.549Z" fill="url(#paint51_linear_785_9964)"/>
<path opacity="0.1" d="M150.953 130.047C151.521 129.155 152.183 128.293 153.197 127.539C153.249 127.695 153.297 127.851 153.34 128.003C152.742 128.579 152.287 129.203 151.884 129.839C151.334 130.736 150.91 131.676 150.611 132.651C150.308 133.626 150.121 134.635 150.065 135.688C150.03 136.606 150.065 137.546 150.342 138.56C150.104 138.794 149.844 139.019 149.554 139.235C149.151 138.04 149.099 136.957 149.138 135.9C149.194 134.847 149.381 133.838 149.684 132.863C149.983 131.888 150.407 130.948 150.957 130.052L150.953 130.047Z" fill="url(#paint52_linear_785_9964)"/>
<path d="M149.701 139.067C150.619 139.929 151.586 140.427 152.565 140.83C153.544 141.215 154.54 141.467 155.554 141.597C156.567 141.727 157.594 141.735 158.638 141.605C159.686 141.458 160.743 141.215 161.852 140.605C160.934 139.738 159.968 139.24 158.989 138.837C158.01 138.451 157.009 138.2 156 138.079C154.986 137.953 153.959 137.945 152.915 138.079C151.867 138.226 150.81 138.469 149.701 139.075V139.067Z" fill="url(#paint53_linear_785_9964)"/>
<path d="M160.804 140.466C159.981 140.306 159.154 140.176 158.326 140.05C157.499 139.925 156.667 139.821 155.84 139.704C155.008 139.608 154.176 139.504 153.344 139.418C152.513 139.335 151.677 139.253 150.84 139.201C151.664 139.361 152.491 139.491 153.318 139.617C154.146 139.743 154.977 139.847 155.805 139.964C156.637 140.059 157.468 140.163 158.3 140.25C159.132 140.332 159.968 140.414 160.804 140.466Z" fill="url(#paint54_linear_785_9964)"/>
<path opacity="0.1" d="M158.989 138.828C159.968 139.231 160.934 139.729 161.852 140.595C161.71 140.673 161.567 140.747 161.424 140.816C160.752 140.331 160.059 139.993 159.357 139.703C158.378 139.318 157.378 139.066 156.368 138.945C155.354 138.819 154.328 138.811 153.284 138.945C152.374 139.075 151.456 139.274 150.507 139.72C150.234 139.525 149.97 139.313 149.706 139.062C150.81 138.455 151.872 138.213 152.92 138.066C153.964 137.936 154.995 137.94 156.004 138.066C157.018 138.191 158.014 138.438 158.993 138.824L158.989 138.828Z" fill="url(#paint55_linear_785_9964)"/>
<path d="M143.121 142.553C144.238 141.969 145.027 141.219 145.729 140.426C146.413 139.625 146.976 138.767 147.431 137.853C147.886 136.939 148.228 135.969 148.449 134.942C148.653 133.902 148.774 132.824 148.557 131.576C147.435 132.161 146.647 132.91 145.945 133.699C145.261 134.5 144.698 135.358 144.247 136.276C143.797 137.19 143.454 138.161 143.233 139.192C143.03 140.232 142.909 141.31 143.121 142.553Z" fill="url(#paint56_linear_785_9964)"/>
<path d="M148.09 132.524C147.669 133.252 147.275 133.989 146.885 134.729C146.495 135.47 146.123 136.22 145.742 136.965C145.378 137.718 145.005 138.468 144.654 139.23C144.303 139.988 143.953 140.751 143.628 141.526C144.048 140.799 144.442 140.062 144.832 139.321C145.222 138.581 145.594 137.831 145.976 137.086C146.339 136.332 146.712 135.583 147.063 134.82C147.414 134.062 147.765 133.3 148.09 132.524Z" fill="url(#paint57_linear_785_9964)"/>
<path opacity="0.1" d="M145.945 133.704C146.647 132.911 147.436 132.162 148.558 131.581C148.584 131.741 148.61 131.902 148.627 132.058C147.947 132.534 147.401 133.076 146.898 133.643C146.214 134.445 145.651 135.302 145.2 136.221C144.75 137.135 144.407 138.105 144.187 139.136C144.009 140.037 143.896 140.973 144.009 142.017C143.736 142.207 143.446 142.394 143.125 142.558C142.913 141.315 143.034 140.236 143.238 139.197C143.459 138.166 143.801 137.195 144.252 136.281C144.702 135.367 145.265 134.505 145.95 133.704H145.945Z" fill="url(#paint58_linear_785_9964)"/>
<path d="M143.29 142.411C144.061 143.407 144.94 144.052 145.841 144.603C146.747 145.135 147.695 145.543 148.674 145.828C149.653 146.119 150.667 146.283 151.72 146.322C152.777 146.34 153.86 146.27 155.051 145.837C154.28 144.836 153.405 144.191 152.5 143.641C151.594 143.108 150.645 142.705 149.666 142.419C148.687 142.133 147.669 141.969 146.617 141.934C145.56 141.917 144.477 141.986 143.285 142.415L143.29 142.411Z" fill="url(#paint59_linear_785_9964)"/>
<path d="M154.037 145.542C153.249 145.257 152.452 144.997 151.655 144.745C150.858 144.49 150.052 144.26 149.251 144.013C148.445 143.788 147.639 143.554 146.829 143.342C146.019 143.13 145.209 142.917 144.39 142.735C145.178 143.021 145.976 143.281 146.773 143.532C147.57 143.788 148.376 144.018 149.177 144.265C149.983 144.49 150.788 144.724 151.599 144.936C152.409 145.148 153.219 145.361 154.037 145.542Z" fill="url(#paint60_linear_785_9964)"/>
<path opacity="0.1" d="M152.504 143.641C153.405 144.191 154.285 144.836 155.056 145.837C154.9 145.893 154.748 145.941 154.596 145.989C154.007 145.404 153.379 144.962 152.734 144.568C151.828 144.035 150.88 143.632 149.901 143.346C148.922 143.06 147.904 142.896 146.851 142.861C145.932 142.844 144.992 142.896 143.983 143.19C143.745 142.956 143.515 142.701 143.294 142.415C144.481 141.986 145.564 141.917 146.626 141.934C147.678 141.969 148.692 142.138 149.675 142.419C150.654 142.701 151.603 143.104 152.508 143.641H152.504Z" fill="url(#paint61_linear_785_9964)"/>
<path d="M135.917 145.222C137.112 144.824 138.009 144.209 138.828 143.537C139.634 142.857 140.327 142.099 140.92 141.267C141.514 140.44 142.007 139.534 142.389 138.555C142.757 137.563 143.047 136.515 143.03 135.25C141.83 135.649 140.933 136.264 140.114 136.931C139.309 137.611 138.615 138.369 138.026 139.205C137.433 140.037 136.943 140.938 136.562 141.921C136.194 142.913 135.904 143.962 135.917 145.222Z" fill="url(#paint62_linear_785_9964)"/>
<path d="M142.419 136.112C141.891 136.762 141.384 137.429 140.877 138.101C140.374 138.768 139.889 139.452 139.391 140.128C138.914 140.817 138.425 141.497 137.957 142.19C137.489 142.883 137.021 143.581 136.579 144.291C137.108 143.641 137.615 142.974 138.122 142.307C138.624 141.636 139.109 140.955 139.603 140.28C140.08 139.591 140.569 138.911 141.037 138.218C141.505 137.525 141.973 136.827 142.415 136.117L142.419 136.112Z" fill="url(#paint63_linear_785_9964)"/>
<path opacity="0.1" d="M140.119 136.936C140.938 136.264 141.834 135.653 143.034 135.255C143.034 135.419 143.034 135.58 143.026 135.74C142.281 136.104 141.652 136.55 141.068 137.031C140.262 137.711 139.569 138.469 138.98 139.305C138.386 140.137 137.897 141.038 137.515 142.021C137.199 142.884 136.935 143.785 136.883 144.837C136.584 144.985 136.268 145.119 135.926 145.231C135.913 143.971 136.207 142.923 136.571 141.931C136.952 140.947 137.446 140.046 138.035 139.214C138.624 138.383 139.317 137.62 140.123 136.94L140.119 136.936Z" fill="url(#paint64_linear_785_9964)"/>
<path d="M136.107 145.11C136.709 146.219 137.472 146.99 138.278 147.678C139.088 148.35 139.958 148.9 140.881 149.338C141.804 149.779 142.779 150.104 143.81 150.308C144.849 150.494 145.932 150.594 147.176 150.36C146.573 149.247 145.811 148.471 145.01 147.787C144.199 147.115 143.329 146.565 142.406 146.132C141.483 145.694 140.509 145.369 139.473 145.166C138.434 144.98 137.351 144.876 136.112 145.11H136.107Z" fill="url(#paint65_linear_785_9964)"/>
<path d="M146.218 149.909C145.486 149.502 144.741 149.121 143.992 148.739C143.246 148.362 142.488 148.003 141.735 147.635C140.972 147.284 140.218 146.924 139.452 146.586C138.685 146.248 137.918 145.911 137.138 145.599C137.87 146.006 138.616 146.387 139.365 146.768C140.114 147.145 140.868 147.505 141.622 147.873C142.384 148.224 143.138 148.583 143.905 148.921C144.672 149.264 145.438 149.597 146.218 149.909Z" fill="url(#paint66_linear_785_9964)"/>
<path opacity="0.1" d="M145.005 147.787C145.807 148.476 146.569 149.251 147.171 150.36C147.011 150.391 146.851 150.417 146.695 150.434C146.205 149.763 145.655 149.225 145.079 148.732C144.269 148.06 143.398 147.51 142.475 147.077C141.553 146.639 140.578 146.314 139.543 146.111C138.637 145.95 137.701 145.851 136.662 145.981C136.467 145.712 136.276 145.422 136.103 145.106C137.342 144.872 138.425 144.976 139.465 145.162C140.5 145.366 141.475 145.69 142.397 146.128C143.32 146.561 144.191 147.111 145.001 147.783L145.005 147.787Z" fill="url(#paint67_linear_785_9964)"/>
<path d="M127.673 146.578C128.925 146.413 129.921 145.985 130.853 145.482C131.771 144.971 132.598 144.356 133.339 143.654C134.084 142.952 134.738 142.164 135.302 141.271C135.852 140.37 136.337 139.396 136.567 138.152C135.31 138.313 134.314 138.741 133.383 139.244C132.464 139.755 131.637 140.37 130.896 141.072C130.155 141.774 129.501 142.567 128.938 143.455C128.388 144.36 127.903 145.33 127.673 146.569V146.578Z" fill="url(#paint68_linear_785_9964)"/>
<path d="M135.8 138.88C135.154 139.417 134.53 139.972 133.907 140.535C133.283 141.094 132.676 141.67 132.061 142.242C131.459 142.826 130.853 143.398 130.259 143.992C129.666 144.581 129.076 145.179 128.505 145.794C129.15 145.257 129.774 144.702 130.398 144.139C131.022 143.58 131.628 143.004 132.243 142.432C132.845 141.847 133.452 141.275 134.045 140.682C134.639 140.093 135.228 139.495 135.8 138.884V138.88Z" fill="url(#paint69_linear_785_9964)"/>
<path opacity="0.1" d="M133.382 139.244C134.314 138.741 135.31 138.313 136.566 138.152C136.536 138.313 136.501 138.473 136.462 138.625C135.661 138.837 134.959 139.157 134.292 139.517C133.374 140.028 132.546 140.643 131.806 141.345C131.065 142.047 130.411 142.84 129.848 143.728C129.371 144.512 128.942 145.348 128.687 146.37C128.366 146.457 128.028 146.526 127.669 146.574C127.898 145.335 128.383 144.36 128.933 143.459C129.497 142.567 130.151 141.778 130.892 141.076C131.632 140.37 132.455 139.76 133.378 139.248L133.382 139.244Z" fill="url(#paint70_linear_785_9964)"/>
<path d="M127.881 146.5C128.262 147.704 128.86 148.61 129.518 149.437C130.185 150.252 130.935 150.958 131.754 151.564C132.572 152.175 133.465 152.682 134.444 153.08C135.431 153.466 136.471 153.769 137.736 153.778C137.359 152.569 136.757 151.664 136.103 150.836C135.436 150.022 134.686 149.316 133.863 148.714C133.04 148.107 132.148 147.6 131.173 147.202C130.185 146.821 129.146 146.513 127.881 146.504V146.5Z" fill="url(#paint71_linear_785_9964)"/>
<path d="M136.887 153.15C136.246 152.609 135.587 152.093 134.925 151.578C134.262 151.062 133.59 150.568 132.923 150.061C132.243 149.572 131.572 149.074 130.883 148.593C130.198 148.112 129.51 147.636 128.804 147.181C129.445 147.722 130.103 148.238 130.766 148.753C131.429 149.269 132.1 149.763 132.767 150.269C133.447 150.759 134.119 151.257 134.808 151.738C135.492 152.219 136.181 152.695 136.887 153.15Z" fill="url(#paint72_linear_785_9964)"/>
<path opacity="0.1" d="M136.103 150.836C136.762 151.664 137.359 152.573 137.736 153.778C137.572 153.778 137.411 153.769 137.255 153.76C136.904 153.007 136.467 152.374 135.999 151.781C135.332 150.966 134.583 150.26 133.759 149.658C132.936 149.052 132.044 148.545 131.069 148.146C130.212 147.813 129.315 147.54 128.266 147.466C128.123 147.163 127.998 146.847 127.885 146.5C129.146 146.509 130.19 146.816 131.178 147.197C132.152 147.596 133.049 148.103 133.868 148.709C134.691 149.311 135.44 150.018 136.107 150.832L136.103 150.836Z" fill="url(#paint73_linear_785_9964)"/>
<path d="M120.387 146.557C121.647 146.488 122.674 146.133 123.64 145.704C124.597 145.262 125.464 144.712 126.256 144.071C127.049 143.43 127.764 142.689 128.392 141.844C129.007 140.986 129.566 140.051 129.887 138.829C128.622 138.894 127.595 139.249 126.629 139.678C125.672 140.12 124.805 140.67 124.012 141.316C123.22 141.961 122.509 142.702 121.881 143.547C121.266 144.409 120.707 145.34 120.387 146.557Z" fill="url(#paint74_linear_785_9964)"/>
<path d="M129.068 139.492C128.383 139.977 127.721 140.489 127.058 141C126.395 141.511 125.745 142.039 125.091 142.564C124.45 143.101 123.8 143.629 123.163 144.171C122.526 144.717 121.894 145.262 121.279 145.834C121.963 145.349 122.626 144.838 123.289 144.327C123.952 143.816 124.601 143.287 125.256 142.763C125.897 142.226 126.547 141.697 127.183 141.156C127.82 140.61 128.453 140.064 129.068 139.492Z" fill="url(#paint75_linear_785_9964)"/>
<path opacity="0.1" d="M126.629 139.673C127.595 139.244 128.622 138.889 129.887 138.824C129.843 138.985 129.8 139.136 129.748 139.288C128.933 139.439 128.21 139.708 127.517 140.016C126.56 140.457 125.693 141.008 124.9 141.653C124.108 142.298 123.397 143.039 122.769 143.884C122.236 144.629 121.742 145.435 121.413 146.431C121.084 146.492 120.746 146.54 120.382 146.557C120.707 145.335 121.261 144.404 121.877 143.546C122.505 142.701 123.22 141.961 124.008 141.315C124.796 140.67 125.667 140.119 126.625 139.678L126.629 139.673Z" fill="url(#paint76_linear_785_9964)"/>
<path d="M120.599 146.496C120.889 147.726 121.417 148.671 122.011 149.55C122.613 150.412 123.306 151.175 124.082 151.842C124.853 152.509 125.706 153.085 126.651 153.553C127.604 154.008 128.622 154.393 129.882 154.493C129.596 153.263 129.068 152.314 128.474 151.435C127.872 150.573 127.179 149.814 126.404 149.147C125.628 148.48 124.775 147.908 123.835 147.44C122.882 146.986 121.864 146.6 120.607 146.496H120.599Z" fill="url(#paint77_linear_785_9964)"/>
<path d="M129.081 153.8C128.483 153.211 127.863 152.648 127.244 152.084C126.625 151.521 125.988 150.975 125.36 150.421C124.718 149.884 124.086 149.334 123.436 148.805C122.786 148.277 122.137 147.748 121.469 147.241C122.067 147.83 122.687 148.394 123.306 148.957C123.926 149.52 124.562 150.066 125.191 150.62C125.832 151.157 126.464 151.708 127.114 152.236C127.764 152.765 128.414 153.293 129.081 153.8Z" fill="url(#paint78_linear_785_9964)"/>
<path opacity="0.1" d="M128.47 151.435C129.063 152.31 129.592 153.259 129.878 154.494C129.713 154.481 129.553 154.463 129.397 154.442C129.102 153.666 128.713 152.999 128.292 152.375C127.69 151.513 126.997 150.755 126.222 150.088C125.446 149.421 124.593 148.849 123.653 148.381C122.825 147.987 121.946 147.645 120.906 147.493C120.789 147.181 120.681 146.856 120.599 146.501C121.855 146.605 122.873 146.991 123.826 147.445C124.77 147.913 125.624 148.489 126.395 149.152C127.17 149.815 127.863 150.573 128.466 151.439L128.47 151.435Z" fill="url(#paint79_linear_785_9964)"/>
<path d="M111.813 144.529C113.061 144.733 114.14 144.603 115.175 144.391C116.202 144.161 117.172 143.815 118.082 143.355C118.996 142.896 119.849 142.329 120.646 141.636C121.43 140.929 122.176 140.137 122.752 139.01C121.504 138.802 120.425 138.932 119.39 139.145C118.363 139.374 117.397 139.725 116.488 140.184C115.578 140.644 114.72 141.215 113.927 141.909C113.143 142.619 112.398 143.407 111.822 144.529H111.813Z" fill="url(#paint80_linear_785_9964)"/>
<path d="M121.803 139.482C121.032 139.812 120.274 140.167 119.516 140.526C118.758 140.886 118.012 141.263 117.259 141.631C116.518 142.017 115.769 142.394 115.032 142.792C114.296 143.186 113.559 143.589 112.836 144.014C113.607 143.684 114.365 143.329 115.123 142.97C115.881 142.61 116.626 142.233 117.38 141.865C118.121 141.479 118.87 141.103 119.607 140.704C120.343 140.31 121.08 139.907 121.803 139.482Z" fill="url(#paint81_linear_785_9964)"/>
<path opacity="0.1" d="M119.386 139.14C120.421 138.928 121.5 138.802 122.747 139.006C122.674 139.153 122.596 139.291 122.513 139.43C121.682 139.404 120.919 139.508 120.178 139.664C119.152 139.894 118.186 140.245 117.276 140.704C116.366 141.163 115.509 141.735 114.716 142.428C114.031 143.043 113.382 143.723 112.844 144.624C112.511 144.616 112.169 144.585 111.813 144.529C112.39 143.407 113.135 142.614 113.919 141.908C114.711 141.215 115.569 140.647 116.479 140.184C117.389 139.72 118.355 139.369 119.381 139.144L119.386 139.14Z" fill="url(#paint82_linear_785_9964)"/>
<path d="M112.034 144.517C112.056 145.777 112.368 146.817 112.762 147.8C113.169 148.771 113.68 149.663 114.296 150.477C114.906 151.296 115.617 152.037 116.44 152.7C117.276 153.35 118.186 153.943 119.394 154.311C119.377 153.046 119.065 152.007 118.671 151.023C118.264 150.053 117.753 149.161 117.133 148.346C116.518 147.532 115.808 146.787 114.989 146.128C114.153 145.478 113.243 144.885 112.039 144.517H112.034Z" fill="url(#paint83_linear_785_9964)"/>
<path d="M118.758 153.466C118.298 152.764 117.813 152.08 117.328 151.4C116.843 150.715 116.336 150.048 115.842 149.372C115.331 148.71 114.828 148.038 114.309 147.384C113.789 146.726 113.265 146.071 112.719 145.435C113.178 146.136 113.659 146.821 114.148 147.505C114.634 148.185 115.136 148.857 115.634 149.533C116.145 150.195 116.648 150.867 117.168 151.521C117.688 152.179 118.212 152.834 118.758 153.47V153.466Z" fill="url(#paint84_linear_785_9964)"/>
<path opacity="0.1" d="M118.671 151.023C119.061 152.006 119.377 153.046 119.395 154.311C119.239 154.263 119.087 154.211 118.935 154.155C118.814 153.332 118.576 152.6 118.299 151.898C117.891 150.927 117.38 150.035 116.761 149.221C116.146 148.406 115.435 147.661 114.616 147.003C113.893 146.439 113.109 145.92 112.125 145.547C112.078 145.218 112.043 144.876 112.039 144.512C113.243 144.884 114.157 145.473 114.989 146.123C115.808 146.782 116.522 147.527 117.133 148.341C117.748 149.156 118.264 150.044 118.671 151.018V151.023Z" fill="url(#paint85_linear_785_9964)"/>
<path d="M116.336 22.877H47.1539C43.7613 22.877 41.0111 25.6272 41.0111 29.0197V151.061C41.0111 154.454 43.7613 157.204 47.1539 157.204H116.336C119.729 157.204 122.479 154.454 122.479 151.061V29.0197C122.479 25.6272 119.729 22.877 116.336 22.877Z" fill="url(#paint86_linear_785_9964)"/>
<path d="M97.9206 27.7803C97.2362 30.1932 90.2573 32.0906 81.7449 32.0906C73.2325 32.0906 66.258 30.1932 65.5692 27.7803H47.1539V143.549H116.332V27.7803H97.9163H97.9206Z" fill="#C2CEF2"/>
<path d="M107.377 48.4961H55.8482C55.0511 48.4961 54.4013 49.1502 54.4013 49.943V68.1634L60.1802 65.0184H107.382C108.179 65.0184 108.829 64.3642 108.829 63.5715V49.943C108.829 49.1459 108.174 48.4961 107.382 48.4961H107.377Z" fill="#B0C1EA"/>
<path d="M104.172 51.9268H59.0539V52.4076H104.172V51.9268Z" fill="#D2DDF9"/>
<path d="M104.172 56.7568H59.0539V57.2377H104.172V56.7568Z" fill="#D2DDF9"/>
<path d="M91.1151 61.5869H59.0539V62.0678H91.1151V61.5869Z" fill="#D2DDF9"/>
<path d="M59.4308 46.404C62.1463 46.404 64.3476 44.2026 64.3476 41.4871C64.3476 38.7717 62.1463 36.5703 59.4308 36.5703C56.7153 36.5703 54.514 38.7717 54.514 41.4871C54.514 44.2026 56.7153 46.404 59.4308 46.404Z" fill="#B0C1EA"/>
<mask id="mask0_785_9964" style="mask-type:luminance" maskUnits="userSpaceOnUse" x="54" y="36" width="11" height="11">
<path d="M59.4308 46.404C62.1463 46.404 64.3476 44.2026 64.3476 41.4871C64.3476 38.7717 62.1463 36.5703 59.4308 36.5703C56.7153 36.5703 54.514 38.7717 54.514 41.4871C54.514 44.2026 56.7153 46.404 59.4308 46.404Z" fill="white"/>
</mask>
<g mask="url(#mask0_785_9964)">
<path d="M59.4308 42.0589C60.1725 42.0589 60.7737 41.4576 60.7737 40.716C60.7737 39.9743 60.1725 39.373 59.4308 39.373C58.6891 39.373 58.0879 39.9743 58.0879 40.716C58.0879 41.4576 58.6891 42.0589 59.4308 42.0589Z" fill="#D2DDF9"/>
<path d="M59.4308 42.5615C57.9232 42.5615 56.7016 43.7832 56.7016 45.2907C56.7016 46.7982 57.9232 48.0199 59.4308 48.0199C60.9383 48.0199 62.1599 46.7982 62.1599 45.2907C62.1599 43.7832 60.9383 42.5615 59.4308 42.5615Z" fill="#D2DDF9"/>
</g>
<path d="M55.8482 82.3037H107.377C108.174 82.3037 108.824 82.9578 108.824 83.7506V101.971L103.045 98.826H55.8439C55.0468 98.826 54.397 98.1718 54.397 97.3791V83.7506C54.397 82.9535 55.0511 82.3037 55.8439 82.3037H55.8482Z" fill="#B0C1EA"/>
<path d="M104.172 85.7393H59.0539V86.2201H104.172V85.7393Z" fill="#D2DDF9"/>
<path d="M104.172 90.5654H59.0539V91.0463H104.172V90.5654Z" fill="#D2DDF9"/>
<path d="M104.172 95.3955H72.1105V95.8764H104.172V95.3955Z" fill="#D2DDF9"/>
<path d="M104.172 79.8473C106.887 79.8473 109.089 77.646 109.089 74.9305C109.089 72.215 106.887 70.0137 104.172 70.0137C101.456 70.0137 99.2549 72.215 99.2549 74.9305C99.2549 77.646 101.456 79.8473 104.172 79.8473Z" fill="#B0C1EA"/>
<mask id="mask1_785_9964" style="mask-type:luminance" maskUnits="userSpaceOnUse" x="99" y="70" width="11" height="10">
<path d="M104.172 79.8473C106.887 79.8473 109.089 77.646 109.089 74.9305C109.089 72.215 106.887 70.0137 104.172 70.0137C101.456 70.0137 99.2549 72.215 99.2549 74.9305C99.2549 77.646 101.456 79.8473 104.172 79.8473Z" fill="white"/>
</mask>
<g mask="url(#mask1_785_9964)">
<path d="M104.172 75.5062C104.912 75.5062 105.515 74.904 105.515 74.1632C105.515 73.4225 104.912 72.8203 104.172 72.8203C103.431 72.8203 102.829 73.4225 102.829 74.1632C102.829 74.904 103.431 75.5062 104.172 75.5062Z" fill="#D2DDF9"/>
<path d="M104.172 76.0088C102.664 76.0088 101.443 77.2304 101.443 78.738C101.443 80.2455 102.664 81.4671 104.172 81.4671C105.679 81.4671 106.901 80.2455 106.901 78.738C106.901 77.2304 105.679 76.0088 104.172 76.0088Z" fill="#D2DDF9"/>
</g>
<path d="M107.377 117.076H55.8482C55.0511 117.076 54.4013 117.73 54.4013 118.523V136.743L60.1802 133.598H107.382C108.179 133.598 108.829 132.944 108.829 132.152V118.523C108.829 117.726 108.174 117.076 107.382 117.076H107.377Z" fill="#B0C1EA"/>
<path d="M104.172 120.512H59.0539V120.993H104.172V120.512Z" fill="#D2DDF9"/>
<path d="M104.172 125.342H59.0539V125.823H104.172V125.342Z" fill="#D2DDF9"/>
<path d="M91.1151 130.172H59.0539V130.653H91.1151V130.172Z" fill="#D2DDF9"/>
<path d="M59.4308 114.339C62.1463 114.339 64.3476 112.137 64.3476 109.422C64.3476 106.706 62.1463 104.505 59.4308 104.505C56.7153 104.505 54.5139 106.706 54.5139 109.422C54.5139 112.137 56.7153 114.339 59.4308 114.339Z" fill="#B0C1EA"/>
<mask id="mask2_785_9964" style="mask-type:luminance" maskUnits="userSpaceOnUse" x="54" y="104" width="11" height="11">
<path d="M59.4308 114.339C62.1463 114.339 64.3476 112.137 64.3476 109.422C64.3476 106.706 62.1463 104.505 59.4308 104.505C56.7153 104.505 54.5139 106.706 54.5139 109.422C54.5139 112.137 56.7153 114.339 59.4308 114.339Z" fill="white"/>
</mask>
<g mask="url(#mask2_785_9964)">
<path d="M59.4308 109.998C60.1715 109.998 60.7737 109.396 60.7737 108.655C60.7737 107.915 60.1715 107.312 59.4308 107.312C58.69 107.312 58.0879 107.915 58.0879 108.655C58.0879 109.396 58.69 109.998 59.4308 109.998Z" fill="#D2DDF9"/>
<path d="M59.4308 110.497C57.9232 110.497 56.7016 111.719 56.7016 113.226C56.7016 114.734 57.9232 115.955 59.4308 115.955C60.9383 115.955 62.1599 114.734 62.1599 113.226C62.1599 111.719 60.9383 110.497 59.4308 110.497Z" fill="#D2DDF9"/>
</g>
<path d="M103.851 74.6785L97.3401 68.1719L81.7449 83.7671L66.1497 68.1719L59.6387 74.6785L75.2339 90.2738L59.6387 105.869L66.1497 112.38L81.7449 96.7848L97.3401 112.38L103.851 105.869L88.2559 90.2738L103.851 74.6785Z" fill="#0261AE"/>
<path d="M126.797 8C115.881 8 107 16.8806 107 27.7973C107 38.7139 115.881 47.5945 126.797 47.5945C137.714 47.5945 146.595 38.7139 146.595 27.7973C146.595 16.8806 137.714 8 126.797 8Z" fill="#FFCF74"/>
<path d="M126.797 14.1123C119.251 14.1123 113.112 20.2508 113.112 27.7971C113.112 35.3435 119.251 41.4819 126.797 41.4819C134.344 41.4819 140.482 35.3435 140.482 27.7971C140.482 20.2508 134.344 14.1123 126.797 14.1123ZM126.797 16.6942C129.396 16.6942 131.783 17.5952 133.681 19.0941L118.094 34.6807C116.595 32.7876 115.694 30.3963 115.694 27.7971C115.694 21.676 120.676 16.6898 126.802 16.6898L126.797 16.6942ZM126.797 38.9044C124.198 38.9044 121.811 38.0033 119.914 36.5044L135.5 20.9179C136.999 22.811 137.9 25.2022 137.9 27.8014C137.9 33.9269 132.918 38.9087 126.793 38.9087L126.797 38.9044Z" fill="white"/>
<path d="M42.9648 48.5319H41.0717C41.0241 48.3326 40.9764 48.1333 40.9201 47.9384L42.5576 46.9983C43.398 46.5175 43.6926 45.4345 43.2117 44.5984L43.0125 44.2519C42.5316 43.4114 41.4486 43.1169 40.6125 43.5977L38.9664 44.5421C38.8104 44.3732 38.6458 44.2085 38.4725 44.0483L39.4169 42.4021C39.8978 41.5617 39.6032 40.483 38.7628 40.0022L38.4162 39.8029C37.5758 39.322 36.4971 39.6166 36.0163 40.457L35.0762 42.0945C34.8813 42.0339 34.682 41.9862 34.4828 41.9429V40.0498C34.4828 39.0838 33.69 38.291 32.724 38.291H32.3254C31.3594 38.291 30.5666 39.0838 30.5666 40.0498V41.9429C30.3674 41.9906 30.1681 42.0382 29.9731 42.0945L29.0331 40.457C28.5522 39.6166 27.4692 39.322 26.6332 39.8029L26.2866 40.0022C25.4462 40.483 25.1516 41.566 25.6325 42.4021L26.5769 44.0483C26.4079 44.2042 26.2433 44.3688 26.083 44.5421L24.4368 43.5977C23.5964 43.1169 22.5178 43.4114 22.0369 44.2519L21.8376 44.5984C21.3568 45.4388 21.6514 46.5175 22.4918 46.9983L24.1293 47.9384C24.0686 48.1333 24.021 48.3326 23.9776 48.5319H22.0846C21.1185 48.5319 20.3258 49.3246 20.3258 50.2907V50.6892C20.3258 51.6553 21.1185 52.448 22.0846 52.448H23.9776C24.0253 52.6473 24.073 52.8466 24.1293 53.0415L22.4918 53.9815C21.6514 54.4624 21.3568 55.5454 21.8376 56.3815L22.0369 56.728C22.5178 57.5684 23.6008 57.863 24.4368 57.3822L26.083 56.4378C26.239 56.6067 26.4036 56.7713 26.5769 56.9316L25.6325 58.5778C25.1516 59.4182 25.4462 60.4969 26.2866 60.9777L26.6332 61.177C27.4736 61.6579 28.5522 61.3633 29.0331 60.5229L29.9731 58.8854C30.1681 58.946 30.3674 58.9937 30.5666 59.037V60.9301C30.5666 61.8961 31.3594 62.6889 32.3254 62.6889H32.724C33.69 62.6889 34.4828 61.8961 34.4828 60.9301V59.037C34.682 58.9893 34.8813 58.9417 35.0762 58.8854L36.0163 60.5229C36.4971 61.3633 37.5801 61.6579 38.4162 61.177L38.7628 60.9777C39.6032 60.4969 39.8978 59.4139 39.4169 58.5778L38.4725 56.9316C38.6415 56.7757 38.8061 56.6111 38.9664 56.4378L40.6125 57.3822C41.453 57.863 42.5316 57.5684 43.0125 56.728L43.2117 56.3815C43.6926 55.5411 43.398 54.4624 42.5576 53.9815L40.9201 53.0415C40.9808 52.8466 41.0284 52.6473 41.0717 52.448H42.9648C43.9309 52.448 44.7236 51.6553 44.7236 50.6892V50.2907C44.7236 49.3246 43.9309 48.5319 42.9648 48.5319ZM32.5247 56.5331C29.189 56.5331 26.4859 53.8299 26.4859 50.4943C26.4859 47.1586 29.189 44.4555 32.5247 44.4555C35.8603 44.4555 38.5635 47.1586 38.5635 50.4943C38.5635 53.8299 35.8603 56.5331 32.5247 56.5331Z" fill="#F9AB43"/>
<path d="M28.5956 27.764L27.3436 28.0499C27.283 27.9243 27.2223 27.7986 27.153 27.6817L28.093 26.8153C28.5739 26.3734 28.6086 25.611 28.1624 25.1301L27.9804 24.9308C27.5386 24.45 26.7804 24.4153 26.2953 24.8615L25.3509 25.7323C25.2209 25.6413 25.0866 25.559 24.9523 25.481L25.3292 24.2507C25.5198 23.6226 25.1646 22.9555 24.5365 22.7605L24.2766 22.6825C23.6484 22.4919 22.9813 22.8472 22.7863 23.4753L22.4138 24.6969C22.2752 24.6883 22.1365 24.6839 21.9979 24.6839L21.712 23.432C21.5647 22.7908 20.9236 22.388 20.2868 22.5353L20.0225 22.5959C19.3814 22.7432 18.9785 23.3843 19.1258 24.0211L19.4117 25.2731C19.2861 25.3337 19.1648 25.3944 19.0435 25.4637L18.1771 24.5236C17.7352 24.0428 16.9771 24.0081 16.4919 24.4543L16.2927 24.6363C15.8118 25.0781 15.7772 25.8362 16.2234 26.3214L17.0941 27.2658C17.0031 27.3958 16.9208 27.5301 16.8428 27.6643L15.6125 27.2875C14.9844 27.0969 14.3173 27.4521 14.1223 28.0802L14.0444 28.3401C13.8537 28.9683 14.209 29.6354 14.8371 29.8303L16.0587 30.2029C16.0501 30.3415 16.0457 30.4801 16.0457 30.6188L14.7938 30.9047C14.1527 31.052 13.7498 31.6931 13.8971 32.3299L13.9577 32.5942C14.105 33.2353 14.7461 33.6382 15.3829 33.4909L16.6349 33.205C16.6955 33.3306 16.7562 33.4562 16.8255 33.5732L15.8855 34.4396C15.4046 34.8815 15.3699 35.6396 15.8161 36.1247L15.9981 36.324C16.44 36.8049 17.1981 36.8395 17.6832 36.3933L18.6276 35.5226C18.7576 35.6136 18.8919 35.6959 19.0262 35.7739L18.6493 37.0041C18.4587 37.6323 18.8139 38.2994 19.442 38.4944L19.702 38.5723C20.3301 38.7629 20.9972 38.4077 21.1922 37.7796L21.5647 36.5579C21.7033 36.5666 21.842 36.5709 21.9806 36.5709L22.2665 37.8229C22.4138 38.464 23.0549 38.8669 23.6917 38.7196L23.956 38.659C24.5971 38.5117 25 37.8705 24.8527 37.2337L24.5668 35.9818C24.6924 35.9211 24.8181 35.8605 24.935 35.7912L25.8014 36.7312C26.2433 37.2121 27.0014 37.2467 27.4866 36.8005L27.6858 36.6186C28.1667 36.1767 28.2013 35.4186 27.7551 34.9334L26.8844 33.9891C26.9754 33.8591 27.0577 33.7248 27.1357 33.5905L28.366 33.9674C28.9941 34.158 29.6612 33.8028 29.8562 33.1747L29.9342 32.9147C30.1248 32.2866 29.7695 31.6195 29.1414 31.4245L27.9198 31.052C27.9284 30.9133 27.9328 30.7747 27.9328 30.6361L29.1847 30.3502C29.8258 30.2029 30.2287 29.5618 30.0814 28.925L30.0208 28.6607C29.8735 28.0196 29.2324 27.6167 28.5956 27.764ZM22.899 34.6172C20.694 35.1197 18.502 33.7378 17.9995 31.5328C17.497 29.3278 18.8789 27.1358 21.0839 26.6333C23.2889 26.1308 25.4808 27.5127 25.9834 29.7177C26.4859 31.9227 25.104 34.1147 22.899 34.6172Z" fill="#EB725F"/>
<path d="M143.121 60.111L141.89 60.3883C141.83 60.267 141.769 60.1457 141.704 60.0244L142.631 59.1753C143.103 58.7378 143.138 57.9927 142.701 57.5205L142.523 57.3256C142.085 56.8534 141.34 56.8187 140.868 57.2562L139.937 58.1096C139.811 58.023 139.677 57.9407 139.543 57.8627L139.911 56.6541C140.101 56.0389 139.75 55.3805 139.131 55.1899L138.875 55.1119C138.26 54.9256 137.602 55.2722 137.411 55.8917L137.043 57.0916C136.909 57.083 136.774 57.0786 136.636 57.0786L136.359 55.8483C136.216 55.2202 135.583 54.8217 134.955 54.9646L134.695 55.0253C134.067 55.1682 133.668 55.8007 133.811 56.4288L134.089 57.6591C133.967 57.7198 133.846 57.7804 133.725 57.8454L132.876 56.9183C132.438 56.4462 131.693 56.4115 131.221 56.849L131.026 57.0266C130.554 57.4642 130.519 58.2093 130.956 58.6815L131.81 59.6129C131.723 59.7428 131.641 59.8728 131.563 60.0071L130.354 59.6388C129.739 59.4526 129.081 59.7991 128.89 60.4186L128.812 60.6742C128.626 61.2893 128.972 61.9478 129.588 62.1384L130.788 62.5066C130.779 62.6409 130.775 62.7752 130.775 62.9138L129.544 63.1911C128.916 63.334 128.518 63.9665 128.661 64.5947L128.721 64.8546C128.864 65.4827 129.497 65.8813 130.125 65.7383L131.355 65.4611C131.416 65.5824 131.476 65.7037 131.541 65.8249L130.614 66.674C130.142 67.1116 130.107 67.8567 130.545 68.3288L130.723 68.5238C131.16 68.996 131.905 69.0306 132.377 68.5931L133.309 67.7397C133.434 67.8263 133.569 67.9086 133.703 67.9866L133.335 69.1952C133.148 69.8104 133.495 70.4689 134.11 70.6595L134.366 70.7374C134.981 70.9237 135.639 70.5772 135.83 69.9577L136.198 68.7577C136.333 68.7664 136.467 68.7707 136.605 68.7707L136.883 70.001C137.026 70.6291 137.658 71.0277 138.286 70.8847L138.546 70.8241C139.174 70.6811 139.573 70.0487 139.43 69.4205L139.153 68.1902C139.274 68.1296 139.395 68.0689 139.517 68.0039L140.366 68.931C140.803 69.4032 141.548 69.4378 142.02 69.0003L142.215 68.8227C142.688 68.3852 142.722 67.6401 142.285 67.1679L141.431 66.2365C141.518 66.1065 141.6 65.9766 141.678 65.8423L142.887 66.2105C143.502 66.3968 144.16 66.0502 144.351 65.4307L144.429 65.1751C144.615 64.56 144.269 63.9015 143.654 63.7109L142.454 63.3427C142.462 63.2084 142.467 63.0741 142.467 62.9355L143.697 62.6583C144.325 62.5153 144.724 61.8828 144.581 61.2547L144.52 60.9948C144.377 60.3666 143.745 59.9681 143.116 60.111H143.121ZM137.524 66.843C135.358 67.3368 133.205 65.9766 132.711 63.8149C132.217 61.6489 133.577 59.4959 135.739 59.002C137.905 58.5082 140.058 59.8684 140.552 62.0301C141.046 64.1918 139.685 66.3491 137.524 66.843Z" fill="#EB725F"/>
<path d="M141.375 157.204H82.7326V160.54H141.375V157.204Z" fill="#FFCF74"/>
<path d="M135.748 157.204H88.3599L108.842 106.697H115.266L135.748 157.204Z" fill="#F9AB43"/>
<mask id="mask3_785_9964" style="mask-type:luminance" maskUnits="userSpaceOnUse" x="88" y="106" width="48" height="52">
<path d="M135.748 157.204H88.3599L108.842 106.697H115.266L135.748 157.204Z" fill="white"/>
</mask>
<g mask="url(#mask3_785_9964)">
<path d="M144.312 138.642H79.7912V150.75H144.312V138.642Z" fill="#FFCF74"/>
<path d="M144.312 114.573H79.7912V126.681H144.312V114.573Z" fill="#FFCF74"/>
</g>
<path opacity="0.1" d="M119.65 124.766C123.466 136.363 123.813 147.895 121.305 157.204H135.748L115.266 106.697H110.371C114.183 111.796 117.397 117.913 119.65 124.766Z" fill="url(#paint87_linear_785_9964)"/>
<g opacity="0.3">
<path d="M107.954 116.825C106.624 120.321 105.298 123.813 103.968 127.309C101.85 132.884 99.7271 138.459 97.6087 144.039C97.1192 145.33 96.6297 146.616 96.1402 147.907C95.7026 149.064 97.5567 149.562 97.9899 148.418C99.3199 144.922 100.645 141.431 101.975 137.935C104.094 132.36 106.216 126.784 108.335 121.205C108.824 119.914 109.314 118.627 109.803 117.336C110.241 116.18 108.387 115.681 107.954 116.825Z" fill="white"/>
</g>
<path d="M58.0229 158.591H23.7697V160.54H58.0229V158.591Z" fill="#FFCF74"/>
<path d="M54.7349 158.591H27.0577L39.0227 129.09H42.7742L54.7349 158.591Z" fill="#F9AB43"/>
<mask id="mask4_785_9964" style="mask-type:luminance" maskUnits="userSpaceOnUse" x="27" y="129" width="28" height="30">
<path d="M54.7349 158.591H27.0577L39.0227 129.09H42.7742L54.7349 158.591Z" fill="white"/>
</mask>
<g mask="url(#mask4_785_9964)">
<path d="M59.7427 147.748H22.0542V154.818H59.7427V147.748Z" fill="#FFCF74"/>
<path d="M59.7427 133.69H22.0542V140.76H59.7427V133.69Z" fill="#FFCF74"/>
</g>
<path opacity="0.1" d="M45.3344 139.643C47.5611 146.418 47.769 153.15 46.3005 158.591H54.7349L42.7699 129.09H39.9108C42.1374 132.066 44.0132 135.64 45.3301 139.643H45.3344Z" fill="url(#paint88_linear_785_9964)"/>
<g opacity="0.3">
<path d="M38.5029 135.008C37.7274 137.048 36.952 139.088 36.1766 141.129C34.9376 144.386 33.6987 147.644 32.4597 150.902C32.1738 151.655 31.8879 152.409 31.602 153.159C31.3464 153.834 32.4294 154.125 32.685 153.458C33.4604 151.417 34.2358 149.377 35.0113 147.336C36.2502 144.079 37.4892 140.821 38.7281 137.563C39.014 136.81 39.2999 136.056 39.5859 135.306C39.8414 134.631 38.7584 134.34 38.5029 135.008Z" fill="white"/>
</g>
<path d="M135.843 81.4763H132.577V78.21H131.416V81.4763H128.149V82.6373H131.416V85.9036H132.577V82.6373H135.843V81.4763Z" fill="#CAD2F9"/>
<path d="M155.74 114.404H152.876V111.545H151.858V114.404H148.999V115.426H151.858V118.286H152.876V115.426H155.74V114.404Z" fill="#CAD2F9"/>
<path d="M157.759 90.6859H156.125V89.0527H155.545V90.6859H153.912V91.2664H155.545V92.8996H156.125V91.2664H157.759V90.6859Z" fill="#CAD2F9"/>
<path d="M90.0667 9.31383H88.4336V7.68066H87.8487V9.31383H86.2156V9.89432H87.8487V11.5318H88.4336V9.89432H90.0667V9.31383Z" fill="#CAD2F9"/>
<path d="M103.102 3.26633H99.8354V0H98.6744V3.26633H95.4081V4.43164H98.6744V7.69364H99.8354V4.43164H103.102V3.26633Z" fill="#CAD2F9"/>
<path d="M20.1352 74.9138H17.276V72.0547H16.2537V74.9138H13.3946V75.9318H16.2537V78.7953H17.276V75.9318H20.1352V74.9138Z" fill="#CAD2F9"/>
<path d="M8.729 49.7312H7.0915V48.0938H6.51101V49.7312H4.87784V50.3117H6.51101V51.9449H7.0915V50.3117H8.729V49.7312Z" fill="#CAD2F9"/>
<path d="M6.80125 118.718H5.16809V117.085H4.5876V118.718H2.95443V119.299H4.5876V120.932H5.16809V119.299H6.80125V118.718Z" fill="#CAD2F9"/>
<path d="M40.5952 15.8591H37.7318V13H36.7137V15.8591H33.8546V16.8771H36.7137V19.7406H37.7318V16.8771H40.5952V15.8591Z" fill="#CAD2F9"/>
<path d="M73.016 13.1339C73.016 13.6321 72.6131 14.0393 72.1106 14.0393C71.6081 14.0393 71.2052 13.6364 71.2052 13.1339C71.2052 12.6314 71.6081 12.2285 72.1106 12.2285C72.6131 12.2285 73.016 12.6314 73.016 13.1339Z" fill="#E2E6FF"/>
<path d="M153.912 79.7258C153.912 80.6702 153.145 81.4369 152.201 81.4369C151.256 81.4369 150.49 80.6702 150.49 79.7258C150.49 78.7814 151.256 78.0146 152.201 78.0146C153.145 78.0146 153.912 78.7814 153.912 79.7258Z" fill="#E2E6FF"/>
<path d="M1.81079 73.3409C1.81079 73.8391 1.40791 74.2463 0.905399 74.2463C0.402886 74.2463 9.53674e-06 73.8434 9.53674e-06 73.3409C9.53674e-06 72.8384 0.402886 72.4355 0.905399 72.4355C1.40791 72.4355 1.81079 72.8384 1.81079 73.3409Z" fill="#E2E6FF"/>
<path d="M54.4793 5.00313C54.4793 5.94751 53.7125 6.71427 52.7682 6.71427C51.8238 6.71427 51.057 5.94751 51.057 5.00313C51.057 4.05876 51.8238 3.29199 52.7682 3.29199C53.7125 3.29199 54.4793 4.05876 54.4793 5.00313Z" fill="#E2E6FF"/>
<path d="M3.85983 28.4874C3.85983 28.9856 3.45695 29.3928 2.95444 29.3928C2.45193 29.3928 2.04905 28.9899 2.04905 28.4874C2.04905 27.9849 2.45193 27.582 2.95444 27.582C3.45695 27.582 3.85983 27.9849 3.85983 28.4874Z" fill="#E2E6FF"/>
<path d="M8.51673 145.919C8.51673 146.864 7.74997 147.63 6.80559 147.63C5.86121 147.63 5.09445 146.864 5.09445 145.919C5.09445 144.975 5.86121 144.208 6.80559 144.208C7.74997 144.208 8.51673 144.975 8.51673 145.919Z" fill="#E2E6FF"/>
<path d="M131.121 97.7169C131.121 98.2151 130.718 98.6223 130.216 98.6223C129.713 98.6223 129.31 98.2194 129.31 97.7169C129.31 97.2144 129.713 96.8115 130.216 96.8115C130.718 96.8115 131.121 97.2144 131.121 97.7169Z" fill="#E2E6FF"/>
<path d="M132.902 3.29211C132.902 3.79029 132.499 4.1975 131.996 4.1975C131.494 4.1975 131.091 3.79462 131.091 3.29211C131.091 2.7896 131.494 2.38672 131.996 2.38672C132.499 2.38672 132.902 2.7896 132.902 3.29211Z" fill="#E2E6FF"/>
<path d="M13.8451 92.1418C13.8451 93.0862 13.0783 93.8529 12.134 93.8529C11.1896 93.8529 10.4228 93.0862 10.4228 92.1418C10.4228 91.1974 11.1896 90.4307 12.134 90.4307C13.0783 90.4307 13.8451 91.1974 13.8451 92.1418Z" fill="#E2E6FF"/>
<path d="M60.999 20.1784C60.7997 20.486 60.7954 20.6636 60.8084 20.6939C60.8257 20.7113 60.9773 20.8066 61.3412 20.8066H79.6829C80.0511 20.8066 80.1984 20.7113 80.2201 20.6853C80.2287 20.6593 80.2244 20.4817 80.0251 20.1741L71.0925 6.48929C70.9149 6.21637 70.6983 6.05176 70.5121 6.05176C70.3258 6.05176 70.1135 6.21637 69.9316 6.48929L60.999 20.1741V20.1784Z" fill="#FFCF74"/>
<path d="M79.6786 22.7472H61.3369C60.3015 22.7472 59.4871 22.3356 59.0972 21.6122C58.7073 20.8931 58.807 19.9834 59.3745 19.117L68.3071 5.43216C68.8529 4.59609 69.6586 4.11523 70.5077 4.11523C71.3568 4.11523 72.1625 4.59609 72.7084 5.43216L81.641 19.117C82.2041 19.9834 82.3081 20.8931 81.9182 21.6122C81.5283 22.3313 80.7096 22.7472 79.6786 22.7472ZM60.999 20.1783C60.7997 20.4859 60.7954 20.6635 60.8083 20.6938C60.8257 20.7111 60.9773 20.8064 61.3412 20.8064H79.6829C80.0511 20.8064 80.1984 20.7111 80.2201 20.6852C80.2287 20.6592 80.2244 20.4816 80.0251 20.174L71.0925 6.48917C70.9149 6.21626 70.6983 6.05164 70.512 6.05164C70.3258 6.05164 70.1135 6.21626 69.9316 6.48917L60.999 20.174V20.1783Z" fill="#F9AB43"/>
<path d="M69.9922 18.7446C69.8579 18.606 69.7886 18.4414 69.7886 18.2378C69.7886 18.0342 69.8579 17.8695 69.9922 17.7309C70.1308 17.5966 70.2954 17.5273 70.4991 17.5273C70.7027 17.5273 70.8716 17.5966 71.0102 17.7309C71.1489 17.8695 71.2225 18.0342 71.2225 18.2378C71.2225 18.4414 71.1532 18.606 71.0102 18.7446C70.8716 18.8789 70.6983 18.9482 70.4991 18.9482C70.2998 18.9482 70.1308 18.8789 69.9922 18.7446ZM69.572 10.3535H71.4478L71.0969 16.362H69.9186L69.5677 10.3535H69.572Z" fill="white"/>
<defs>
<linearGradient id="paint0_linear_785_9964" x1="13.0893" y1="131.488" x2="14.1883" y2="136.442" gradientUnits="userSpaceOnUse">
<stop stop-color="#0261AE"/>
<stop offset="1" stop-color="#A0CB7C"/>
</linearGradient>
<linearGradient id="paint1_linear_785_9964" x1="35.7641" y1="132.437" x2="48.4373" y2="147.088" gradientUnits="userSpaceOnUse">
<stop stop-color="#0261AE"/>
<stop offset="1" stop-color="#A0CB7C"/>
</linearGradient>
<linearGradient id="paint2_linear_785_9964" x1="24.8682" y1="130.988" x2="29.4931" y2="139.121" gradientUnits="userSpaceOnUse">
<stop stop-color="#0261AE"/>
<stop offset="1" stop-color="#A0CB7C"/>
</linearGradient>
<linearGradient id="paint3_linear_785_9964" x1="138.628" y1="102.175" x2="145.726" y2="106.277" gradientUnits="userSpaceOnUse">
<stop stop-color="#0261AE"/>
<stop offset="1" stop-color="#A0CB7C"/>
</linearGradient>
<linearGradient id="paint4_linear_785_9964" x1="123.825" y1="123.998" x2="131.47" y2="139.178" gradientUnits="userSpaceOnUse">
<stop stop-color="#0261AE"/>
<stop offset="1" stop-color="#A0CB7C"/>
</linearGradient>
<linearGradient id="paint5_linear_785_9964" x1="134.913" y1="114.236" x2="140.94" y2="122.267" gradientUnits="userSpaceOnUse">
<stop stop-color="#0261AE"/>
<stop offset="1" stop-color="#A0CB7C"/>
</linearGradient>
<linearGradient id="paint6_linear_785_9964" x1="29.0501" y1="107.539" x2="39.8626" y2="137.115" gradientUnits="userSpaceOnUse">
<stop stop-color="#0261AE"/>
<stop offset="1" stop-color="#A0CB7C"/>
</linearGradient>
<linearGradient id="paint7_linear_785_9964" x1="16.9779" y1="99.4986" x2="23.5193" y2="103.601" gradientUnits="userSpaceOnUse">
<stop stop-color="#0261AE"/>
<stop offset="1" stop-color="#A0CB7C"/>
</linearGradient>
<linearGradient id="paint8_linear_785_9964" x1="17.3418" y1="100.314" x2="22.4836" y2="103.261" gradientUnits="userSpaceOnUse">
<stop stop-color="#0261AE"/>
<stop offset="1" stop-color="#A0CB7C"/>
</linearGradient>
<linearGradient id="paint9_linear_785_9964" x1="17.0788" y1="99.4986" x2="23.5478" y2="103.456" gradientUnits="userSpaceOnUse">
<stop stop-color="#0261AE"/>
<stop offset="1" stop-color="#A0CB7C"/>
</linearGradient>
<linearGradient id="paint10_linear_785_9964" x1="22.3899" y1="101.901" x2="27.8718" y2="104.131" gradientUnits="userSpaceOnUse">
<stop stop-color="#0261AE"/>
<stop offset="1" stop-color="#A0CB7C"/>
</linearGradient>
<linearGradient id="paint11_linear_785_9964" x1="23.2826" y1="102.781" x2="24.3249" y2="102.866" gradientUnits="userSpaceOnUse">
<stop stop-color="#0261AE"/>
<stop offset="1" stop-color="#A0CB7C"/>
</linearGradient>
<linearGradient id="paint12_linear_785_9964" x1="23.1301" y1="101.901" x2="27.4545" y2="103.199" gradientUnits="userSpaceOnUse">
<stop stop-color="#0261AE"/>
<stop offset="1" stop-color="#A0CB7C"/>
</linearGradient>
<linearGradient id="paint13_linear_785_9964" x1="13.5325" y1="109.794" x2="14.7865" y2="114.793" gradientUnits="userSpaceOnUse">
<stop stop-color="#0261AE"/>
<stop offset="1" stop-color="#A0CB7C"/>
</linearGradient>
<linearGradient id="paint14_linear_785_9964" x1="14.1173" y1="110.542" x2="14.6237" y2="113.464" gradientUnits="userSpaceOnUse">
<stop stop-color="#0261AE"/>
<stop offset="1" stop-color="#A0CB7C"/>
</linearGradient>
<linearGradient id="paint15_linear_785_9964" x1="13.5228" y1="109.766" x2="14.6081" y2="114.436" gradientUnits="userSpaceOnUse">
<stop stop-color="#0261AE"/>
<stop offset="1" stop-color="#A0CB7C"/>
</linearGradient>
<linearGradient id="paint16_linear_785_9964" x1="26.2469" y1="107.317" x2="31.7936" y2="109.622" gradientUnits="userSpaceOnUse">
<stop stop-color="#0261AE"/>
<stop offset="1" stop-color="#A0CB7C"/>
</linearGradient>
<linearGradient id="paint17_linear_785_9964" x1="27.0339" y1="108.193" x2="28.7647" y2="108.431" gradientUnits="userSpaceOnUse">
<stop stop-color="#0261AE"/>
<stop offset="1" stop-color="#A0CB7C"/>
</linearGradient>
<linearGradient id="paint18_linear_785_9964" x1="27.0365" y1="107.316" x2="31.3806" y2="108.633" gradientUnits="userSpaceOnUse">
<stop stop-color="#0261AE"/>
<stop offset="1" stop-color="#A0CB7C"/>
</linearGradient>
<linearGradient id="paint19_linear_785_9964" x1="18.0983" y1="116.358" x2="19.0497" y2="120.803" gradientUnits="userSpaceOnUse">
<stop stop-color="#0261AE"/>
<stop offset="1" stop-color="#A0CB7C"/>
</linearGradient>
<linearGradient id="paint20_linear_785_9964" x1="18.7092" y1="117.554" x2="18.7653" y2="118.552" gradientUnits="userSpaceOnUse">
<stop stop-color="#0261AE"/>
<stop offset="1" stop-color="#A0CB7C"/>
</linearGradient>
<linearGradient id="paint21_linear_785_9964" x1="18.1027" y1="116.291" x2="18.6679" y2="119.748" gradientUnits="userSpaceOnUse">
<stop stop-color="#0261AE"/>
<stop offset="1" stop-color="#A0CB7C"/>
</linearGradient>
<linearGradient id="paint22_linear_785_9964" x1="30.9049" y1="112.674" x2="36.9787" y2="115.704" gradientUnits="userSpaceOnUse">
<stop stop-color="#0261AE"/>
<stop offset="1" stop-color="#A0CB7C"/>
</linearGradient>
<linearGradient id="paint23_linear_785_9964" x1="31.3969" y1="113.53" x2="35.4286" y2="115.009" gradientUnits="userSpaceOnUse">
<stop stop-color="#0261AE"/>
<stop offset="1" stop-color="#A0CB7C"/>
</linearGradient>
<linearGradient id="paint24_linear_785_9964" x1="31.225" y1="112.674" x2="36.9257" y2="115.247" gradientUnits="userSpaceOnUse">
<stop stop-color="#0261AE"/>
<stop offset="1" stop-color="#A0CB7C"/>
</linearGradient>
<linearGradient id="paint25_linear_785_9964" x1="23.8755" y1="122.388" x2="24.8319" y2="126.842" gradientUnits="userSpaceOnUse">
<stop stop-color="#0261AE"/>
<stop offset="1" stop-color="#A0CB7C"/>
</linearGradient>
<linearGradient id="paint26_linear_785_9964" x1="24.482" y1="123.571" x2="24.5458" y2="124.635" gradientUnits="userSpaceOnUse">
<stop stop-color="#0261AE"/>
<stop offset="1" stop-color="#A0CB7C"/>
</linearGradient>
<linearGradient id="paint27_linear_785_9964" x1="23.8755" y1="122.309" x2="24.3615" y2="125.52" gradientUnits="userSpaceOnUse">
<stop stop-color="#0261AE"/>
<stop offset="1" stop-color="#A0CB7C"/>
</linearGradient>
<linearGradient id="paint28_linear_785_9964" x1="36.6351" y1="117.609" x2="43.2937" y2="122.294" gradientUnits="userSpaceOnUse">
<stop stop-color="#0261AE"/>
<stop offset="1" stop-color="#A0CB7C"/>
</linearGradient>
<linearGradient id="paint29_linear_785_9964" x1="36.9813" y1="118.403" x2="42.355" y2="122.014" gradientUnits="userSpaceOnUse">
<stop stop-color="#0261AE"/>
<stop offset="1" stop-color="#A0CB7C"/>
</linearGradient>
<linearGradient id="paint30_linear_785_9964" x1="36.6834" y1="117.609" x2="43.3195" y2="122.232" gradientUnits="userSpaceOnUse">
<stop stop-color="#0261AE"/>
<stop offset="1" stop-color="#A0CB7C"/>
</linearGradient>
<linearGradient id="paint31_linear_785_9964" x1="31.4144" y1="127.458" x2="32.8019" y2="132.668" gradientUnits="userSpaceOnUse">
<stop stop-color="#0261AE"/>
<stop offset="1" stop-color="#A0CB7C"/>
</linearGradient>
<linearGradient id="paint32_linear_785_9964" x1="32.0021" y1="128.151" x2="32.6879" y2="131.515" gradientUnits="userSpaceOnUse">
<stop stop-color="#0261AE"/>
<stop offset="1" stop-color="#A0CB7C"/>
</linearGradient>
<linearGradient id="paint33_linear_785_9964" x1="31.4144" y1="127.43" x2="32.5963" y2="132.264" gradientUnits="userSpaceOnUse">
<stop stop-color="#0261AE"/>
<stop offset="1" stop-color="#A0CB7C"/>
</linearGradient>
<linearGradient id="paint34_linear_785_9964" x1="42.8696" y1="120.564" x2="49.5304" y2="125.998" gradientUnits="userSpaceOnUse">
<stop stop-color="#0261AE"/>
<stop offset="1" stop-color="#A0CB7C"/>
</linearGradient>
<linearGradient id="paint35_linear_785_9964" x1="43.2033" y1="121.321" x2="48.6536" y2="125.711" gradientUnits="userSpaceOnUse">
<stop stop-color="#0261AE"/>
<stop offset="1" stop-color="#A0CB7C"/>
</linearGradient>
<linearGradient id="paint36_linear_785_9964" x1="42.8758" y1="120.559" x2="49.531" y2="125.989" gradientUnits="userSpaceOnUse">
<stop stop-color="#0261AE"/>
<stop offset="1" stop-color="#A0CB7C"/>
</linearGradient>
<linearGradient id="paint37_linear_785_9964" x1="38.4539" y1="130.255" x2="40.1685" y2="135.925" gradientUnits="userSpaceOnUse">
<stop stop-color="#0261AE"/>
<stop offset="1" stop-color="#A0CB7C"/>
</linearGradient>
<linearGradient id="paint38_linear_785_9964" x1="39.0297" y1="130.849" x2="40.1217" y2="134.988" gradientUnits="userSpaceOnUse">
<stop stop-color="#0261AE"/>
<stop offset="1" stop-color="#A0CB7C"/>
</linearGradient>
<linearGradient id="paint39_linear_785_9964" x1="38.4566" y1="130.245" x2="40.0474" y2="135.722" gradientUnits="userSpaceOnUse">
<stop stop-color="#0261AE"/>
<stop offset="1" stop-color="#A0CB7C"/>
</linearGradient>
<linearGradient id="paint40_linear_785_9964" x1="49.9411" y1="123.124" x2="55.5743" y2="130.28" gradientUnits="userSpaceOnUse">
<stop stop-color="#0261AE"/>
<stop offset="1" stop-color="#A0CB7C"/>
</linearGradient>
<linearGradient id="paint41_linear_785_9964" x1="50.3487" y1="123.782" x2="54.9682" y2="129.65" gradientUnits="userSpaceOnUse">
<stop stop-color="#0261AE"/>
<stop offset="1" stop-color="#A0CB7C"/>
</linearGradient>
<linearGradient id="paint42_linear_785_9964" x1="49.9366" y1="123.128" x2="55.5665" y2="130.283" gradientUnits="userSpaceOnUse">
<stop stop-color="#0261AE"/>
<stop offset="1" stop-color="#A0CB7C"/>
</linearGradient>
<linearGradient id="paint43_linear_785_9964" x1="48.0933" y1="131.86" x2="51.314" y2="138.848" gradientUnits="userSpaceOnUse">
<stop stop-color="#0261AE"/>
<stop offset="1" stop-color="#A0CB7C"/>
</linearGradient>
<linearGradient id="paint44_linear_785_9964" x1="48.6082" y1="132.395" x2="51.2273" y2="138.108" gradientUnits="userSpaceOnUse">
<stop stop-color="#0261AE"/>
<stop offset="1" stop-color="#A0CB7C"/>
</linearGradient>
<linearGradient id="paint45_linear_785_9964" x1="48.0942" y1="131.86" x2="51.3111" y2="138.846" gradientUnits="userSpaceOnUse">
<stop stop-color="#0261AE"/>
<stop offset="1" stop-color="#A0CB7C"/>
</linearGradient>
<linearGradient id="paint46_linear_785_9964" x1="111.133" y1="134.611" x2="113.978" y2="151.327" gradientUnits="userSpaceOnUse">
<stop stop-color="#0261AE"/>
<stop offset="1" stop-color="#A0CB7C"/>
</linearGradient>
<linearGradient id="paint47_linear_785_9964" x1="154.506" y1="128.756" x2="160.049" y2="135.959" gradientUnits="userSpaceOnUse">
<stop stop-color="#0261AE"/>
<stop offset="1" stop-color="#A0CB7C"/>
</linearGradient>
<linearGradient id="paint48_linear_785_9964" x1="154.98" y1="129.403" x2="159.528" y2="135.313" gradientUnits="userSpaceOnUse">
<stop stop-color="#0261AE"/>
<stop offset="1" stop-color="#A0CB7C"/>
</linearGradient>
<linearGradient id="paint49_linear_785_9964" x1="154.502" y1="128.756" x2="160.044" y2="135.961" gradientUnits="userSpaceOnUse">
<stop stop-color="#0261AE"/>
<stop offset="1" stop-color="#A0CB7C"/>
</linearGradient>
<linearGradient id="paint50_linear_785_9964" x1="150.042" y1="128.453" x2="156.277" y2="131.778" gradientUnits="userSpaceOnUse">
<stop stop-color="#0261AE"/>
<stop offset="1" stop-color="#A0CB7C"/>
</linearGradient>
<linearGradient id="paint51_linear_785_9964" x1="150.503" y1="129.298" x2="154.983" y2="131.231" gradientUnits="userSpaceOnUse">
<stop stop-color="#0261AE"/>
<stop offset="1" stop-color="#A0CB7C"/>
</linearGradient>
<linearGradient id="paint52_linear_785_9964" x1="149.983" y1="128.453" x2="155.98" y2="131.444" gradientUnits="userSpaceOnUse">
<stop stop-color="#0261AE"/>
<stop offset="1" stop-color="#A0CB7C"/>
</linearGradient>
<linearGradient id="paint53_linear_785_9964" x1="152.169" y1="138.272" x2="153.175" y2="142.822" gradientUnits="userSpaceOnUse">
<stop stop-color="#0261AE"/>
<stop offset="1" stop-color="#A0CB7C"/>
</linearGradient>
<linearGradient id="paint54_linear_785_9964" x1="152.864" y1="139.3" x2="153.012" y2="140.91" gradientUnits="userSpaceOnUse">
<stop stop-color="#0261AE"/>
<stop offset="1" stop-color="#A0CB7C"/>
</linearGradient>
<linearGradient id="paint55_linear_785_9964" x1="152.173" y1="138.192" x2="152.774" y2="141.745" gradientUnits="userSpaceOnUse">
<stop stop-color="#0261AE"/>
<stop offset="1" stop-color="#A0CB7C"/>
</linearGradient>
<linearGradient id="paint56_linear_785_9964" x1="144.16" y1="132.434" x2="150.825" y2="137.195" gradientUnits="userSpaceOnUse">
<stop stop-color="#0261AE"/>
<stop offset="1" stop-color="#A0CB7C"/>
</linearGradient>
<linearGradient id="paint57_linear_785_9964" x1="144.534" y1="133.228" x2="149.926" y2="136.928" gradientUnits="userSpaceOnUse">
<stop stop-color="#0261AE"/>
<stop offset="1" stop-color="#A0CB7C"/>
</linearGradient>
<linearGradient id="paint58_linear_785_9964" x1="144.154" y1="132.439" x2="150.8" y2="137.144" gradientUnits="userSpaceOnUse">
<stop stop-color="#0261AE"/>
<stop offset="1" stop-color="#A0CB7C"/>
</linearGradient>
<linearGradient id="paint59_linear_785_9964" x1="145.675" y1="142.275" x2="147.093" y2="147.533" gradientUnits="userSpaceOnUse">
<stop stop-color="#0261AE"/>
<stop offset="1" stop-color="#A0CB7C"/>
</linearGradient>
<linearGradient id="paint60_linear_785_9964" x1="146.35" y1="142.955" x2="147.075" y2="146.406" gradientUnits="userSpaceOnUse">
<stop stop-color="#0261AE"/>
<stop offset="1" stop-color="#A0CB7C"/>
</linearGradient>
<linearGradient id="paint61_linear_785_9964" x1="145.683" y1="142.249" x2="146.905" y2="147.153" gradientUnits="userSpaceOnUse">
<stop stop-color="#0261AE"/>
<stop offset="1" stop-color="#A0CB7C"/>
</linearGradient>
<linearGradient id="paint62_linear_785_9964" x1="137.361" y1="136.029" x2="143.762" y2="142.352" gradientUnits="userSpaceOnUse">
<stop stop-color="#0261AE"/>
<stop offset="1" stop-color="#A0CB7C"/>
</linearGradient>
<linearGradient id="paint63_linear_785_9964" x1="137.766" y1="136.751" x2="143.015" y2="141.941" gradientUnits="userSpaceOnUse">
<stop stop-color="#0261AE"/>
<stop offset="1" stop-color="#A0CB7C"/>
</linearGradient>
<linearGradient id="paint64_linear_785_9964" x1="137.369" y1="136.034" x2="143.773" y2="142.353" gradientUnits="userSpaceOnUse">
<stop stop-color="#0261AE"/>
<stop offset="1" stop-color="#A0CB7C"/>
</linearGradient>
<linearGradient id="paint65_linear_785_9964" x1="138.356" y1="145.406" x2="140.616" y2="151.681" gradientUnits="userSpaceOnUse">
<stop stop-color="#0261AE"/>
<stop offset="1" stop-color="#A0CB7C"/>
</linearGradient>
<linearGradient id="paint66_linear_785_9964" x1="138.983" y1="145.935" x2="140.68" y2="150.887" gradientUnits="userSpaceOnUse">
<stop stop-color="#0261AE"/>
<stop offset="1" stop-color="#A0CB7C"/>
</linearGradient>
<linearGradient id="paint67_linear_785_9964" x1="138.351" y1="145.398" x2="140.57" y2="151.621" gradientUnits="userSpaceOnUse">
<stop stop-color="#0261AE"/>
<stop offset="1" stop-color="#A0CB7C"/>
</linearGradient>
<linearGradient id="paint68_linear_785_9964" x1="129.479" y1="138.811" x2="134.521" y2="146.179" gradientUnits="userSpaceOnUse">
<stop stop-color="#0261AE"/>
<stop offset="1" stop-color="#A0CB7C"/>
</linearGradient>
<linearGradient id="paint69_linear_785_9964" x1="129.986" y1="139.42" x2="134.124" y2="145.465" gradientUnits="userSpaceOnUse">
<stop stop-color="#0261AE"/>
<stop offset="1" stop-color="#A0CB7C"/>
</linearGradient>
<linearGradient id="paint70_linear_785_9964" x1="129.476" y1="138.81" x2="134.513" y2="146.179" gradientUnits="userSpaceOnUse">
<stop stop-color="#0261AE"/>
<stop offset="1" stop-color="#A0CB7C"/>
</linearGradient>
<linearGradient id="paint71_linear_785_9964" x1="129.883" y1="147.069" x2="133.762" y2="154.343" gradientUnits="userSpaceOnUse">
<stop stop-color="#0261AE"/>
<stop offset="1" stop-color="#A0CB7C"/>
</linearGradient>
<linearGradient id="paint72_linear_785_9964" x1="130.445" y1="147.647" x2="133.628" y2="153.614" gradientUnits="userSpaceOnUse">
<stop stop-color="#0261AE"/>
<stop offset="1" stop-color="#A0CB7C"/>
</linearGradient>
<linearGradient id="paint73_linear_785_9964" x1="129.886" y1="147.069" x2="133.767" y2="154.342" gradientUnits="userSpaceOnUse">
<stop stop-color="#0261AE"/>
<stop offset="1" stop-color="#A0CB7C"/>
</linearGradient>
<linearGradient id="paint74_linear_785_9964" x1="122.316" y1="139.433" x2="126.65" y2="146.809" gradientUnits="userSpaceOnUse">
<stop stop-color="#0261AE"/>
<stop offset="1" stop-color="#A0CB7C"/>
</linearGradient>
<linearGradient id="paint75_linear_785_9964" x1="122.861" y1="139.988" x2="126.419" y2="146.038" gradientUnits="userSpaceOnUse">
<stop stop-color="#0261AE"/>
<stop offset="1" stop-color="#A0CB7C"/>
</linearGradient>
<linearGradient id="paint76_linear_785_9964" x1="122.313" y1="139.428" x2="126.649" y2="146.808" gradientUnits="userSpaceOnUse">
<stop stop-color="#0261AE"/>
<stop offset="1" stop-color="#A0CB7C"/>
</linearGradient>
<linearGradient id="paint77_linear_785_9964" x1="122.484" y1="147.121" x2="127.089" y2="154.523" gradientUnits="userSpaceOnUse">
<stop stop-color="#0261AE"/>
<stop offset="1" stop-color="#A0CB7C"/>
</linearGradient>
<linearGradient id="paint78_linear_785_9964" x1="123.015" y1="147.754" x2="126.793" y2="153.823" gradientUnits="userSpaceOnUse">
<stop stop-color="#0261AE"/>
<stop offset="1" stop-color="#A0CB7C"/>
</linearGradient>
<linearGradient id="paint79_linear_785_9964" x1="122.484" y1="147.125" x2="127.086" y2="154.524" gradientUnits="userSpaceOnUse">
<stop stop-color="#0261AE"/>
<stop offset="1" stop-color="#A0CB7C"/>
</linearGradient>
<linearGradient id="paint80_linear_785_9964" x1="114.035" y1="139.353" x2="116.467" y2="145.785" gradientUnits="userSpaceOnUse">
<stop stop-color="#0261AE"/>
<stop offset="1" stop-color="#A0CB7C"/>
</linearGradient>
<linearGradient id="paint81_linear_785_9964" x1="114.657" y1="139.836" x2="116.531" y2="144.97" gradientUnits="userSpaceOnUse">
<stop stop-color="#0261AE"/>
<stop offset="1" stop-color="#A0CB7C"/>
</linearGradient>
<linearGradient id="paint82_linear_785_9964" x1="114.034" y1="139.349" x2="116.464" y2="145.777" gradientUnits="userSpaceOnUse">
<stop stop-color="#0261AE"/>
<stop offset="1" stop-color="#A0CB7C"/>
</linearGradient>
<linearGradient id="paint83_linear_785_9964" x1="113.529" y1="145.282" x2="119.812" y2="151.818" gradientUnits="userSpaceOnUse">
<stop stop-color="#0261AE"/>
<stop offset="1" stop-color="#A0CB7C"/>
</linearGradient>
<linearGradient id="paint84_linear_785_9964" x1="113.945" y1="146.062" x2="119.1" y2="151.426" gradientUnits="userSpaceOnUse">
<stop stop-color="#0261AE"/>
<stop offset="1" stop-color="#A0CB7C"/>
</linearGradient>
<linearGradient id="paint85_linear_785_9964" x1="113.533" y1="145.277" x2="119.818" y2="151.81" gradientUnits="userSpaceOnUse">
<stop stop-color="#0261AE"/>
<stop offset="1" stop-color="#A0CB7C"/>
</linearGradient>
<linearGradient id="paint86_linear_785_9964" x1="57.5592" y1="33.3712" x2="142.489" y2="104.691" gradientUnits="userSpaceOnUse">
<stop stop-color="#0261AE"/>
<stop offset="1" stop-color="#A0CB7C"/>
</linearGradient>
<linearGradient id="paint87_linear_785_9964" x1="115.525" y1="110.643" x2="145.924" y2="131.791" gradientUnits="userSpaceOnUse">
<stop stop-color="#0261AE"/>
<stop offset="1" stop-color="#A0CB7C"/>
</linearGradient>
<linearGradient id="paint88_linear_785_9964" x1="42.9219" y1="131.395" x2="60.6783" y2="143.749" gradientUnits="userSpaceOnUse">
<stop stop-color="#0261AE"/>
<stop offset="1" stop-color="#A0CB7C"/>
</linearGradient>
</defs>
</svg>
