<svg width="60" height="57" viewBox="0 0 60 57" fill="none" xmlns="http://www.w3.org/2000/svg">
<ellipse cx="30.4464" cy="28.5" rx="29.4643" ry="28.5" fill="url(#paint0_linear_1058_15010)"/>
<path d="M20.5159 19.5C19.7312 19.5 19.0972 20.1703 19.0972 21V22.5H41.7957V21C41.7957 20.1703 41.1617 19.5 40.377 19.5H20.5159ZM19.0972 24V27H41.7957V24H19.0972ZM19.0972 28.5V36C19.0972 36.8297 19.7312 37.5 20.5159 37.5H40.377C41.1617 37.5 41.7957 36.8297 41.7957 36V28.5H19.0972ZM17.6786 21C17.6786 19.3453 18.9509 18 20.5159 18H40.377C41.942 18 43.2143 19.3453 43.2143 21V36C43.2143 37.6547 41.942 39 40.377 39H20.5159C18.9509 39 17.6786 37.6547 17.6786 36V21ZM21.9345 33.75C21.9345 33.3375 22.2537 33 22.6439 33H25.4812C25.8713 33 26.1905 33.3375 26.1905 33.75C26.1905 34.1625 25.8713 34.5 25.4812 34.5H22.6439C22.2537 34.5 21.9345 34.1625 21.9345 33.75ZM27.6091 33.75C27.6091 33.3375 27.9283 33 28.3185 33H33.9931C34.3832 33 34.7024 33.3375 34.7024 33.75C34.7024 34.1625 34.3832 34.5 33.9931 34.5H28.3185C27.9283 34.5 27.6091 34.1625 27.6091 33.75Z" fill="white"/>
<defs>
<linearGradient id="paint0_linear_1058_15010" x1="12.952" y1="4.45313" x2="47.3079" y2="53.6323" gradientUnits="userSpaceOnUse">
<stop stop-color="#0261AE"/>
<stop offset="1" stop-color="#A0CB7C"/>
</linearGradient>
</defs>
</svg>
