<svg width="188" height="188" viewBox="0 0 188 188" fill="none" xmlns="http://www.w3.org/2000/svg">
<g filter="url(#filter0_d_248_591)">
<rect x="4" width="180" height="180" rx="90" fill="white"/>
<rect x="5.5" y="1.5" width="177" height="177" rx="88.5" stroke="#F3F3F3" stroke-width="3"/>
<path d="M91.2069 153.578L90.1637 153.291L89.8768 154.302L90.9461 154.595C91.2395 154.667 91.5264 154.498 91.5916 154.217C91.6569 153.937 91.4873 153.65 91.2069 153.578Z" fill="#183041"/>
<path d="M89.7398 149.268C89.1334 147.788 88.0314 146.927 86.9164 146.947C86.1601 147.977 85.9058 149.659 86.5122 151.172C86.6947 151.635 86.9425 152.026 87.2229 152.372C87.2229 152.372 86.6752 152.176 86.121 151.981C85.5667 151.792 85.0255 151.576 85.0255 151.576L84.6343 151.426C85.2472 150.39 85.3646 148.897 84.9082 147.527C84.4061 145.975 83.3432 145.063 82.2282 144.984C81.3936 145.969 81.0415 147.606 81.5371 149.183C81.687 149.653 81.9088 150.064 82.1696 150.422C82.1696 150.422 81.6284 150.194 81.0937 149.966C80.559 149.718 80.0308 149.477 80.0308 149.477L79.6527 149.301C80.3373 148.303 80.5525 146.836 80.1808 145.428C79.7831 143.837 78.7659 142.872 77.6639 142.715C76.7706 143.641 76.3077 145.265 76.7054 146.862C76.8293 147.338 77.0184 147.762 77.2597 148.134C77.2597 148.134 76.738 147.873 76.2164 147.606C75.7013 147.325 75.1862 147.045 75.1862 147.045L74.821 146.843C75.5644 145.897 75.8773 144.43 75.597 143.009C75.2775 141.431 74.3711 140.329 73.2496 140.146C72.2911 141.026 71.7434 142.598 72.0368 144.208C72.1281 144.697 72.2911 145.134 72.4998 145.525L70.4914 144.319L70.1394 144.091C70.9414 143.198 71.3522 141.75 71.1696 140.303C71.0653 139.501 70.7979 138.822 70.4132 138.314C70.035 137.799 69.5591 137.427 69.0113 137.297C68.0072 138.105 67.3486 139.644 67.5312 141.287C67.5833 141.789 67.7203 142.233 67.9159 142.624C67.9159 142.624 67.4203 142.311 66.9509 141.959C66.4749 141.62 65.9989 141.274 65.9989 141.274L65.6598 141.033C66.514 140.192 67.0161 138.777 66.9117 137.336C66.8009 135.725 66.0445 134.519 64.9556 134.199C63.8928 134.949 63.1429 136.436 63.2342 138.073C63.2603 138.568 63.3646 139.025 63.5276 139.442L61.6954 137.988L61.3694 137.727C62.2757 136.938 62.8625 135.569 62.8821 134.095C62.9017 132.459 62.1518 131.278 61.1346 130.841C60.0457 131.5 59.1655 132.974 59.1524 134.604C59.1524 135.093 59.2307 135.556 59.3676 135.973C59.3676 135.973 58.9242 135.588 58.4873 135.204C58.2656 135.015 58.0504 134.812 57.894 134.656C57.7375 134.506 57.6332 134.402 57.6332 134.402L57.3332 134.108C58.2917 133.384 58.9764 132.048 59.0677 130.594C59.1198 129.792 58.9829 129.074 58.7025 128.507C58.4482 127.92 58.0439 127.477 57.5353 127.236C56.3877 127.836 55.4423 129.211 55.3054 130.861C55.2662 131.357 55.2923 131.839 55.4097 132.256C55.4097 132.256 55.3054 132.152 55.1489 132.002C54.9989 131.839 54.7968 131.63 54.6011 131.415C54.2034 130.985 53.7991 130.561 53.7991 130.561L53.5122 130.255C54.5164 129.596 55.2858 128.312 55.4618 126.877C55.677 125.28 55.1684 123.943 54.1708 123.415C52.9841 123.936 51.9539 125.247 51.7191 126.871C51.6474 127.36 51.6605 127.829 51.7322 128.266L50.2194 126.479L49.9521 126.16C51.0019 125.566 51.83 124.347 52.143 122.906C52.4755 121.309 52.0191 119.978 51.0606 119.379C49.8543 119.815 48.7132 121.08 48.3937 122.665C48.2959 123.147 48.2828 123.61 48.3285 124.054C48.3285 124.054 47.9764 123.591 47.6178 123.121C47.4417 122.887 47.2657 122.658 47.1288 122.482C46.9983 122.306 46.9201 122.182 46.9201 122.182L46.6853 121.837C47.7677 121.315 48.7002 120.135 49.0849 118.726C49.3001 117.944 49.3066 117.214 49.1501 116.594C49.0718 116.288 48.9479 116.007 48.7849 115.766C48.635 115.512 48.4524 115.297 48.2307 115.127C46.9983 115.486 45.7855 116.673 45.3291 118.25C45.1987 118.726 45.1596 119.183 45.1856 119.626C45.1856 119.626 44.8596 119.144 44.5271 118.655C44.2141 118.159 43.9207 117.657 43.9207 117.657L43.7055 117.299C44.8205 116.849 45.8246 115.734 46.2876 114.351C46.5419 113.588 46.6006 112.858 46.4702 112.239C46.3398 111.619 46.0985 111.065 45.6617 110.706C44.4032 110.987 43.1382 112.089 42.5709 113.654C42.3884 114.13 42.3362 114.579 42.3297 115.023C42.3297 115.023 42.2514 114.899 42.1406 114.71C42.0232 114.521 41.8798 114.273 41.7494 114.006C41.4755 113.484 41.2082 112.969 41.2082 112.969L41.0126 112.597C42.1537 112.213 43.223 111.163 43.7707 109.82C44.0707 109.07 44.1684 108.352 44.0772 107.72C44.0119 107.081 43.7772 106.52 43.373 106.129C42.1015 106.338 40.7713 107.355 40.1128 108.881C39.9106 109.344 39.7998 109.807 39.7802 110.237C39.7802 110.237 39.4998 109.722 39.2716 109.181C39.0303 108.646 38.7891 108.111 38.7891 108.111L38.6195 107.733C39.7802 107.42 40.9082 106.435 41.5342 105.125C41.8798 104.395 42.0167 103.677 41.9645 103.045C41.9385 102.399 41.7363 101.826 41.3516 101.408C40.0671 101.539 38.6848 102.484 37.9349 103.964C37.7067 104.414 37.5632 104.871 37.5241 105.301C37.5241 105.301 37.4654 105.17 37.3742 104.968C37.2829 104.766 37.1851 104.492 37.0807 104.219C36.8721 103.671 36.6634 103.123 36.6634 103.123L36.5135 102.732C37.6871 102.484 38.8739 101.571 39.5781 100.293C39.9628 99.5825 40.1388 98.8783 40.1258 98.2393C40.1062 97.6003 39.9628 97.0069 39.5976 96.57C38.3131 96.6287 36.8721 97.4959 36.0375 98.937C35.7767 99.3738 35.6397 99.8107 35.5615 100.241C35.5615 100.241 35.5093 100.104 35.4311 99.902C35.3463 99.6998 35.255 99.4195 35.1703 99.1391C34.9942 98.5783 34.8182 98.0241 34.8182 98.0241L34.6943 97.6263C35.881 97.4503 37.1199 96.5961 37.8893 95.3572C38.3131 94.6726 38.5348 93.9684 38.5544 93.3294C38.5674 93.0099 38.5218 92.7034 38.4435 92.423C38.3718 92.1361 38.2609 91.8753 38.0914 91.6406C36.8069 91.6275 35.3137 92.423 34.4139 93.8119C34.1531 94.2292 33.9836 94.6595 33.8857 95.0834C33.8857 95.0834 33.7097 94.5226 33.5336 93.9684L33.2402 92.8338L33.1359 92.4296C34.3291 92.3122 35.6136 91.5297 36.4548 90.33C37.3872 88.9933 37.485 87.5653 36.833 86.6264C35.5549 86.5481 34.0096 87.2654 33.0902 88.5955C32.8099 88.9998 32.6142 89.4236 32.4838 89.841C32.4838 89.841 32.3404 89.2737 32.1969 88.7064C32.1252 88.4195 32.0535 88.1391 32.0013 87.9239C31.9492 87.7088 31.9231 87.5653 31.9231 87.5653L31.8448 87.1545C33.0446 87.1024 34.3682 86.3851 35.2746 85.218C36.2787 83.9269 36.4678 82.4924 35.8614 81.5209C34.5704 81.3839 33.025 82.0229 32.0209 83.314C31.7144 83.7052 31.4992 84.116 31.3428 84.5333L30.9059 82.2316L30.8277 81.8208C32.047 81.8208 33.3445 81.1818 34.3291 80.0538C35.405 78.8084 35.6723 77.3739 35.1246 76.3697C33.8401 76.1676 32.2687 76.7414 31.1928 77.9868C30.8668 78.365 30.6255 78.7692 30.4495 79.1735L30.143 76.8457L30.0908 76.4284C31.2971 76.4871 32.6664 75.8937 33.6445 74.8244C33.9183 74.5244 34.1335 74.218 34.303 73.8985C34.4921 73.579 34.6225 73.2595 34.7073 72.94C34.8768 72.301 34.8377 71.688 34.5965 71.1729C33.3315 70.9186 31.7274 71.4272 30.5864 72.6205C30.2408 72.9856 29.9735 73.3768 29.7778 73.7746L29.6083 71.4338L29.5757 71.0164C30.7755 71.1273 32.1774 70.5926 33.2141 69.5624C33.7879 68.9886 34.1596 68.3496 34.3291 67.7236C34.4139 67.4106 34.4465 67.0977 34.4269 66.8042C34.4269 66.5043 34.3682 66.2174 34.2639 65.9501C33.0185 65.6436 31.3754 66.087 30.1952 67.2346C29.8496 67.5802 29.5822 67.9649 29.3866 68.3561C29.3866 68.3561 29.341 67.7693 29.3019 67.1889C29.2758 66.6021 29.2693 66.0153 29.2693 66.0153V65.598C30.4495 65.7545 31.8774 65.285 32.9729 64.2874C34.1791 63.1854 34.6095 61.7835 34.1726 60.7076C32.9207 60.349 31.2971 60.7337 30.0843 61.8357C29.7192 62.1682 29.4323 62.5399 29.2106 62.9246L29.1714 60.5772V60.1599C30.3582 60.3621 31.7666 59.9447 32.8881 58.9862C34.1531 57.9234 34.6551 56.5346 34.2835 55.4456C33.0511 55.0479 31.408 55.3739 30.1365 56.4302C29.7518 56.7497 29.4453 57.1149 29.2106 57.4865L29.2953 55.1392L29.3084 54.7219C30.4886 54.9631 31.9361 54.598 33.0772 53.6786C34.3487 52.6614 34.8116 51.2856 34.5247 50.1771C33.3119 49.7337 31.6492 50.0076 30.3321 51.0183C29.9474 51.3247 29.6474 51.6768 29.4062 52.042C29.4062 52.042 29.4323 51.4551 29.4518 50.8683C29.504 50.2815 29.5562 49.7011 29.5562 49.7011L28.5129 49.6294C28.5129 49.6294 28.4607 50.2163 28.4086 50.8031C28.3825 51.3964 28.3629 51.9833 28.3629 51.9833C28.1477 51.5855 27.8739 51.2008 27.5153 50.8422C26.3872 49.662 24.7962 49.1273 23.5182 49.4208C22.977 50.5358 23.4074 52.1007 24.5876 53.2874C25.6569 54.3632 27.0784 54.8327 28.2716 54.6762L28.2586 55.1001L28.1738 57.4605C27.9587 57.0757 27.6848 56.6976 27.3197 56.352C26.1329 55.2044 24.5158 54.7219 23.2574 55.0675C22.801 56.2085 23.1987 57.7539 24.3855 58.895C25.4809 59.9317 26.948 60.3555 28.1217 60.1534V60.5772L28.1738 62.9441C27.9391 62.566 27.6391 62.2008 27.261 61.8618C26.0156 60.7598 24.3724 60.336 23.1335 60.7207C22.7423 61.8813 23.2183 63.4136 24.4637 64.5156C25.5917 65.5132 27.0328 65.8783 28.213 65.6371V66.0609C28.213 66.0609 28.2195 66.6543 28.2521 67.2411C28.2977 67.8279 28.3368 68.4213 28.3368 68.4213C28.0825 68.0496 27.7631 67.6975 27.3653 67.378C26.0873 66.3217 24.4702 65.9566 23.2248 66.3935C23.127 66.6869 23.0813 67.0064 23.0944 67.3259C23.1205 67.6519 23.1987 67.9844 23.3292 68.3105C23.59 68.969 24.0594 69.608 24.7115 70.1362C25.8917 71.0882 27.3588 71.3946 28.5259 71.1077L28.5585 71.5316L28.7281 73.892C28.4738 73.5333 28.1543 73.1878 27.763 72.8878C26.459 71.8837 24.7962 71.5837 23.5834 72.0728C23.4204 72.6726 23.4791 73.3442 23.7399 73.9963C23.8703 74.3223 24.0529 74.6418 24.2876 74.9418C24.5354 75.2417 24.8353 75.5221 25.1744 75.7698C26.4133 76.6762 27.8934 76.9174 29.041 76.5784L29.0932 76.9957L29.3997 79.343C29.1258 78.9975 28.7868 78.6649 28.376 78.378C27.0132 77.4326 25.3374 77.2043 24.1507 77.739C23.8899 78.9518 24.5419 80.4254 25.9047 81.3709C27.1175 82.2251 28.6628 82.3946 29.7778 82.0099L29.8561 82.4272L30.2995 84.755C30.0061 84.4225 29.6474 84.1095 29.2171 83.8421C27.8022 82.9619 26.1069 82.8119 24.9527 83.3988C24.7636 84.6181 25.4939 86.0656 26.9154 86.9459C28.1934 87.7414 29.68 87.8457 30.8016 87.4023L30.8798 87.8196C30.8798 87.8196 30.8994 87.9696 30.958 88.1782C31.0102 88.3934 31.082 88.6803 31.1537 88.9672C31.2971 89.541 31.4406 90.1148 31.4406 90.1148C31.1276 89.7953 30.7494 89.5019 30.306 89.2606C28.8259 88.4586 27.1631 88.3739 26.0221 89.0259C25.8917 90.2583 26.7198 91.6667 28.1868 92.4752C29.517 93.2055 31.0037 93.2381 32.0991 92.736L32.2035 93.1468L32.4969 94.2944L32.8555 95.4224C32.523 95.1225 32.1317 94.8486 31.6688 94.6269C30.1952 93.8901 28.5259 93.8901 27.4174 94.6009C27.3914 94.9138 27.4174 95.2333 27.5022 95.5528C27.5935 95.8658 27.7565 96.1788 27.9587 96.4722C28.3694 97.0591 28.9758 97.5807 29.7322 97.9459C31.1015 98.6044 32.5947 98.5588 33.664 97.998L33.7944 98.4023C33.7944 98.4023 33.9705 98.9696 34.1531 99.5303C34.2378 99.8172 34.3356 100.091 34.4204 100.3C34.4986 100.508 34.5508 100.645 34.5508 100.645C34.1987 100.365 33.7879 100.117 33.338 99.9085C31.8383 99.2434 30.156 99.3412 29.0932 100.104C29.0867 100.73 29.2693 101.389 29.7192 101.949C30.1626 102.517 30.8016 103.006 31.584 103.325C32.9924 103.906 34.4856 103.775 35.5159 103.156L35.6658 103.553C35.6658 103.553 35.8744 104.108 36.0896 104.662C36.2005 104.936 36.2983 105.216 36.383 105.418C36.4743 105.62 36.533 105.757 36.533 105.757C36.1614 105.497 35.7571 105.262 35.2941 105.086C33.7553 104.505 32.0796 104.694 31.0624 105.523C31.0819 106.149 31.3297 106.794 31.7861 107.342C32.2621 107.883 32.9272 108.333 33.7292 108.613C35.1702 109.115 36.6504 108.894 37.648 108.216L37.8241 108.6C37.8241 108.6 38.0653 109.141 38.3131 109.683C38.5478 110.23 38.8282 110.752 38.8282 110.752C38.437 110.517 38.0197 110.309 37.5502 110.159C35.9788 109.67 34.3161 109.956 33.3511 110.837C33.4097 111.463 33.6966 112.089 34.1791 112.61C34.6877 113.125 35.3789 113.536 36.194 113.764C37.6676 114.182 39.1282 113.875 40.0802 113.138L40.2758 113.51C40.2758 113.51 40.5496 114.032 40.8235 114.56C40.9539 114.827 41.1039 115.082 41.2212 115.271C41.3386 115.46 41.4103 115.59 41.4103 115.59C41.0191 115.375 40.5626 115.205 40.0866 115.082C38.4957 114.69 36.8525 115.075 35.9397 116.014C36.044 116.633 36.3439 117.253 36.8917 117.735C37.4263 118.218 38.1436 118.59 38.9652 118.772C40.4583 119.098 41.8928 118.707 42.7992 117.911L43.0144 118.277C43.0144 118.277 43.3143 118.792 43.6272 119.287C43.9598 119.776 44.2923 120.265 44.2923 120.265C43.8881 120.07 43.4317 119.926 42.9296 119.841C41.2995 119.561 39.702 120.031 38.8413 121.035C38.9065 121.341 39.0304 121.648 39.2064 121.928C39.3955 122.202 39.6368 122.456 39.9171 122.684C40.4779 123.134 41.2147 123.467 42.0428 123.597C43.549 123.839 44.9509 123.349 45.8051 122.502L46.0398 122.854C46.0398 122.854 46.1181 122.978 46.255 123.16C46.3919 123.336 46.568 123.571 46.7506 123.812C47.1092 124.282 47.4678 124.758 47.4678 124.758C47.057 124.588 46.5941 124.464 46.092 124.419C44.4162 124.262 42.8513 124.83 42.0624 125.886C42.434 127.086 43.7642 128.077 45.4269 128.24C46.9266 128.396 48.3285 127.796 49.1175 126.897L49.3913 127.223L50.9236 129.035C50.5063 128.892 50.0434 128.794 49.5348 128.774C47.8721 128.709 46.3202 129.4 45.616 130.496C46.0724 131.663 47.4222 132.602 49.1109 132.641C50.6498 132.667 51.993 131.996 52.7233 131.044L53.0102 131.35C53.0102 131.35 53.4144 131.78 53.8187 132.217C54.0208 132.432 54.223 132.648 54.3729 132.811C54.5294 132.967 54.6403 133.071 54.6403 133.071C54.1969 132.974 53.7405 132.895 53.2384 132.902C51.5887 132.935 50.089 133.723 49.4565 134.865C49.7108 135.445 50.1933 135.94 50.8193 136.293C51.4648 136.625 52.2538 136.801 53.1015 136.762C54.6272 136.697 55.9183 135.94 56.5834 134.943L56.8898 135.236C56.8898 135.236 56.9941 135.341 57.1571 135.491C57.3136 135.647 57.5288 135.856 57.7571 136.045C58.2004 136.436 58.6504 136.827 58.6504 136.827C58.2135 136.742 57.7375 136.716 57.2289 136.769C55.5662 136.932 54.1512 137.792 53.5774 138.985C54.1447 140.127 55.677 140.798 57.3332 140.635C58.8394 140.485 60.0783 139.638 60.6782 138.601L61.0107 138.862L62.8691 140.335C62.4322 140.277 61.9562 140.277 61.4607 140.355C59.8175 140.622 58.4352 141.607 57.9527 142.819C58.6308 143.876 60.137 144.528 61.7997 144.228C63.3125 143.954 64.4926 143.028 65.0273 141.952L65.3729 142.2C65.3729 142.2 65.8554 142.546 66.3379 142.891C66.8139 143.243 67.316 143.563 67.316 143.563C66.8661 143.543 66.3901 143.576 65.9076 143.68C64.2971 144.032 62.9864 145.102 62.5822 146.347C62.9473 146.862 63.5081 147.266 64.1992 147.475C64.8904 147.677 65.6989 147.703 66.514 147.501C67.9941 147.149 69.1091 146.158 69.5721 145.043L69.9307 145.271L71.9651 146.491C71.5217 146.491 71.0522 146.549 70.5697 146.693C68.9722 147.169 67.7268 148.323 67.4073 149.588C68.2158 150.546 69.7873 150.996 71.4043 150.488C72.8649 150.025 73.9212 148.962 74.3125 147.827L74.6841 148.029C74.6841 148.029 75.2057 148.31 75.7274 148.597C76.2555 148.864 76.7837 149.131 76.7837 149.131C76.3403 149.164 75.8708 149.255 75.3948 149.431C73.8364 149.998 72.6758 151.211 72.4346 152.502C73.2692 153.461 74.9188 153.728 76.4772 153.154C77.9052 152.607 78.8963 151.472 79.2093 150.311L79.594 150.488L80.6699 150.983C81.2176 151.218 81.7588 151.446 81.7588 151.446C81.3154 151.505 80.8589 151.629 80.396 151.837C78.8833 152.496 77.7944 153.793 77.6379 155.091C78.5377 155.984 80.1939 156.173 81.7262 155.482C83.1216 154.837 84.0279 153.643 84.2626 152.463L84.6604 152.613C84.6604 152.613 85.2081 152.835 85.7688 153.024L86.8838 153.422C86.447 153.507 85.9971 153.656 85.5537 153.891C84.0735 154.674 83.0889 156.017 83.0172 157.334C83.9953 158.149 85.6645 158.253 87.1577 157.438C88.5139 156.708 89.3225 155.437 89.4594 154.243L89.8637 154.367L90.1506 153.357L89.7528 153.239C90.2745 152.15 90.2745 150.67 89.7333 149.327L89.7398 149.268Z" fill="#183041"/>
<path d="M29.5758 49.2708C30.4821 48.5797 31.1538 47.4516 31.2711 46.0823C31.4146 44.4392 30.743 42.9525 29.6671 42.157C28.4738 42.6917 27.5545 44.048 27.411 45.7302C27.2871 47.1321 27.7501 48.3841 28.526 49.1926L28.4869 49.6164L29.5301 49.6881L29.5693 49.2643L29.5758 49.2708Z" fill="#183041"/>
<path d="M160.917 67.3585C160.519 67.678 160.2 68.0367 159.945 68.4018C159.945 68.4018 159.991 67.815 160.03 67.2216C160.056 66.6282 160.063 66.0414 160.063 66.0414V65.6176C161.249 65.8588 162.697 65.4937 163.825 64.4961C165.07 63.3941 165.553 61.8618 165.155 60.7012C163.916 60.3165 162.28 60.7403 161.028 61.8422C160.65 62.1748 160.35 62.5464 160.115 62.9246L160.154 60.5577V60.1339C161.334 60.336 162.801 59.9122 163.903 58.8754C165.09 57.7278 165.488 56.189 165.031 55.0479C163.773 54.7089 162.156 55.1914 160.969 56.3325C160.61 56.6781 160.33 57.0562 160.115 57.4475L160.03 55.0871L160.017 54.6632C161.21 54.8197 162.632 54.3503 163.701 53.2744C164.881 52.0877 165.312 50.5293 164.771 49.4078C163.493 49.1078 161.902 49.6425 160.773 50.8292C160.415 51.1878 160.134 51.5791 159.926 51.9703C159.926 51.9703 159.9 51.3769 159.88 50.7901C159.828 50.2033 159.776 49.6164 159.776 49.6164L159.737 49.1926C160.513 48.3775 160.976 47.1321 160.852 45.7302C160.702 44.048 159.789 42.6917 158.596 42.157C157.52 42.9525 156.848 44.4392 156.992 46.0823C157.109 47.4516 157.781 48.5797 158.687 49.2708L158.726 49.6947C158.726 49.6947 158.778 50.2815 158.83 50.8618L158.876 52.0355C158.635 51.6704 158.335 51.3183 157.95 51.0118C156.626 49.9946 154.964 49.7273 153.757 50.1707C153.471 51.2791 153.927 52.6549 155.205 53.6721C156.346 54.5915 157.8 54.9567 158.974 54.7154L158.987 55.1327L159.072 57.4801C158.83 57.1019 158.524 56.7433 158.146 56.4238C156.881 55.3609 155.231 55.0349 153.999 55.4392C153.621 56.5346 154.123 57.9235 155.394 58.9798C156.516 59.9318 157.924 60.3556 159.117 60.1535V60.5708L159.065 62.9181C158.843 62.5334 158.563 62.1617 158.191 61.8292C156.985 60.7272 155.355 60.3425 154.103 60.7012C153.666 61.777 154.097 63.1789 155.303 64.2809C156.398 65.2785 157.826 65.748 159.013 65.5915V66.0088C159.013 66.0088 159.006 66.5956 158.974 67.1825C158.928 67.7693 158.889 68.3496 158.889 68.3496C158.687 67.9584 158.426 67.5802 158.081 67.2281C156.9 66.0805 155.257 65.6306 154.012 65.9436C153.901 66.2109 153.849 66.4978 153.849 66.7978C153.829 67.0977 153.862 67.4042 153.947 67.7172C154.116 68.3431 154.488 68.9821 155.062 69.5559C156.098 70.5927 157.5 71.1208 158.7 71.01L158.667 71.4273L158.498 73.7681C158.302 73.3704 158.035 72.9726 157.689 72.614C156.548 71.4142 154.944 70.9057 153.679 71.1665C153.431 71.6816 153.399 72.301 153.568 72.9335C153.653 73.253 153.79 73.5725 153.973 73.892C154.142 74.2115 154.364 74.518 154.631 74.8179C155.609 75.8938 156.979 76.4806 158.185 76.4219L158.133 76.8392L157.826 79.167C157.65 78.7563 157.409 78.352 157.083 77.9803C156.007 76.7349 154.436 76.1611 153.151 76.3633C152.603 77.3739 152.871 78.8019 153.947 80.0473C154.938 81.1753 156.229 81.8143 157.448 81.8143L157.37 82.2251L156.933 84.5268C156.783 84.1095 156.561 83.6987 156.255 83.3075C155.251 82.0165 153.712 81.3775 152.414 81.5144C151.808 82.4925 151.99 83.927 153.001 85.2115C153.907 86.3721 155.238 87.0894 156.431 87.1481L156.353 87.5588C156.353 87.5588 156.333 87.7023 156.274 87.9175C156.222 88.1326 156.15 88.413 156.079 88.6999L155.792 89.8345C155.661 89.4107 155.472 88.9933 155.185 88.5891C154.266 87.2589 152.721 86.5351 151.443 86.6199C150.791 87.5654 150.882 88.9933 151.821 90.3235C152.662 91.5233 153.947 92.3122 155.14 92.4231L155.036 92.8274L154.742 93.9619C154.566 94.5227 154.39 95.0769 154.39 95.0769C154.286 94.6531 154.116 94.2227 153.862 93.8054C152.969 92.4166 151.469 91.6211 150.184 91.6341C150.021 91.8623 149.904 92.1297 149.832 92.4166C149.754 92.7035 149.708 93.0034 149.721 93.3229C149.741 93.9619 149.963 94.6661 150.386 95.3508C151.156 96.5897 152.395 97.4438 153.581 97.6199L153.458 98.0176C153.458 98.0176 153.281 98.5784 153.105 99.1326C153.021 99.413 152.929 99.6934 152.845 99.8955C152.766 100.098 152.714 100.235 152.714 100.235C152.636 99.8042 152.499 99.3674 152.238 98.9305C151.404 97.4895 149.969 96.6223 148.678 96.5636C148.313 97.0004 148.169 97.5938 148.15 98.2328C148.137 98.8718 148.313 99.5825 148.698 100.287C149.395 101.565 150.582 102.484 151.762 102.725L151.612 103.117C151.612 103.117 151.404 103.664 151.195 104.212C151.091 104.486 150.993 104.76 150.902 104.962C150.81 105.164 150.752 105.294 150.752 105.294C150.706 104.864 150.569 104.408 150.341 103.958C149.591 102.478 148.209 101.532 146.924 101.402C146.539 101.819 146.344 102.386 146.311 103.038C146.259 103.671 146.396 104.388 146.741 105.118C147.367 106.429 148.496 107.42 149.656 107.727L149.487 108.105C149.487 108.105 149.245 108.639 149.004 109.174C148.776 109.715 148.495 110.23 148.495 110.23C148.476 109.8 148.365 109.337 148.163 108.874C147.504 107.348 146.174 106.331 144.903 106.123C144.498 106.514 144.264 107.075 144.199 107.714C144.107 108.346 144.199 109.063 144.505 109.813C145.053 111.163 146.122 112.213 147.263 112.591L147.068 112.962C147.068 112.962 146.794 113.484 146.526 113.999C146.396 114.26 146.246 114.514 146.135 114.703C146.024 114.893 145.946 115.016 145.946 115.016C145.946 114.58 145.887 114.13 145.705 113.647C145.137 112.089 143.866 110.987 142.614 110.7C142.177 111.059 141.936 111.619 141.806 112.232C141.682 112.858 141.734 113.582 141.988 114.345C142.451 115.727 143.462 116.842 144.57 117.292L144.355 117.651C144.355 117.651 144.062 118.159 143.749 118.648C143.423 119.131 143.09 119.62 143.09 119.62C143.116 119.183 143.077 118.72 142.947 118.244C142.49 116.66 141.277 115.473 140.045 115.121C139.823 115.29 139.634 115.505 139.491 115.76C139.334 116.001 139.21 116.281 139.126 116.588C138.969 117.201 138.976 117.938 139.191 118.72C139.576 120.128 140.508 121.309 141.59 121.83L141.356 122.176C141.356 122.176 141.277 122.3 141.147 122.476C141.017 122.652 140.834 122.887 140.658 123.115C140.306 123.578 139.947 124.047 139.947 124.047C139.993 123.61 139.986 123.141 139.882 122.658C139.563 121.074 138.421 119.809 137.215 119.372C136.257 119.972 135.794 121.302 136.133 122.9C136.446 124.347 137.274 125.56 138.324 126.153L138.056 126.473L136.544 128.259C136.615 127.823 136.628 127.353 136.557 126.864C136.322 125.24 135.292 123.93 134.105 123.408C133.107 123.936 132.599 125.273 132.814 126.871C132.996 128.299 133.759 129.583 134.763 130.248L134.477 130.555C134.477 130.555 134.079 130.985 133.675 131.409C133.472 131.624 133.277 131.839 133.127 131.996C132.97 132.146 132.866 132.25 132.866 132.25C132.983 131.833 133.016 131.35 132.97 130.855C132.827 129.211 131.881 127.829 130.74 127.229C130.232 127.47 129.834 127.914 129.573 128.501C129.293 129.068 129.156 129.785 129.208 130.587C129.306 132.035 129.984 133.378 130.942 134.102L130.643 134.395C130.643 134.395 130.538 134.499 130.382 134.649C130.225 134.806 130.017 135.008 129.788 135.197C129.345 135.582 128.908 135.967 128.908 135.967C129.045 135.549 129.123 135.093 129.123 134.597C129.11 132.967 128.23 131.494 127.141 130.835C126.117 131.265 125.374 132.452 125.394 134.089C125.407 135.562 125.993 136.932 126.906 137.721L126.58 137.981L124.748 139.435C124.905 139.018 125.015 138.562 125.041 138.066C125.126 136.43 124.376 134.943 123.32 134.193C122.231 134.513 121.475 135.725 121.364 137.329C121.26 138.77 121.762 140.179 122.616 141.026L122.277 141.268C122.277 141.268 121.801 141.607 121.325 141.952C120.855 142.304 120.36 142.617 120.36 142.617C120.549 142.226 120.692 141.783 120.745 141.281C120.927 139.638 120.268 138.099 119.264 137.29C118.717 137.421 118.247 137.792 117.862 138.307C117.478 138.816 117.21 139.494 117.106 140.296C116.924 141.744 117.334 143.191 118.136 144.085L117.784 144.313L115.776 145.519C115.985 145.128 116.148 144.691 116.239 144.202C116.539 142.591 115.985 141.02 115.026 140.14C113.905 140.316 112.992 141.424 112.679 143.002C112.392 144.424 112.711 145.891 113.455 146.836L113.09 147.038C113.09 147.038 112.574 147.319 112.059 147.599C111.538 147.86 111.016 148.127 111.016 148.127C111.251 147.756 111.446 147.332 111.57 146.856C111.961 145.258 111.505 143.635 110.612 142.709C109.51 142.872 108.493 143.83 108.095 145.421C107.723 146.83 107.945 148.297 108.623 149.294L108.245 149.47C108.245 149.47 107.71 149.718 107.182 149.959L106.106 150.416C106.367 150.057 106.589 149.653 106.739 149.183C107.228 147.606 106.876 145.969 106.047 144.984C104.932 145.063 103.87 145.975 103.368 147.527C102.905 148.897 103.028 150.39 103.641 151.427L103.25 151.576C103.25 151.576 102.709 151.798 102.155 151.981C101.607 152.176 101.053 152.372 101.053 152.372C101.333 152.033 101.581 151.635 101.764 151.172C102.37 149.659 102.116 147.977 101.359 146.947C100.244 146.927 99.1488 147.788 98.5359 149.268C97.9947 150.605 97.9882 152.092 98.5164 153.181L98.1186 153.298L97.0753 153.585C96.7949 153.657 96.6254 153.937 96.6906 154.224C96.7558 154.504 97.0493 154.674 97.3362 154.602L98.4055 154.309L98.8097 154.185C98.9467 155.378 99.7617 156.649 101.111 157.38C102.605 158.195 104.28 158.09 105.252 157.275C105.18 155.958 104.196 154.622 102.716 153.833C102.266 153.598 101.822 153.448 101.385 153.363C101.385 153.363 101.946 153.167 102.5 152.965C103.061 152.776 103.615 152.555 103.615 152.555L104.013 152.405C104.248 153.585 105.154 154.778 106.549 155.424C108.075 156.108 109.731 155.919 110.638 155.032C110.481 153.735 109.392 152.437 107.88 151.779C107.417 151.576 106.954 151.446 106.517 151.387C106.517 151.387 107.065 151.153 107.606 150.924C108.147 150.677 108.682 150.429 108.682 150.429L109.066 150.253C109.379 151.407 110.371 152.548 111.798 153.096C113.363 153.67 115.007 153.402 115.841 152.444C115.593 151.153 114.439 149.94 112.881 149.373C112.405 149.197 111.942 149.105 111.492 149.073C111.492 149.073 112.02 148.805 112.548 148.538C113.07 148.258 113.592 147.971 113.592 147.971L113.963 147.769C114.354 148.91 115.404 149.966 116.871 150.429C118.488 150.944 120.066 150.488 120.868 149.529C120.549 148.271 119.304 147.11 117.706 146.634C117.223 146.491 116.754 146.432 116.311 146.432L118.345 145.213L118.704 144.984C119.167 146.099 120.282 147.084 121.762 147.443C122.583 147.638 123.385 147.612 124.076 147.416C124.768 147.208 125.328 146.804 125.694 146.288C125.289 145.043 123.979 143.98 122.368 143.622C121.886 143.517 121.41 143.485 120.96 143.504C120.96 143.504 121.462 143.191 121.938 142.833C122.42 142.487 122.903 142.141 122.903 142.141L123.248 141.894C123.783 142.97 124.963 143.895 126.476 144.169C128.139 144.463 129.651 143.817 130.323 142.761C129.847 141.548 128.458 140.563 126.815 140.296C126.319 140.218 125.844 140.218 125.407 140.277L127.265 138.803L127.597 138.542C128.197 139.585 129.436 140.433 130.942 140.577C132.605 140.74 134.131 140.068 134.698 138.927C134.124 137.734 132.709 136.873 131.047 136.71C130.538 136.658 130.062 136.684 129.625 136.769C129.625 136.769 130.069 136.377 130.519 135.986C130.747 135.797 130.956 135.588 131.119 135.432C131.282 135.275 131.386 135.178 131.386 135.178L131.692 134.884C132.364 135.888 133.648 136.638 135.174 136.703C136.022 136.743 136.811 136.56 137.456 136.234C138.082 135.882 138.558 135.38 138.819 134.806C138.18 133.665 136.68 132.876 135.031 132.843C134.529 132.83 134.072 132.908 133.629 133.013C133.629 133.013 133.733 132.908 133.896 132.752C134.046 132.589 134.248 132.374 134.45 132.159C134.855 131.728 135.259 131.291 135.259 131.291L135.546 130.985C136.276 131.937 137.619 132.609 139.158 132.582C140.847 132.543 142.197 131.604 142.653 130.437C141.942 129.348 140.397 128.651 138.734 128.716C138.232 128.735 137.769 128.833 137.346 128.977L138.878 127.164L139.152 126.838C139.941 127.738 141.343 128.338 142.842 128.181C144.505 128.018 145.835 127.027 146.207 125.827C145.418 124.771 143.853 124.204 142.177 124.36C141.675 124.412 141.212 124.53 140.801 124.699C140.801 124.699 141.16 124.23 141.519 123.754C141.695 123.519 141.877 123.284 142.014 123.102C142.145 122.926 142.229 122.795 142.229 122.795L142.464 122.443C143.318 123.297 144.727 123.78 146.226 123.539C147.061 123.408 147.791 123.076 148.352 122.626C148.632 122.398 148.874 122.143 149.063 121.869C149.239 121.589 149.363 121.283 149.428 120.976C148.567 119.978 146.97 119.502 145.34 119.783C144.838 119.861 144.381 120.011 143.977 120.207L144.642 119.229C144.961 118.727 145.255 118.218 145.255 118.218L145.47 117.853C146.376 118.648 147.811 119.046 149.304 118.713C150.126 118.531 150.843 118.159 151.378 117.677C151.925 117.201 152.225 116.575 152.33 115.955C151.417 115.016 149.774 114.632 148.183 115.023C147.707 115.147 147.25 115.316 146.859 115.532C146.859 115.532 146.937 115.408 147.048 115.212C147.165 115.023 147.315 114.769 147.446 114.501C147.72 113.98 147.993 113.452 147.993 113.452L148.189 113.08C149.141 113.817 150.602 114.123 152.075 113.706C152.89 113.478 153.581 113.06 154.09 112.552C154.579 112.03 154.859 111.404 154.918 110.778C153.953 109.898 152.29 109.611 150.719 110.1C150.25 110.25 149.832 110.459 149.441 110.693C149.441 110.693 149.721 110.172 149.956 109.624C150.197 109.083 150.445 108.542 150.445 108.542L150.621 108.157C151.619 108.835 153.092 109.057 154.54 108.555C155.342 108.274 156.007 107.824 156.483 107.283C156.933 106.735 157.181 106.09 157.207 105.464C156.19 104.636 154.514 104.453 152.975 105.027C152.512 105.203 152.108 105.438 151.736 105.699C151.736 105.699 151.795 105.562 151.886 105.36C151.977 105.158 152.075 104.877 152.18 104.603C152.388 104.049 152.603 103.495 152.603 103.495L152.753 103.097C153.784 103.716 155.277 103.847 156.685 103.267C157.468 102.947 158.1 102.452 158.55 101.891C159 101.323 159.182 100.665 159.176 100.045C158.113 99.2761 156.431 99.1848 154.931 99.8499C154.488 100.052 154.07 100.306 153.718 100.587C153.718 100.587 153.771 100.45 153.849 100.241C153.934 100.039 154.031 99.7521 154.116 99.4717C154.292 98.9044 154.475 98.3437 154.475 98.3437L154.605 97.9394C155.674 98.5001 157.161 98.5523 158.537 97.8872C159.293 97.5221 159.9 97.0004 160.311 96.4136C160.513 96.1202 160.676 95.8137 160.767 95.4942C160.852 95.1747 160.884 94.8552 160.852 94.5422C159.743 93.8315 158.074 93.8315 156.6 94.5683C156.137 94.79 155.746 95.0639 155.414 95.3638C155.414 95.3638 155.59 94.7965 155.772 94.2358L156.066 93.0882L156.17 92.6774C157.265 93.1795 158.759 93.1469 160.082 92.4166C161.549 91.608 162.378 90.1996 162.247 88.9673C161.106 88.3152 159.443 88.4 157.963 89.202C157.52 89.4498 157.142 89.7432 156.829 90.0562L157.116 88.9086C157.187 88.6217 157.259 88.3348 157.311 88.1196C157.363 87.9044 157.389 87.761 157.389 87.761L157.468 87.3437C158.589 87.7936 160.069 87.6827 161.354 86.8872C162.769 86.007 163.506 84.5594 163.316 83.3401C162.162 82.7468 160.474 82.9033 159.052 83.7835C158.622 84.0509 158.27 84.3638 157.97 84.6964L158.413 82.3686L158.491 81.9513C159.613 82.3425 161.152 82.173 162.364 81.3123C163.727 80.3668 164.373 78.8932 164.118 77.6804C162.932 77.1457 161.256 77.3739 159.893 78.3194C159.482 78.6063 159.143 78.9323 158.87 79.2844L159.176 76.9371L159.228 76.5197C160.382 76.8588 161.862 76.6176 163.095 75.7112C163.434 75.4634 163.734 75.1831 163.982 74.8831C164.21 74.5832 164.392 74.2637 164.529 73.9377C164.79 73.2856 164.849 72.614 164.686 72.0141C163.473 71.5316 161.817 71.8316 160.506 72.8292C160.108 73.1356 159.795 73.4747 159.541 73.8333L159.717 71.4729L159.75 71.0491C160.917 71.3425 162.377 71.0361 163.564 70.0776C164.216 69.5494 164.686 68.9104 164.947 68.2518C165.077 67.9258 165.155 67.5868 165.188 67.2672C165.201 66.9412 165.155 66.6282 165.057 66.3348C163.812 65.898 162.195 66.2696 160.917 67.3194V67.3585Z" fill="#183041"/>
<path d="M149.447 46.2975L148.828 40.7943L143.292 40.5204C134.138 40.0705 116.695 38.0166 102.755 29.3183C101.633 28.6206 99.2531 26.8927 97.923 25.9016L94.0303 23L90.1376 25.9016C88.4618 27.147 86.3166 28.6923 85.2994 29.3248C71.3587 38.0166 53.9166 40.0705 44.7619 40.5204L39.226 40.7943L38.6066 46.2975C33.8467 88.6738 47.9112 112.91 60.5478 125.782C74.7363 140.237 90.744 144.345 92.5241 144.769L94.0238 145.128L95.5235 144.769C97.3035 144.345 113.305 140.237 127.5 125.782C140.136 112.91 154.201 88.6738 149.441 46.2975H149.447ZM94.7801 141.6L94.0303 141.776L93.2804 141.6C91.5982 141.202 76.4316 137.303 62.8822 123.499C50.7411 111.137 37.2373 87.7675 41.8537 46.6627L42.1602 43.911L44.9249 43.7741C54.3926 43.3112 72.4542 41.1725 87.0208 32.083C88.1945 31.3527 90.4832 29.6965 92.0807 28.5098L94.0303 27.0622L95.9734 28.5163C97.1536 29.3965 99.7291 31.281 101.027 32.0895C115.593 41.1725 133.655 43.3112 143.123 43.7806L145.887 43.9176L146.194 46.6692C150.81 87.774 137.306 111.143 125.165 123.506C111.616 137.31 96.4494 141.209 94.7671 141.607L94.7801 141.6Z" fill="#183041"/>
<path d="M63.4103 89.841C63.4103 89.841 63.3842 89.8215 63.3647 89.8149C63.3647 89.8149 63.1952 97.7568 70.0221 101.467C76.8555 105.177 76.8555 112.239 76.8555 112.239C76.8555 112.239 62.2366 104.473 55.1685 89.1107C48.1003 73.7551 47.7809 74.8114 47.7809 74.8114C47.3505 76.2329 48.1264 79.0497 48.3025 80.4711C49.9652 93.7598 54.4186 105.933 62.9865 115.792C71.2022 125.24 81.2307 131.057 90.4506 135.341C90.405 135.321 91.7286 129.733 91.7742 129.361C92.8892 121.002 90.9266 110.785 85.2734 104.721C79.3724 98.3893 70.5437 94.2684 63.4038 89.8475L63.4103 89.841Z" fill="#183041"/>
<path d="M132.853 89.1041C125.785 104.46 111.166 112.232 111.166 112.232C111.166 112.232 111.166 105.17 117.999 101.46C124.833 97.7502 124.657 89.8083 124.657 89.8083C124.644 89.8148 124.631 89.8279 124.611 89.8344C117.471 94.2618 108.643 98.3827 102.742 104.707C97.0884 110.772 95.1192 120.989 96.2407 129.348C96.2928 129.713 97.6165 135.301 97.5644 135.327C106.784 131.044 116.813 125.234 125.028 115.779C133.603 105.92 138.05 93.7466 139.712 80.458C139.889 79.0365 140.664 76.2197 140.234 74.7983C140.234 74.7983 139.915 73.7419 132.846 89.0976L132.853 89.1041Z" fill="#183041"/>
<path d="M55.7228 71.8382C57.5681 69.9929 58.5331 69.1387 60.5349 67.5673C60.0784 66.987 59.8502 66.6935 59.3938 66.1132C58.0832 67.1435 57.4442 67.6846 56.1922 68.8322C55.1685 67.7107 54.6599 67.1565 53.6362 66.035C54.6991 65.0634 55.2402 64.6005 56.3422 63.7007C55.8792 63.1269 55.6445 62.84 55.1816 62.2596C54.0405 63.179 53.4862 63.6615 52.3908 64.6657C51.4193 63.6029 50.9302 63.0682 49.9587 62.0053C51.4193 60.6687 52.1626 60.0362 53.6949 58.8364C53.2385 58.2561 53.0102 57.9627 52.5538 57.3824C50.063 59.3385 48.8633 60.3948 46.5746 62.69C50.2326 66.348 52.0648 68.1802 55.7293 71.8447L55.7228 71.8382Z" fill="#92220F"/>
<path d="M66.4619 63.5377C68.4311 62.3836 68.9331 60.91 68.0007 59.0582C66.827 56.7173 66.2337 55.5502 65.06 53.2093C64.1276 51.3575 62.3671 50.9272 59.9219 52.3682C58.3701 53.2745 57.6072 53.7571 56.1075 54.7808C59.0221 59.0582 60.4827 61.2034 63.3973 65.4808C64.6036 64.6592 65.2165 64.268 66.4619 63.5377ZM60.8087 53.9853C61.5651 53.5419 62.191 53.581 62.6409 54.383C63.9516 56.7369 64.6101 57.9106 65.9207 60.2645C66.3706 61.073 66.1359 61.5816 65.4904 61.9598C65.0339 62.2271 64.8057 62.3706 64.3493 62.6509C62.3997 59.5081 61.4282 57.9367 59.4785 54.7873C60.0067 54.4547 60.274 54.2982 60.8152 53.9787L60.8087 53.9853Z" fill="#92220F"/>
<path d="M75.6883 59.4362C77.7553 58.7059 78.5312 57.291 77.964 55.3022C76.8881 51.5074 76.3469 49.6099 75.271 45.8215C74.2604 46.1084 73.7583 46.2584 72.7607 46.5844C74.0061 50.3793 74.6255 52.2768 75.8709 56.0782C76.1578 56.9584 75.8253 57.4149 75.1276 57.6561C74.4364 57.8974 73.8822 57.7539 73.5561 56.8867C72.1477 53.1505 71.4435 51.2791 70.0351 47.5429C68.9918 47.9342 68.4702 48.1428 67.44 48.5797C68.9853 52.205 69.7547 54.0242 71.3001 57.6496C72.1086 59.5536 73.6148 60.1665 75.6883 59.4362Z" fill="#92220F"/>
<path d="M81.4133 54.4221C81.8502 56.4434 83.2064 57.3302 85.3517 57.0042C87.5034 56.6782 88.5206 55.4328 88.338 53.3723C88.2793 52.6877 88.2467 52.3421 88.188 51.6574C87.2752 51.7357 86.8253 51.7879 85.9124 51.9052C86.0102 52.642 86.0559 53.0072 86.1471 53.7375C86.2645 54.6568 85.8537 55.0415 85.13 55.1459C84.4062 55.2567 83.8976 55.0089 83.7411 54.0961C83.2651 51.3445 83.0238 49.9621 82.5479 47.2105C82.3914 46.2976 82.8609 45.8608 83.7085 45.7304C84.5562 45.6 85.13 45.8869 85.2539 46.8062C85.3256 47.354 85.3582 47.6343 85.4299 48.182C86.3949 48.0582 86.8839 48.006 87.849 47.9212C87.8033 47.4192 87.7838 47.1714 87.7381 46.6693C87.5556 44.6089 86.0428 43.5134 83.3564 43.9177C80.67 44.322 79.5485 45.8217 79.9853 47.843C80.5591 50.4772 80.8395 51.7879 81.4133 54.4221Z" fill="#92220F"/>
<path d="M93.8282 53.907C94.9628 53.9135 95.53 53.9331 96.6646 54.0048C96.7689 54.9503 96.8145 55.4263 96.9058 56.3717C97.7991 56.4304 98.2425 56.4695 99.1358 56.5673C98.8033 51.3249 98.5229 48.6972 97.747 43.4547C96.1364 43.3504 95.3279 43.3178 93.7173 43.3113C92.5697 48.482 92.1003 51.0836 91.3895 56.287C92.2046 56.2543 92.6089 56.2478 93.4239 56.2478C93.5804 55.3089 93.6587 54.8394 93.8282 53.9005V53.907ZM95.517 45.6391C95.9408 48.2733 96.1234 49.5905 96.4429 52.2312C95.5235 52.1791 95.0671 52.166 94.1412 52.153C94.6367 49.5383 94.9106 48.2407 95.5104 45.6391H95.517Z" fill="#92220F"/>
<path d="M103.798 57.2844C104.672 57.4605 105.102 57.5517 105.969 57.7669C107.019 53.4569 107.547 51.2987 108.603 46.9886C109.699 47.256 110.24 47.3994 111.322 47.7124C111.531 47.0017 111.635 46.6496 111.838 45.9389C108.538 44.9803 106.863 44.6152 103.491 44.0936C103.381 44.8239 103.322 45.189 103.211 45.9193C104.32 46.0888 104.874 46.1866 105.976 46.4083C105.102 50.7575 104.672 52.9353 103.798 57.2844Z" fill="#92220F"/>
<path d="M113.194 60.0752C115.124 55.2697 116.089 52.8702 118.019 48.0646C116.982 47.6473 116.461 47.4517 115.411 47.08C113.683 51.9638 112.822 54.4025 111.094 59.2863C111.942 59.5862 112.359 59.7427 113.194 60.0752Z" fill="#92220F"/>
<path d="M119.382 63.2117C121.325 64.3071 122.988 64.0202 124.122 62.2858C125.596 60.0297 126.326 58.9017 127.8 56.6456C128.934 54.9111 128.308 53.0398 125.876 51.6705C123.444 50.3012 121.553 50.7511 120.66 52.6225C119.493 55.0481 118.912 56.2609 117.745 58.693C116.845 60.5579 117.439 62.1228 119.382 63.2182V63.2117ZM119.825 59.8862C121.142 57.4215 121.801 56.1826 123.118 53.7179C123.555 52.9029 124.207 52.8507 124.97 53.281C125.733 53.7114 126.033 54.2982 125.557 55.0937C124.129 57.4998 123.418 58.6995 121.996 61.1056C121.527 61.9011 120.94 61.9597 120.288 61.5946C119.636 61.2295 119.388 60.7013 119.825 59.8862Z" fill="#92220F"/>
<path d="M126.998 68.2389C129.371 65.3308 130.551 63.8832 132.925 60.9751C131.614 64.7505 130.871 66.5892 129.215 70.1559C129.932 70.8145 130.284 71.147 130.982 71.8447C134.64 68.1867 136.472 66.3545 140.136 62.69C139.386 61.9402 139.008 61.575 138.239 60.8643C136.139 63.1399 135.083 64.281 132.983 66.5566C134.301 63.5507 134.9 62.0119 135.983 58.869C134.861 57.9236 134.294 57.4671 133.133 56.5999C130.023 60.7404 128.465 62.8074 125.354 66.9413C126.02 67.4434 126.352 67.7042 127.004 68.2389H126.998Z" fill="#92220F"/>
<path d="M102.109 98.0112C104.959 95.4422 108.336 93.2122 111.929 91.1713C117.634 87.9372 120.399 81.6515 118.599 75.6983C118.573 75.607 118.541 75.5157 118.515 75.4244C115.3 78.6195 110.468 82.2057 103.237 85.9223C103.224 85.9289 103.211 85.9354 103.192 85.9419C102.644 86.281 102.083 86.6135 101.483 86.9461C97.9556 88.8957 95.7713 91.4452 94.4867 94.2163C93.2022 91.4517 91.0179 88.8957 87.4903 86.9461C86.8904 86.6135 86.3297 86.281 85.782 85.9419C85.7689 85.9354 85.7559 85.9289 85.7363 85.9223C78.4986 82.2057 73.6735 78.6195 70.4589 75.4244C70.4329 75.5157 70.4003 75.607 70.3742 75.6983C68.5745 81.6515 71.3457 87.9372 77.0446 91.1713C80.6373 93.2122 84.015 95.4422 86.8644 98.0112C89.9877 100.828 92.2372 104.466 93.6717 108.418C93.8934 109.37 94.1412 110.244 94.3824 111.02C94.4737 111.02 94.3824 111.02 94.4672 111.02C94.4672 111.006 94.4737 110.993 94.4802 110.98C94.4802 110.993 94.4867 111.006 94.4933 111.02C94.5845 111.02 94.4933 111.02 94.578 111.02C94.8193 110.244 95.0671 109.363 95.2888 108.418C96.7298 104.466 98.9728 100.822 102.096 98.0112H102.109Z" fill="#92220F"/>
<path d="M104.197 76.489C106.36 71.2656 103.88 65.2772 98.6563 63.1136C93.4329 60.95 87.4445 63.4305 85.2809 68.6539C83.1173 73.8773 85.5978 79.8657 90.8212 82.0293C96.0446 84.1929 102.033 81.7125 104.197 76.489Z" fill="#92220F"/>
</g>
<defs>
<filter id="filter0_d_248_591" x="0" y="0" width="188" height="188" filterUnits="userSpaceOnUse" color-interpolation-filters="sRGB">
<feFlood flood-opacity="0" result="BackgroundImageFix"/>
<feColorMatrix in="SourceAlpha" type="matrix" values="0 0 0 0 0 0 0 0 0 0 0 0 0 0 0 0 0 0 127 0" result="hardAlpha"/>
<feOffset dy="4"/>
<feGaussianBlur stdDeviation="2"/>
<feComposite in2="hardAlpha" operator="out"/>
<feColorMatrix type="matrix" values="0 0 0 0 0 0 0 0 0 0 0 0 0 0 0 0 0 0 0.25 0"/>
<feBlend mode="normal" in2="BackgroundImageFix" result="effect1_dropShadow_248_591"/>
<feBlend mode="normal" in="SourceGraphic" in2="effect1_dropShadow_248_591" result="shape"/>
</filter>
</defs>
</svg>
