<svg width="17" height="18" viewBox="0 0 17 18" fill="none" xmlns="http://www.w3.org/2000/svg">
<g clip-path="url(#clip0_620_7054)">
<path d="M12.75 7.40625C12.75 6.63884 12.5988 5.87894 12.3052 5.16994C12.0115 4.46095 11.581 3.81674 11.0384 3.27409C10.4958 2.73145 9.85155 2.301 9.14256 2.00733C8.43356 1.71365 7.67366 1.5625 6.90625 1.5625C6.13884 1.5625 5.37894 1.71365 4.66994 2.00733C3.96095 2.301 3.31674 2.73145 2.77409 3.27409C2.23145 3.81674 1.801 4.46095 1.50733 5.16994C1.21365 5.87894 1.0625 6.63884 1.0625 7.40625C1.0625 8.17366 1.21365 8.93356 1.50733 9.64256C1.801 10.3516 2.23145 10.9958 2.77409 11.5384C3.31674 12.081 3.96095 12.5115 4.66994 12.8052C5.37894 13.0988 6.13884 13.25 6.90625 13.25C7.67366 13.25 8.43356 13.0988 9.14256 12.8052C9.85155 12.5115 10.4958 12.081 11.0384 11.5384C11.581 10.9958 12.0115 10.3516 12.3052 9.64256C12.5988 8.93356 12.75 8.17366 12.75 7.40625ZM11.3986 12.6523C10.1934 13.6883 8.62285 14.3125 6.90625 14.3125C3.09121 14.3125 0 11.2213 0 7.40625C0 3.59121 3.09121 0.5 6.90625 0.5C10.7213 0.5 13.8125 3.59121 13.8125 7.40625C13.8125 9.12285 13.1883 10.6934 12.1523 11.8986L16.8439 16.5936C17.0498 16.7994 17.0498 17.1381 16.8439 17.3439C16.6381 17.5498 16.2994 17.5498 16.0936 17.3439L11.3986 12.6523Z" fill="#686868"/>
</g>
<defs>
<clipPath id="clip0_620_7054">
<rect width="17" height="17" fill="white" transform="translate(0 0.5)"/>
</clipPath>
</defs>
</svg>
