<svg width="45" height="46" viewBox="0 0 45 46" fill="none" xmlns="http://www.w3.org/2000/svg">
<mask id="mask0_248_688" style="mask-type:luminance" maskUnits="userSpaceOnUse" x="0" y="3" width="40" height="34">
<path d="M0 3.95154H39.5889V36.1845H0V3.95154Z" fill="white"/>
</mask>
<g mask="url(#mask0_248_688)">
<path d="M39.4061 6.44764V33.7474C39.4061 35.0247 38.3685 36.0623 37.0912 36.0623H2.47496C1.18628 36.0623 0.149414 35.0247 0.149414 33.7474V6.44764C0.149414 5.15896 1.18628 4.12134 2.47496 4.12134H37.0912C38.3685 4.12134 39.4061 5.15896 39.4061 6.44764Z" fill="#FFD67E"/>
</g>
<path d="M9.03816 32.7866H34.9992C35.6234 32.7866 36.1301 32.2807 36.1301 31.6564V12.4081H3.42529V27.1737L9.03816 32.7866Z" fill="white"/>
<mask id="mask1_248_688" style="mask-type:luminance" maskUnits="userSpaceOnUse" x="0" y="3" width="40" height="10">
<path d="M0 3.95154H39.5889V12.4952H0V3.95154Z" fill="white"/>
</mask>
<g mask="url(#mask1_248_688)">
<path d="M39.4061 6.44764V12.3768H0.149414V6.44764C0.149414 5.15896 1.18628 4.12134 2.47496 4.12134H37.0912C37.3096 4.12134 37.5167 4.15471 37.7139 4.20932C37.7351 4.21994 37.7571 4.21994 37.7791 4.23056C37.877 4.26393 37.9756 4.29655 38.0628 4.33978C38.172 4.3944 38.2812 4.44901 38.3798 4.515C38.3798 4.515 38.3798 4.52562 38.3905 4.52562C38.4891 4.5916 38.5869 4.66745 38.6741 4.75544C38.7621 4.84267 38.8494 4.92989 38.926 5.02774C39.0018 5.12634 39.0678 5.22495 39.1224 5.33417C39.1224 5.33417 39.1224 5.33417 39.1224 5.34479C39.177 5.43202 39.2203 5.54124 39.2529 5.63985C39.2749 5.68308 39.2862 5.71569 39.2969 5.75969C39.3295 5.85829 39.3515 5.95614 39.3735 6.05474C39.3955 6.1852 39.4061 6.31642 39.4061 6.44764Z" fill="#995D91"/>
</g>
<path d="M3.42529 27.1737H8.13555C8.63388 27.1737 9.03816 27.578 9.03816 28.0756V32.7866L3.42529 27.1737Z" fill="#E4686A"/>
<path d="M9.94915 15.568V18.2591C9.94915 18.6042 9.66926 18.8841 9.32415 18.8841H6.64514C6.30003 18.8841 6.02014 18.6042 6.02014 18.2591V15.568C6.02014 15.2229 6.30003 14.943 6.64514 14.943H9.32415C9.66926 14.943 9.94915 15.2229 9.94915 15.568Z" fill="#D1DDEB"/>
<path d="M15.8458 15.568V18.2591C15.8458 18.6042 15.5659 18.8841 15.2208 18.8841H12.5417C12.1966 18.8841 11.9167 18.6042 11.9167 18.2591V15.568C11.9167 15.2229 12.1966 14.943 12.5417 14.943H15.2208C15.5659 14.943 15.8458 15.2229 15.8458 15.568Z" fill="#D1DDEB"/>
<path d="M21.7422 15.568V18.2591C21.7422 18.6042 21.4624 18.8841 21.1172 18.8841H18.4382C18.0931 18.8841 17.8132 18.6042 17.8132 18.2591V15.568C17.8132 15.2229 18.0931 14.943 18.4382 14.943H21.1172C21.4624 14.943 21.7422 15.2229 21.7422 15.568Z" fill="#D1DDEB"/>
<path d="M27.6388 15.568V18.2591C27.6388 18.6042 27.359 18.8841 27.0138 18.8841H24.3341C23.989 18.8841 23.7098 18.6042 23.7098 18.2591V15.568C23.7098 15.2229 23.989 14.943 24.3341 14.943H27.0138C27.359 14.943 27.6388 15.2229 27.6388 15.568Z" fill="#E4686A"/>
<path d="M33.5346 15.568V18.2591C33.5346 18.6042 33.2555 18.8841 32.9104 18.8841H30.2306C29.8855 18.8841 29.6056 18.6042 29.6056 18.2591V15.568C29.6056 15.2229 29.8855 14.943 30.2306 14.943H32.9104C33.2555 14.943 33.5346 15.2229 33.5346 15.568Z" fill="#D1DDEB"/>
<path d="M9.94915 21.2516V23.9435C9.94915 24.2886 9.66926 24.5677 9.32415 24.5677H6.64514C6.30003 24.5677 6.02014 24.2886 6.02014 23.9435V21.2516C6.02014 20.9065 6.30003 20.6266 6.64514 20.6266H9.32415C9.66926 20.6266 9.94915 20.9065 9.94915 21.2516Z" fill="#D1DDEB"/>
<path d="M15.8458 21.2516V23.9435C15.8458 24.2886 15.5659 24.5677 15.2208 24.5677H12.5417C12.1966 24.5677 11.9167 24.2886 11.9167 23.9435V21.2516C11.9167 20.9065 12.1966 20.6266 12.5417 20.6266H15.2208C15.5659 20.6266 15.8458 20.9065 15.8458 21.2516Z" fill="#FFC863"/>
<path d="M21.7422 21.2516V23.9435C21.7422 24.2886 21.4624 24.5677 21.1172 24.5677H18.4382C18.0931 24.5677 17.8132 24.2886 17.8132 23.9435V21.2516C17.8132 20.9065 18.0931 20.6266 18.4382 20.6266H21.1172C21.4624 20.6266 21.7422 20.9065 21.7422 21.2516Z" fill="#D1DDEB"/>
<path d="M27.6388 21.2516V23.9435C27.6388 24.2886 27.359 24.5677 27.0138 24.5677H24.3341C23.989 24.5677 23.7098 24.2886 23.7098 23.9435V21.2516C23.7098 20.9065 23.989 20.6266 24.3341 20.6266H27.0138C27.359 20.6266 27.6388 20.9065 27.6388 21.2516Z" fill="#D1DDEB"/>
<path d="M33.5346 21.2516V23.9435C33.5346 24.2886 33.2555 24.5677 32.9104 24.5677H30.2306C29.8855 24.5677 29.6056 24.2886 29.6056 23.9435V21.2516C29.6056 20.9065 29.8855 20.6266 30.2306 20.6266H32.9104C33.2555 20.6266 33.5346 20.9065 33.5346 21.2516Z" fill="#D1DDEB"/>
<path d="M15.8458 26.9355V29.6267C15.8458 29.9718 15.5659 30.2517 15.2208 30.2517H12.5417C12.1966 30.2517 11.9167 29.9718 11.9167 29.6267V26.9355C11.9167 26.5904 12.1966 26.3105 12.5417 26.3105H15.2208C15.5659 26.3105 15.8458 26.5904 15.8458 26.9355Z" fill="#D1DDEB"/>
<path d="M21.7422 26.9355V29.6267C21.7422 29.9718 21.4624 30.2517 21.1172 30.2517H18.4382C18.0931 30.2517 17.8132 29.9718 17.8132 29.6267V26.9355C17.8132 26.5904 18.0931 26.3105 18.4382 26.3105H21.1172C21.4624 26.3105 21.7422 26.5904 21.7422 26.9355Z" fill="#6DBCF7"/>
<path d="M27.6388 26.9355V29.6267C27.6388 29.9718 27.359 30.2517 27.0138 30.2517H24.3341C23.989 30.2517 23.7098 29.9718 23.7098 29.6267V26.9355C23.7098 26.5904 23.989 26.3105 24.3341 26.3105H27.0138C27.359 26.3105 27.6388 26.5904 27.6388 26.9355Z" fill="#D1DDEB"/>
<path d="M33.5346 26.9355V29.6267C33.5346 29.9718 33.2555 30.2517 32.9104 30.2517H30.2306C29.8855 30.2517 29.6056 29.9718 29.6056 29.6267V26.9355C29.6056 26.5904 29.8855 26.3105 30.2306 26.3105H32.9104C33.2555 26.3105 33.5346 26.5904 33.5346 26.9355Z" fill="#D1DDEB"/>
<path d="M6.62025 7.90041C6.62025 8.84701 5.861 9.61537 4.91515 9.61537C3.96855 9.61537 3.2002 8.84701 3.2002 7.90041C3.2002 6.95457 3.96855 6.19531 4.91515 6.19531C5.861 6.19531 6.62025 6.95457 6.62025 7.90041Z" fill="#8F5387"/>
<mask id="mask2_248_688" style="mask-type:luminance" maskUnits="userSpaceOnUse" x="4" y="0" width="5" height="9">
<path d="M4.24915 0.781982H8.32682V8.22358H4.24915V0.781982Z" fill="white"/>
</mask>
<g mask="url(#mask2_248_688)">
<path d="M4.9956 8.04701C4.60345 8.04701 4.28564 7.72921 4.28564 7.3363V2.80126C4.28564 1.68931 5.19053 0.784424 6.30324 0.784424C6.84101 0.784424 7.34693 0.994527 7.72845 1.37605C8.10922 1.75151 8.32008 2.25894 8.32008 2.80126C8.32008 3.19416 8.00227 3.51197 7.61013 3.51197C7.21799 3.51197 6.89942 3.19416 6.89942 2.80126C6.89942 2.64198 6.83874 2.49331 6.72724 2.38333C6.61119 2.26728 6.46177 2.20509 6.30324 2.20509C5.97405 2.20509 5.70631 2.47283 5.70631 2.80126V7.3363C5.70631 7.72921 5.3885 8.04701 4.9956 8.04701Z" fill="#D1DDEB"/>
</g>
<path d="M12.2269 7.90041C12.2269 8.84701 11.4684 9.61537 10.5218 9.61537C9.576 9.61537 8.80688 8.84701 8.80688 7.90041C8.80688 6.95457 9.576 6.19531 10.5218 6.19531C11.4684 6.19531 12.2269 6.95457 12.2269 7.90041Z" fill="#8F5387"/>
<mask id="mask3_248_688" style="mask-type:luminance" maskUnits="userSpaceOnUse" x="9" y="0" width="5" height="9">
<path d="M9.88013 0.781982H13.9578V8.22358H9.88013V0.781982Z" fill="white"/>
</mask>
<g mask="url(#mask3_248_688)">
<path d="M10.6033 8.04701C10.2104 8.04701 9.89258 7.72921 9.89258 7.3363V2.80126C9.89258 1.68931 10.7975 0.784424 11.9102 0.784424C12.4479 0.784424 12.9546 0.994527 13.3361 1.37605C13.7162 1.75151 13.9278 2.25894 13.9278 2.80126C13.9278 3.19416 13.61 3.51197 13.2171 3.51197C12.8249 3.51197 12.5071 3.19416 12.5071 2.80126C12.5071 2.64198 12.4457 2.49331 12.3342 2.38333C12.2181 2.26728 12.0687 2.20509 11.9102 2.20509C11.581 2.20509 11.3132 2.47283 11.3132 2.80126V7.3363C11.3132 7.72921 10.9954 8.04701 10.6033 8.04701Z" fill="#D1DDEB"/>
</g>
<path d="M17.8338 7.90041C17.8338 8.84701 17.0753 9.61537 16.1287 9.61537C15.1828 9.61537 14.4137 8.84701 14.4137 7.90041C14.4137 6.95457 15.1828 6.19531 16.1287 6.19531C17.0753 6.19531 17.8338 6.95457 17.8338 7.90041Z" fill="#8F5387"/>
<mask id="mask4_248_688" style="mask-type:luminance" maskUnits="userSpaceOnUse" x="15" y="0" width="5" height="9">
<path d="M15.317 0.781982H19.5889V8.22358H15.317V0.781982Z" fill="white"/>
</mask>
<g mask="url(#mask4_248_688)">
<path d="M16.2099 8.04701C15.8177 8.04701 15.4991 7.72921 15.4991 7.3363V2.80126C15.4991 1.68931 16.4048 0.784424 17.5167 0.784424C18.0545 0.784424 18.5612 0.994527 18.9427 1.37605C19.3235 1.75151 19.5343 2.25894 19.5343 2.80126C19.5343 3.19416 19.2165 3.51197 18.8244 3.51197C18.4315 3.51197 18.1137 3.19416 18.1137 2.80126C18.1137 2.64198 18.0522 2.49331 17.9407 2.38333C17.8247 2.26728 17.6753 2.20509 17.5167 2.20509C17.1876 2.20509 16.9206 2.47283 16.9206 2.80126V7.3363C16.9206 7.72921 16.602 8.04701 16.2099 8.04701Z" fill="#D1DDEB"/>
</g>
<path d="M23.4413 7.90041C23.4413 8.84701 22.682 9.61537 21.7362 9.61537C20.7896 9.61537 20.0212 8.84701 20.0212 7.90041C20.0212 6.95457 20.7896 6.19531 21.7362 6.19531C22.682 6.19531 23.4413 6.95457 23.4413 7.90041Z" fill="#8F5387"/>
<mask id="mask5_248_688" style="mask-type:luminance" maskUnits="userSpaceOnUse" x="20" y="0" width="6" height="9">
<path d="M20.9481 0.781982H25.22V8.22358H20.9481V0.781982Z" fill="white"/>
</mask>
<g mask="url(#mask5_248_688)">
<path d="M21.8165 8.04701C21.4244 8.04701 21.1066 7.72921 21.1066 7.3363V2.80126C21.1066 1.68931 22.0115 0.784424 23.1242 0.784424C23.6619 0.784424 24.1679 0.994527 24.5494 1.37605C24.9301 1.75151 25.141 2.25894 25.141 2.80126C25.141 3.19416 24.8232 3.51197 24.4311 3.51197C24.0389 3.51197 23.7203 3.19416 23.7203 2.80126C23.7203 2.64198 23.6589 2.49331 23.5482 2.38333C23.4321 2.26728 23.2819 2.20509 23.1242 2.20509C22.795 2.20509 22.5272 2.47283 22.5272 2.80126V7.3363C22.5272 7.72921 22.2094 8.04701 21.8165 8.04701Z" fill="#D1DDEB"/>
</g>
<path d="M29.0481 7.90041C29.0481 8.84701 28.2889 9.61537 27.343 9.61537C26.3972 9.61537 25.6281 8.84701 25.6281 7.90041C25.6281 6.95457 26.3972 6.19531 27.343 6.19531C28.2889 6.19531 29.0481 6.95457 29.0481 7.90041Z" fill="#8F5387"/>
<mask id="mask6_248_688" style="mask-type:luminance" maskUnits="userSpaceOnUse" x="26" y="0" width="5" height="9">
<path d="M26.5792 0.781982H30.8511V8.22358H26.5792V0.781982Z" fill="white"/>
</mask>
<g mask="url(#mask6_248_688)">
<path d="M27.4242 8.04701C27.0313 8.04701 26.7135 7.72921 26.7135 7.3363V2.80126C26.7135 1.68931 27.6184 0.784424 28.7311 0.784424C29.2689 0.784424 29.7748 0.994527 30.1571 1.37605C30.5371 1.75151 30.7487 2.25894 30.7487 2.80126C30.7487 3.19416 30.4301 3.51197 30.038 3.51197C29.6458 3.51197 29.328 3.19416 29.328 2.80126C29.328 2.64198 29.2666 2.49331 29.1551 2.38333C29.039 2.26728 28.8896 2.20509 28.7311 2.20509C28.4019 2.20509 28.1342 2.47283 28.1342 2.80126V7.3363C28.1342 7.72921 27.8164 8.04701 27.4242 8.04701Z" fill="#D1DDEB"/>
</g>
<path d="M34.6549 7.90041C34.6549 8.84701 33.8964 9.61537 32.9498 9.61537C32.004 9.61537 31.2349 8.84701 31.2349 7.90041C31.2349 6.95457 32.004 6.19531 32.9498 6.19531C33.8964 6.19531 34.6549 6.95457 34.6549 7.90041Z" fill="#8F5387"/>
<mask id="mask7_248_688" style="mask-type:luminance" maskUnits="userSpaceOnUse" x="32" y="0" width="5" height="9">
<path d="M32.2102 0.781982H36.482V8.22358H32.2102V0.781982Z" fill="white"/>
</mask>
<g mask="url(#mask7_248_688)">
<path d="M33.0309 8.04701C32.6388 8.04701 32.3202 7.72921 32.3202 7.3363V2.80126C32.3202 1.68931 33.2258 0.784424 34.3378 0.784424C34.8756 0.784424 35.3822 0.994527 35.7638 1.37605C36.1445 1.75151 36.3554 2.25894 36.3554 2.80126C36.3554 3.19416 36.0376 3.51197 35.6447 3.51197C35.2525 3.51197 34.9347 3.19416 34.9347 2.80126C34.9347 2.64198 34.8733 2.49331 34.7618 2.38333C34.6457 2.26728 34.4963 2.20509 34.3378 2.20509C34.0086 2.20509 33.7409 2.47283 33.7409 2.80126V7.3363C33.7409 7.72921 33.423 8.04701 33.0309 8.04701Z" fill="#D1DDEB"/>
</g>
<path d="M42.4325 34.3119V34.6487C42.3445 36.8377 41.4708 38.8341 40.0751 40.3329C39.9629 40.4535 39.8506 40.5741 39.7308 40.6863C39.6906 40.7341 39.6428 40.7743 39.5942 40.8145C38.1432 42.1616 36.2349 43.0194 34.1346 43.1552C34.0625 43.1636 33.9821 43.1711 33.9101 43.1711H33.4208C33.3564 43.1711 33.2843 43.1711 33.2206 43.1636C33.1485 43.1636 33.0681 43.1552 32.9961 43.1476C30.8951 43.0194 28.995 42.1616 27.544 40.8145C27.4234 40.7098 27.3036 40.59 27.1913 40.4694C27.1428 40.4292 27.1026 40.3814 27.0548 40.3329C25.6675 38.8341 24.7861 36.8377 24.7057 34.6487C24.6974 34.5364 24.6974 34.4242 24.6974 34.3119C24.6974 34.2641 24.6974 34.208 24.7057 34.1595C24.6974 34.0957 24.7057 34.0237 24.7057 33.9676C24.7937 31.7702 25.6675 29.7898 27.0631 28.2826C27.167 28.1628 27.2793 28.0505 27.4075 27.9383C27.4477 27.8897 27.4955 27.842 27.544 27.8018C29.0428 26.4069 31.0316 25.5323 33.2206 25.4444C33.3404 25.4368 33.4527 25.4368 33.565 25.4368C33.6211 25.4368 33.6696 25.4368 33.7174 25.4444C33.7819 25.4368 33.8456 25.4444 33.9101 25.4444C36.0983 25.5248 38.0947 26.4069 39.5942 27.8018C39.7148 27.9057 39.8271 28.0263 39.9393 28.1461C39.9871 28.1863 40.0349 28.2349 40.0751 28.2826C41.4708 29.7898 42.3445 31.7702 42.4249 33.9676C42.4325 34.0798 42.4325 34.1921 42.4325 34.3119Z" fill="#00D67F"/>
<path d="M42.4325 34.3119V34.6487C42.3445 36.8377 41.4708 38.8341 40.0751 40.3329C39.9629 40.4535 39.8506 40.5741 39.7308 40.6863C39.6906 40.7341 39.6428 40.7743 39.5942 40.8145C38.1432 42.1616 36.2349 43.0194 34.1346 43.1552C34.0625 43.1636 33.9821 43.1711 33.9101 43.1711H33.4208C33.3564 43.1711 33.2843 43.1711 33.2206 43.1636C33.1485 43.1636 33.0681 43.1552 32.9961 43.1476C30.8951 43.0194 28.995 42.1616 27.544 40.8145C27.4234 40.7098 27.3036 40.59 27.1913 40.4694C27.1428 40.4292 27.1026 40.3814 27.0548 40.3329C25.6675 38.8341 24.7861 36.8377 24.7057 34.6487C24.6974 34.5364 24.6974 34.4242 24.6974 34.3119C24.6974 34.2641 24.6974 34.208 24.7057 34.1595C24.6974 34.0957 24.7057 34.0237 24.7057 33.9676C24.7937 31.7702 25.6675 29.7898 27.0631 28.2826C27.167 28.1628 27.2793 28.0505 27.4075 27.9383C27.4477 27.8897 27.4955 27.842 27.544 27.8018C29.0428 26.4069 31.0316 25.5323 33.2206 25.4444C33.3404 25.4368 33.4527 25.4368 33.565 25.4368C33.6211 25.4368 33.6696 25.4368 33.7174 25.4444C33.7819 25.4368 33.8456 25.4444 33.9101 25.4444C36.0983 25.5248 38.0947 26.4069 39.5942 27.8018C39.7148 27.9057 39.8271 28.0263 39.9393 28.1461C39.9871 28.1863 40.0349 28.2349 40.0751 28.2826C41.4708 29.7898 42.3445 31.7702 42.4249 33.9676C42.4325 34.0798 42.4325 34.1921 42.4325 34.3119Z" fill="white"/>
<mask id="mask8_248_688" style="mask-type:luminance" maskUnits="userSpaceOnUse" x="22" y="22" width="23" height="24">
<path d="M22.1132 22.7865H45V45.7818H22.1132V22.7865Z" fill="white"/>
</mask>
<g mask="url(#mask8_248_688)">
<path d="M33.5649 22.8632C27.2474 22.8632 22.1238 27.9944 22.1238 34.3119C22.1238 40.6301 27.2474 45.7447 33.5649 45.7447C39.8908 45.7447 45.0061 40.6301 45.0061 34.3119C45.0061 27.9944 39.8908 22.8632 33.5649 22.8632ZM42.4325 34.6487C42.3445 36.8377 41.4707 38.834 40.0751 40.3328C39.9628 40.4534 39.8506 40.574 39.7307 40.6863C39.6905 40.7341 39.6427 40.7743 39.5942 40.8145C38.1432 42.1616 36.2348 43.0194 34.1346 43.1552C34.0625 43.1635 33.9821 43.1711 33.91 43.1711H33.4208C33.3563 43.1711 33.2843 43.1711 33.2206 43.1635C33.1485 43.1635 33.0681 43.1552 32.996 43.1476C30.895 43.0194 28.995 42.1616 27.544 40.8145C27.4234 40.7098 27.3035 40.5899 27.1913 40.4693C27.1427 40.4291 27.1025 40.3814 27.0548 40.3328C25.6675 38.834 24.7861 36.8377 24.7057 34.6487C24.6974 34.5364 24.6974 34.4241 24.6974 34.3119C24.6974 34.2641 24.6974 34.208 24.7057 34.1594C24.6974 34.0957 24.7057 34.0237 24.7057 33.9675C24.7937 31.7702 25.6675 29.7897 27.0631 28.2826C27.167 28.1628 27.2793 28.0505 27.4075 27.9383C27.4477 27.8897 27.4954 27.8419 27.544 27.8017C29.0428 26.4068 31.0315 25.5323 33.2206 25.4443C33.3404 25.4367 33.4527 25.4367 33.5649 25.4367C33.621 25.4367 33.6696 25.4367 33.7174 25.4443C33.7818 25.4367 33.8456 25.4443 33.91 25.4443C36.0983 25.5247 38.0947 26.4068 39.5942 27.8017C39.7148 27.9056 39.8271 28.0262 39.9393 28.1461C39.9871 28.1863 40.0349 28.2348 40.0751 28.2826C41.4707 29.7897 42.3445 31.7702 42.4249 33.9675C42.4325 34.0798 42.4325 34.192 42.4325 34.3119V34.6487Z" fill="#6DBCF7"/>
</g>
<path d="M34.1346 42.4316V43.1537C34.0625 43.1613 33.9821 43.1696 33.9101 43.1696H33.4209C33.3564 43.1696 33.2843 43.1696 33.2206 43.1613C33.1486 43.1613 33.0682 43.1537 32.9961 43.1453V42.4316C32.9961 42.1107 33.2441 41.8544 33.565 41.8544C33.6211 41.8544 33.6696 41.8627 33.7174 41.8786C33.7417 41.8786 33.7576 41.8862 33.7819 41.9029C33.8213 41.9105 33.8615 41.9348 33.8942 41.959C33.9419 41.9909 33.9738 42.0228 34.0064 42.063C34.014 42.0713 34.014 42.0789 34.014 42.0789C34.0542 42.1191 34.0785 42.1669 34.0944 42.223C34.1187 42.2875 34.1346 42.3519 34.1346 42.4316Z" fill="#606076"/>
<path d="M34.1346 26.1762V25.4542C34.0625 25.4466 33.9821 25.4382 33.9101 25.4382H33.4209C33.3564 25.4382 33.2843 25.4382 33.2206 25.4466C33.1486 25.4466 33.0682 25.4542 32.9961 25.4625V26.1762C32.9961 26.4971 33.2441 26.7535 33.565 26.7535C33.6211 26.7535 33.6696 26.7451 33.7174 26.7292C33.7417 26.7292 33.7576 26.7216 33.7819 26.7049C33.8213 26.6973 33.8615 26.6731 33.8942 26.6488C33.9419 26.6169 33.9738 26.5851 34.0064 26.5449C34.014 26.5365 34.014 26.5289 34.014 26.5289C34.0542 26.4887 34.0785 26.441 34.0944 26.3848C34.1187 26.3204 34.1346 26.2559 34.1346 26.1762Z" fill="#606076"/>
<path d="M25.4377 34.8736H24.7156C24.7081 34.8016 24.6997 34.7212 24.6997 34.6491V34.1599C24.6997 34.0962 24.6997 34.0233 24.7081 33.9596C24.7081 33.8876 24.7156 33.8072 24.724 33.7351H25.4377C25.7578 33.7351 26.0149 33.9839 26.0149 34.304C26.0149 34.3601 26.0066 34.4087 25.9907 34.4564C25.9907 34.4807 25.9823 34.4966 25.9664 34.5209C25.9588 34.5611 25.9345 34.6013 25.9103 34.6332C25.8784 34.681 25.8466 34.7136 25.8064 34.7454C25.798 34.753 25.7904 34.753 25.7904 34.753C25.7502 34.7932 25.7017 34.8175 25.6456 34.8334C25.5818 34.8577 25.5174 34.8736 25.4377 34.8736Z" fill="#606076"/>
<path d="M41.6929 34.8736H42.4143C42.4226 34.8016 42.4302 34.7212 42.4302 34.6491V34.1599C42.4302 34.0962 42.4302 34.0233 42.4226 33.9596C42.4226 33.8876 42.4143 33.8072 42.4067 33.7351H41.6929C41.3721 33.7351 41.1157 33.9839 41.1157 34.304C41.1157 34.3601 41.1233 34.4087 41.14 34.4564C41.14 34.4807 41.1476 34.4966 41.1635 34.5209C41.1719 34.5611 41.1961 34.6013 41.2196 34.6332C41.2523 34.681 41.2841 34.7136 41.3243 34.7454C41.3319 34.753 41.3402 34.753 41.3402 34.753C41.3804 34.7932 41.4282 34.8175 41.4844 34.8334C41.5488 34.8577 41.6125 34.8736 41.6929 34.8736Z" fill="#606076"/>
<path d="M28.2206 40.4534L27.7101 40.9638C27.6532 40.9183 27.591 40.8675 27.5402 40.8167L27.1943 40.4708C27.1488 40.4253 27.098 40.3745 27.0578 40.3229C27.007 40.2721 26.9562 40.2099 26.9106 40.153L27.415 39.6486C27.6418 39.4218 27.9991 39.4165 28.2259 39.6433C28.2653 39.6827 28.2941 39.7222 28.3169 39.7677C28.3336 39.7844 28.3396 39.8018 28.345 39.8299C28.3677 39.864 28.3791 39.9095 28.3844 39.949C28.3958 40.0059 28.3958 40.0514 28.3905 40.1022C28.3905 40.1136 28.3852 40.1189 28.3852 40.1189C28.3852 40.1758 28.3677 40.2266 28.3396 40.2782C28.3108 40.3403 28.2767 40.3972 28.2206 40.4534Z" fill="#606076"/>
<path d="M39.7149 28.9593L40.2253 28.4489C40.1798 28.3927 40.129 28.3298 40.0774 28.279L39.7315 27.9331C39.6868 27.8876 39.6352 27.8368 39.5844 27.7973C39.5336 27.7457 39.4714 27.6949 39.4145 27.6494L38.9101 28.1546C38.6833 28.3814 38.6772 28.7379 38.904 28.9646C38.9442 29.0048 38.9837 29.0329 39.0292 29.0557C39.0459 29.0724 39.0633 29.0784 39.0914 29.0837C39.1255 29.1065 39.171 29.1179 39.2105 29.1239C39.2673 29.1353 39.3121 29.1353 39.3637 29.1292C39.3751 29.1292 39.3804 29.1239 39.3804 29.1239C39.4372 29.1239 39.4881 29.1065 39.5389 29.0784C39.6018 29.0504 39.658 29.0162 39.7149 28.9593Z" fill="#606076"/>
<path d="M27.415 28.9593L26.9053 28.4489C26.95 28.3927 27.0016 28.3298 27.0524 28.279L27.3983 27.9331C27.4438 27.8876 27.4946 27.8368 27.5454 27.7973C27.597 27.7457 27.6592 27.6949 27.7153 27.6494L28.2205 28.1546C28.4473 28.3814 28.4526 28.7379 28.2258 28.9646C28.1864 29.0048 28.1469 29.0329 28.1014 29.0557C28.084 29.0724 28.0673 29.0784 28.0392 29.0837C28.0051 29.1065 27.9596 29.1179 27.9201 29.1239C27.8633 29.1353 27.8177 29.1353 27.7669 29.1292C27.7555 29.1292 27.7495 29.1239 27.7495 29.1239C27.6933 29.1239 27.6418 29.1065 27.591 29.0784C27.5288 29.0504 27.4719 29.0162 27.415 28.9593Z" fill="#606076"/>
<path d="M38.9101 40.4534L39.4198 40.9638C39.4767 40.9183 39.5389 40.8675 39.5904 40.8167L39.9363 40.4708C39.9811 40.4253 40.0326 40.3745 40.0721 40.3229C40.1229 40.2721 40.1745 40.2099 40.2192 40.153L39.7148 39.6486C39.488 39.4218 39.1308 39.4165 38.904 39.6433C38.8645 39.6827 38.8365 39.7222 38.8137 39.7677C38.7963 39.7844 38.791 39.8018 38.7849 39.8299C38.7622 39.864 38.7508 39.9095 38.7455 39.949C38.7341 40.0059 38.7341 40.0514 38.7394 40.1022C38.7394 40.1136 38.7455 40.1189 38.7455 40.1189C38.7455 40.1758 38.7622 40.2266 38.791 40.2782C38.819 40.3403 38.8532 40.3972 38.9101 40.4534Z" fill="#606076"/>
<path d="M33.323 28.5764L33.2433 35.4142C33.241 35.6326 33.4147 35.8094 33.6279 35.8117C33.8471 35.8132 34.023 35.6402 34.0253 35.4218L34.105 28.5832C34.1065 28.3701 33.9335 28.1933 33.7151 28.191C33.5012 28.1895 33.3245 28.3625 33.323 28.5764Z" fill="#E24B40"/>
<path d="M30.8229 32.1306L34.0632 35.3474C34.2172 35.5021 34.4645 35.5021 34.6162 35.3504C34.7701 35.1964 34.7701 34.9484 34.6162 34.7944L31.3766 31.5776C31.2249 31.4259 30.9777 31.4259 30.8229 31.5807C30.672 31.7316 30.672 31.9796 30.8229 32.1306Z" fill="#FC6559"/>
<path d="M34.3925 34.3066C34.3925 34.3111 34.3925 34.3157 34.3917 34.3202C34.3925 34.3263 34.3917 34.3324 34.3917 34.3384C34.3841 34.5425 34.3022 34.7276 34.1732 34.8679C34.1626 34.8793 34.152 34.8899 34.1406 34.9005C34.1368 34.905 34.1323 34.9088 34.1277 34.9126C33.9882 35.0423 33.8023 35.1242 33.5983 35.1318C33.5884 35.1326 33.5771 35.1326 33.5672 35.1326C33.5627 35.1326 33.5574 35.1326 33.5528 35.1318C33.5467 35.1326 33.5407 35.1318 33.5346 35.1311C33.3306 35.1235 33.1455 35.0423 33.0059 34.9126C32.9945 34.9028 32.9839 34.8914 32.9733 34.8808C32.9688 34.877 32.965 34.8724 32.9604 34.8679C32.8307 34.7276 32.7488 34.5425 32.7412 34.3384C32.7412 34.3278 32.7412 34.3172 32.7412 34.3066C32.7412 34.302 32.7412 34.2975 32.7412 34.2929C32.7412 34.2869 32.7412 34.2808 32.742 34.2747C32.7496 34.0707 32.8307 33.8856 32.9604 33.7461C32.971 33.7347 32.9817 33.7241 32.993 33.7134C32.9968 33.7089 33.0014 33.7043 33.0059 33.7006C33.1455 33.5709 33.3306 33.4897 33.5346 33.4813C33.546 33.4806 33.5558 33.4806 33.5672 33.4806C33.5718 33.4806 33.5763 33.4806 33.5801 33.4813C33.5862 33.4806 33.593 33.4813 33.5983 33.4813C33.8023 33.4889 33.9882 33.5709 34.1277 33.7006C34.1391 33.7104 34.1497 33.7218 34.1604 33.7324C34.1649 33.737 34.1687 33.7415 34.1732 33.7461C34.3022 33.8856 34.3841 34.0707 34.3917 34.2747C34.3925 34.2854 34.3925 34.296 34.3925 34.3066Z" fill="#2C2C39"/>
<path d="M23.6977 45.2684H21.2675V41.6412H23.6977C24.0504 41.6412 24.3348 41.9257 24.3348 42.2784V44.6312C24.3348 44.9839 24.0504 45.2684 23.6977 45.2684Z" fill="#E4686A"/>
<path d="M3.74243 45.26C3.76974 45.2631 3.79704 45.2684 3.82283 45.2684H18.4906V41.6405H3.82283C3.79704 41.6405 3.76974 41.6466 3.74243 41.6496V45.26Z" fill="#A9D075"/>
<mask id="mask9_248_688" style="mask-type:luminance" maskUnits="userSpaceOnUse" x="17" y="41" width="2" height="5">
<path d="M17.453 41.0392H18.6181V45.7821H17.453V41.0392Z" fill="white"/>
</mask>
<g mask="url(#mask9_248_688)">
<path d="M18.0249 45.7397C17.7685 45.7397 17.5599 45.5311 17.5599 45.274V41.6362C17.5599 41.3791 17.7685 41.1705 18.0249 41.1705C18.282 41.1705 18.4906 41.3791 18.4906 41.6362V45.274C18.4906 45.5311 18.282 45.7397 18.0249 45.7397Z" fill="#E8E8EA"/>
</g>
<mask id="mask10_248_688" style="mask-type:luminance" maskUnits="userSpaceOnUse" x="18" y="41" width="2" height="5">
<path d="M18.4238 41.0392H19.5889V45.7821H18.4238V41.0392Z" fill="white"/>
</mask>
<g mask="url(#mask10_248_688)">
<path d="M18.9586 45.7397C18.7015 45.7397 18.4937 45.5311 18.4937 45.274V41.6362C18.4937 41.3791 18.7015 41.1705 18.9586 41.1705C19.2157 41.1705 19.4243 41.3791 19.4243 41.6362V45.274C19.4243 45.5311 19.2157 45.7397 18.9586 45.7397Z" fill="#E8E8EA"/>
</g>
<mask id="mask11_248_688" style="mask-type:luminance" maskUnits="userSpaceOnUse" x="19" y="41" width="2" height="5">
<path d="M19.3948 41.0392H20.3656V45.7821H19.3948V41.0392Z" fill="white"/>
</mask>
<g mask="url(#mask11_248_688)">
<path d="M19.8924 45.7397C19.6352 45.7397 19.4266 45.5311 19.4266 45.274V41.6362C19.4266 41.3791 19.6352 41.1705 19.8924 41.1705C20.1495 41.1705 20.3581 41.3791 20.3581 41.6362V45.274C20.3581 45.5311 20.1495 45.7397 19.8924 45.7397Z" fill="#E8E8EA"/>
</g>
<mask id="mask12_248_688" style="mask-type:luminance" maskUnits="userSpaceOnUse" x="20" y="41" width="2" height="5">
<path d="M20.1714 41.0392H21.3364V45.7821H20.1714V41.0392Z" fill="white"/>
</mask>
<g mask="url(#mask12_248_688)">
<path d="M20.8259 45.7397C20.5688 45.7397 20.3602 45.5311 20.3602 45.274V41.6362C20.3602 41.3791 20.5688 41.1705 20.8259 41.1705C21.0831 41.1705 21.2909 41.3791 21.2909 41.6362V45.274C21.2909 45.5311 21.0831 45.7397 20.8259 45.7397Z" fill="#E8E8EA"/>
</g>
<mask id="mask13_248_688" style="mask-type:luminance" maskUnits="userSpaceOnUse" x="0" y="41" width="4" height="5">
<path d="M0 41.6215H3.86074V45.3108H0V41.6215Z" fill="white"/>
</mask>
<g mask="url(#mask13_248_688)">
<path d="M3.82278 45.2685C3.72797 45.2685 3.62178 45.245 3.52697 45.2101L1.28182 44.2172L0.277577 43.7796C-0.00609994 43.662 -0.00609994 43.2479 0.277577 43.1303L1.28182 42.6926L3.52697 41.6998C3.62178 41.6649 3.72797 41.6414 3.82278 41.6414V45.2685Z" fill="#F9D5C7"/>
</g>
<mask id="mask14_248_688" style="mask-type:luminance" maskUnits="userSpaceOnUse" x="0" y="42" width="2" height="3">
<path d="M0 42.5918H1.33647V44.3394H0V42.5918Z" fill="white"/>
</mask>
<g mask="url(#mask14_248_688)">
<path d="M1.28182 44.217L0.277577 43.7793C-0.00609993 43.6617 -0.00609993 43.2476 0.277577 43.13L1.28182 42.6924V44.217Z" fill="#2C2C39"/>
</g>
</svg>
