<svg width="30" height="31" viewBox="0 0 30 31" fill="none" xmlns="http://www.w3.org/2000/svg">
<path d="M28.1249 26.75C28.1249 27.7871 27.2871 28.625 26.2499 28.625H13.125V29.5625C13.125 29.8848 13.0664 30.2012 12.9667 30.5H26.2499C28.3183 30.5 29.9999 28.8184 29.9999 26.75V10.1035C29.9999 9.35938 29.7011 8.64453 29.1738 8.11719L22.3886 1.32617C21.8613 0.798828 21.1464 0.5 20.4023 0.5H11.25C9.18159 0.5 7.49995 2.18164 7.49995 4.25V8.41602L7.50581 8.41016C7.5937 8.36914 7.74018 8.29297 7.89253 8.23438C8.373 8.03516 8.88276 7.96484 9.37495 8V4.25C9.37495 3.21289 10.2128 2.375 11.25 2.375H18.7499V8.9375C18.7499 10.4902 20.0097 11.75 21.5624 11.75H28.1249V26.75ZM28.0957 9.875H21.5624C21.0468 9.875 20.6249 9.45312 20.6249 8.9375V2.4043C20.789 2.44531 20.9414 2.52734 21.0585 2.65039L27.8496 9.44141C27.9726 9.56445 28.0546 9.71094 28.0957 9.875ZM4.08979 21.5059L3.45698 21.418L3.36909 20.7852C3.28706 20.1758 2.96479 19.625 2.48433 19.25L1.98042 18.8574L2.22065 18.2656C2.45503 17.6973 2.45503 17.0586 2.22065 16.4902L1.98042 15.8984L2.48433 15.5059L1.33589 14.0176L0.544872 14.6328C0.0468249 15.0195 -0.134816 15.6934 0.105419 16.2734L0.480419 17.1992C0.527294 17.3105 0.527294 17.4395 0.480419 17.5508L0.105419 18.4766C-0.134816 19.0625 0.0468249 19.7305 0.544872 20.1172L1.33589 20.7266C1.4355 20.8027 1.49409 20.9141 1.51167 21.0312L1.64643 22.0215C1.73432 22.6484 2.22065 23.1406 2.84761 23.2227L3.74995 23.3516V29.5625C3.74995 29.9082 3.93745 30.2246 4.248 30.3887C4.55854 30.5527 4.92182 30.5352 5.20893 30.3418L7.49995 28.8125L9.79097 30.3418C10.0781 30.5352 10.4472 30.5527 10.7519 30.3887C11.0566 30.2246 11.25 29.9082 11.25 29.5625V23.3516L12.1523 23.2285C12.7792 23.1406 13.2714 22.6543 13.3535 22.0273L13.4882 21.0371L11.6308 20.7852L11.5429 21.418L10.9101 21.5059C10.3007 21.5879 9.74995 21.9102 9.37495 22.3906L8.98237 22.8945L8.39057 22.6543C7.82222 22.4199 7.18354 22.4199 6.61518 22.6543L6.02339 22.8945L5.62495 22.3906C5.24995 21.9043 4.69917 21.5879 4.08979 21.5059ZM1.33589 14.0234L2.48433 15.5C2.97065 15.125 3.28706 14.5742 3.36909 13.9648L3.45698 13.332L4.08979 13.2441C4.69917 13.1621 5.24995 12.8398 5.62495 12.3594L6.01753 11.8555L6.60933 12.0957C7.17768 12.3301 7.81636 12.3301 8.38472 12.0957L8.97651 11.8555L9.36909 12.3594C9.74409 12.8457 10.2949 13.1621 10.9042 13.2441L11.5429 13.332L11.6308 13.9648C11.7128 14.5742 12.0351 15.125 12.5156 15.5L13.0195 15.8926L12.7792 16.4844C12.5449 17.0527 12.5449 17.6914 12.7792 18.2598L13.0195 18.8516L12.5156 19.2441C12.0292 19.6191 11.7128 20.1699 11.6308 20.7793L13.4882 21.0312C13.5058 20.9082 13.5703 20.7969 13.664 20.7266L14.455 20.1172C14.9531 19.7305 15.1347 19.0566 14.8945 18.4766L14.5195 17.5508C14.4726 17.4395 14.4726 17.3105 14.5195 17.1992L14.9003 16.2734C15.1406 15.6875 14.9589 15.0195 14.4609 14.6328L13.6699 14.0234C13.5703 13.9473 13.5117 13.8359 13.4941 13.7188L13.3593 12.7285C13.2714 12.1016 12.7851 11.6094 12.1582 11.5273L11.1679 11.3926C11.0449 11.375 10.9335 11.3105 10.8632 11.2168L10.2539 10.4258C9.86714 9.92773 9.19331 9.74609 8.61323 9.98633L7.67573 10.3555C7.5644 10.4023 7.4355 10.4023 7.32417 10.3555L6.39839 9.97461C5.81245 9.73438 5.14448 9.91602 4.75776 10.4141L4.14253 11.2109C4.06636 11.3105 3.95503 11.3691 3.83784 11.3867L2.84761 11.5215C2.22065 11.6094 1.72847 12.0957 1.64643 12.7227L1.51167 13.7129C1.49409 13.8359 1.42964 13.9473 1.33589 14.0176V14.0234ZM9.37495 27.8105L8.02143 26.9082C7.70503 26.6973 7.29487 26.6973 6.97847 26.9082L5.62495 27.8105V24.8516C5.8769 24.8984 6.14643 24.8691 6.39839 24.7695L7.32417 24.3887C7.4355 24.3418 7.5644 24.3418 7.67573 24.3887L8.60151 24.7695C8.85347 24.875 9.123 24.8984 9.37495 24.8516V27.8105Z" fill="black"/>
</svg>
