<svg width="12" height="11" viewBox="0 0 12 11" fill="none" xmlns="http://www.w3.org/2000/svg">
<path d="M11.2245 6.11825C11.3443 6.00361 11.413 5.84312 11.413 5.67498C11.413 5.50684 11.3443 5.34889 11.2245 5.2317L6.74083 0.951812C6.49626 0.717437 6.10904 0.727627 5.87721 0.972193C5.64538 1.21676 5.65302 1.60399 5.89759 1.83581L9.27565 5.06357L0.611413 5.06357C0.272588 5.06357 -2.28526e-07 5.33615 -2.13715e-07 5.67498C-1.98905e-07 6.0138 0.272588 6.28639 0.611413 6.28639L9.27565 6.28639L5.89504 9.5116C5.65048 9.74597 5.64283 10.1307 5.87466 10.3752C6.10649 10.6198 6.49372 10.6274 6.73828 10.3956L11.222 6.11571L11.2245 6.11825Z" fill="url(#paint0_linear_248_806)"/>
<defs>
<linearGradient id="paint0_linear_248_806" x1="0.891644" y1="8.57724" x2="9.4602" y2="1.35698" gradientUnits="userSpaceOnUse">
<stop stop-color="#0261AE"/>
<stop offset="1" stop-color="#A0CB7C"/>
</linearGradient>
</defs>
</svg>
