<svg width="43" height="43" viewBox="0 0 43 43" fill="none" xmlns="http://www.w3.org/2000/svg">
<circle cx="21.3281" cy="21.3281" r="21.3281" fill="#F26640"/>
<g clip-path="url(#clip0_785_12355)">
<path d="M17.25 13.125C16.6277 13.125 16.125 13.6277 16.125 14.25V27.75C16.125 28.3723 16.6277 28.875 17.25 28.875H26.25C26.8723 28.875 27.375 28.3723 27.375 27.75V14.25C27.375 13.6277 26.8723 13.125 26.25 13.125H17.25ZM15 14.25C15 13.009 16.009 12 17.25 12H26.25C27.491 12 28.5 13.009 28.5 14.25V27.75C28.5 28.991 27.491 30 26.25 30H17.25C16.009 30 15 28.991 15 27.75V14.25ZM17.8125 16.5H25.6875C25.9969 16.5 26.25 16.7531 26.25 17.0625C26.25 17.3719 25.9969 17.625 25.6875 17.625H17.8125C17.5031 17.625 17.25 17.3719 17.25 17.0625C17.25 16.7531 17.5031 16.5 17.8125 16.5ZM17.8125 19.875H25.6875C25.9969 19.875 26.25 20.1281 26.25 20.4375C26.25 20.7469 25.9969 21 25.6875 21H17.8125C17.5031 21 17.25 20.7469 17.25 20.4375C17.25 20.1281 17.5031 19.875 17.8125 19.875ZM17.8125 23.25H22.3125C22.6219 23.25 22.875 23.5031 22.875 23.8125C22.875 24.1219 22.6219 24.375 22.3125 24.375H17.8125C17.5031 24.375 17.25 24.1219 17.25 23.8125C17.25 23.5031 17.5031 23.25 17.8125 23.25Z" fill="white"/>
</g>
<defs>
<clipPath id="clip0_785_12355">
<rect width="13.5" height="18" fill="white" transform="translate(15 12)"/>
</clipPath>
</defs>
</svg>
