<svg width="40" height="38" viewBox="0 0 40 38" fill="none" xmlns="http://www.w3.org/2000/svg">
<path d="M10.3304 17.791C10.1205 17.9919 10 18.2732 10 18.5678C10 18.8624 10.1205 19.1392 10.3304 19.3446L18.1875 26.8446C18.6161 27.2553 19.2946 27.2374 19.7009 26.8089C20.1071 26.3803 20.0938 25.7017 19.6652 25.2955L13.7455 19.6392L28.9286 19.6392C29.5223 19.6392 30 19.1615 30 18.5678C30 17.974 29.5223 17.4964 28.9286 17.4964L13.7455 17.4964L19.6696 11.8446C20.0982 11.4339 20.1116 10.7598 19.7054 10.3312C19.2991 9.90262 18.6205 9.88922 18.192 10.2955L10.3348 17.7955L10.3304 17.791Z" fill="#0261AE"/>
</svg>
