<svg width="60" height="60" viewBox="0 0 60 60" fill="none" xmlns="http://www.w3.org/2000/svg">
<rect width="60" height="60" rx="30" fill="#0261AE"/>
<g clip-path="url(#clip0_785_12596)">
<path d="M35.6156 30.9004C34.8469 30.5723 33.9563 30.7879 33.4266 31.4348L31.8703 33.3379C29.7141 32.0864 27.9141 30.2864 26.6625 28.1301L28.5609 26.5786C29.2078 26.0489 29.4281 25.1583 29.0953 24.3895L26.8453 19.1395C26.4937 18.3145 25.6078 17.8551 24.7313 18.0426L19.4813 19.1676C18.6188 19.3504 18 20.1145 18 21.0004C18 32.0958 26.6016 41.1801 37.5 41.9489C37.7109 41.9629 37.9266 41.977 38.1422 41.9864C38.1422 41.9864 38.1422 41.9864 38.1469 41.9864C38.4328 41.9958 38.7141 42.0051 39.0047 42.0051C39.8906 42.0051 40.6547 41.3864 40.8375 40.5239L41.9625 35.2739C42.15 34.3973 41.6906 33.5114 40.8656 33.1598L35.6156 30.9098V30.9004ZM38.9859 40.5004C28.2234 40.4911 19.5 31.7676 19.5 21.0004C19.5 20.8223 19.6219 20.6723 19.7953 20.6348L25.0453 19.5098C25.2188 19.4723 25.3969 19.5661 25.4672 19.7301L27.7172 24.9801C27.7828 25.1348 27.7406 25.3129 27.6094 25.4161L25.7062 26.9723C25.1391 27.4364 24.9891 28.2473 25.3594 28.8848C26.7422 31.2708 28.7297 33.2583 31.1109 34.6364C31.7484 35.0067 32.5594 34.8567 33.0234 34.2895L34.5797 32.3864C34.6875 32.2551 34.8656 32.2129 35.0156 32.2786L40.2656 34.5286C40.4297 34.5989 40.5234 34.777 40.4859 34.9504L39.3609 40.2004C39.3234 40.3739 39.1687 40.4958 38.9953 40.4958C38.9906 40.4958 38.9859 40.4958 38.9813 40.4958L38.9859 40.5004Z" fill="white"/>
</g>
<defs>
<clipPath id="clip0_785_12596">
<rect width="24" height="24" fill="white" transform="translate(18 18)"/>
</clipPath>
</defs>
</svg>
