<svg width="23" height="24" viewBox="0 0 23 24" fill="none" xmlns="http://www.w3.org/2000/svg">
<circle cx="11.5" cy="12.4326" r="11" stroke="#8E8E8E"/>
<g clip-path="url(#clip0_785_12399)">
<path d="M11.0922 17.0092C11.1976 17.1193 11.3453 17.1826 11.5 17.1826C11.6547 17.1826 11.8 17.1193 11.9078 17.0092L15.8453 12.8842C16.0609 12.6592 16.0515 12.3029 15.8265 12.0896C15.6015 11.8764 15.2453 11.8834 15.032 12.1084L12.0625 15.2162V7.24512C12.0625 6.9334 11.8117 6.68262 11.5 6.68262C11.1883 6.68262 10.9375 6.9334 10.9375 7.24512V15.2162L7.9703 12.1061C7.75467 11.8811 7.40076 11.874 7.17576 12.0873C6.95076 12.3006 6.94373 12.6568 7.15701 12.8818L11.0945 17.0068L11.0922 17.0092Z" fill="#8E8E8E"/>
</g>
<defs>
<clipPath id="clip0_785_12399">
<rect width="9" height="12" fill="white" transform="translate(7 5.93262)"/>
</clipPath>
</defs>
</svg>
