<svg width="16" height="16" viewBox="0 0 16 16" fill="none" xmlns="http://www.w3.org/2000/svg">
<g clip-path="url(#clip0_1328_14407)">
<path d="M1.13753 11.2781L0.418778 13.7187L0.0312776 15.0375C-0.0468474 15.3031 0.0250276 15.5875 0.218778 15.7812C0.412528 15.975 0.696903 16.0469 0.959403 15.9719L2.28128 15.5812L4.7219 14.8625C5.1094 14.75 5.46253 14.5531 5.76565 14.2875C5.8094 14.25 5.85003 14.2094 5.89065 14.1687L15.3969 4.66562C16.0813 3.98124 16.1657 2.92812 15.6532 2.14999C15.5813 2.04062 15.4938 1.93437 15.3969 1.83749L14.1657 0.603119C13.3844 -0.178131 12.1188 -0.178131 11.3375 0.603119L1.83128 10.1094C1.50628 10.4344 1.26878 10.8375 1.13753 11.2781ZM2.57503 11.7C2.62815 11.525 2.71565 11.3625 2.83753 11.225C2.85628 11.2062 2.8719 11.1875 2.89065 11.1687L10.0313 4.03124L11.9688 5.96874L4.83128 13.1094C4.6844 13.2562 4.50003 13.3656 4.30003 13.425L3.56878 13.6406L1.85628 14.1437L2.3594 12.4312L2.57503 11.7Z" fill="#070707" fill-opacity="0.5"/>
</g>
<defs>
<clipPath id="clip0_1328_14407">
<rect width="16" height="16" fill="white"/>
</clipPath>
</defs>
</svg>
