<svg width="16" height="18" viewBox="0 0 16 18" fill="none" xmlns="http://www.w3.org/2000/svg">
<path d="M8.4157 17.7027C8.2349 17.8915 7.98178 18 7.7166 18C7.45142 18 7.20231 17.8915 7.01749 17.7027L0.267489 10.6313C-0.102153 10.2455 -0.0860825 9.63482 0.299632 9.2692C0.685347 8.90357 1.29606 8.91562 1.66169 9.30134L6.75231 14.629L6.75231 0.964286C6.75231 0.429911 7.18222 0 7.7166 0C8.25097 0 8.68088 0.429911 8.68088 0.964286V14.629L13.7675 9.29732C14.1371 8.91161 14.7438 8.89955 15.1295 9.26518C15.5153 9.6308 15.5273 10.2415 15.1617 10.6272L8.41169 17.6987L8.4157 17.7027Z" fill="#070707"/>
</svg>
