<svg width="60" height="60" viewBox="0 0 60 60" fill="none" xmlns="http://www.w3.org/2000/svg">
<rect width="60" height="60" rx="30" fill="white"/>
<path d="M29.2201 39.6696C29.421 39.8795 29.7023 40 29.9969 40C30.2915 40 30.5683 39.8795 30.7737 39.6696L38.2737 31.8125C38.6844 31.3839 38.6665 30.7054 38.238 30.2991C37.8094 29.8929 37.1308 29.9062 36.7246 30.3348L31.0683 36.2545V21.0714C31.0683 20.4777 30.5907 20 29.9969 20C29.4032 20 28.9255 20.4777 28.9255 21.0714V36.2545L23.2737 30.3304C22.863 29.9018 22.1889 29.8884 21.7603 30.2946C21.3317 30.7009 21.3183 31.3795 21.7246 31.808L29.2246 39.6652L29.2201 39.6696Z" fill="#0261AE"/>
</svg>
