<svg width="24" height="18" viewBox="0 0 24 18" fill="none" xmlns="http://www.w3.org/2000/svg">
<g clip-path="url(#clip0_295_1849)">
<path d="M1.875 6.1875C1.875 3.55781 4.46602 1.125 8.0625 1.125C11.659 1.125 14.25 3.55781 14.25 6.1875C14.25 8.81719 11.659 11.25 8.0625 11.25C7.52461 11.25 6.98672 11.1832 6.43477 11.0742C6.31172 11.0496 6.18516 11.0672 6.07617 11.1234C5.86172 11.2324 5.6543 11.3344 5.44336 11.4293C4.44492 11.8828 3.32695 12.2414 2.22656 12.3434C2.75039 11.6754 3.16875 10.9477 3.54844 10.2375C3.66445 10.023 3.6293 9.75938 3.46055 9.58359C2.50781 8.58516 1.875 7.4918 1.875 6.1875ZM8.0625 0C4.02305 0 0.75 2.77383 0.75 6.1875C0.75 7.74141 1.44609 9.00352 2.36719 10.0547C1.95586 10.793 1.52344 11.482 0.978516 12.0762L0.975 12.0797C0.746484 12.3258 0.686719 12.6809 0.820312 12.9867C0.953906 13.2996 1.25625 13.5 1.59375 13.5C3.10547 13.5 4.63477 13.0324 5.90742 12.4559C6.07969 12.3785 6.24492 12.2977 6.41016 12.2168C6.94805 12.3152 7.49648 12.3785 8.0625 12.3785C12.102 12.3785 15.375 9.60469 15.375 6.19102C15.375 2.77734 12.102 0 8.0625 0ZM16.4789 5.64258C19.7906 5.87109 22.125 8.19141 22.125 10.6875C22.125 11.9918 21.4922 13.0852 20.5395 14.0836C20.3707 14.2594 20.3355 14.523 20.4516 14.7375C20.8348 15.4477 21.2496 16.1719 21.7734 16.8434C20.673 16.7379 19.5516 16.3793 18.5566 15.9293C18.3457 15.8344 18.1383 15.7324 17.9238 15.6234C17.8113 15.5672 17.6848 15.5496 17.5652 15.5742C17.0168 15.6832 16.4789 15.75 15.9375 15.75C13.5398 15.75 11.5922 14.6707 10.5551 13.173C10.1684 13.2785 9.77109 13.3559 9.3668 13.4121C10.5586 15.4617 13.0512 16.875 15.9375 16.875C16.5035 16.875 17.052 16.8117 17.5898 16.7133C17.7516 16.7941 17.9203 16.875 18.0926 16.9523C19.3652 17.5324 20.8945 18 22.4062 18C22.7437 18 23.0461 17.7996 23.1797 17.4902C23.3133 17.1844 23.25 16.8258 23.025 16.5832L23.0215 16.5797C22.4766 15.982 22.0441 15.2965 21.6328 14.5582C22.5539 13.507 23.25 12.2449 23.25 10.691C23.25 7.37227 20.1633 4.66172 16.282 4.51055C16.3805 4.87617 16.4473 5.25586 16.4789 5.64609V5.64258Z" fill="#231F20"/>
</g>
<defs>
<clipPath id="clip0_295_1849">
<rect width="22.5" height="18" fill="white" transform="translate(0.75)"/>
</clipPath>
</defs>
</svg>
