<svg width="60" height="60" viewBox="0 0 60 60" fill="none" xmlns="http://www.w3.org/2000/svg">
<rect width="60" height="60" rx="30" fill="#9BC77E"/>
<path d="M21 22.5C20.1703 22.5 19.5 23.1703 19.5 24V25.8703L28.6688 32.5922C29.4609 33.1734 30.5391 33.1734 31.3312 32.5922L40.5 25.8703V24C40.5 23.1703 39.8297 22.5 39 22.5H21ZM19.5 27.7313V36C19.5 36.8297 20.1703 37.5 21 37.5H39C39.8297 37.5 40.5 36.8297 40.5 36V27.7313L32.2172 33.8016C30.8953 34.7672 29.1 34.7672 27.7828 33.8016L19.5 27.7313ZM18 24C18 22.3453 19.3453 21 21 21H39C40.6547 21 42 22.3453 42 24V36C42 37.6547 40.6547 39 39 39H21C19.3453 39 18 37.6547 18 36V24Z" fill="white"/>
</svg>
