<svg width="12" height="10" viewBox="0 0 12 10" fill="none" xmlns="http://www.w3.org/2000/svg">
<path d="M11.6375 5.44565C11.7573 5.33101 11.8261 5.17051 11.8261 5.00237C11.8261 4.83423 11.7573 4.67628 11.6375 4.5591L7.15385 0.279206C6.90929 0.044831 6.52206 0.055021 6.29023 0.299586C6.05841 0.544151 6.06605 0.931379 6.31061 1.16321L9.68867 4.39096L1.02444 4.39096C0.685613 4.39096 0.413025 4.66355 0.413025 5.00237C0.413025 5.3412 0.685613 5.61379 1.02444 5.61379L9.68867 5.61378L6.30807 8.83899C6.0635 9.07336 6.05586 9.45804 6.28769 9.70261C6.51951 9.94717 6.90674 9.95482 7.15131 9.72299L11.635 5.4431L11.6375 5.44565Z" fill="url(#paint0_linear_1079_7173)"/>
<defs>
<linearGradient id="paint0_linear_1079_7173" x1="1.30467" y1="7.90464" x2="9.87323" y2="0.684373" gradientUnits="userSpaceOnUse">
<stop stop-color="#0261AE"/>
<stop offset="1" stop-color="#A0CB7C"/>
</linearGradient>
</defs>
</svg>
