<svg width="18" height="20" viewBox="0 0 18 20" fill="none" xmlns="http://www.w3.org/2000/svg">
<g clip-path="url(#clip0_295_1847)">
<path d="M7.5625 0.5625C7.5625 0.253125 7.81563 0 8.125 0C8.43437 0 8.6875 0.253125 8.6875 0.5625C8.6875 0.897695 8.94308 1.17418 9.27134 1.24199C11.8295 1.77042 13.75 4.03499 13.75 6.75V7.77305C13.75 9.30937 14.3617 10.7824 15.448 11.8723L15.5465 11.9707C15.8383 12.2625 16.0035 12.6598 16.0035 13.0711C16.0035 13.9324 15.3074 14.6285 14.4461 14.6285H1.80742C0.946094 14.625 0.25 13.9289 0.25 13.0676C0.25 12.6562 0.415234 12.259 0.707031 11.9672L0.805469 11.8688C1.88828 10.7824 2.5 9.30937 2.5 7.77305V6.75C2.5 4.03499 4.4205 1.77042 6.97866 1.24199C7.30692 1.17418 7.5625 0.897695 7.5625 0.5625ZM8.125 2.25C5.63945 2.25 3.625 4.26445 3.625 6.75V7.77305C3.625 9.6082 2.89727 11.3695 1.59648 12.6668L1.50156 12.7617C1.4207 12.8426 1.375 12.9516 1.375 13.0676C1.375 13.3066 1.56836 13.5 1.80742 13.5H14.4426C14.6816 13.5 14.875 13.3066 14.875 13.0676C14.875 12.9516 14.8293 12.8426 14.7484 12.7617L14.65 12.6633C13.3527 11.366 12.6215 9.60469 12.6215 7.76953V6.75C12.6215 4.26445 10.607 2.25 8.12148 2.25H8.125ZM7.06328 16.1262C7.21797 16.5621 7.63633 16.875 8.125 16.875C8.61367 16.875 9.03203 16.5621 9.18672 16.1262C9.28867 15.8344 9.61211 15.6797 9.90391 15.7816C10.1957 15.8836 10.3504 16.207 10.2484 16.4988C9.93906 17.3742 9.10586 18 8.125 18C7.14414 18 6.31094 17.3742 6.00156 16.4988C5.89961 16.207 6.05078 15.8836 6.34609 15.7816C6.64141 15.6797 6.96133 15.8309 7.06328 16.1262Z" fill="#231F20"/>
</g>
<defs>
<clipPath id="clip0_295_1847">
<rect width="17.5" height="20" fill="white" transform="translate(0.25)"/>
</clipPath>
</defs>
</svg>
