<svg width="18" height="20" viewBox="0 0 18 20" fill="none" xmlns="http://www.w3.org/2000/svg">
<path d="M12.75 5C12.75 4.50754 12.653 4.01991 12.4645 3.56494C12.2761 3.10997 11.9999 2.69657 11.6517 2.34835C11.3034 2.00013 10.89 1.72391 10.4351 1.53545C9.98009 1.347 9.49246 1.25 9 1.25C8.50754 1.25 8.01991 1.347 7.56494 1.53545C7.10997 1.72391 6.69657 2.00013 6.34835 2.34835C6.00013 2.69657 5.72391 3.10997 5.53545 3.56494C5.347 4.01991 5.25 4.50754 5.25 5C5.25 5.49246 5.347 5.98009 5.53545 6.43506C5.72391 6.89003 6.00013 7.30343 6.34835 7.65165C6.69657 7.99987 7.10997 8.27609 7.56494 8.46455C8.01991 8.653 8.50754 8.75 9 8.75C9.49246 8.75 9.98009 8.653 10.4351 8.46455C10.89 8.27609 11.3034 7.99987 11.6517 7.65165C11.9999 7.30343 12.2761 6.89003 12.4645 6.43506C12.653 5.98009 12.75 5.49246 12.75 5ZM4 5C4 3.67392 4.52678 2.40215 5.46447 1.46447C6.40215 0.526784 7.67392 0 9 0C10.3261 0 11.5979 0.526784 12.5355 1.46447C13.4732 2.40215 14 3.67392 14 5C14 6.32608 13.4732 7.59785 12.5355 8.53553C11.5979 9.47322 10.3261 10 9 10C7.67392 10 6.40215 9.47322 5.46447 8.53553C4.52678 7.59785 4 6.32608 4 5ZM1.5 18.75H16.5C16.4531 15.6367 13.9141 13.125 10.7852 13.125H7.21484C4.08984 13.125 1.55078 15.6367 1.5 18.75ZM0.25 18.8398C0.25 14.9922 3.36719 11.875 7.21484 11.875H10.7852C14.6328 11.875 17.75 14.9922 17.75 18.8398C17.75 19.4805 17.2305 20 16.5898 20H1.41016C0.769531 20 0.25 19.4805 0.25 18.8398Z" fill="black"/>
</svg>
