<svg width="23" height="16" viewBox="0 0 23 16" fill="none" xmlns="http://www.w3.org/2000/svg">
<path d="M10.8 1.32734L1.67344 4.625L4.275 5.56367C4.63711 5.32109 5.03086 5.1207 5.44922 4.9625L11.0531 2.86016C11.3449 2.75117 11.6684 2.89883 11.7773 3.19062C11.8863 3.48242 11.7387 3.80586 11.4469 3.91484L5.84297 6.01719C5.79023 6.03477 5.74102 6.05586 5.6918 6.07695L10.8 7.92266C10.9441 7.97539 11.0953 8 11.25 8C11.4047 8 11.5559 7.97188 11.7 7.92266L20.8266 4.625L11.7 1.32734C11.5559 1.27461 11.4047 1.25 11.25 1.25C11.0953 1.25 10.9441 1.27812 10.8 1.32734ZM10.4168 8.98086L4.46133 6.8293C3.49453 7.64844 2.88633 8.84023 2.81953 10.141C3.02695 10.6051 3.17812 11.1078 3.29062 11.6C3.51562 12.5703 3.6668 13.9168 3.36445 15.4215C3.33281 15.5727 3.24492 15.7027 3.11484 15.7871C2.98477 15.8715 2.82656 15.8961 2.67891 15.8574L0.428906 15.2949C0.246094 15.2492 0.0984375 15.1156 0.0351562 14.9363C-0.028125 14.757 0.00351562 14.5602 0.116016 14.4125C0.418359 14.0012 0.678516 13.5477 0.907031 13.0906C1.30781 12.282 1.6875 11.2484 1.6875 10.25C1.6875 10.2289 1.6875 10.2078 1.69102 10.1867C1.74023 8.74531 2.32383 7.40586 3.27656 6.40039L0.555469 5.41953C0.221484 5.29648 0 4.98008 0 4.625C0 4.26992 0.221484 3.95352 0.555469 3.83047L10.4168 0.269141C10.684 0.174219 10.9652 0.125 11.25 0.125C11.5348 0.125 11.816 0.174219 12.0832 0.269141L21.9445 3.83047C22.2785 3.95 22.5 4.26992 22.5 4.625C22.5 4.98008 22.2785 5.29648 21.9445 5.41953L12.0832 8.98086C11.816 9.07578 11.5348 9.125 11.25 9.125C10.9652 9.125 10.684 9.07578 10.4168 8.98086ZM6.12773 8.6293L5.63906 13.284C5.66367 13.3121 5.70234 13.3578 5.76914 13.4141C5.98008 13.5969 6.34922 13.8184 6.89062 14.0293C7.95937 14.4477 9.50273 14.75 11.25 14.75C12.9973 14.75 14.5406 14.4477 15.6129 14.0258C16.1543 13.8148 16.5199 13.5934 16.7344 13.4105C16.8012 13.3543 16.8398 13.3121 16.8645 13.2805L16.3723 8.62578L17.4621 8.23203L18 13.3438C18 14.5848 14.9766 15.875 11.25 15.875C7.52344 15.875 4.5 14.5848 4.5 13.3438L5.03789 8.23203L6.12773 8.62578V8.6293ZM16.8926 13.2383C16.8937 13.2375 16.8945 13.2365 16.8951 13.2353C16.8956 13.2341 16.8958 13.2328 16.8956 13.2315C16.8955 13.2302 16.8949 13.229 16.8941 13.228C16.8932 13.2269 16.8921 13.2262 16.8909 13.2258C16.8896 13.2254 16.8883 13.2253 16.887 13.2256C16.8857 13.2259 16.8846 13.2266 16.8837 13.2275C16.8827 13.2284 16.8821 13.2296 16.8818 13.2309C16.8815 13.2322 16.8816 13.2335 16.882 13.2348C16.8809 13.2355 16.8801 13.2365 16.8795 13.2377C16.879 13.2389 16.8788 13.2402 16.879 13.2415C16.8792 13.2429 16.8797 13.2441 16.8805 13.2451C16.8814 13.2461 16.8825 13.2469 16.8837 13.2473C16.885 13.2477 16.8863 13.2478 16.8876 13.2474C16.8889 13.2471 16.89 13.2465 16.891 13.2455C16.8919 13.2446 16.8925 13.2434 16.8928 13.2421C16.8931 13.2409 16.893 13.2395 16.8926 13.2383ZM5.60742 13.2383C5.60742 13.2392 5.60779 13.2401 5.60845 13.2408C5.60911 13.2414 5.61001 13.2418 5.61094 13.2418C5.61187 13.2418 5.61276 13.2414 5.61342 13.2408C5.61408 13.2401 5.61445 13.2392 5.61445 13.2383C5.61445 13.2373 5.61408 13.2365 5.61342 13.2358C5.61276 13.2351 5.61187 13.2348 5.61094 13.2348C5.61001 13.2348 5.60911 13.2351 5.60845 13.2358C5.60779 13.2365 5.60742 13.2373 5.60742 13.2383ZM2.35547 14.6164C2.44336 13.8887 2.41523 13.2102 2.33789 12.623C2.2043 12.9746 2.05664 13.3016 1.9125 13.5934C1.77891 13.8605 1.63477 14.1277 1.47305 14.3949L2.35547 14.6164Z" fill="#231F20"/>
</svg>
