<svg width="21" height="21" viewBox="0 0 21 21" fill="none" xmlns="http://www.w3.org/2000/svg">
<g clip-path="url(#clip0_520_21798)">
<path d="M6.895 11.581L3.11123 9.2226L13.1286 7.76366L6.895 11.581ZM7.62941 12.7803L13.863 8.9629L8.01032 17.2226L7.62691 12.7818L7.62941 12.7803ZM1.64367 8.01543C1.25527 8.0712 0.941401 8.36647 0.859956 8.74958C0.778511 9.13269 0.949426 9.52959 1.28293 9.7376L6.22036 12.8187L6.72058 18.617C6.75428 19.0086 7.02859 19.3388 7.40839 19.4429C7.78819 19.5469 8.18983 19.4006 8.42008 19.081L16.6754 7.42955C16.8937 7.12408 16.9061 6.71799 16.7103 6.39819C16.5145 6.07839 16.1471 5.90485 15.7758 5.96047L1.6452 8.01792L1.64367 8.01543Z" fill="black"/>
</g>
<defs>
<clipPath id="clip0_520_21798">
<rect width="15" height="15" fill="white" transform="translate(0 7.83203) rotate(-31.4828)"/>
</clipPath>
</defs>
</svg>
