<svg width="21" height="18" viewBox="0 0 21 18" fill="none" xmlns="http://www.w3.org/2000/svg">
<g clip-path="url(#clip0_295_1851)">
<path d="M10.625 1.125C6.48008 1.125 4.47969 2.46797 3.91719 3.16406C3.90312 3.18164 3.875 3.23086 3.875 3.34336V4.5H17.375V3.34687C17.375 3.23789 17.3469 3.17461 17.3293 3.15C16.809 2.46445 15.0828 1.125 10.625 1.125ZM3.875 9H10.0625V5.625H3.875V9ZM11.1875 9H17.375V5.625H11.1875V9ZM3.875 13.5C3.875 14.1223 4.37773 14.625 5 14.625H13.4094H16.25C16.8723 14.625 17.375 14.1223 17.375 13.5V10.125H3.875V13.5ZM3.0418 2.45742C3.89258 1.40977 6.27266 0 10.625 0C15.2867 0 17.4172 1.40625 18.2258 2.46797C18.4367 2.7457 18.5 3.07266 18.5 3.34687V13.5C18.5 14.3332 18.0465 15.0609 17.375 15.4477V17.4375C17.375 17.7469 17.1219 18 16.8125 18C16.5031 18 16.25 17.7469 16.25 17.4375V15.75H13.4094H5V17.4375C5 17.7469 4.74687 18 4.4375 18C4.12812 18 3.875 17.7469 3.875 17.4375V15.4477C3.20352 15.0609 2.75 14.3332 2.75 13.5V3.34687C2.75 3.07617 2.81328 2.74219 3.0418 2.45742ZM5.28125 12.375C5.28125 12.1512 5.37014 11.9366 5.52838 11.7784C5.68661 11.6201 5.90122 11.5312 6.125 11.5312C6.34878 11.5312 6.56339 11.6201 6.72162 11.7784C6.87986 11.9366 6.96875 12.1512 6.96875 12.375C6.96875 12.5988 6.87986 12.8134 6.72162 12.9716C6.56339 13.1299 6.34878 13.2188 6.125 13.2188C5.90122 13.2188 5.68661 13.1299 5.52838 12.9716C5.37014 12.8134 5.28125 12.5988 5.28125 12.375ZM15.125 11.5312C15.3488 11.5312 15.5634 11.6201 15.7216 11.7784C15.8799 11.9366 15.9688 12.1512 15.9688 12.375C15.9688 12.5988 15.8799 12.8134 15.7216 12.9716C15.5634 13.1299 15.3488 13.2188 15.125 13.2188C14.9012 13.2188 14.6866 13.1299 14.5284 12.9716C14.3701 12.8134 14.2812 12.5988 14.2812 12.375C14.2812 12.1512 14.3701 11.9366 14.5284 11.7784C14.6866 11.6201 14.9012 11.5312 15.125 11.5312ZM8.9375 2.25H12.3125C12.6219 2.25 12.875 2.50312 12.875 2.8125C12.875 3.12188 12.6219 3.375 12.3125 3.375H8.9375C8.62813 3.375 8.375 3.12188 8.375 2.8125C8.375 2.50312 8.62813 2.25 8.9375 2.25ZM1.625 5.0625V8.4375C1.625 8.74687 1.37187 9 1.0625 9C0.753125 9 0.5 8.74687 0.5 8.4375V5.0625C0.5 4.75313 0.753125 4.5 1.0625 4.5C1.37187 4.5 1.625 4.75313 1.625 5.0625ZM20.75 5.0625V8.4375C20.75 8.74687 20.4969 9 20.1875 9C19.8781 9 19.625 8.74687 19.625 8.4375V5.0625C19.625 4.75313 19.8781 4.5 20.1875 4.5C20.4969 4.5 20.75 4.75313 20.75 5.0625Z" fill="#231F20"/>
</g>
<defs>
<clipPath id="clip0_295_1851">
<rect width="20.25" height="18" fill="white" transform="translate(0.5)"/>
</clipPath>
</defs>
</svg>
